M48
; DRILL file {KiCad 7.0.11+dfsg-1} date Wed 20 Mar 2024 08:27:10 PM EDT
; FORMAT={-:-/ absolute / metric / decimal}
; #@! TF.CreationDate,2024-03-20T20:27:10-04:00
; #@! TF.GenerationSoftware,Kicad,Pcbnew,7.0.11+dfsg-1
; #@! TF.FileFunction,Plated,1,2,PTH
FMAT,2
METRIC
; #@! TA.AperFunction,Plated,PTH,ViaDrill
T1C0.300
; #@! TA.AperFunction,Plated,PTH,ViaDrill
T2C0.406
; #@! TA.AperFunction,Plated,PTH,ComponentDrill
T3C0.800
; #@! TA.AperFunction,Plated,PTH,ComponentDrill
T4C0.813
; #@! TA.AperFunction,Plated,PTH,ComponentDrill
T5C1.000
; #@! TA.AperFunction,Plated,PTH,ComponentDrill
T6C1.598
%
G90
G05
T1
X80.01Y-63.5
X80.01Y-106.68
X81.28Y-96.52
X85.09Y-80.01
X88.9Y-93.98
X93.98Y-101.6
X115.57Y-102.87
X118.11Y-104.14
X120.65Y-95.25
X120.65Y-101.6
X121.92Y-97.79
X123.19Y-100.33
X125.73Y-101.6
X128.27Y-100.33
X137.16Y-92.71
X137.16Y-97.79
X144.78Y-99.06
X149.86Y-63.5
X151.13Y-92.71
X154.94Y-80.01
X158.75Y-90.17
X163.83Y-93.98
X166.37Y-97.79
X177.8Y-97.79
X182.88Y-83.82
X182.88Y-93.98
X187.96Y-105.41
X191.77Y-100.33
X191.77Y-105.41
X193.04Y-83.82
X193.04Y-95.25
X193.957Y-98.019
X194.31Y-102.87
X195.58Y-81.28
X201.93Y-92.71
T2
X129.54Y-99.06
X133.35Y-99.06
X182.88Y-102.87
T3
X93.98Y-49.53
X101.6Y-49.53
X110.49Y-82.55
X110.49Y-85.09
X110.49Y-87.63
X110.49Y-90.17
X110.49Y-92.71
X110.49Y-95.25
X110.49Y-97.79
X110.49Y-100.33
X118.11Y-82.55
X118.11Y-85.09
X118.11Y-87.63
X118.11Y-90.17
X118.11Y-92.71
X118.11Y-95.25
X118.11Y-97.79
X118.11Y-100.33
X129.54Y-49.53
X137.16Y-49.53
X163.83Y-49.53
X171.45Y-49.53
X180.35Y-82.565
X180.35Y-85.105
X180.35Y-87.645
X180.35Y-90.185
X180.35Y-92.725
X180.35Y-95.265
X180.35Y-97.805
X180.35Y-100.345
X187.97Y-82.565
X187.97Y-85.105
X187.97Y-87.645
X187.97Y-90.185
X187.97Y-92.725
X187.97Y-95.265
X187.97Y-97.805
X187.97Y-100.345
X198.12Y-49.53
X205.74Y-49.53
T4
X85.09Y-88.19
X85.09Y-95.81
X87.63Y-88.19
X87.63Y-95.81
X90.17Y-88.19
X90.17Y-95.81
X92.71Y-88.19
X92.71Y-95.81
X95.25Y-88.19
X95.25Y-95.81
X97.79Y-88.19
X97.79Y-95.81
X100.33Y-88.19
X100.33Y-95.81
X102.87Y-88.19
X102.87Y-95.81
X128.27Y-87.19
X128.27Y-94.81
X130.81Y-87.19
X130.81Y-94.81
X133.35Y-87.19
X133.35Y-94.81
X135.89Y-87.19
X135.89Y-94.81
X138.43Y-87.19
X138.43Y-94.81
X140.97Y-87.19
X140.97Y-94.81
X143.51Y-87.19
X143.51Y-94.81
X146.05Y-87.19
X146.05Y-94.81
X156.21Y-87.63
X156.21Y-95.25
X158.75Y-87.63
X158.75Y-95.25
X161.29Y-87.63
X161.29Y-95.25
X163.83Y-87.63
X163.83Y-95.25
X166.37Y-87.63
X166.37Y-95.25
X168.91Y-87.63
X168.91Y-95.25
X171.45Y-87.63
X171.45Y-95.25
X173.99Y-87.63
X173.99Y-95.25
X196.85Y-87.19
X196.85Y-94.81
X199.39Y-87.19
X199.39Y-94.81
X201.93Y-87.19
X201.93Y-94.81
X204.47Y-87.19
X204.47Y-94.81
X207.01Y-87.19
X207.01Y-94.81
X209.55Y-87.19
X209.55Y-94.81
X212.09Y-87.19
X212.09Y-94.81
X214.63Y-87.19
X214.63Y-94.81
T5
X49.53Y-107.95
X52.07Y-107.95
X54.61Y-107.95
X57.15Y-107.95
X59.69Y-107.95
X62.23Y-107.95
X64.77Y-107.95
X67.31Y-107.95
X77.47Y-55.88
X77.47Y-58.42
X77.47Y-77.47
X77.47Y-80.01
X77.47Y-82.55
X209.55Y-107.95
X212.09Y-107.95
X214.63Y-107.95
X217.17Y-107.95
X219.71Y-107.95
X222.25Y-107.95
X224.79Y-107.95
X227.33Y-107.95
T6
X88.27Y-69.921
X88.498Y-66.103
X89.629Y-73.482
X90.424Y-62.723
X92.288Y-76.139
X93.413Y-60.488
X95.844Y-77.594
X97.145Y-59.703
X100.911Y-60.47
X101.998Y-76.2
X103.992Y-62.794
X104.752Y-73.513
X105.806Y-66.116
X106.083Y-69.891
X123.434Y-69.921
X123.662Y-66.103
X124.793Y-73.482
X125.588Y-62.723
X127.452Y-76.139
X128.577Y-60.488
X131.008Y-77.594
X132.309Y-59.703
X136.075Y-60.47
X137.163Y-76.2
X139.156Y-62.794
X139.916Y-73.513
X140.97Y-66.116
X141.247Y-69.891
X158.704Y-69.931
X158.933Y-66.114
X160.063Y-73.492
X160.858Y-62.733
X162.723Y-76.149
X163.848Y-60.498
X166.279Y-77.605
X167.579Y-59.713
X171.346Y-60.48
X172.433Y-76.21
X174.427Y-62.804
X175.186Y-73.523
X176.24Y-66.126
X176.517Y-69.901
X192.994Y-69.931
X193.223Y-66.114
X194.353Y-73.492
X195.148Y-62.733
X197.013Y-76.149
X198.138Y-60.498
X200.569Y-77.605
X201.869Y-59.713
X205.636Y-60.48
X206.723Y-76.21
X208.717Y-62.804
X209.476Y-73.523
X210.53Y-66.126
X210.807Y-69.901
M30
