M48
; DRILL file {KiCad 7.0.11+dfsg-1} date Wed 20 Mar 2024 08:25:10 PM EDT
; FORMAT={-:-/ absolute / metric / decimal}
; #@! TF.CreationDate,2024-03-20T20:25:10-04:00
; #@! TF.GenerationSoftware,Kicad,Pcbnew,7.0.11+dfsg-1
; #@! TF.FileFunction,Plated,1,2,PTH
FMAT,2
METRIC
; #@! TA.AperFunction,Plated,PTH,ViaDrill
T1C0.300
; #@! TA.AperFunction,Plated,PTH,ViaDrill
T2C0.406
; #@! TA.AperFunction,Plated,PTH,ComponentDrill
T3C0.800
; #@! TA.AperFunction,Plated,PTH,ComponentDrill
T4C1.000
; #@! TA.AperFunction,Plated,PTH,ComponentDrill
T5C1.016
%
G90
G05
T1
X82.55Y-91.44
T2
X60.96Y-73.66
X64.77Y-72.39
X64.77Y-96.52
X67.31Y-69.85
X67.31Y-73.66
X69.85Y-83.82
X71.12Y-81.28
T3
X102.87Y-111.76
X102.87Y-119.38
X114.3Y-111.76
X114.3Y-119.38
X125.73Y-111.76
X125.73Y-119.38
T4
X53.34Y-66.04
X55.88Y-66.04
X55.88Y-76.2
X55.88Y-78.74
X57.15Y-120.65
X58.42Y-66.04
X59.69Y-120.65
X60.96Y-66.04
X62.23Y-120.65
X63.5Y-66.04
X64.77Y-120.65
X66.04Y-66.04
X67.31Y-120.65
X68.58Y-66.04
X69.85Y-120.65
X71.12Y-66.04
X77.47Y-86.36
X80.01Y-86.36
X82.55Y-86.36
X85.09Y-86.36
X87.63Y-86.36
X90.17Y-86.36
X102.87Y-123.19
X105.41Y-123.19
X114.3Y-123.19
X116.84Y-123.19
X125.73Y-123.19
X128.27Y-123.19
X213.36Y-66.04
X215.9Y-66.04
X218.44Y-66.04
X220.98Y-66.04
X223.52Y-66.04
X226.06Y-66.04
X228.6Y-66.04
X231.14Y-66.04
T5
X55.88Y-86.36
X55.88Y-88.9
X55.88Y-91.44
X55.88Y-93.98
X55.88Y-96.52
X55.88Y-99.06
X55.88Y-101.6
X55.88Y-104.14
X55.88Y-106.68
X55.88Y-109.22
X55.88Y-111.76
X55.88Y-114.3
X57.15Y-116.84
X58.42Y-86.36
X58.42Y-102.87
X58.42Y-105.41
X59.69Y-116.84
X60.96Y-86.36
X62.23Y-116.84
X63.5Y-86.36
X64.77Y-116.84
X67.31Y-116.84
X69.85Y-116.84
X71.12Y-86.36
X71.12Y-88.9
X71.12Y-91.44
X71.12Y-93.98
X71.12Y-96.52
X71.12Y-99.06
X71.12Y-101.6
X71.12Y-104.14
X71.12Y-106.68
X71.12Y-109.22
X71.12Y-111.76
X71.12Y-114.3
M30
