G04 #@! TF.GenerationSoftware,KiCad,Pcbnew,7.0.11+dfsg-1*
G04 #@! TF.CreationDate,2024-03-20T20:24:57-04:00*
G04 #@! TF.ProjectId,base,62617365-2e6b-4696-9361-645f70636258,rev?*
G04 #@! TF.SameCoordinates,Original*
G04 #@! TF.FileFunction,Copper,L1,Top*
G04 #@! TF.FilePolarity,Positive*
%FSLAX46Y46*%
G04 Gerber Fmt 4.6, Leading zero omitted, Abs format (unit mm)*
G04 Created by KiCad (PCBNEW 7.0.11+dfsg-1) date 2024-03-20 20:24:57*
%MOMM*%
%LPD*%
G01*
G04 APERTURE LIST*
G04 #@! TA.AperFunction,ComponentPad*
%ADD10C,1.600000*%
G04 #@! TD*
G04 #@! TA.AperFunction,ComponentPad*
%ADD11O,1.600000X1.600000*%
G04 #@! TD*
G04 #@! TA.AperFunction,ComponentPad*
%ADD12C,1.727200*%
G04 #@! TD*
G04 #@! TA.AperFunction,ComponentPad*
%ADD13R,1.727200X1.727200*%
G04 #@! TD*
G04 #@! TA.AperFunction,ComponentPad*
%ADD14R,1.700000X1.700000*%
G04 #@! TD*
G04 #@! TA.AperFunction,ComponentPad*
%ADD15O,1.700000X1.700000*%
G04 #@! TD*
G04 #@! TA.AperFunction,ViaPad*
%ADD16C,0.609600*%
G04 #@! TD*
G04 #@! TA.AperFunction,ViaPad*
%ADD17C,0.600000*%
G04 #@! TD*
G04 #@! TA.AperFunction,Conductor*
%ADD18C,0.609600*%
G04 #@! TD*
G04 #@! TA.AperFunction,Conductor*
%ADD19C,0.203200*%
G04 #@! TD*
G04 APERTURE END LIST*
D10*
X102870000Y-111760000D03*
D11*
X102870000Y-119380000D03*
D12*
X55880000Y-96520000D03*
X55880000Y-99060000D03*
X55880000Y-101600000D03*
X55880000Y-104140000D03*
X58420000Y-102870000D03*
X58420000Y-105410000D03*
X60960000Y-86360000D03*
X58420000Y-86360000D03*
X71120000Y-111760000D03*
X71120000Y-114300000D03*
X71120000Y-104140000D03*
X71120000Y-101600000D03*
X71120000Y-99060000D03*
X71120000Y-96520000D03*
X71120000Y-93980000D03*
X71120000Y-91440000D03*
X71120000Y-88900000D03*
X71120000Y-86360000D03*
X55880000Y-86360000D03*
X55880000Y-88900000D03*
X55880000Y-91440000D03*
X55880000Y-93980000D03*
X69850000Y-116840000D03*
D13*
X71120000Y-106680000D03*
X55880000Y-111760000D03*
X63500000Y-86360000D03*
X59690000Y-116840000D03*
X57150000Y-116840000D03*
D12*
X55880000Y-114300000D03*
X71120000Y-109220000D03*
X55880000Y-109220000D03*
X64770000Y-116840000D03*
X67310000Y-116840000D03*
X55880000Y-106680000D03*
X62230000Y-116840000D03*
D10*
X125730000Y-111760000D03*
D11*
X125730000Y-119380000D03*
D10*
X114300000Y-111760000D03*
D11*
X114300000Y-119380000D03*
D14*
X71120000Y-66040000D03*
D15*
X68580000Y-66040000D03*
X66040000Y-66040000D03*
X63500000Y-66040000D03*
X60960000Y-66040000D03*
X58420000Y-66040000D03*
X55880000Y-66040000D03*
X53340000Y-66040000D03*
D14*
X77470000Y-86360000D03*
D15*
X80010000Y-86360000D03*
X82550000Y-86360000D03*
X85090000Y-86360000D03*
X87630000Y-86360000D03*
X90170000Y-86360000D03*
D14*
X102870000Y-123190000D03*
D15*
X105410000Y-123190000D03*
D14*
X69850000Y-120650000D03*
D15*
X67310000Y-120650000D03*
X64770000Y-120650000D03*
X62230000Y-120650000D03*
X59690000Y-120650000D03*
X57150000Y-120650000D03*
D14*
X125730000Y-123190000D03*
D15*
X128270000Y-123190000D03*
D14*
X55880000Y-76200000D03*
D15*
X55880000Y-78740000D03*
D14*
X114300000Y-123190000D03*
D15*
X116840000Y-123190000D03*
D14*
X213360000Y-66040000D03*
D15*
X215900000Y-66040000D03*
X218440000Y-66040000D03*
X220980000Y-66040000D03*
X223520000Y-66040000D03*
X226060000Y-66040000D03*
X228600000Y-66040000D03*
X231140000Y-66040000D03*
D16*
X71120000Y-81280000D03*
X60960000Y-73660000D03*
X64770000Y-96520000D03*
X67310000Y-69850000D03*
X64770000Y-72390000D03*
X67310000Y-73660000D03*
X69850000Y-83820000D03*
D17*
X82550000Y-91440000D03*
D18*
X69850000Y-116840000D02*
X69850000Y-120650000D01*
X67310000Y-120650000D02*
X67310000Y-116840000D01*
X64770000Y-116840000D02*
X64770000Y-120650000D01*
X62230000Y-120650000D02*
X62230000Y-116840000D01*
X71120000Y-67945000D02*
X71120000Y-66040000D01*
X69772961Y-71197038D02*
X67310000Y-73660000D01*
X69772966Y-71197043D02*
G75*
G03*
X71120000Y-67945000I-3252066J3252043D01*
G01*
X66040000Y-72676036D02*
X66040000Y-66040000D01*
X71755000Y-88900000D02*
X71120000Y-88900000D01*
X73660000Y-86731974D02*
X73660000Y-84803963D01*
X67633792Y-76523792D02*
X72066207Y-80956207D01*
X72839012Y-88450987D02*
X73025000Y-88265000D01*
X71755000Y-88900006D02*
G75*
G03*
X72839011Y-88450986I0J1533006D01*
G01*
X73660010Y-84803963D02*
G75*
G03*
X72066206Y-80956208I-5441610J-37D01*
G01*
X73025008Y-88265008D02*
G75*
G03*
X73660000Y-86731974I-1533008J1533008D01*
G01*
X66040003Y-72676036D02*
G75*
G03*
X67633792Y-76523792I5441547J-4D01*
G01*
X71120000Y-85090000D02*
X71120000Y-86360000D01*
X63500000Y-73946036D02*
X63500000Y-66040000D01*
X65093792Y-77793792D02*
X70221974Y-82921974D01*
X63500003Y-73946036D02*
G75*
G03*
X65093792Y-77793792I5441547J-4D01*
G01*
X71119985Y-85090000D02*
G75*
G03*
X70221973Y-82921975I-3066085J0D01*
G01*
X54160987Y-76649012D02*
X53975000Y-76835000D01*
X57150000Y-76200000D02*
X55880000Y-76200000D01*
X54238025Y-69478025D02*
X54981974Y-70221974D01*
X55880000Y-74930000D02*
X55880000Y-72390000D01*
X55880000Y-69850000D02*
X55880000Y-66040000D01*
X53975000Y-113665000D02*
X54160987Y-113850987D01*
X69850000Y-83820000D02*
X67945000Y-83820000D01*
X56778025Y-70221974D02*
X57521974Y-69478025D01*
X53340000Y-67310000D02*
X53340000Y-66040000D01*
X60061974Y-69478025D02*
X56778025Y-72761974D01*
X60960000Y-67310000D02*
X60960000Y-66040000D01*
X55880000Y-76200000D02*
X55880000Y-74930000D01*
X55880000Y-69850084D02*
X55879916Y-69850000D01*
X59318025Y-77098025D02*
X64692961Y-82472961D01*
X53340000Y-112131974D02*
X53340000Y-78368025D01*
X58420000Y-67310000D02*
X58420000Y-66040000D01*
X55245000Y-114300000D02*
X55880000Y-114300000D01*
X55245000Y-76200000D02*
X55880000Y-76200000D01*
X55880000Y-72390000D02*
X55880000Y-69850084D01*
X54160992Y-113850982D02*
G75*
G03*
X55245000Y-114300000I1084008J1083982D01*
G01*
X64692956Y-82472966D02*
G75*
G03*
X67945000Y-83820000I3252044J3252066D01*
G01*
X56778036Y-70221985D02*
G75*
G03*
X55880000Y-72390000I2167964J-2168015D01*
G01*
X55879985Y-72390000D02*
G75*
G03*
X54981973Y-70221975I-3066085J0D01*
G01*
X53340015Y-67310000D02*
G75*
G03*
X54238026Y-69478024I3066085J0D01*
G01*
X53974992Y-76834992D02*
G75*
G03*
X53340000Y-78368025I1533008J-1533008D01*
G01*
X53340011Y-112131974D02*
G75*
G03*
X53975000Y-113665000I2167989J-26D01*
G01*
X59318035Y-77098015D02*
G75*
G03*
X57150000Y-76200000I-2168035J-2168085D01*
G01*
X57521985Y-69478036D02*
G75*
G03*
X58420000Y-67310000I-2168085J2168036D01*
G01*
X56778036Y-72761985D02*
G75*
G03*
X55880000Y-74930000I2167964J-2168015D01*
G01*
X60061985Y-69478036D02*
G75*
G03*
X60960000Y-67310000I-2168085J2168036D01*
G01*
X55880084Y-69850000D02*
G75*
G03*
X56778025Y-70221974I526016J0D01*
G01*
X55880084Y-72390000D02*
G75*
G03*
X56778025Y-72761974I526016J0D01*
G01*
X55245000Y-76199992D02*
G75*
G03*
X54160987Y-76649012I0J-1533008D01*
G01*
X54981915Y-70222033D02*
G75*
G03*
X55880000Y-69850000I371985J372033D01*
G01*
D19*
X65219018Y-97340981D02*
X68951974Y-93608025D01*
X73660000Y-92710000D02*
X71120000Y-92710000D01*
X73660000Y-92710000D02*
X80381974Y-92710000D01*
X58420000Y-105221079D02*
X58420000Y-105410000D01*
X58420000Y-105032157D02*
X58553587Y-104898570D01*
X58420000Y-105410000D02*
X58420000Y-105032157D01*
X64320997Y-99509002D02*
X58420000Y-105410000D01*
X82550000Y-91440000D02*
X81915000Y-92075000D01*
X80381974Y-92709989D02*
G75*
G03*
X81915000Y-92075000I26J2167989D01*
G01*
X71120000Y-92709985D02*
G75*
G03*
X68951975Y-93608026I0J-3066015D01*
G01*
X58553597Y-104898580D02*
G75*
G03*
X58420000Y-105221079I322503J-322520D01*
G01*
X64320992Y-99508997D02*
G75*
G03*
X64770000Y-98425000I-1083992J1083997D01*
G01*
X65219024Y-97340987D02*
G75*
G03*
X64770000Y-98425000I1083976J-1084013D01*
G01*
X58420000Y-102235000D02*
X58420000Y-102870000D01*
X82873792Y-88576207D02*
X85090000Y-86360000D01*
X79026036Y-90170000D02*
X71289956Y-90170000D01*
X68831796Y-91188203D02*
X58869012Y-101150987D01*
X79026036Y-90170010D02*
G75*
G03*
X82873792Y-88576207I-36J5441610D01*
G01*
X71289956Y-90169980D02*
G75*
G03*
X68831796Y-91188203I44J-3476420D01*
G01*
X58869018Y-101150993D02*
G75*
G03*
X58420000Y-102235000I1083982J-1084007D01*
G01*
D18*
X99383792Y-103193792D02*
X101276207Y-105086207D01*
X95536036Y-101600000D02*
X71120000Y-101600000D01*
X102870000Y-108933963D02*
X102870000Y-111760000D01*
X99383784Y-103193800D02*
G75*
G03*
X95536036Y-101600000I-3847784J-3847800D01*
G01*
X102870010Y-108933963D02*
G75*
G03*
X101276206Y-105086208I-5441610J-37D01*
G01*
X102870000Y-119380000D02*
X102870000Y-123190000D01*
X106966036Y-99060000D02*
X71120000Y-99060000D01*
X114300000Y-106393963D02*
X114300000Y-111760000D01*
X112706207Y-102546207D02*
X110813792Y-100653792D01*
X110813784Y-100653800D02*
G75*
G03*
X106966036Y-99060000I-3847784J-3847800D01*
G01*
X114300010Y-106393963D02*
G75*
G03*
X112706206Y-102546208I-5441610J-37D01*
G01*
X114300000Y-119380000D02*
X114300000Y-123190000D01*
X125730000Y-106393963D02*
X125730000Y-111760000D01*
X119703792Y-98113792D02*
X124136207Y-102546207D01*
X115856036Y-96520000D02*
X71120000Y-96520000D01*
X125730010Y-106393963D02*
G75*
G03*
X124136206Y-102546208I-5441610J-37D01*
G01*
X119703784Y-98113800D02*
G75*
G03*
X115856036Y-96520000I-3847784J-3847800D01*
G01*
X125730000Y-119380000D02*
X125730000Y-123190000D01*
G04 #@! TA.AperFunction,Conductor*
G36*
X61734443Y-66360770D02*
G01*
X61740767Y-66367109D01*
X61740757Y-66376064D01*
X61740736Y-66376114D01*
X61264107Y-67508124D01*
X61257738Y-67514419D01*
X61252014Y-67515210D01*
X60661610Y-67448688D01*
X60653773Y-67444357D01*
X60652225Y-67441806D01*
X60179560Y-66376233D01*
X60179338Y-66367281D01*
X60185511Y-66360794D01*
X60185715Y-66360705D01*
X60955623Y-66040870D01*
X60964575Y-66040862D01*
X61734443Y-66360770D01*
G37*
G04 #@! TD.AperFunction*
G04 #@! TA.AperFunction,Conductor*
G36*
X56186678Y-74503427D02*
G01*
X56188253Y-74505383D01*
X56724917Y-75342075D01*
X56726499Y-75350889D01*
X56723347Y-75356660D01*
X55888278Y-76192712D01*
X55880007Y-76196144D01*
X55871732Y-76192722D01*
X55871722Y-76192712D01*
X55036652Y-75356660D01*
X55033230Y-75348385D01*
X55035080Y-75342078D01*
X55571747Y-74505382D01*
X55579098Y-74500270D01*
X55581595Y-74500000D01*
X56178405Y-74500000D01*
X56186678Y-74503427D01*
G37*
G04 #@! TD.AperFunction*
G04 #@! TA.AperFunction,Conductor*
G36*
X114606678Y-121493427D02*
G01*
X114608253Y-121495383D01*
X115144917Y-122332075D01*
X115146499Y-122340889D01*
X115143347Y-122346660D01*
X114308278Y-123182712D01*
X114300007Y-123186144D01*
X114291732Y-123182722D01*
X114291722Y-123182712D01*
X113456652Y-122346660D01*
X113453230Y-122338385D01*
X113455080Y-122332078D01*
X113991747Y-121495382D01*
X113999098Y-121490270D01*
X114001595Y-121490000D01*
X114598405Y-121490000D01*
X114606678Y-121493427D01*
G37*
G04 #@! TD.AperFunction*
G04 #@! TA.AperFunction,Conductor*
G36*
X126036678Y-121493427D02*
G01*
X126038253Y-121495383D01*
X126574917Y-122332075D01*
X126576499Y-122340889D01*
X126573347Y-122346660D01*
X125738278Y-123182712D01*
X125730007Y-123186144D01*
X125721732Y-123182722D01*
X125721722Y-123182712D01*
X124886652Y-122346660D01*
X124883230Y-122338385D01*
X124885080Y-122332078D01*
X125421747Y-121495382D01*
X125429098Y-121490270D01*
X125431595Y-121490000D01*
X126028405Y-121490000D01*
X126036678Y-121493427D01*
G37*
G04 #@! TD.AperFunction*
G04 #@! TA.AperFunction,Conductor*
G36*
X84316275Y-86039498D02*
G01*
X85086215Y-86357438D01*
X85092552Y-86363761D01*
X85092562Y-86363785D01*
X85410501Y-87133724D01*
X85410492Y-87142679D01*
X85404153Y-87149004D01*
X85403411Y-87149282D01*
X83966632Y-87631616D01*
X83957698Y-87631000D01*
X83954635Y-87628797D01*
X83821202Y-87495364D01*
X83817775Y-87487091D01*
X83818382Y-87483372D01*
X84300717Y-86046587D01*
X84306599Y-86039836D01*
X84315533Y-86039220D01*
X84316275Y-86039498D01*
G37*
G04 #@! TD.AperFunction*
G04 #@! TA.AperFunction,Conductor*
G36*
X55874989Y-113440782D02*
G01*
X55879826Y-113448318D01*
X55880011Y-113450379D01*
X55880715Y-114298355D01*
X55879820Y-114302854D01*
X55554825Y-115085080D01*
X55548486Y-115091405D01*
X55539531Y-115091396D01*
X55537795Y-115090498D01*
X54026009Y-114140599D01*
X54020827Y-114133296D01*
X54022327Y-114124467D01*
X54023842Y-114122540D01*
X54435893Y-113698336D01*
X54442213Y-113694973D01*
X55866241Y-113438874D01*
X55874989Y-113440782D01*
G37*
G04 #@! TD.AperFunction*
G04 #@! TA.AperFunction,Conductor*
G36*
X59571538Y-104119765D02*
G01*
X59574591Y-104121963D01*
X59708036Y-104255408D01*
X59711463Y-104263681D01*
X59710858Y-104267394D01*
X59221839Y-105728600D01*
X59215964Y-105735358D01*
X59207031Y-105735982D01*
X59206278Y-105735701D01*
X58423785Y-105412562D01*
X58417447Y-105406238D01*
X58094298Y-104623720D01*
X58094307Y-104614766D01*
X58100646Y-104608441D01*
X58101378Y-104608167D01*
X59562607Y-104119141D01*
X59571538Y-104119765D01*
G37*
G04 #@! TD.AperFunction*
G04 #@! TA.AperFunction,Conductor*
G36*
X55884484Y-66040863D02*
G01*
X56655098Y-66361043D01*
X56661422Y-66367381D01*
X56661653Y-66375707D01*
X56187540Y-67732160D01*
X56181575Y-67738840D01*
X56176495Y-67740000D01*
X55583505Y-67740000D01*
X55575232Y-67736573D01*
X55572460Y-67732160D01*
X55098346Y-66375707D01*
X55098851Y-66366767D01*
X55104900Y-66361043D01*
X55875511Y-66040864D01*
X55884466Y-66040856D01*
X55884484Y-66040863D01*
G37*
G04 #@! TD.AperFunction*
G04 #@! TA.AperFunction,Conductor*
G36*
X71133754Y-88038873D02*
G01*
X72557787Y-88294974D01*
X72564107Y-88298337D01*
X72976159Y-88722539D01*
X72979466Y-88730861D01*
X72975919Y-88739083D01*
X72973992Y-88740598D01*
X71462204Y-89690498D01*
X71453375Y-89691998D01*
X71446072Y-89686816D01*
X71445174Y-89685080D01*
X71120178Y-88902851D01*
X71119284Y-88898359D01*
X71119988Y-88050378D01*
X71123422Y-88042109D01*
X71131698Y-88038689D01*
X71133754Y-88038873D01*
G37*
G04 #@! TD.AperFunction*
G04 #@! TA.AperFunction,Conductor*
G36*
X72839396Y-98752445D02*
G01*
X72846055Y-98758430D01*
X72847200Y-98763477D01*
X72847200Y-99356522D01*
X72843773Y-99364795D01*
X72839395Y-99367555D01*
X71460933Y-99854173D01*
X71451991Y-99853695D01*
X71446233Y-99847629D01*
X71120864Y-99064488D01*
X71120856Y-99055534D01*
X71120865Y-99055511D01*
X71246779Y-98752444D01*
X71446234Y-98272368D01*
X71452572Y-98266045D01*
X71460932Y-98265826D01*
X72839396Y-98752445D01*
G37*
G04 #@! TD.AperFunction*
G04 #@! TA.AperFunction,Conductor*
G36*
X55037436Y-75529014D02*
G01*
X55823758Y-76154030D01*
X55870451Y-76191144D01*
X55874795Y-76198974D01*
X55872330Y-76207583D01*
X55871444Y-76208576D01*
X55035616Y-77044384D01*
X55027343Y-77047811D01*
X55022708Y-77046854D01*
X54447455Y-76798669D01*
X54443697Y-76796078D01*
X54386220Y-76736906D01*
X54029395Y-76369551D01*
X54026090Y-76361231D01*
X54029637Y-76353008D01*
X54030305Y-76352408D01*
X55022689Y-75529168D01*
X55031242Y-75526524D01*
X55037436Y-75529014D01*
G37*
G04 #@! TD.AperFunction*
G04 #@! TA.AperFunction,Conductor*
G36*
X82283145Y-91329428D02*
G01*
X82546184Y-91437436D01*
X82552536Y-91443748D01*
X82552563Y-91443815D01*
X82660571Y-91706854D01*
X82660544Y-91715809D01*
X82654713Y-91721892D01*
X82205012Y-91932622D01*
X82196066Y-91933030D01*
X82191774Y-91930301D01*
X82059698Y-91798225D01*
X82056271Y-91789952D01*
X82057376Y-91784989D01*
X82268107Y-91335285D01*
X82274720Y-91329249D01*
X82283145Y-91329428D01*
G37*
G04 #@! TD.AperFunction*
G04 #@! TA.AperFunction,Conductor*
G36*
X70156678Y-118953427D02*
G01*
X70158253Y-118955383D01*
X70694917Y-119792075D01*
X70696499Y-119800889D01*
X70693347Y-119806660D01*
X69858278Y-120642712D01*
X69850007Y-120646144D01*
X69841732Y-120642722D01*
X69841722Y-120642712D01*
X69006652Y-119806660D01*
X69003230Y-119798385D01*
X69005080Y-119792078D01*
X69541747Y-118955382D01*
X69549098Y-118950270D01*
X69551595Y-118950000D01*
X70148405Y-118950000D01*
X70156678Y-118953427D01*
G37*
G04 #@! TD.AperFunction*
G04 #@! TA.AperFunction,Conductor*
G36*
X103599030Y-119681960D02*
G01*
X103605355Y-119688299D01*
X103605632Y-119696487D01*
X103177478Y-120972023D01*
X103171596Y-120978776D01*
X103166386Y-120980000D01*
X102573614Y-120980000D01*
X102565341Y-120976573D01*
X102562522Y-120972023D01*
X102134367Y-119696487D01*
X102134983Y-119687554D01*
X102140967Y-119681961D01*
X102865512Y-119380864D01*
X102874461Y-119380854D01*
X103599030Y-119681960D01*
G37*
G04 #@! TD.AperFunction*
G04 #@! TA.AperFunction,Conductor*
G36*
X56738226Y-75358433D02*
G01*
X57120596Y-75693092D01*
X57351584Y-75895258D01*
X57355552Y-75903285D01*
X57355504Y-75905372D01*
X57288405Y-76500909D01*
X57284954Y-76507969D01*
X56738267Y-77041925D01*
X56729954Y-77045254D01*
X56721823Y-77041832D01*
X55887300Y-76208173D01*
X55883869Y-76199902D01*
X55887292Y-76191627D01*
X55887295Y-76191623D01*
X56722260Y-75358952D01*
X56730537Y-75355538D01*
X56738226Y-75358433D01*
G37*
G04 #@! TD.AperFunction*
G04 #@! TA.AperFunction,Conductor*
G36*
X53344367Y-66040867D02*
G01*
X54114233Y-66360684D01*
X54120558Y-66367023D01*
X54120549Y-66375978D01*
X54120439Y-66376233D01*
X53647774Y-67441806D01*
X53641287Y-67447979D01*
X53638389Y-67448688D01*
X53047985Y-67515210D01*
X53039380Y-67512731D01*
X53035893Y-67508126D01*
X52559262Y-66376113D01*
X52559211Y-66367160D01*
X52565505Y-66360791D01*
X53335400Y-66040871D01*
X53344353Y-66040862D01*
X53344367Y-66040867D01*
G37*
G04 #@! TD.AperFunction*
G04 #@! TA.AperFunction,Conductor*
G36*
X115029030Y-119681960D02*
G01*
X115035355Y-119688299D01*
X115035632Y-119696487D01*
X114607478Y-120972023D01*
X114601596Y-120978776D01*
X114596386Y-120980000D01*
X114003614Y-120980000D01*
X113995341Y-120976573D01*
X113992522Y-120972023D01*
X113564367Y-119696487D01*
X113564983Y-119687554D01*
X113570967Y-119681961D01*
X114295512Y-119380864D01*
X114304461Y-119380854D01*
X115029030Y-119681960D01*
G37*
G04 #@! TD.AperFunction*
G04 #@! TA.AperFunction,Conductor*
G36*
X103174659Y-110163427D02*
G01*
X103177478Y-110167977D01*
X103605632Y-111443512D01*
X103605016Y-111452445D01*
X103599030Y-111458039D01*
X102874490Y-111759134D01*
X102865536Y-111759144D01*
X102140969Y-111458039D01*
X102134644Y-111451700D01*
X102134367Y-111443512D01*
X102562522Y-110167977D01*
X102568404Y-110161224D01*
X102573614Y-110160000D01*
X103166386Y-110160000D01*
X103174659Y-110163427D01*
G37*
G04 #@! TD.AperFunction*
G04 #@! TA.AperFunction,Conductor*
G36*
X59194443Y-66360770D02*
G01*
X59200767Y-66367109D01*
X59200757Y-66376064D01*
X59200736Y-66376114D01*
X58724107Y-67508124D01*
X58717738Y-67514419D01*
X58712014Y-67515210D01*
X58121610Y-67448688D01*
X58113773Y-67444357D01*
X58112225Y-67441806D01*
X57639560Y-66376233D01*
X57639338Y-66367281D01*
X57645511Y-66360794D01*
X57645715Y-66360705D01*
X58415623Y-66040870D01*
X58424575Y-66040862D01*
X59194443Y-66360770D01*
G37*
G04 #@! TD.AperFunction*
G04 #@! TA.AperFunction,Conductor*
G36*
X64774487Y-116840864D02*
G01*
X65557629Y-117166233D01*
X65563954Y-117172572D01*
X65564173Y-117180933D01*
X65077555Y-118559395D01*
X65071569Y-118566055D01*
X65066522Y-118567200D01*
X64473478Y-118567200D01*
X64465205Y-118563773D01*
X64462445Y-118559395D01*
X63975826Y-117180933D01*
X63976304Y-117171991D01*
X63982368Y-117166234D01*
X64765511Y-116840864D01*
X64774466Y-116840856D01*
X64774487Y-116840864D01*
G37*
G04 #@! TD.AperFunction*
G04 #@! TA.AperFunction,Conductor*
G36*
X72839396Y-101292445D02*
G01*
X72846055Y-101298430D01*
X72847200Y-101303477D01*
X72847200Y-101896522D01*
X72843773Y-101904795D01*
X72839395Y-101907555D01*
X71460933Y-102394173D01*
X71451991Y-102393695D01*
X71446233Y-102387629D01*
X71120864Y-101604488D01*
X71120856Y-101595534D01*
X71120865Y-101595511D01*
X71246779Y-101292444D01*
X71446234Y-100812368D01*
X71452572Y-100806045D01*
X71460932Y-100805826D01*
X72839396Y-101292445D01*
G37*
G04 #@! TD.AperFunction*
G04 #@! TA.AperFunction,Conductor*
G36*
X114604659Y-110163427D02*
G01*
X114607478Y-110167977D01*
X115035632Y-111443512D01*
X115035016Y-111452445D01*
X115029030Y-111458039D01*
X114304490Y-111759134D01*
X114295536Y-111759144D01*
X113570969Y-111458039D01*
X113564644Y-111451700D01*
X113564367Y-111443512D01*
X113992522Y-110167977D01*
X113998404Y-110161224D01*
X114003614Y-110160000D01*
X114596386Y-110160000D01*
X114604659Y-110163427D01*
G37*
G04 #@! TD.AperFunction*
G04 #@! TA.AperFunction,Conductor*
G36*
X67314487Y-116840864D02*
G01*
X68097629Y-117166233D01*
X68103954Y-117172572D01*
X68104173Y-117180933D01*
X67617555Y-118559395D01*
X67611569Y-118566055D01*
X67606522Y-118567200D01*
X67013478Y-118567200D01*
X67005205Y-118563773D01*
X67002445Y-118559395D01*
X66515826Y-117180933D01*
X66516304Y-117171991D01*
X66522368Y-117166234D01*
X67305511Y-116840864D01*
X67314466Y-116840856D01*
X67314487Y-116840864D01*
G37*
G04 #@! TD.AperFunction*
G04 #@! TA.AperFunction,Conductor*
G36*
X71420717Y-84887257D02*
G01*
X71424155Y-84891747D01*
X71913131Y-86018613D01*
X71913281Y-86027566D01*
X71907055Y-86034003D01*
X71906887Y-86034074D01*
X71124600Y-86359127D01*
X71115646Y-86359137D01*
X71115623Y-86359128D01*
X70333330Y-86034164D01*
X70327004Y-86027825D01*
X70327013Y-86018871D01*
X70327151Y-86018553D01*
X70812192Y-84958079D01*
X70818750Y-84951981D01*
X70821514Y-84951321D01*
X71412114Y-84884778D01*
X71420717Y-84887257D01*
G37*
G04 #@! TD.AperFunction*
G04 #@! TA.AperFunction,Conductor*
G36*
X126034659Y-110163427D02*
G01*
X126037478Y-110167977D01*
X126465632Y-111443512D01*
X126465016Y-111452445D01*
X126459030Y-111458039D01*
X125734490Y-111759134D01*
X125725536Y-111759144D01*
X125000969Y-111458039D01*
X124994644Y-111451700D01*
X124994367Y-111443512D01*
X125422522Y-110167977D01*
X125428404Y-110161224D01*
X125433614Y-110160000D01*
X126026386Y-110160000D01*
X126034659Y-110163427D01*
G37*
G04 #@! TD.AperFunction*
G04 #@! TA.AperFunction,Conductor*
G36*
X72839396Y-96212445D02*
G01*
X72846055Y-96218430D01*
X72847200Y-96223477D01*
X72847200Y-96816522D01*
X72843773Y-96824795D01*
X72839395Y-96827555D01*
X71460933Y-97314173D01*
X71451991Y-97313695D01*
X71446233Y-97307629D01*
X71120864Y-96524488D01*
X71120856Y-96515534D01*
X71120865Y-96515511D01*
X71246779Y-96212444D01*
X71446234Y-95732368D01*
X71452572Y-95726045D01*
X71460932Y-95725826D01*
X72839396Y-96212445D01*
G37*
G04 #@! TD.AperFunction*
G04 #@! TA.AperFunction,Conductor*
G36*
X63504484Y-66040863D02*
G01*
X64275098Y-66361043D01*
X64281422Y-66367381D01*
X64281653Y-66375707D01*
X63807540Y-67732160D01*
X63801575Y-67738840D01*
X63796495Y-67740000D01*
X63203505Y-67740000D01*
X63195232Y-67736573D01*
X63192460Y-67732160D01*
X62718346Y-66375707D01*
X62718851Y-66366767D01*
X62724900Y-66361043D01*
X63495511Y-66040864D01*
X63504466Y-66040856D01*
X63504484Y-66040863D01*
G37*
G04 #@! TD.AperFunction*
G04 #@! TA.AperFunction,Conductor*
G36*
X126459030Y-119681960D02*
G01*
X126465355Y-119688299D01*
X126465632Y-119696487D01*
X126037478Y-120972023D01*
X126031596Y-120978776D01*
X126026386Y-120980000D01*
X125433614Y-120980000D01*
X125425341Y-120976573D01*
X125422522Y-120972023D01*
X124994367Y-119696487D01*
X124994983Y-119687554D01*
X125000967Y-119681961D01*
X125725512Y-119380864D01*
X125734461Y-119380854D01*
X126459030Y-119681960D01*
G37*
G04 #@! TD.AperFunction*
G04 #@! TA.AperFunction,Conductor*
G36*
X66044484Y-66040863D02*
G01*
X66815098Y-66361043D01*
X66821422Y-66367381D01*
X66821653Y-66375707D01*
X66347540Y-67732160D01*
X66341575Y-67738840D01*
X66336495Y-67740000D01*
X65743505Y-67740000D01*
X65735232Y-67736573D01*
X65732460Y-67732160D01*
X65258346Y-66375707D01*
X65258851Y-66366767D01*
X65264900Y-66361043D01*
X66035511Y-66040864D01*
X66044466Y-66040856D01*
X66044484Y-66040863D01*
G37*
G04 #@! TD.AperFunction*
G04 #@! TA.AperFunction,Conductor*
G36*
X69854487Y-116840864D02*
G01*
X70637629Y-117166233D01*
X70643954Y-117172572D01*
X70644173Y-117180933D01*
X70157555Y-118559395D01*
X70151569Y-118566055D01*
X70146522Y-118567200D01*
X69553478Y-118567200D01*
X69545205Y-118563773D01*
X69542445Y-118559395D01*
X69055826Y-117180933D01*
X69056304Y-117171991D01*
X69062368Y-117166234D01*
X69845511Y-116840864D01*
X69854466Y-116840856D01*
X69854487Y-116840864D01*
G37*
G04 #@! TD.AperFunction*
G04 #@! TA.AperFunction,Conductor*
G36*
X71128266Y-66047276D02*
G01*
X71963347Y-66883339D01*
X71966769Y-66891614D01*
X71964917Y-66897924D01*
X71428253Y-67734617D01*
X71420902Y-67739730D01*
X71418405Y-67740000D01*
X70821595Y-67740000D01*
X70813322Y-67736573D01*
X70811747Y-67734617D01*
X70275081Y-66897922D01*
X70273500Y-66889110D01*
X70276650Y-66883341D01*
X71111723Y-66047286D01*
X71119993Y-66043855D01*
X71128266Y-66047276D01*
G37*
G04 #@! TD.AperFunction*
G04 #@! TA.AperFunction,Conductor*
G36*
X103176678Y-121493427D02*
G01*
X103178253Y-121495383D01*
X103714917Y-122332075D01*
X103716499Y-122340889D01*
X103713347Y-122346660D01*
X102878278Y-123182712D01*
X102870007Y-123186144D01*
X102861732Y-123182722D01*
X102861722Y-123182712D01*
X102026652Y-122346660D01*
X102023230Y-122338385D01*
X102025080Y-122332078D01*
X102561747Y-121495382D01*
X102569098Y-121490270D01*
X102571595Y-121490000D01*
X103168405Y-121490000D01*
X103176678Y-121493427D01*
G37*
G04 #@! TD.AperFunction*
G04 #@! TA.AperFunction,Conductor*
G36*
X62534768Y-118953427D02*
G01*
X62537540Y-118957840D01*
X63011653Y-120314292D01*
X63011148Y-120323232D01*
X63005097Y-120328957D01*
X62234489Y-120649134D01*
X62225534Y-120649143D01*
X62225511Y-120649134D01*
X61454902Y-120328957D01*
X61448577Y-120322618D01*
X61448346Y-120314292D01*
X61922460Y-118957840D01*
X61928425Y-118951160D01*
X61933505Y-118950000D01*
X62526495Y-118950000D01*
X62534768Y-118953427D01*
G37*
G04 #@! TD.AperFunction*
G04 #@! TA.AperFunction,Conductor*
G36*
X58741347Y-101153802D02*
G01*
X58741998Y-101154385D01*
X58742986Y-101155339D01*
X58876751Y-101284560D01*
X58879916Y-101289921D01*
X59215178Y-102529592D01*
X59214030Y-102538472D01*
X59208366Y-102543453D01*
X58426540Y-102867718D01*
X58417586Y-102867722D01*
X58413775Y-102865175D01*
X58078967Y-102529592D01*
X57816861Y-102266879D01*
X57813445Y-102258602D01*
X57816138Y-102251148D01*
X58724872Y-101155338D01*
X58732791Y-101151159D01*
X58741347Y-101153802D01*
G37*
G04 #@! TD.AperFunction*
G04 #@! TA.AperFunction,Conductor*
G36*
X62234487Y-116840864D02*
G01*
X63017629Y-117166233D01*
X63023954Y-117172572D01*
X63024173Y-117180933D01*
X62537555Y-118559395D01*
X62531569Y-118566055D01*
X62526522Y-118567200D01*
X61933478Y-118567200D01*
X61925205Y-118563773D01*
X61922445Y-118559395D01*
X61435826Y-117180933D01*
X61436304Y-117171991D01*
X61442368Y-117166234D01*
X62225511Y-116840864D01*
X62234466Y-116840856D01*
X62234487Y-116840864D01*
G37*
G04 #@! TD.AperFunction*
G04 #@! TA.AperFunction,Conductor*
G36*
X67614768Y-118953427D02*
G01*
X67617540Y-118957840D01*
X68091653Y-120314292D01*
X68091148Y-120323232D01*
X68085097Y-120328957D01*
X67314489Y-120649134D01*
X67305534Y-120649143D01*
X67305511Y-120649134D01*
X66534902Y-120328957D01*
X66528577Y-120322618D01*
X66528346Y-120314292D01*
X67002460Y-118957840D01*
X67008425Y-118951160D01*
X67013505Y-118950000D01*
X67606495Y-118950000D01*
X67614768Y-118953427D01*
G37*
G04 #@! TD.AperFunction*
G04 #@! TA.AperFunction,Conductor*
G36*
X65074768Y-118953427D02*
G01*
X65077540Y-118957840D01*
X65551653Y-120314292D01*
X65551148Y-120323232D01*
X65545097Y-120328957D01*
X64774489Y-120649134D01*
X64765534Y-120649143D01*
X64765511Y-120649134D01*
X63994902Y-120328957D01*
X63988577Y-120322618D01*
X63988346Y-120314292D01*
X64462460Y-118957840D01*
X64468425Y-118951160D01*
X64473505Y-118950000D01*
X65066495Y-118950000D01*
X65074768Y-118953427D01*
G37*
G04 #@! TD.AperFunction*
G04 #@! TA.AperFunction,Conductor*
G36*
X69688277Y-91350325D02*
G01*
X69737461Y-91399950D01*
X69751941Y-91448651D01*
X69769892Y-91665289D01*
X69825388Y-91884439D01*
X69850751Y-91942262D01*
X69916198Y-92091465D01*
X69946368Y-92137644D01*
X69966555Y-92204533D01*
X69947375Y-92271719D01*
X69894917Y-92317869D01*
X69884971Y-92321986D01*
X69714924Y-92383879D01*
X69714919Y-92383881D01*
X69424612Y-92519255D01*
X69147220Y-92679411D01*
X68926297Y-92834107D01*
X68884837Y-92863138D01*
X68639466Y-93069033D01*
X68639463Y-93069035D01*
X68639457Y-93069041D01*
X68554132Y-93154369D01*
X68554131Y-93154370D01*
X64762916Y-96945584D01*
X64762747Y-96945763D01*
X64708497Y-97000013D01*
X64708496Y-97000013D01*
X64558967Y-97187510D01*
X64431380Y-97390560D01*
X64327321Y-97606634D01*
X64248117Y-97832983D01*
X64248115Y-97832992D01*
X64194752Y-98066786D01*
X64194750Y-98066798D01*
X64167900Y-98305088D01*
X64167900Y-98420124D01*
X64167518Y-98429854D01*
X64157204Y-98560898D01*
X64154160Y-98580115D01*
X64124616Y-98703175D01*
X64118603Y-98721682D01*
X64070172Y-98838602D01*
X64061339Y-98855937D01*
X63995210Y-98963851D01*
X63983772Y-98979594D01*
X63898343Y-99079617D01*
X63891734Y-99086766D01*
X59999079Y-102979421D01*
X59937756Y-103012906D01*
X59868064Y-103007922D01*
X59812131Y-102966050D01*
X59787714Y-102900586D01*
X59787822Y-102881496D01*
X59788775Y-102869999D01*
X59788775Y-102869993D01*
X59770107Y-102644710D01*
X59770107Y-102644707D01*
X59714611Y-102425559D01*
X59708141Y-102410811D01*
X59701999Y-102393376D01*
X59663620Y-102251466D01*
X59460207Y-101499322D01*
X59461707Y-101429469D01*
X59492224Y-101379271D01*
X69255394Y-91616102D01*
X69259752Y-91611951D01*
X69462047Y-91428601D01*
X69471420Y-91420909D01*
X69554501Y-91359291D01*
X69620071Y-91335169D01*
X69688277Y-91350325D01*
G37*
G04 #@! TD.AperFunction*
G04 #@! TA.AperFunction,Conductor*
G36*
X64827155Y-66776352D02*
G01*
X64877575Y-66824722D01*
X64887055Y-66845480D01*
X65000777Y-67170841D01*
X65226205Y-67815798D01*
X65227756Y-67820234D01*
X65234700Y-67861148D01*
X65234700Y-72566322D01*
X65234690Y-72566356D01*
X65234690Y-72899106D01*
X65266522Y-73344185D01*
X65330025Y-73785867D01*
X65424872Y-74221874D01*
X65424875Y-74221884D01*
X65496349Y-74465300D01*
X65550589Y-74650025D01*
X65550593Y-74650035D01*
X65706528Y-75068116D01*
X65706530Y-75068119D01*
X65891884Y-75473991D01*
X65891888Y-75473998D01*
X65993537Y-75660154D01*
X66105741Y-75865639D01*
X66214508Y-76034885D01*
X66346983Y-76241021D01*
X66346986Y-76241026D01*
X66614390Y-76598236D01*
X66624214Y-76609573D01*
X66906602Y-76935467D01*
X66989760Y-77018625D01*
X66989762Y-77018629D01*
X67064360Y-77093226D01*
X67064358Y-77093225D01*
X67124208Y-77153075D01*
X67124209Y-77153075D01*
X67131276Y-77160142D01*
X67131275Y-77160142D01*
X67131279Y-77160145D01*
X71494838Y-81523705D01*
X71498579Y-81527613D01*
X71578067Y-81614358D01*
X71766370Y-81819854D01*
X71773308Y-81828123D01*
X71909788Y-82005986D01*
X72012944Y-82140422D01*
X72019149Y-82149283D01*
X72230654Y-82481280D01*
X72236062Y-82490648D01*
X72417818Y-82839797D01*
X72422390Y-82849601D01*
X72573029Y-83213272D01*
X72576729Y-83223437D01*
X72695098Y-83598851D01*
X72697898Y-83609300D01*
X72783099Y-83993610D01*
X72784977Y-84004263D01*
X72836358Y-84394522D01*
X72837301Y-84405298D01*
X72854582Y-84801035D01*
X72854700Y-84806445D01*
X72854700Y-86641209D01*
X72854699Y-86641231D01*
X72854699Y-86727920D01*
X72854434Y-86736028D01*
X72843575Y-86901744D01*
X72841457Y-86917827D01*
X72809854Y-87076710D01*
X72805657Y-87092376D01*
X72753586Y-87245778D01*
X72747378Y-87260764D01*
X72675728Y-87406057D01*
X72667618Y-87420104D01*
X72577619Y-87554798D01*
X72567745Y-87567667D01*
X72458347Y-87692410D01*
X72452800Y-87698332D01*
X72444262Y-87706870D01*
X72382939Y-87740355D01*
X72334633Y-87741231D01*
X71984030Y-87678179D01*
X71921533Y-87646939D01*
X71885847Y-87586871D01*
X71888302Y-87517044D01*
X71928118Y-87459629D01*
X71929714Y-87458363D01*
X72047046Y-87367040D01*
X72200156Y-87200719D01*
X72323802Y-87011465D01*
X72414611Y-86804441D01*
X72470107Y-86585293D01*
X72488775Y-86360000D01*
X72488775Y-86359999D01*
X72488775Y-86359993D01*
X72470107Y-86134710D01*
X72470107Y-86134707D01*
X72414611Y-85915559D01*
X72389262Y-85857772D01*
X72383208Y-85840656D01*
X72376855Y-85817391D01*
X72376823Y-85817317D01*
X71917498Y-84758783D01*
X71907722Y-84720230D01*
X71903786Y-84675243D01*
X71895822Y-84584209D01*
X71837121Y-84251292D01*
X71770931Y-84004263D01*
X71749632Y-83924772D01*
X71749630Y-83924768D01*
X71749628Y-83924759D01*
X71634009Y-83607094D01*
X71634007Y-83607091D01*
X71634003Y-83607080D01*
X71491152Y-83300732D01*
X71491144Y-83300715D01*
X71491144Y-83300714D01*
X71322120Y-83007951D01*
X71221566Y-82864342D01*
X71128228Y-82731038D01*
X71128224Y-82731033D01*
X70910931Y-82472068D01*
X70825084Y-82386219D01*
X70825057Y-82386191D01*
X70767469Y-82328603D01*
X70727246Y-82288378D01*
X70727223Y-82288357D01*
X65701679Y-77262813D01*
X65665142Y-77226275D01*
X65661424Y-77222392D01*
X65393628Y-76930143D01*
X65386684Y-76921867D01*
X65147053Y-76609573D01*
X65140848Y-76600712D01*
X65137013Y-76594693D01*
X64929340Y-76268711D01*
X64923933Y-76259344D01*
X64807123Y-76034953D01*
X64742173Y-75910185D01*
X64737604Y-75900387D01*
X64723208Y-75865632D01*
X64586960Y-75536699D01*
X64583264Y-75526543D01*
X64572336Y-75491884D01*
X64464896Y-75151125D01*
X64462097Y-75140681D01*
X64376893Y-74756354D01*
X64375017Y-74745708D01*
X64323636Y-74355426D01*
X64322696Y-74344692D01*
X64305418Y-73948927D01*
X64305300Y-73943519D01*
X64305300Y-67861147D01*
X64312244Y-67820233D01*
X64652945Y-66845476D01*
X64693645Y-66788690D01*
X64758589Y-66762920D01*
X64827155Y-66776352D01*
G37*
G04 #@! TD.AperFunction*
G04 #@! TA.AperFunction,Conductor*
G36*
X62284325Y-66752750D02*
G01*
X62331637Y-66804164D01*
X62337487Y-66818106D01*
X62687588Y-67819754D01*
X62687756Y-67820234D01*
X62694700Y-67861148D01*
X62694700Y-73836322D01*
X62694690Y-73836356D01*
X62694690Y-74169106D01*
X62726522Y-74614185D01*
X62790025Y-75055867D01*
X62884872Y-75491874D01*
X62884875Y-75491884D01*
X62933111Y-75656160D01*
X63010589Y-75920025D01*
X63053455Y-76034953D01*
X63166528Y-76338116D01*
X63166530Y-76338119D01*
X63351884Y-76743991D01*
X63351888Y-76743998D01*
X63562792Y-77130238D01*
X63565741Y-77135639D01*
X63647471Y-77262814D01*
X63806983Y-77511021D01*
X63806986Y-77511026D01*
X64074390Y-77868236D01*
X64074392Y-77868238D01*
X64366602Y-78205467D01*
X64366611Y-78205476D01*
X64366623Y-78205489D01*
X64444930Y-78283796D01*
X64444931Y-78283798D01*
X64591273Y-78430140D01*
X64591279Y-78430145D01*
X68964153Y-82803019D01*
X68997638Y-82864342D01*
X68992654Y-82934034D01*
X68950782Y-82989967D01*
X68885318Y-83014384D01*
X68876472Y-83014700D01*
X67947706Y-83014700D01*
X67942297Y-83014582D01*
X67619756Y-83000500D01*
X67608980Y-82999557D01*
X67291587Y-82957771D01*
X67280934Y-82955893D01*
X66968379Y-82886602D01*
X66957930Y-82883802D01*
X66652613Y-82787536D01*
X66642447Y-82783836D01*
X66346675Y-82661323D01*
X66336871Y-82656751D01*
X66052914Y-82508933D01*
X66043546Y-82503525D01*
X65773536Y-82331511D01*
X65764675Y-82325306D01*
X65510700Y-82130425D01*
X65502413Y-82123472D01*
X65264501Y-81905468D01*
X65260593Y-81901726D01*
X59952685Y-76593819D01*
X59952669Y-76593801D01*
X59923781Y-76564913D01*
X59923756Y-76564868D01*
X59767947Y-76409064D01*
X59767940Y-76409057D01*
X59508975Y-76191763D01*
X59508974Y-76191762D01*
X59508969Y-76191758D01*
X59232053Y-75997865D01*
X59097198Y-75920008D01*
X58939292Y-75828842D01*
X58632911Y-75685977D01*
X58632912Y-75685977D01*
X58632905Y-75685974D01*
X58442808Y-75616786D01*
X58315245Y-75570358D01*
X58315238Y-75570356D01*
X58315231Y-75570353D01*
X57988717Y-75482866D01*
X57988710Y-75482864D01*
X57988706Y-75482863D01*
X57988701Y-75482862D01*
X57655800Y-75424164D01*
X57655797Y-75424163D01*
X57655793Y-75424163D01*
X57637844Y-75422592D01*
X57612905Y-75420410D01*
X57547837Y-75394956D01*
X57542050Y-75390191D01*
X57131850Y-75031176D01*
X57109141Y-75004814D01*
X57102302Y-74994152D01*
X56771229Y-74477989D01*
X56751605Y-74410934D01*
X56756450Y-74376719D01*
X56810244Y-74190001D01*
X56814827Y-74176905D01*
X56906526Y-73955525D01*
X56912549Y-73943018D01*
X57028457Y-73733304D01*
X57035842Y-73721551D01*
X57174505Y-73526128D01*
X57183157Y-73515279D01*
X57345350Y-73333788D01*
X57350099Y-73328765D01*
X57406103Y-73272769D01*
X57408767Y-73270186D01*
X57411953Y-73267186D01*
X57413706Y-73265157D01*
X60595085Y-70083781D01*
X60595131Y-70083755D01*
X60631423Y-70047461D01*
X60631424Y-70047462D01*
X60750943Y-69927941D01*
X60968236Y-69668975D01*
X61162133Y-69392057D01*
X61331157Y-69099293D01*
X61474023Y-68792912D01*
X61589642Y-68475245D01*
X61677136Y-68148711D01*
X61735837Y-67815793D01*
X61747987Y-67676903D01*
X61757232Y-67639592D01*
X61782534Y-67579499D01*
X62106150Y-66810900D01*
X62150306Y-66756756D01*
X62216727Y-66735077D01*
X62284325Y-66752750D01*
G37*
G04 #@! TD.AperFunction*
G04 #@! TA.AperFunction,Conductor*
G36*
X67388005Y-66716699D02*
G01*
X67432423Y-66755616D01*
X67541505Y-66911401D01*
X67708599Y-67078495D01*
X67785482Y-67132329D01*
X67902165Y-67214032D01*
X67902167Y-67214033D01*
X67902170Y-67214035D01*
X68116337Y-67313903D01*
X68344592Y-67375063D01*
X68532918Y-67391539D01*
X68579999Y-67395659D01*
X68580000Y-67395659D01*
X68580001Y-67395659D01*
X68619234Y-67392226D01*
X68815408Y-67375063D01*
X69043663Y-67313903D01*
X69257830Y-67214035D01*
X69451401Y-67078495D01*
X69573329Y-66956566D01*
X69634648Y-66923084D01*
X69704340Y-66928068D01*
X69760274Y-66969939D01*
X69777187Y-67000913D01*
X69784121Y-67019502D01*
X69788641Y-67034423D01*
X69789932Y-67039909D01*
X69789933Y-67039912D01*
X69798047Y-67057721D01*
X69801387Y-67065796D01*
X69826204Y-67132331D01*
X69826204Y-67132332D01*
X69831060Y-67138818D01*
X69833084Y-67141522D01*
X69833090Y-67141529D01*
X69846667Y-67164433D01*
X69849585Y-67170839D01*
X70085088Y-67538002D01*
X70295073Y-67865382D01*
X70295075Y-67865384D01*
X70314700Y-67932331D01*
X70314700Y-67942293D01*
X70314582Y-67947702D01*
X70300500Y-68270243D01*
X70299557Y-68281019D01*
X70257771Y-68598412D01*
X70255893Y-68609065D01*
X70186602Y-68921619D01*
X70183802Y-68932068D01*
X70087535Y-69237389D01*
X70083835Y-69247555D01*
X69961326Y-69543319D01*
X69956754Y-69553123D01*
X69808934Y-69837084D01*
X69803526Y-69846452D01*
X69631511Y-70116463D01*
X69625306Y-70125324D01*
X69430425Y-70379298D01*
X69423472Y-70387585D01*
X69205457Y-70625508D01*
X69201715Y-70629416D01*
X67057522Y-72773610D01*
X66996199Y-72807095D01*
X66926507Y-72802111D01*
X66870574Y-72760239D01*
X66846157Y-72694775D01*
X66845959Y-72691330D01*
X66845418Y-72678921D01*
X66845300Y-72673520D01*
X66845300Y-67861147D01*
X66852244Y-67820233D01*
X67213795Y-66785823D01*
X67254495Y-66729037D01*
X67319439Y-66703267D01*
X67388005Y-66716699D01*
G37*
G04 #@! TD.AperFunction*
G04 #@! TA.AperFunction,Conductor*
G36*
X233122539Y-51320185D02*
G01*
X233168294Y-51372989D01*
X233179500Y-51424500D01*
X233179500Y-126375500D01*
X233159815Y-126442539D01*
X233107011Y-126488294D01*
X233055500Y-126499500D01*
X51424500Y-126499500D01*
X51357461Y-126479815D01*
X51311706Y-126427011D01*
X51300500Y-126375500D01*
X51300500Y-124087870D01*
X101519500Y-124087870D01*
X101519501Y-124087876D01*
X101525908Y-124147483D01*
X101576202Y-124282328D01*
X101576206Y-124282335D01*
X101662452Y-124397544D01*
X101662455Y-124397547D01*
X101777664Y-124483793D01*
X101777671Y-124483797D01*
X101912517Y-124534091D01*
X101912516Y-124534091D01*
X101919444Y-124534835D01*
X101972127Y-124540500D01*
X103767872Y-124540499D01*
X103827483Y-124534091D01*
X103962331Y-124483796D01*
X104077546Y-124397546D01*
X104163796Y-124282331D01*
X104214091Y-124147483D01*
X104220500Y-124087873D01*
X104220500Y-124087870D01*
X112949500Y-124087870D01*
X112949501Y-124087876D01*
X112955908Y-124147483D01*
X113006202Y-124282328D01*
X113006206Y-124282335D01*
X113092452Y-124397544D01*
X113092455Y-124397547D01*
X113207664Y-124483793D01*
X113207671Y-124483797D01*
X113342517Y-124534091D01*
X113342516Y-124534091D01*
X113349444Y-124534835D01*
X113402127Y-124540500D01*
X115197872Y-124540499D01*
X115257483Y-124534091D01*
X115392331Y-124483796D01*
X115507546Y-124397546D01*
X115593796Y-124282331D01*
X115644091Y-124147483D01*
X115650500Y-124087873D01*
X115650500Y-124087870D01*
X124379500Y-124087870D01*
X124379501Y-124087876D01*
X124385908Y-124147483D01*
X124436202Y-124282328D01*
X124436206Y-124282335D01*
X124522452Y-124397544D01*
X124522455Y-124397547D01*
X124637664Y-124483793D01*
X124637671Y-124483797D01*
X124772517Y-124534091D01*
X124772516Y-124534091D01*
X124779444Y-124534835D01*
X124832127Y-124540500D01*
X126627872Y-124540499D01*
X126687483Y-124534091D01*
X126822331Y-124483796D01*
X126937546Y-124397546D01*
X127023796Y-124282331D01*
X127074091Y-124147483D01*
X127080500Y-124087873D01*
X127080499Y-122292128D01*
X127074091Y-122232517D01*
X127065868Y-122210471D01*
X127061354Y-122195562D01*
X127060066Y-122190088D01*
X127051944Y-122172263D01*
X127048614Y-122164210D01*
X127048422Y-122163696D01*
X127039699Y-122140308D01*
X127023798Y-122097673D01*
X127023795Y-122097667D01*
X127016905Y-122088464D01*
X127003327Y-122065555D01*
X127000414Y-122059161D01*
X127000413Y-122059159D01*
X126913658Y-121923903D01*
X126712906Y-121610917D01*
X126554925Y-121364614D01*
X126535300Y-121297667D01*
X126535300Y-121097727D01*
X126541746Y-121058268D01*
X126944855Y-119857346D01*
X126946584Y-119851502D01*
X126953107Y-119834284D01*
X126956735Y-119826505D01*
X126956735Y-119826504D01*
X126956739Y-119826496D01*
X127015635Y-119606692D01*
X127035468Y-119380000D01*
X127015635Y-119153308D01*
X126956739Y-118933504D01*
X126860568Y-118727266D01*
X126730047Y-118540861D01*
X126730045Y-118540858D01*
X126569141Y-118379954D01*
X126382734Y-118249432D01*
X126382732Y-118249431D01*
X126176497Y-118153261D01*
X126176488Y-118153258D01*
X125956697Y-118094366D01*
X125956693Y-118094365D01*
X125956692Y-118094365D01*
X125956691Y-118094364D01*
X125956686Y-118094364D01*
X125730002Y-118074532D01*
X125729998Y-118074532D01*
X125503313Y-118094364D01*
X125503302Y-118094366D01*
X125283511Y-118153258D01*
X125283502Y-118153261D01*
X125077267Y-118249431D01*
X125077265Y-118249432D01*
X124890858Y-118379954D01*
X124729954Y-118540858D01*
X124599432Y-118727265D01*
X124599431Y-118727267D01*
X124503261Y-118933502D01*
X124503258Y-118933511D01*
X124444366Y-119153302D01*
X124444364Y-119153313D01*
X124424532Y-119379998D01*
X124424532Y-119380001D01*
X124444364Y-119606686D01*
X124444366Y-119606697D01*
X124503260Y-119826496D01*
X124507215Y-119834977D01*
X124514896Y-119856386D01*
X124515143Y-119857346D01*
X124918254Y-121058268D01*
X124924700Y-121097727D01*
X124924700Y-121297666D01*
X124905075Y-121364613D01*
X124459582Y-122059164D01*
X124459580Y-122059167D01*
X124456639Y-122065618D01*
X124443090Y-122088469D01*
X124436204Y-122097667D01*
X124436203Y-122097669D01*
X124411577Y-122163696D01*
X124408221Y-122171805D01*
X124400017Y-122189796D01*
X124398162Y-122196122D01*
X124397649Y-122198290D01*
X124393170Y-122213045D01*
X124385910Y-122232512D01*
X124385908Y-122232519D01*
X124379500Y-122292118D01*
X124379500Y-124087870D01*
X115650500Y-124087870D01*
X115650499Y-122292128D01*
X115644091Y-122232517D01*
X115635868Y-122210471D01*
X115631354Y-122195562D01*
X115630066Y-122190088D01*
X115621944Y-122172263D01*
X115618614Y-122164210D01*
X115618422Y-122163696D01*
X115609699Y-122140308D01*
X115593798Y-122097673D01*
X115593795Y-122097667D01*
X115586905Y-122088464D01*
X115573327Y-122065555D01*
X115570414Y-122059161D01*
X115570413Y-122059159D01*
X115483658Y-121923903D01*
X115282906Y-121610917D01*
X115124925Y-121364614D01*
X115105300Y-121297667D01*
X115105300Y-121097727D01*
X115111746Y-121058268D01*
X115514855Y-119857346D01*
X115516584Y-119851502D01*
X115523107Y-119834284D01*
X115526735Y-119826505D01*
X115526735Y-119826504D01*
X115526739Y-119826496D01*
X115585635Y-119606692D01*
X115605468Y-119380000D01*
X115585635Y-119153308D01*
X115526739Y-118933504D01*
X115430568Y-118727266D01*
X115300047Y-118540861D01*
X115300045Y-118540858D01*
X115139141Y-118379954D01*
X114952734Y-118249432D01*
X114952732Y-118249431D01*
X114746497Y-118153261D01*
X114746488Y-118153258D01*
X114526697Y-118094366D01*
X114526693Y-118094365D01*
X114526692Y-118094365D01*
X114526691Y-118094364D01*
X114526686Y-118094364D01*
X114300002Y-118074532D01*
X114299998Y-118074532D01*
X114073313Y-118094364D01*
X114073302Y-118094366D01*
X113853511Y-118153258D01*
X113853502Y-118153261D01*
X113647267Y-118249431D01*
X113647265Y-118249432D01*
X113460858Y-118379954D01*
X113299954Y-118540858D01*
X113169432Y-118727265D01*
X113169431Y-118727267D01*
X113073261Y-118933502D01*
X113073258Y-118933511D01*
X113014366Y-119153302D01*
X113014364Y-119153313D01*
X112994532Y-119379998D01*
X112994532Y-119380001D01*
X113014364Y-119606686D01*
X113014366Y-119606697D01*
X113073260Y-119826496D01*
X113077215Y-119834977D01*
X113084896Y-119856386D01*
X113085143Y-119857346D01*
X113488254Y-121058268D01*
X113494700Y-121097727D01*
X113494700Y-121297666D01*
X113475075Y-121364613D01*
X113029582Y-122059164D01*
X113029580Y-122059167D01*
X113026639Y-122065618D01*
X113013090Y-122088469D01*
X113006204Y-122097667D01*
X113006203Y-122097669D01*
X112981577Y-122163696D01*
X112978221Y-122171805D01*
X112970017Y-122189796D01*
X112968162Y-122196122D01*
X112967649Y-122198290D01*
X112963170Y-122213045D01*
X112955910Y-122232512D01*
X112955908Y-122232519D01*
X112949500Y-122292118D01*
X112949500Y-124087870D01*
X104220500Y-124087870D01*
X104220499Y-122292128D01*
X104214091Y-122232517D01*
X104205868Y-122210471D01*
X104201354Y-122195562D01*
X104200066Y-122190088D01*
X104191944Y-122172263D01*
X104188614Y-122164210D01*
X104188422Y-122163696D01*
X104179699Y-122140308D01*
X104163798Y-122097673D01*
X104163795Y-122097667D01*
X104156905Y-122088464D01*
X104143327Y-122065555D01*
X104140414Y-122059161D01*
X104140413Y-122059159D01*
X104053658Y-121923903D01*
X103852906Y-121610917D01*
X103694925Y-121364614D01*
X103675300Y-121297667D01*
X103675300Y-121097727D01*
X103681746Y-121058268D01*
X104084855Y-119857346D01*
X104086584Y-119851502D01*
X104093107Y-119834284D01*
X104096735Y-119826505D01*
X104096735Y-119826504D01*
X104096739Y-119826496D01*
X104155635Y-119606692D01*
X104175468Y-119380000D01*
X104155635Y-119153308D01*
X104096739Y-118933504D01*
X104000568Y-118727266D01*
X103870047Y-118540861D01*
X103870045Y-118540858D01*
X103709141Y-118379954D01*
X103522734Y-118249432D01*
X103522732Y-118249431D01*
X103316497Y-118153261D01*
X103316488Y-118153258D01*
X103096697Y-118094366D01*
X103096693Y-118094365D01*
X103096692Y-118094365D01*
X103096691Y-118094364D01*
X103096686Y-118094364D01*
X102870002Y-118074532D01*
X102869998Y-118074532D01*
X102643313Y-118094364D01*
X102643302Y-118094366D01*
X102423511Y-118153258D01*
X102423502Y-118153261D01*
X102217267Y-118249431D01*
X102217265Y-118249432D01*
X102030858Y-118379954D01*
X101869954Y-118540858D01*
X101739432Y-118727265D01*
X101739431Y-118727267D01*
X101643261Y-118933502D01*
X101643258Y-118933511D01*
X101584366Y-119153302D01*
X101584364Y-119153313D01*
X101564532Y-119379998D01*
X101564532Y-119380001D01*
X101584364Y-119606686D01*
X101584366Y-119606697D01*
X101643260Y-119826496D01*
X101647215Y-119834977D01*
X101654896Y-119856386D01*
X101655143Y-119857346D01*
X102058254Y-121058268D01*
X102064700Y-121097727D01*
X102064700Y-121297666D01*
X102045075Y-121364613D01*
X101599582Y-122059164D01*
X101599580Y-122059167D01*
X101596639Y-122065618D01*
X101583090Y-122088469D01*
X101576204Y-122097667D01*
X101576203Y-122097669D01*
X101551577Y-122163696D01*
X101548221Y-122171805D01*
X101540017Y-122189796D01*
X101538162Y-122196122D01*
X101537649Y-122198290D01*
X101533170Y-122213045D01*
X101525910Y-122232512D01*
X101525908Y-122232519D01*
X101519500Y-122292118D01*
X101519500Y-124087870D01*
X51300500Y-124087870D01*
X51300500Y-116840006D01*
X60861225Y-116840006D01*
X60879892Y-117065289D01*
X60935388Y-117284438D01*
X60949877Y-117317471D01*
X60957931Y-117343054D01*
X60959156Y-117349205D01*
X61417628Y-118647935D01*
X61424700Y-118689210D01*
X61424700Y-118828850D01*
X61417756Y-118869764D01*
X60971155Y-120147502D01*
X60967856Y-120158279D01*
X60961671Y-120174381D01*
X60956097Y-120186332D01*
X60894938Y-120414586D01*
X60894936Y-120414596D01*
X60874341Y-120649999D01*
X60874341Y-120650000D01*
X60894936Y-120885403D01*
X60894938Y-120885413D01*
X60956094Y-121113655D01*
X60956096Y-121113659D01*
X60956097Y-121113663D01*
X60960000Y-121122032D01*
X61055965Y-121327830D01*
X61055967Y-121327834D01*
X61081721Y-121364614D01*
X61191505Y-121521401D01*
X61358599Y-121688495D01*
X61455384Y-121756265D01*
X61552165Y-121824032D01*
X61552167Y-121824033D01*
X61552170Y-121824035D01*
X61766337Y-121923903D01*
X61994592Y-121985063D01*
X62171034Y-122000500D01*
X62229999Y-122005659D01*
X62230000Y-122005659D01*
X62230001Y-122005659D01*
X62288966Y-122000500D01*
X62465408Y-121985063D01*
X62693663Y-121923903D01*
X62907830Y-121824035D01*
X63101401Y-121688495D01*
X63268495Y-121521401D01*
X63398425Y-121335842D01*
X63453002Y-121292217D01*
X63522500Y-121285023D01*
X63584855Y-121316546D01*
X63601575Y-121335842D01*
X63731500Y-121521395D01*
X63731505Y-121521401D01*
X63898599Y-121688495D01*
X63995384Y-121756265D01*
X64092165Y-121824032D01*
X64092167Y-121824033D01*
X64092170Y-121824035D01*
X64306337Y-121923903D01*
X64534592Y-121985063D01*
X64711034Y-122000500D01*
X64769999Y-122005659D01*
X64770000Y-122005659D01*
X64770001Y-122005659D01*
X64828966Y-122000500D01*
X65005408Y-121985063D01*
X65233663Y-121923903D01*
X65447830Y-121824035D01*
X65641401Y-121688495D01*
X65808495Y-121521401D01*
X65938425Y-121335842D01*
X65993002Y-121292217D01*
X66062500Y-121285023D01*
X66124855Y-121316546D01*
X66141575Y-121335842D01*
X66271500Y-121521395D01*
X66271505Y-121521401D01*
X66438599Y-121688495D01*
X66535384Y-121756265D01*
X66632165Y-121824032D01*
X66632167Y-121824033D01*
X66632170Y-121824035D01*
X66846337Y-121923903D01*
X67074592Y-121985063D01*
X67251034Y-122000500D01*
X67309999Y-122005659D01*
X67310000Y-122005659D01*
X67310001Y-122005659D01*
X67368966Y-122000500D01*
X67545408Y-121985063D01*
X67773663Y-121923903D01*
X67987830Y-121824035D01*
X68181401Y-121688495D01*
X68303329Y-121566566D01*
X68364648Y-121533084D01*
X68434340Y-121538068D01*
X68490274Y-121579939D01*
X68507189Y-121610917D01*
X68556202Y-121742328D01*
X68556206Y-121742335D01*
X68642452Y-121857544D01*
X68642455Y-121857547D01*
X68757664Y-121943793D01*
X68757671Y-121943797D01*
X68892517Y-121994091D01*
X68892516Y-121994091D01*
X68899444Y-121994835D01*
X68952127Y-122000500D01*
X70747872Y-122000499D01*
X70807483Y-121994091D01*
X70942331Y-121943796D01*
X71057546Y-121857546D01*
X71143796Y-121742331D01*
X71194091Y-121607483D01*
X71200500Y-121547873D01*
X71200499Y-119752128D01*
X71194091Y-119692517D01*
X71185868Y-119670471D01*
X71181354Y-119655562D01*
X71180066Y-119650088D01*
X71171944Y-119632263D01*
X71168614Y-119624210D01*
X71143798Y-119557673D01*
X71143795Y-119557667D01*
X71136905Y-119548464D01*
X71123327Y-119525555D01*
X71120414Y-119519161D01*
X71120413Y-119519159D01*
X71116972Y-119513795D01*
X70885756Y-119153313D01*
X70674925Y-118824614D01*
X70655300Y-118757667D01*
X70655300Y-118689212D01*
X70662372Y-118647935D01*
X70673896Y-118615290D01*
X71120844Y-117349205D01*
X71129775Y-117320265D01*
X71134706Y-117307020D01*
X71144611Y-117284441D01*
X71200107Y-117065293D01*
X71214524Y-116891302D01*
X71218775Y-116840006D01*
X71218775Y-116839993D01*
X71205707Y-116682294D01*
X71200107Y-116614707D01*
X71144611Y-116395559D01*
X71053802Y-116188535D01*
X70930156Y-115999281D01*
X70796289Y-115853863D01*
X70765368Y-115791211D01*
X70773228Y-115721785D01*
X70817375Y-115667629D01*
X70883792Y-115645938D01*
X70907923Y-115647572D01*
X71006967Y-115664100D01*
X71006968Y-115664100D01*
X71233032Y-115664100D01*
X71233033Y-115664100D01*
X71456014Y-115626891D01*
X71621733Y-115570000D01*
X76964709Y-115570000D01*
X76983856Y-115910959D01*
X76983858Y-115910971D01*
X77041060Y-116247637D01*
X77041062Y-116247646D01*
X77083676Y-116395560D01*
X77135601Y-116575796D01*
X77239221Y-116825956D01*
X77266287Y-116891300D01*
X77431480Y-117190196D01*
X77431483Y-117190201D01*
X77629092Y-117468703D01*
X77629096Y-117468708D01*
X77856654Y-117723346D01*
X78111292Y-117950904D01*
X78111295Y-117950906D01*
X78111296Y-117950907D01*
X78389798Y-118148516D01*
X78389803Y-118148519D01*
X78389806Y-118148520D01*
X78389808Y-118148522D01*
X78688698Y-118313712D01*
X79004204Y-118444399D01*
X79332359Y-118538939D01*
X79669036Y-118596143D01*
X80010000Y-118615291D01*
X80350964Y-118596143D01*
X80687641Y-118538939D01*
X81015796Y-118444399D01*
X81331302Y-118313712D01*
X81630192Y-118148522D01*
X81630197Y-118148518D01*
X81630201Y-118148516D01*
X81745310Y-118066840D01*
X81908708Y-117950904D01*
X82163346Y-117723346D01*
X82390904Y-117468708D01*
X82521651Y-117284438D01*
X82588516Y-117190201D01*
X82588519Y-117190196D01*
X82588522Y-117190192D01*
X82753712Y-116891302D01*
X82884399Y-116575796D01*
X82978939Y-116247641D01*
X83036143Y-115910964D01*
X83055291Y-115570000D01*
X223014709Y-115570000D01*
X223033856Y-115910959D01*
X223033858Y-115910971D01*
X223091060Y-116247637D01*
X223091062Y-116247646D01*
X223133676Y-116395560D01*
X223185601Y-116575796D01*
X223289221Y-116825956D01*
X223316287Y-116891300D01*
X223481480Y-117190196D01*
X223481483Y-117190201D01*
X223679092Y-117468703D01*
X223679096Y-117468708D01*
X223906654Y-117723346D01*
X224161292Y-117950904D01*
X224161295Y-117950906D01*
X224161296Y-117950907D01*
X224439798Y-118148516D01*
X224439803Y-118148519D01*
X224439806Y-118148520D01*
X224439808Y-118148522D01*
X224738698Y-118313712D01*
X225054204Y-118444399D01*
X225382359Y-118538939D01*
X225719036Y-118596143D01*
X226060000Y-118615291D01*
X226400964Y-118596143D01*
X226737641Y-118538939D01*
X227065796Y-118444399D01*
X227381302Y-118313712D01*
X227680192Y-118148522D01*
X227680197Y-118148518D01*
X227680201Y-118148516D01*
X227795310Y-118066840D01*
X227958708Y-117950904D01*
X228213346Y-117723346D01*
X228440904Y-117468708D01*
X228571651Y-117284438D01*
X228638516Y-117190201D01*
X228638519Y-117190196D01*
X228638522Y-117190192D01*
X228803712Y-116891302D01*
X228934399Y-116575796D01*
X229028939Y-116247641D01*
X229086143Y-115910964D01*
X229105291Y-115570000D01*
X229086143Y-115229036D01*
X229028939Y-114892359D01*
X228934399Y-114564204D01*
X228803712Y-114248698D01*
X228638522Y-113949808D01*
X228638520Y-113949806D01*
X228638519Y-113949803D01*
X228638516Y-113949798D01*
X228440907Y-113671296D01*
X228440906Y-113671295D01*
X228440904Y-113671292D01*
X228213346Y-113416654D01*
X227958708Y-113189096D01*
X227958705Y-113189094D01*
X227958703Y-113189092D01*
X227680201Y-112991483D01*
X227680196Y-112991480D01*
X227381300Y-112826287D01*
X227315956Y-112799221D01*
X227065796Y-112695601D01*
X226892864Y-112645780D01*
X226737646Y-112601062D01*
X226737637Y-112601060D01*
X226400971Y-112543858D01*
X226400959Y-112543856D01*
X226060000Y-112524709D01*
X225719040Y-112543856D01*
X225719028Y-112543858D01*
X225382362Y-112601060D01*
X225382353Y-112601062D01*
X225054207Y-112695600D01*
X225054204Y-112695601D01*
X224961796Y-112733877D01*
X224738699Y-112826287D01*
X224439803Y-112991480D01*
X224439798Y-112991483D01*
X224161296Y-113189092D01*
X223906654Y-113416654D01*
X223679092Y-113671296D01*
X223481483Y-113949798D01*
X223481480Y-113949803D01*
X223316287Y-114248699D01*
X223231911Y-114452402D01*
X223201719Y-114525293D01*
X223185600Y-114564207D01*
X223091062Y-114892353D01*
X223091060Y-114892362D01*
X223033858Y-115229028D01*
X223033856Y-115229040D01*
X223014709Y-115570000D01*
X83055291Y-115570000D01*
X83036143Y-115229036D01*
X82978939Y-114892359D01*
X82884399Y-114564204D01*
X82753712Y-114248698D01*
X82588522Y-113949808D01*
X82588520Y-113949806D01*
X82588519Y-113949803D01*
X82588516Y-113949798D01*
X82390907Y-113671296D01*
X82390906Y-113671295D01*
X82390904Y-113671292D01*
X82163346Y-113416654D01*
X81908708Y-113189096D01*
X81908705Y-113189094D01*
X81908703Y-113189092D01*
X81630201Y-112991483D01*
X81630196Y-112991480D01*
X81331300Y-112826287D01*
X81265956Y-112799221D01*
X81015796Y-112695601D01*
X80842864Y-112645780D01*
X80687646Y-112601062D01*
X80687637Y-112601060D01*
X80350971Y-112543858D01*
X80350959Y-112543856D01*
X80010000Y-112524709D01*
X79669040Y-112543856D01*
X79669028Y-112543858D01*
X79332362Y-112601060D01*
X79332353Y-112601062D01*
X79004207Y-112695600D01*
X79004204Y-112695601D01*
X78911796Y-112733877D01*
X78688699Y-112826287D01*
X78389803Y-112991480D01*
X78389798Y-112991483D01*
X78111296Y-113189092D01*
X77856654Y-113416654D01*
X77629092Y-113671296D01*
X77431483Y-113949798D01*
X77431480Y-113949803D01*
X77266287Y-114248699D01*
X77181911Y-114452402D01*
X77151719Y-114525293D01*
X77135600Y-114564207D01*
X77041062Y-114892353D01*
X77041060Y-114892362D01*
X76983858Y-115229028D01*
X76983856Y-115229040D01*
X76964709Y-115570000D01*
X71621733Y-115570000D01*
X71669831Y-115553488D01*
X71868649Y-115445893D01*
X72047046Y-115307040D01*
X72200156Y-115140719D01*
X72323802Y-114951465D01*
X72414611Y-114744441D01*
X72470107Y-114525293D01*
X72488775Y-114300000D01*
X72488775Y-114299993D01*
X72475707Y-114142294D01*
X72470107Y-114074707D01*
X72414611Y-113855559D01*
X72323802Y-113648535D01*
X72200156Y-113459281D01*
X72200153Y-113459278D01*
X72200149Y-113459272D01*
X72047049Y-113292963D01*
X72047048Y-113292962D01*
X72047046Y-113292960D01*
X71868649Y-113154107D01*
X71868647Y-113154106D01*
X71868646Y-113154105D01*
X71868639Y-113154100D01*
X71840836Y-113139055D01*
X71791244Y-113089837D01*
X71776135Y-113021620D01*
X71800306Y-112956064D01*
X71840836Y-112920945D01*
X71868639Y-112905899D01*
X71868642Y-112905896D01*
X71868649Y-112905893D01*
X72047046Y-112767040D01*
X72158674Y-112645780D01*
X72200149Y-112600727D01*
X72200150Y-112600725D01*
X72200156Y-112600719D01*
X72323802Y-112411465D01*
X72414611Y-112204441D01*
X72470107Y-111985293D01*
X72488775Y-111760000D01*
X72488775Y-111759998D01*
X72488775Y-111759993D01*
X72470107Y-111534710D01*
X72470107Y-111534707D01*
X72414611Y-111315559D01*
X72323802Y-111108535D01*
X72200156Y-110919281D01*
X72200153Y-110919278D01*
X72200149Y-110919272D01*
X72047049Y-110752963D01*
X72047048Y-110752962D01*
X72047046Y-110752960D01*
X71868649Y-110614107D01*
X71868647Y-110614106D01*
X71868646Y-110614105D01*
X71868639Y-110614100D01*
X71840836Y-110599055D01*
X71791244Y-110549837D01*
X71776135Y-110481620D01*
X71800306Y-110416064D01*
X71840836Y-110380945D01*
X71868639Y-110365899D01*
X71868642Y-110365896D01*
X71868649Y-110365893D01*
X72047046Y-110227040D01*
X72200156Y-110060719D01*
X72323802Y-109871465D01*
X72414611Y-109664441D01*
X72470107Y-109445293D01*
X72488775Y-109220000D01*
X72488775Y-109219993D01*
X72472087Y-109018602D01*
X72470107Y-108994707D01*
X72414611Y-108775559D01*
X72323802Y-108568535D01*
X72200156Y-108379281D01*
X72200153Y-108379278D01*
X72200149Y-108379272D01*
X72047049Y-108212963D01*
X72047048Y-108212962D01*
X72047046Y-108212960D01*
X71868649Y-108074107D01*
X71749889Y-108009837D01*
X71669832Y-107966512D01*
X71669827Y-107966510D01*
X71456017Y-107893109D01*
X71288778Y-107865202D01*
X71233033Y-107855900D01*
X71006967Y-107855900D01*
X70962370Y-107863341D01*
X70783982Y-107893109D01*
X70570172Y-107966510D01*
X70570167Y-107966512D01*
X70371352Y-108074106D01*
X70192955Y-108212959D01*
X70192950Y-108212963D01*
X70039850Y-108379272D01*
X70039842Y-108379283D01*
X69916198Y-108568533D01*
X69825388Y-108775560D01*
X69769892Y-108994710D01*
X69751225Y-109219993D01*
X69751225Y-109220006D01*
X69769892Y-109445289D01*
X69825388Y-109664439D01*
X69916198Y-109871466D01*
X70039842Y-110060716D01*
X70039850Y-110060727D01*
X70192950Y-110227036D01*
X70192954Y-110227040D01*
X70371351Y-110365893D01*
X70399165Y-110380945D01*
X70448755Y-110430165D01*
X70463863Y-110498382D01*
X70439692Y-110563937D01*
X70399165Y-110599055D01*
X70371352Y-110614106D01*
X70192955Y-110752959D01*
X70192950Y-110752963D01*
X70039850Y-110919272D01*
X70039842Y-110919283D01*
X69916198Y-111108533D01*
X69825388Y-111315560D01*
X69769892Y-111534710D01*
X69751225Y-111759993D01*
X69751225Y-111760006D01*
X69769892Y-111985289D01*
X69825388Y-112204439D01*
X69916198Y-112411466D01*
X70039842Y-112600716D01*
X70039850Y-112600727D01*
X70186516Y-112760047D01*
X70192954Y-112767040D01*
X70371351Y-112905893D01*
X70399165Y-112920945D01*
X70448755Y-112970165D01*
X70463863Y-113038382D01*
X70439692Y-113103937D01*
X70399165Y-113139055D01*
X70371352Y-113154106D01*
X70192955Y-113292959D01*
X70192950Y-113292963D01*
X70039850Y-113459272D01*
X70039842Y-113459283D01*
X69916198Y-113648533D01*
X69825388Y-113855560D01*
X69769892Y-114074710D01*
X69751225Y-114299993D01*
X69751225Y-114300006D01*
X69769892Y-114525289D01*
X69825388Y-114744439D01*
X69916198Y-114951466D01*
X70039842Y-115140716D01*
X70039845Y-115140720D01*
X70173709Y-115286134D01*
X70204631Y-115348788D01*
X70196771Y-115418214D01*
X70152624Y-115472370D01*
X70086207Y-115494061D01*
X70062070Y-115492426D01*
X69963033Y-115475900D01*
X69736967Y-115475900D01*
X69692370Y-115483341D01*
X69513982Y-115513109D01*
X69300172Y-115586510D01*
X69300167Y-115586512D01*
X69101352Y-115694106D01*
X68922955Y-115832959D01*
X68922950Y-115832963D01*
X68769850Y-115999272D01*
X68769842Y-115999283D01*
X68683808Y-116130968D01*
X68630662Y-116176325D01*
X68561430Y-116185748D01*
X68498095Y-116156246D01*
X68476192Y-116130968D01*
X68390157Y-115999283D01*
X68390149Y-115999272D01*
X68237049Y-115832963D01*
X68237048Y-115832962D01*
X68237046Y-115832960D01*
X68058649Y-115694107D01*
X67934445Y-115626891D01*
X67859832Y-115586512D01*
X67859827Y-115586510D01*
X67646017Y-115513109D01*
X67478778Y-115485202D01*
X67423033Y-115475900D01*
X67196967Y-115475900D01*
X67152370Y-115483341D01*
X66973982Y-115513109D01*
X66760172Y-115586510D01*
X66760167Y-115586512D01*
X66561352Y-115694106D01*
X66382955Y-115832959D01*
X66382950Y-115832963D01*
X66229850Y-115999272D01*
X66229842Y-115999283D01*
X66143808Y-116130968D01*
X66090662Y-116176325D01*
X66021430Y-116185748D01*
X65958095Y-116156246D01*
X65936192Y-116130968D01*
X65850157Y-115999283D01*
X65850149Y-115999272D01*
X65697049Y-115832963D01*
X65697048Y-115832962D01*
X65697046Y-115832960D01*
X65518649Y-115694107D01*
X65394445Y-115626891D01*
X65319832Y-115586512D01*
X65319827Y-115586510D01*
X65106017Y-115513109D01*
X64938778Y-115485202D01*
X64883033Y-115475900D01*
X64656967Y-115475900D01*
X64612370Y-115483341D01*
X64433982Y-115513109D01*
X64220172Y-115586510D01*
X64220167Y-115586512D01*
X64021352Y-115694106D01*
X63842955Y-115832959D01*
X63842950Y-115832963D01*
X63689850Y-115999272D01*
X63689842Y-115999283D01*
X63603808Y-116130968D01*
X63550662Y-116176325D01*
X63481430Y-116185748D01*
X63418095Y-116156246D01*
X63396192Y-116130968D01*
X63310157Y-115999283D01*
X63310149Y-115999272D01*
X63157049Y-115832963D01*
X63157048Y-115832962D01*
X63157046Y-115832960D01*
X62978649Y-115694107D01*
X62854445Y-115626891D01*
X62779832Y-115586512D01*
X62779827Y-115586510D01*
X62566017Y-115513109D01*
X62398778Y-115485202D01*
X62343033Y-115475900D01*
X62116967Y-115475900D01*
X62072370Y-115483341D01*
X61893982Y-115513109D01*
X61680172Y-115586510D01*
X61680167Y-115586512D01*
X61481352Y-115694106D01*
X61302955Y-115832959D01*
X61302950Y-115832963D01*
X61149850Y-115999272D01*
X61149842Y-115999283D01*
X61026198Y-116188533D01*
X60935388Y-116395560D01*
X60879892Y-116614710D01*
X60861225Y-116839993D01*
X60861225Y-116840006D01*
X51300500Y-116840006D01*
X51300500Y-66040000D01*
X51984341Y-66040000D01*
X52004936Y-66275403D01*
X52004938Y-66275413D01*
X52066094Y-66503655D01*
X52066098Y-66503665D01*
X52082609Y-66539074D01*
X52090192Y-66560105D01*
X52093374Y-66572274D01*
X52208407Y-66845480D01*
X52542785Y-67639642D01*
X52552030Y-67676951D01*
X52564178Y-67815797D01*
X52622877Y-68148697D01*
X52622881Y-68148714D01*
X52710367Y-68475226D01*
X52710369Y-68475230D01*
X52710372Y-68475240D01*
X52726111Y-68518483D01*
X52825988Y-68792900D01*
X52825996Y-68792919D01*
X52968854Y-69099282D01*
X52968856Y-69099285D01*
X53137877Y-69392045D01*
X53331770Y-69668959D01*
X53331774Y-69668964D01*
X53331775Y-69668965D01*
X53549068Y-69927930D01*
X53549075Y-69927937D01*
X53635323Y-70014188D01*
X53635322Y-70014188D01*
X53651141Y-70030007D01*
X53651146Y-70030014D01*
X53733801Y-70112669D01*
X53733819Y-70112685D01*
X54348136Y-70727002D01*
X54348218Y-70727093D01*
X54376420Y-70755291D01*
X54376555Y-70755539D01*
X54411054Y-70790037D01*
X54415816Y-70795074D01*
X54576831Y-70975253D01*
X54585492Y-70986114D01*
X54724147Y-71181534D01*
X54731539Y-71193299D01*
X54847434Y-71403000D01*
X54853467Y-71415528D01*
X54945154Y-71636883D01*
X54949747Y-71650008D01*
X55016076Y-71880245D01*
X55019170Y-71893801D01*
X55059303Y-72130008D01*
X55060860Y-72143826D01*
X55074505Y-72386799D01*
X55074700Y-72393752D01*
X55074700Y-74307666D01*
X55055075Y-74374613D01*
X54609582Y-75069164D01*
X54609580Y-75069167D01*
X54606639Y-75075618D01*
X54593090Y-75098469D01*
X54586204Y-75107667D01*
X54586203Y-75107669D01*
X54561577Y-75173696D01*
X54558221Y-75181805D01*
X54550017Y-75199796D01*
X54548162Y-75206122D01*
X54547649Y-75208290D01*
X54543170Y-75223045D01*
X54535909Y-75242516D01*
X54535562Y-75243985D01*
X54534980Y-75245005D01*
X54533200Y-75249781D01*
X54532425Y-75249492D01*
X54500988Y-75304701D01*
X54494055Y-75310905D01*
X53707553Y-75963354D01*
X53692538Y-75976317D01*
X53691845Y-75976939D01*
X53636052Y-76034953D01*
X53635981Y-76034885D01*
X53634045Y-76037085D01*
X53560725Y-76110407D01*
X53560725Y-76110408D01*
X53441894Y-76229240D01*
X53441858Y-76229259D01*
X53302267Y-76368852D01*
X53116943Y-76594670D01*
X53116926Y-76594693D01*
X52954643Y-76837568D01*
X52954631Y-76837589D01*
X52816921Y-77095230D01*
X52816915Y-77095244D01*
X52705126Y-77365129D01*
X52620322Y-77644694D01*
X52563328Y-77931238D01*
X52541151Y-78156429D01*
X52536321Y-78205489D01*
X52534698Y-78221966D01*
X52534700Y-78363225D01*
X52534700Y-112180375D01*
X52534709Y-112180744D01*
X52534709Y-112278032D01*
X52534709Y-112278035D01*
X52543936Y-112371729D01*
X52563339Y-112568756D01*
X52563339Y-112568759D01*
X52563340Y-112568768D01*
X52563341Y-112568770D01*
X52580188Y-112653471D01*
X52614561Y-112826287D01*
X52620332Y-112855298D01*
X52705134Y-113134860D01*
X52705136Y-113134865D01*
X52705137Y-113134868D01*
X52707773Y-113141231D01*
X52816930Y-113404764D01*
X52846065Y-113459272D01*
X52954645Y-113662415D01*
X53116942Y-113905308D01*
X53116952Y-113905322D01*
X53302279Y-114131145D01*
X53373574Y-114202441D01*
X53373580Y-114202446D01*
X53373583Y-114202449D01*
X53373585Y-114202451D01*
X53454030Y-114282896D01*
X53626024Y-114454891D01*
X53626214Y-114455070D01*
X53684408Y-114513265D01*
X53889743Y-114677018D01*
X53889745Y-114677019D01*
X53889744Y-114677019D01*
X53997041Y-114744439D01*
X54112122Y-114816751D01*
X54269109Y-114892353D01*
X54276491Y-114895908D01*
X54288660Y-114902634D01*
X55034263Y-115371118D01*
X55044451Y-115378256D01*
X55131351Y-115445893D01*
X55330169Y-115553488D01*
X55330172Y-115553489D01*
X55543982Y-115626890D01*
X55543984Y-115626890D01*
X55543986Y-115626891D01*
X55766967Y-115664100D01*
X55766968Y-115664100D01*
X55993032Y-115664100D01*
X55993033Y-115664100D01*
X56216014Y-115626891D01*
X56429831Y-115553488D01*
X56628649Y-115445893D01*
X56807046Y-115307040D01*
X56960156Y-115140719D01*
X57083802Y-114951465D01*
X57174611Y-114744441D01*
X57230107Y-114525293D01*
X57248775Y-114300000D01*
X57248775Y-114299993D01*
X57235707Y-114142294D01*
X57230107Y-114074707D01*
X57174611Y-113855559D01*
X57083802Y-113648535D01*
X56960156Y-113459281D01*
X56960153Y-113459278D01*
X56960149Y-113459272D01*
X56807049Y-113292963D01*
X56807048Y-113292962D01*
X56807046Y-113292960D01*
X56628649Y-113154107D01*
X56600835Y-113139055D01*
X56429832Y-113046512D01*
X56429827Y-113046510D01*
X56216017Y-112973109D01*
X56048778Y-112945202D01*
X55993033Y-112935900D01*
X55766967Y-112935900D01*
X55711221Y-112945202D01*
X55543983Y-112973109D01*
X55491102Y-112991262D01*
X55472790Y-112996022D01*
X54665366Y-113141231D01*
X54595901Y-113133723D01*
X54555737Y-113106870D01*
X54547305Y-113098438D01*
X54541758Y-113092516D01*
X54432260Y-112967657D01*
X54422386Y-112954788D01*
X54332389Y-112820097D01*
X54324279Y-112806050D01*
X54252633Y-112660765D01*
X54246425Y-112645780D01*
X54231246Y-112601062D01*
X54194349Y-112492362D01*
X54190157Y-112476719D01*
X54158551Y-112317818D01*
X54156435Y-112301742D01*
X54145564Y-112135850D01*
X54145300Y-112127760D01*
X54145301Y-112047343D01*
X54145300Y-112047338D01*
X54145300Y-78452660D01*
X54145301Y-78452656D01*
X54145300Y-78372078D01*
X54145565Y-78363971D01*
X54150819Y-78283796D01*
X54156425Y-78198246D01*
X54158539Y-78182182D01*
X54190145Y-78023284D01*
X54194342Y-78007622D01*
X54220270Y-77931238D01*
X54246417Y-77854209D01*
X54252616Y-77839243D01*
X54324272Y-77693940D01*
X54332378Y-77679900D01*
X54340687Y-77667465D01*
X54422387Y-77545190D01*
X54432247Y-77532340D01*
X54493444Y-77462558D01*
X54552443Y-77425136D01*
X54622312Y-77425552D01*
X54635792Y-77430464D01*
X54822445Y-77510994D01*
X54822455Y-77510997D01*
X54822459Y-77510999D01*
X54883028Y-77530098D01*
X54892741Y-77533161D01*
X54898781Y-77535238D01*
X54922517Y-77544091D01*
X54982127Y-77550500D01*
X56777872Y-77550499D01*
X56837483Y-77544091D01*
X56907743Y-77517884D01*
X56913713Y-77516063D01*
X56913653Y-77515875D01*
X56917867Y-77514527D01*
X56917877Y-77514525D01*
X56926190Y-77511196D01*
X56926249Y-77511168D01*
X56926500Y-77511061D01*
X56932365Y-77508700D01*
X56972331Y-77493796D01*
X57087546Y-77407546D01*
X57087551Y-77407538D01*
X57093683Y-77401406D01*
X57094644Y-77400456D01*
X57427419Y-77075429D01*
X57489130Y-77042671D01*
X57534825Y-77041891D01*
X57646209Y-77060815D01*
X57659748Y-77063905D01*
X57889999Y-77130239D01*
X57903120Y-77134831D01*
X58124477Y-77226518D01*
X58137005Y-77232551D01*
X58346713Y-77348450D01*
X58358476Y-77355842D01*
X58508886Y-77462561D01*
X58553888Y-77494491D01*
X58564752Y-77503153D01*
X58745844Y-77664984D01*
X58750862Y-77669729D01*
X58767776Y-77686643D01*
X58767791Y-77686657D01*
X64090015Y-83008882D01*
X64090025Y-83008901D01*
X64123525Y-83042400D01*
X64123525Y-83042401D01*
X64273671Y-83192546D01*
X64350415Y-83258091D01*
X64596594Y-83468347D01*
X64596606Y-83468356D01*
X64787570Y-83607099D01*
X64940171Y-83717969D01*
X65302268Y-83939862D01*
X65302281Y-83939868D01*
X65302287Y-83939872D01*
X65407755Y-83993610D01*
X65680659Y-84132660D01*
X65967083Y-84251300D01*
X66073014Y-84295178D01*
X66378766Y-84394522D01*
X66476901Y-84426408D01*
X66889845Y-84525547D01*
X67309293Y-84591981D01*
X67732661Y-84625300D01*
X67899771Y-84625300D01*
X69797810Y-84625300D01*
X69811694Y-84626080D01*
X69849998Y-84630396D01*
X69850000Y-84630396D01*
X69850004Y-84630396D01*
X70030324Y-84610079D01*
X70030327Y-84610078D01*
X70030330Y-84610078D01*
X70030331Y-84610077D01*
X70030334Y-84610077D01*
X70096469Y-84586935D01*
X70110332Y-84582083D01*
X70180111Y-84578521D01*
X70240739Y-84613250D01*
X70272966Y-84675243D01*
X70273536Y-84678354D01*
X70297134Y-84817242D01*
X70288957Y-84886632D01*
X70287651Y-84889589D01*
X69867439Y-85808326D01*
X69863415Y-85817354D01*
X69863301Y-85817618D01*
X69840543Y-85880349D01*
X69837535Y-85887864D01*
X69825389Y-85915555D01*
X69769892Y-86134710D01*
X69751225Y-86359993D01*
X69751225Y-86360006D01*
X69769892Y-86585289D01*
X69825388Y-86804439D01*
X69916198Y-87011466D01*
X70039842Y-87200716D01*
X70039850Y-87200727D01*
X70192950Y-87367036D01*
X70192954Y-87367040D01*
X70371351Y-87505893D01*
X70399165Y-87520945D01*
X70448755Y-87570165D01*
X70463863Y-87638382D01*
X70439692Y-87703937D01*
X70399165Y-87739054D01*
X70395144Y-87741231D01*
X70371352Y-87754106D01*
X70192955Y-87892959D01*
X70192950Y-87892963D01*
X70039850Y-88059272D01*
X70039842Y-88059283D01*
X69916198Y-88248533D01*
X69825388Y-88455560D01*
X69769892Y-88674710D01*
X69751225Y-88899993D01*
X69751225Y-88900006D01*
X69769892Y-89125289D01*
X69825388Y-89344439D01*
X69897274Y-89508324D01*
X69916198Y-89551465D01*
X69926873Y-89567804D01*
X69965122Y-89626348D01*
X69985309Y-89693238D01*
X69966129Y-89760423D01*
X69913671Y-89806574D01*
X69903725Y-89810691D01*
X69727712Y-89874756D01*
X69727708Y-89874758D01*
X69404930Y-90025274D01*
X69096517Y-90203339D01*
X69096513Y-90203341D01*
X69096509Y-90203344D01*
X69038537Y-90243937D01*
X68804771Y-90407622D01*
X68531975Y-90636526D01*
X68531951Y-90636548D01*
X68433950Y-90734550D01*
X68433949Y-90734552D01*
X58412911Y-100755589D01*
X58412742Y-100755768D01*
X58358488Y-100810022D01*
X58356166Y-100812621D01*
X58356067Y-100812533D01*
X58345115Y-100824190D01*
X58335763Y-100832654D01*
X58335751Y-100832667D01*
X57450317Y-101900380D01*
X57392371Y-101939419D01*
X57322518Y-101940932D01*
X57262935Y-101904439D01*
X57232541Y-101841527D01*
X57231292Y-101810986D01*
X57248775Y-101600005D01*
X57248775Y-101599993D01*
X57230107Y-101374710D01*
X57230107Y-101374707D01*
X57174611Y-101155559D01*
X57083802Y-100948535D01*
X57082593Y-100946685D01*
X57021979Y-100853908D01*
X56960156Y-100759281D01*
X56960153Y-100759278D01*
X56960149Y-100759272D01*
X56807049Y-100592963D01*
X56807048Y-100592962D01*
X56807046Y-100592960D01*
X56628649Y-100454107D01*
X56628647Y-100454106D01*
X56628646Y-100454105D01*
X56628639Y-100454100D01*
X56600836Y-100439055D01*
X56551244Y-100389837D01*
X56536135Y-100321620D01*
X56560306Y-100256064D01*
X56600836Y-100220945D01*
X56628639Y-100205899D01*
X56628642Y-100205896D01*
X56628649Y-100205893D01*
X56807046Y-100067040D01*
X56954514Y-99906848D01*
X56960149Y-99900727D01*
X56960150Y-99900725D01*
X56960156Y-99900719D01*
X57083802Y-99711465D01*
X57174611Y-99504441D01*
X57230107Y-99285293D01*
X57243327Y-99125750D01*
X57248775Y-99060006D01*
X57248775Y-99059993D01*
X57230107Y-98834710D01*
X57230107Y-98834707D01*
X57174611Y-98615559D01*
X57083802Y-98408535D01*
X57082593Y-98406685D01*
X56960157Y-98219283D01*
X56960149Y-98219272D01*
X56807049Y-98052963D01*
X56807048Y-98052962D01*
X56807046Y-98052960D01*
X56628649Y-97914107D01*
X56628647Y-97914106D01*
X56628646Y-97914105D01*
X56628639Y-97914100D01*
X56600836Y-97899055D01*
X56551244Y-97849837D01*
X56536135Y-97781620D01*
X56560306Y-97716064D01*
X56600836Y-97680945D01*
X56628639Y-97665899D01*
X56628642Y-97665896D01*
X56628649Y-97665893D01*
X56807046Y-97527040D01*
X56960156Y-97360719D01*
X57083802Y-97171465D01*
X57174611Y-96964441D01*
X57230107Y-96745293D01*
X57248775Y-96520000D01*
X57248775Y-96519993D01*
X57230107Y-96294710D01*
X57230107Y-96294707D01*
X57174611Y-96075559D01*
X57083802Y-95868535D01*
X56960156Y-95679281D01*
X56960153Y-95679278D01*
X56960149Y-95679272D01*
X56807049Y-95512963D01*
X56807048Y-95512962D01*
X56807046Y-95512960D01*
X56628649Y-95374107D01*
X56628647Y-95374106D01*
X56628646Y-95374105D01*
X56628639Y-95374100D01*
X56600836Y-95359055D01*
X56551244Y-95309837D01*
X56536135Y-95241620D01*
X56560306Y-95176064D01*
X56600836Y-95140945D01*
X56628639Y-95125899D01*
X56628642Y-95125896D01*
X56628649Y-95125893D01*
X56807046Y-94987040D01*
X56960156Y-94820719D01*
X57083802Y-94631465D01*
X57174611Y-94424441D01*
X57230107Y-94205293D01*
X57248775Y-93980000D01*
X57248775Y-93979993D01*
X57230107Y-93754710D01*
X57230107Y-93754707D01*
X57174611Y-93535559D01*
X57083802Y-93328535D01*
X57073064Y-93312100D01*
X56970013Y-93154369D01*
X56960156Y-93139281D01*
X56960153Y-93139278D01*
X56960149Y-93139272D01*
X56807049Y-92972963D01*
X56807048Y-92972962D01*
X56807046Y-92972960D01*
X56628649Y-92834107D01*
X56628647Y-92834106D01*
X56628646Y-92834105D01*
X56628639Y-92834100D01*
X56600836Y-92819055D01*
X56551244Y-92769837D01*
X56536135Y-92701620D01*
X56560306Y-92636064D01*
X56600836Y-92600945D01*
X56628639Y-92585899D01*
X56628642Y-92585896D01*
X56628649Y-92585893D01*
X56807046Y-92447040D01*
X56960156Y-92280719D01*
X57083802Y-92091465D01*
X57174611Y-91884441D01*
X57230107Y-91665293D01*
X57242895Y-91510968D01*
X57248775Y-91440006D01*
X57248775Y-91439993D01*
X57230107Y-91214710D01*
X57230107Y-91214707D01*
X57174611Y-90995559D01*
X57083802Y-90788535D01*
X57073070Y-90772109D01*
X56984504Y-90636548D01*
X56960156Y-90599281D01*
X56960153Y-90599278D01*
X56960149Y-90599272D01*
X56807049Y-90432963D01*
X56807048Y-90432962D01*
X56807046Y-90432960D01*
X56628649Y-90294107D01*
X56628647Y-90294106D01*
X56628646Y-90294105D01*
X56628639Y-90294100D01*
X56600836Y-90279055D01*
X56551244Y-90229837D01*
X56536135Y-90161620D01*
X56560306Y-90096064D01*
X56600836Y-90060945D01*
X56628639Y-90045899D01*
X56628642Y-90045896D01*
X56628649Y-90045893D01*
X56807046Y-89907040D01*
X56942017Y-89760423D01*
X56960149Y-89740727D01*
X56960150Y-89740725D01*
X56960156Y-89740719D01*
X57083802Y-89551465D01*
X57174611Y-89344441D01*
X57230107Y-89125293D01*
X57238797Y-89020414D01*
X57248775Y-88900006D01*
X57248775Y-88899993D01*
X57230107Y-88674710D01*
X57230107Y-88674707D01*
X57174611Y-88455559D01*
X57083802Y-88248535D01*
X56960156Y-88059281D01*
X56960153Y-88059278D01*
X56960149Y-88059272D01*
X56807049Y-87892963D01*
X56807048Y-87892962D01*
X56807046Y-87892960D01*
X56628649Y-87754107D01*
X56628647Y-87754106D01*
X56628646Y-87754105D01*
X56628639Y-87754100D01*
X56600836Y-87739055D01*
X56551244Y-87689837D01*
X56536135Y-87621620D01*
X56560306Y-87556064D01*
X56600836Y-87520945D01*
X56628639Y-87505899D01*
X56628642Y-87505896D01*
X56628649Y-87505893D01*
X56807046Y-87367040D01*
X56960156Y-87200719D01*
X57046193Y-87069028D01*
X57099338Y-87023675D01*
X57168569Y-87014251D01*
X57231905Y-87043753D01*
X57253804Y-87069025D01*
X57339844Y-87200719D01*
X57339849Y-87200724D01*
X57339850Y-87200727D01*
X57492950Y-87367036D01*
X57492954Y-87367040D01*
X57671351Y-87505893D01*
X57870169Y-87613488D01*
X57870172Y-87613489D01*
X58083982Y-87686890D01*
X58083984Y-87686890D01*
X58083986Y-87686891D01*
X58306967Y-87724100D01*
X58306968Y-87724100D01*
X58533032Y-87724100D01*
X58533033Y-87724100D01*
X58756014Y-87686891D01*
X58969831Y-87613488D01*
X59168649Y-87505893D01*
X59347046Y-87367040D01*
X59500156Y-87200719D01*
X59586193Y-87069028D01*
X59639338Y-87023675D01*
X59708569Y-87014251D01*
X59771905Y-87043753D01*
X59793804Y-87069025D01*
X59879844Y-87200719D01*
X59879849Y-87200724D01*
X59879850Y-87200727D01*
X60032950Y-87367036D01*
X60032954Y-87367040D01*
X60211351Y-87505893D01*
X60410169Y-87613488D01*
X60410172Y-87613489D01*
X60623982Y-87686890D01*
X60623984Y-87686890D01*
X60623986Y-87686891D01*
X60846967Y-87724100D01*
X60846968Y-87724100D01*
X61073032Y-87724100D01*
X61073033Y-87724100D01*
X61296014Y-87686891D01*
X61509831Y-87613488D01*
X61708649Y-87505893D01*
X61887046Y-87367040D01*
X62040156Y-87200719D01*
X62163802Y-87011465D01*
X62254611Y-86804441D01*
X62310107Y-86585293D01*
X62328775Y-86360000D01*
X62328775Y-86359999D01*
X62328775Y-86359993D01*
X62310107Y-86134710D01*
X62310107Y-86134707D01*
X62254611Y-85915559D01*
X62163802Y-85708535D01*
X62141342Y-85674158D01*
X62040157Y-85519283D01*
X62040149Y-85519272D01*
X61887049Y-85352963D01*
X61887048Y-85352962D01*
X61887046Y-85352960D01*
X61708649Y-85214107D01*
X61656645Y-85185964D01*
X61509832Y-85106512D01*
X61509827Y-85106510D01*
X61296017Y-85033109D01*
X61123617Y-85004341D01*
X61073033Y-84995900D01*
X60846967Y-84995900D01*
X60802370Y-85003341D01*
X60623982Y-85033109D01*
X60410172Y-85106510D01*
X60410167Y-85106512D01*
X60211352Y-85214106D01*
X60032955Y-85352959D01*
X60032950Y-85352963D01*
X59879850Y-85519272D01*
X59879842Y-85519283D01*
X59793808Y-85650968D01*
X59740662Y-85696325D01*
X59671430Y-85705748D01*
X59608095Y-85676246D01*
X59586192Y-85650968D01*
X59500157Y-85519283D01*
X59500149Y-85519272D01*
X59347049Y-85352963D01*
X59347048Y-85352962D01*
X59347046Y-85352960D01*
X59168649Y-85214107D01*
X59116645Y-85185964D01*
X58969832Y-85106512D01*
X58969827Y-85106510D01*
X58756017Y-85033109D01*
X58583617Y-85004341D01*
X58533033Y-84995900D01*
X58306967Y-84995900D01*
X58262370Y-85003341D01*
X58083982Y-85033109D01*
X57870172Y-85106510D01*
X57870167Y-85106512D01*
X57671352Y-85214106D01*
X57492955Y-85352959D01*
X57492950Y-85352963D01*
X57339850Y-85519272D01*
X57339842Y-85519283D01*
X57253808Y-85650968D01*
X57200662Y-85696325D01*
X57131430Y-85705748D01*
X57068095Y-85676246D01*
X57046192Y-85650968D01*
X56960157Y-85519283D01*
X56960149Y-85519272D01*
X56807049Y-85352963D01*
X56807048Y-85352962D01*
X56807046Y-85352960D01*
X56628649Y-85214107D01*
X56576645Y-85185964D01*
X56429832Y-85106512D01*
X56429827Y-85106510D01*
X56216017Y-85033109D01*
X56043617Y-85004341D01*
X55993033Y-84995900D01*
X55766967Y-84995900D01*
X55722370Y-85003341D01*
X55543982Y-85033109D01*
X55330172Y-85106510D01*
X55330167Y-85106512D01*
X55131352Y-85214106D01*
X54952955Y-85352959D01*
X54952950Y-85352963D01*
X54799850Y-85519272D01*
X54799842Y-85519283D01*
X54676198Y-85708533D01*
X54585388Y-85915560D01*
X54529892Y-86134710D01*
X54511225Y-86359993D01*
X54511225Y-86360006D01*
X54529892Y-86585289D01*
X54585388Y-86804439D01*
X54676198Y-87011466D01*
X54799842Y-87200716D01*
X54799850Y-87200727D01*
X54952950Y-87367036D01*
X54952954Y-87367040D01*
X55131351Y-87505893D01*
X55159165Y-87520945D01*
X55208755Y-87570165D01*
X55223863Y-87638382D01*
X55199692Y-87703937D01*
X55159165Y-87739054D01*
X55155144Y-87741231D01*
X55131352Y-87754106D01*
X54952955Y-87892959D01*
X54952950Y-87892963D01*
X54799850Y-88059272D01*
X54799842Y-88059283D01*
X54676198Y-88248533D01*
X54585388Y-88455560D01*
X54529892Y-88674710D01*
X54511225Y-88899993D01*
X54511225Y-88900006D01*
X54529892Y-89125289D01*
X54585388Y-89344439D01*
X54676198Y-89551466D01*
X54799842Y-89740716D01*
X54799850Y-89740727D01*
X54923234Y-89874756D01*
X54952954Y-89907040D01*
X55131351Y-90045893D01*
X55159165Y-90060945D01*
X55208755Y-90110165D01*
X55223863Y-90178382D01*
X55199692Y-90243937D01*
X55159165Y-90279055D01*
X55131352Y-90294106D01*
X54952955Y-90432959D01*
X54952950Y-90432963D01*
X54799850Y-90599272D01*
X54799842Y-90599283D01*
X54676198Y-90788533D01*
X54585388Y-90995560D01*
X54529892Y-91214710D01*
X54511225Y-91439993D01*
X54511225Y-91440006D01*
X54529892Y-91665289D01*
X54585388Y-91884439D01*
X54676198Y-92091466D01*
X54799842Y-92280716D01*
X54799850Y-92280727D01*
X54952950Y-92447036D01*
X54952954Y-92447040D01*
X55131351Y-92585893D01*
X55151840Y-92596981D01*
X55159165Y-92600945D01*
X55208755Y-92650165D01*
X55223863Y-92718382D01*
X55199692Y-92783937D01*
X55159165Y-92819055D01*
X55131352Y-92834106D01*
X54952955Y-92972959D01*
X54952950Y-92972963D01*
X54799850Y-93139272D01*
X54799842Y-93139283D01*
X54676198Y-93328533D01*
X54585388Y-93535560D01*
X54529892Y-93754710D01*
X54511225Y-93979993D01*
X54511225Y-93980006D01*
X54529892Y-94205289D01*
X54585388Y-94424439D01*
X54676198Y-94631466D01*
X54799842Y-94820716D01*
X54799850Y-94820727D01*
X54952950Y-94987036D01*
X54952954Y-94987040D01*
X55131351Y-95125893D01*
X55159165Y-95140945D01*
X55208755Y-95190165D01*
X55223863Y-95258382D01*
X55199692Y-95323937D01*
X55159165Y-95359055D01*
X55131352Y-95374106D01*
X54952955Y-95512959D01*
X54952950Y-95512963D01*
X54799850Y-95679272D01*
X54799842Y-95679283D01*
X54676198Y-95868533D01*
X54585388Y-96075560D01*
X54529892Y-96294710D01*
X54511225Y-96519993D01*
X54511225Y-96520006D01*
X54529892Y-96745289D01*
X54585388Y-96964439D01*
X54676198Y-97171466D01*
X54799842Y-97360716D01*
X54799850Y-97360727D01*
X54952950Y-97527036D01*
X54952954Y-97527040D01*
X55131351Y-97665893D01*
X55144615Y-97673071D01*
X55159165Y-97680945D01*
X55208755Y-97730165D01*
X55223863Y-97798382D01*
X55199692Y-97863937D01*
X55159165Y-97899055D01*
X55131352Y-97914106D01*
X54952955Y-98052959D01*
X54952950Y-98052963D01*
X54799850Y-98219272D01*
X54799842Y-98219283D01*
X54676198Y-98408533D01*
X54585388Y-98615560D01*
X54529892Y-98834710D01*
X54511225Y-99059993D01*
X54511225Y-99060006D01*
X54529892Y-99285289D01*
X54585388Y-99504439D01*
X54676198Y-99711466D01*
X54799842Y-99900716D01*
X54799850Y-99900727D01*
X54952950Y-100067036D01*
X54952954Y-100067040D01*
X55131351Y-100205893D01*
X55144615Y-100213071D01*
X55159165Y-100220945D01*
X55208755Y-100270165D01*
X55223863Y-100338382D01*
X55199692Y-100403937D01*
X55159165Y-100439055D01*
X55131352Y-100454106D01*
X54952955Y-100592959D01*
X54952950Y-100592963D01*
X54799850Y-100759272D01*
X54799842Y-100759283D01*
X54676198Y-100948533D01*
X54585388Y-101155560D01*
X54529892Y-101374710D01*
X54511225Y-101599993D01*
X54511225Y-101600006D01*
X54529892Y-101825289D01*
X54585388Y-102044439D01*
X54676198Y-102251466D01*
X54799842Y-102440716D01*
X54799850Y-102440727D01*
X54952950Y-102607036D01*
X54952954Y-102607040D01*
X55131351Y-102745893D01*
X55159165Y-102760945D01*
X55208755Y-102810165D01*
X55223863Y-102878382D01*
X55199692Y-102943937D01*
X55159165Y-102979054D01*
X55150866Y-102983545D01*
X55131352Y-102994106D01*
X54952955Y-103132959D01*
X54952950Y-103132963D01*
X54799850Y-103299272D01*
X54799842Y-103299283D01*
X54676198Y-103488533D01*
X54585388Y-103695560D01*
X54529892Y-103914710D01*
X54511225Y-104139993D01*
X54511225Y-104140006D01*
X54529892Y-104365289D01*
X54585388Y-104584439D01*
X54676198Y-104791466D01*
X54799842Y-104980716D01*
X54799850Y-104980727D01*
X54952950Y-105147036D01*
X54952954Y-105147040D01*
X55131351Y-105285893D01*
X55159165Y-105300945D01*
X55208755Y-105350165D01*
X55223863Y-105418382D01*
X55199692Y-105483937D01*
X55159165Y-105519055D01*
X55131352Y-105534106D01*
X54952955Y-105672959D01*
X54952950Y-105672963D01*
X54799850Y-105839272D01*
X54799842Y-105839283D01*
X54676198Y-106028533D01*
X54585388Y-106235560D01*
X54529892Y-106454710D01*
X54511225Y-106679993D01*
X54511225Y-106680006D01*
X54529892Y-106905289D01*
X54585388Y-107124439D01*
X54676198Y-107331466D01*
X54799842Y-107520716D01*
X54799850Y-107520727D01*
X54952950Y-107687036D01*
X54952954Y-107687040D01*
X55131351Y-107825893D01*
X55159165Y-107840945D01*
X55208755Y-107890165D01*
X55223863Y-107958382D01*
X55199692Y-108023937D01*
X55159165Y-108059055D01*
X55131352Y-108074106D01*
X54952955Y-108212959D01*
X54952950Y-108212963D01*
X54799850Y-108379272D01*
X54799842Y-108379283D01*
X54676198Y-108568533D01*
X54585388Y-108775560D01*
X54529892Y-108994710D01*
X54511225Y-109219993D01*
X54511225Y-109220006D01*
X54529892Y-109445289D01*
X54585388Y-109664439D01*
X54676198Y-109871466D01*
X54799842Y-110060716D01*
X54799850Y-110060727D01*
X54952950Y-110227036D01*
X54952954Y-110227040D01*
X55131351Y-110365893D01*
X55330169Y-110473488D01*
X55330172Y-110473489D01*
X55543982Y-110546890D01*
X55543984Y-110546890D01*
X55543986Y-110546891D01*
X55766967Y-110584100D01*
X55766968Y-110584100D01*
X55993032Y-110584100D01*
X55993033Y-110584100D01*
X56216014Y-110546891D01*
X56429831Y-110473488D01*
X56628649Y-110365893D01*
X56807046Y-110227040D01*
X56960156Y-110060719D01*
X57083802Y-109871465D01*
X57174611Y-109664441D01*
X57230107Y-109445293D01*
X57248775Y-109220000D01*
X57248775Y-109219993D01*
X57232087Y-109018602D01*
X57230107Y-108994707D01*
X57174611Y-108775559D01*
X57083802Y-108568535D01*
X56960156Y-108379281D01*
X56960153Y-108379278D01*
X56960149Y-108379272D01*
X56807049Y-108212963D01*
X56807048Y-108212962D01*
X56807046Y-108212960D01*
X56628649Y-108074107D01*
X56628647Y-108074106D01*
X56628646Y-108074105D01*
X56628639Y-108074100D01*
X56600836Y-108059055D01*
X56551244Y-108009837D01*
X56536135Y-107941620D01*
X56560306Y-107876064D01*
X56600836Y-107840945D01*
X56628639Y-107825899D01*
X56628642Y-107825896D01*
X56628649Y-107825893D01*
X56807046Y-107687040D01*
X56960156Y-107520719D01*
X57083802Y-107331465D01*
X57174611Y-107124441D01*
X57230107Y-106905293D01*
X57248775Y-106680000D01*
X57248774Y-106679993D01*
X57230505Y-106459508D01*
X57244586Y-106391072D01*
X57293431Y-106341113D01*
X57361532Y-106325492D01*
X57427268Y-106349169D01*
X57445305Y-106365279D01*
X57492954Y-106417040D01*
X57671351Y-106555893D01*
X57870169Y-106663488D01*
X57870172Y-106663489D01*
X58083982Y-106736890D01*
X58083984Y-106736890D01*
X58083986Y-106736891D01*
X58306967Y-106774100D01*
X58306968Y-106774100D01*
X58533032Y-106774100D01*
X58533033Y-106774100D01*
X58756014Y-106736891D01*
X58969831Y-106663488D01*
X59168649Y-106555893D01*
X59347046Y-106417040D01*
X59473861Y-106279283D01*
X59500149Y-106250727D01*
X59500150Y-106250725D01*
X59500156Y-106250719D01*
X59623802Y-106061465D01*
X59686026Y-105919605D01*
X59688778Y-105913752D01*
X59701206Y-105889029D01*
X59705111Y-105877360D01*
X59709143Y-105866903D01*
X59714611Y-105854441D01*
X59719159Y-105836478D01*
X59721769Y-105827584D01*
X60149044Y-104550869D01*
X60178951Y-104502545D01*
X64774649Y-99906848D01*
X64774651Y-99906844D01*
X64777851Y-99903645D01*
X64777976Y-99903509D01*
X64831526Y-99849962D01*
X64981045Y-99662471D01*
X65108632Y-99459418D01*
X65212682Y-99243357D01*
X65291887Y-99017004D01*
X65345250Y-98783207D01*
X65351635Y-98726543D01*
X65372099Y-98544911D01*
X65372100Y-98544907D01*
X65372100Y-98429875D01*
X65372482Y-98420147D01*
X65382795Y-98289102D01*
X65385839Y-98269882D01*
X65389484Y-98254700D01*
X65415386Y-98146812D01*
X65421394Y-98128321D01*
X65469837Y-98011373D01*
X65478660Y-97994059D01*
X65544800Y-97886132D01*
X65556226Y-97870406D01*
X65641682Y-97770353D01*
X65648263Y-97763234D01*
X65696456Y-97715043D01*
X65696457Y-97715040D01*
X65703514Y-97707984D01*
X65703526Y-97707969D01*
X69315821Y-94095674D01*
X69315831Y-94095667D01*
X69326033Y-94085465D01*
X69375274Y-94036222D01*
X69380282Y-94031487D01*
X69544598Y-93884642D01*
X69607701Y-93854649D01*
X69677004Y-93863532D01*
X69730502Y-93908474D01*
X69751210Y-93975204D01*
X69751225Y-93977102D01*
X69751225Y-93980006D01*
X69769892Y-94205289D01*
X69825388Y-94424439D01*
X69916198Y-94631466D01*
X70039842Y-94820716D01*
X70039850Y-94820727D01*
X70192950Y-94987036D01*
X70192954Y-94987040D01*
X70371351Y-95125893D01*
X70399165Y-95140945D01*
X70448755Y-95190165D01*
X70463863Y-95258382D01*
X70439692Y-95323937D01*
X70399165Y-95359055D01*
X70371352Y-95374106D01*
X70192955Y-95512959D01*
X70192950Y-95512963D01*
X70039850Y-95679272D01*
X70039842Y-95679283D01*
X69916198Y-95868533D01*
X69825388Y-96075560D01*
X69769892Y-96294710D01*
X69751225Y-96519993D01*
X69751225Y-96520006D01*
X69769892Y-96745289D01*
X69825388Y-96964439D01*
X69916198Y-97171466D01*
X70039842Y-97360716D01*
X70039850Y-97360727D01*
X70192950Y-97527036D01*
X70192954Y-97527040D01*
X70371351Y-97665893D01*
X70384615Y-97673071D01*
X70399165Y-97680945D01*
X70448755Y-97730165D01*
X70463863Y-97798382D01*
X70439692Y-97863937D01*
X70399165Y-97899055D01*
X70371352Y-97914106D01*
X70192955Y-98052959D01*
X70192950Y-98052963D01*
X70039850Y-98219272D01*
X70039842Y-98219283D01*
X69916198Y-98408533D01*
X69825388Y-98615560D01*
X69769892Y-98834710D01*
X69751225Y-99059993D01*
X69751225Y-99060006D01*
X69769892Y-99285289D01*
X69825388Y-99504439D01*
X69916198Y-99711466D01*
X70039842Y-99900716D01*
X70039850Y-99900727D01*
X70192950Y-100067036D01*
X70192954Y-100067040D01*
X70371351Y-100205893D01*
X70384615Y-100213071D01*
X70399165Y-100220945D01*
X70448755Y-100270165D01*
X70463863Y-100338382D01*
X70439692Y-100403937D01*
X70399165Y-100439055D01*
X70371352Y-100454106D01*
X70192955Y-100592959D01*
X70192950Y-100592963D01*
X70039850Y-100759272D01*
X70039842Y-100759283D01*
X69916198Y-100948533D01*
X69825388Y-101155560D01*
X69769892Y-101374710D01*
X69751225Y-101599993D01*
X69751225Y-101600006D01*
X69769892Y-101825289D01*
X69825388Y-102044439D01*
X69916198Y-102251466D01*
X70039842Y-102440716D01*
X70039850Y-102440727D01*
X70192950Y-102607036D01*
X70192954Y-102607040D01*
X70371351Y-102745893D01*
X70399165Y-102760945D01*
X70448755Y-102810165D01*
X70463863Y-102878382D01*
X70439692Y-102943937D01*
X70399165Y-102979054D01*
X70390866Y-102983545D01*
X70371352Y-102994106D01*
X70192955Y-103132959D01*
X70192950Y-103132963D01*
X70039850Y-103299272D01*
X70039842Y-103299283D01*
X69916198Y-103488533D01*
X69825388Y-103695560D01*
X69769892Y-103914710D01*
X69751225Y-104139993D01*
X69751225Y-104140006D01*
X69769892Y-104365289D01*
X69825388Y-104584439D01*
X69916198Y-104791466D01*
X70039842Y-104980716D01*
X70039850Y-104980727D01*
X70192950Y-105147036D01*
X70192954Y-105147040D01*
X70371351Y-105285893D01*
X70570169Y-105393488D01*
X70570172Y-105393489D01*
X70783982Y-105466890D01*
X70783984Y-105466890D01*
X70783986Y-105466891D01*
X71006967Y-105504100D01*
X71006968Y-105504100D01*
X71233032Y-105504100D01*
X71233033Y-105504100D01*
X71456014Y-105466891D01*
X71669831Y-105393488D01*
X71868649Y-105285893D01*
X72047046Y-105147040D01*
X72200156Y-104980719D01*
X72323802Y-104791465D01*
X72414611Y-104584441D01*
X72470107Y-104365293D01*
X72487407Y-104156512D01*
X72488775Y-104140006D01*
X72488775Y-104139993D01*
X72470107Y-103914710D01*
X72470107Y-103914707D01*
X72414611Y-103695559D01*
X72323802Y-103488535D01*
X72322593Y-103486685D01*
X72261979Y-103393908D01*
X72200156Y-103299281D01*
X72200153Y-103299278D01*
X72200149Y-103299272D01*
X72047049Y-103132963D01*
X72047048Y-103132962D01*
X72047046Y-103132960D01*
X71868649Y-102994107D01*
X71868646Y-102994105D01*
X71864601Y-102990957D01*
X71866000Y-102989158D01*
X71826850Y-102943295D01*
X71817419Y-102874065D01*
X71846914Y-102810726D01*
X71898746Y-102775692D01*
X72927937Y-102412372D01*
X72969214Y-102405300D01*
X95451390Y-102405300D01*
X95533323Y-102405300D01*
X95538732Y-102405418D01*
X95562387Y-102406450D01*
X95934717Y-102422709D01*
X95945455Y-102423649D01*
X96335746Y-102475034D01*
X96346373Y-102476907D01*
X96730706Y-102562114D01*
X96741132Y-102564908D01*
X97116566Y-102683282D01*
X97126716Y-102686976D01*
X97305290Y-102760945D01*
X97490393Y-102837618D01*
X97500197Y-102842190D01*
X97849345Y-103023945D01*
X97858712Y-103029352D01*
X98133415Y-103204358D01*
X98190709Y-103240858D01*
X98199570Y-103247063D01*
X98511858Y-103486690D01*
X98520139Y-103493639D01*
X98812561Y-103761594D01*
X98816469Y-103765335D01*
X100704826Y-105653692D01*
X100708567Y-105657600D01*
X100788067Y-105744358D01*
X100976370Y-105949854D01*
X100983308Y-105958123D01*
X101119788Y-106135986D01*
X101222944Y-106270422D01*
X101229149Y-106279283D01*
X101440654Y-106611280D01*
X101446062Y-106620648D01*
X101627818Y-106969797D01*
X101632390Y-106979601D01*
X101783029Y-107343272D01*
X101786729Y-107353437D01*
X101905098Y-107728851D01*
X101907898Y-107739300D01*
X101993099Y-108123610D01*
X101994977Y-108134263D01*
X102046358Y-108524522D01*
X102047301Y-108535298D01*
X102064582Y-108931035D01*
X102064700Y-108936445D01*
X102064700Y-110042271D01*
X102058254Y-110081730D01*
X101655148Y-111282639D01*
X101655144Y-111282653D01*
X101653901Y-111286853D01*
X101653408Y-111288517D01*
X101646895Y-111305709D01*
X101643261Y-111313501D01*
X101584366Y-111533302D01*
X101584364Y-111533313D01*
X101564532Y-111759998D01*
X101564532Y-111760001D01*
X101584364Y-111986686D01*
X101584366Y-111986697D01*
X101643258Y-112206488D01*
X101643261Y-112206497D01*
X101739431Y-112412732D01*
X101739432Y-112412734D01*
X101869954Y-112599141D01*
X102030858Y-112760045D01*
X102030861Y-112760047D01*
X102217266Y-112890568D01*
X102423504Y-112986739D01*
X102423509Y-112986740D01*
X102423511Y-112986741D01*
X102458149Y-112996022D01*
X102643308Y-113045635D01*
X102805230Y-113059801D01*
X102869998Y-113065468D01*
X102870000Y-113065468D01*
X102870002Y-113065468D01*
X102926673Y-113060509D01*
X103096692Y-113045635D01*
X103316496Y-112986739D01*
X103522734Y-112890568D01*
X103709139Y-112760047D01*
X103870047Y-112599139D01*
X104000568Y-112412734D01*
X104096739Y-112206496D01*
X104155635Y-111986692D01*
X104172634Y-111792384D01*
X104175468Y-111760001D01*
X104175468Y-111759998D01*
X104169801Y-111695230D01*
X104155635Y-111533308D01*
X104096739Y-111313504D01*
X104092783Y-111305023D01*
X104086267Y-111286853D01*
X104086265Y-111286854D01*
X104086224Y-111286733D01*
X104085095Y-111283584D01*
X104084857Y-111282666D01*
X104084855Y-111282653D01*
X103749733Y-110284274D01*
X103681746Y-110081730D01*
X103675300Y-110042271D01*
X103675300Y-109018602D01*
X103675301Y-109018598D01*
X103675300Y-108985329D01*
X103675309Y-108985297D01*
X103675309Y-108933958D01*
X103675310Y-108933958D01*
X103675309Y-108710851D01*
X103643474Y-108265775D01*
X103579968Y-107824104D01*
X103561520Y-107739300D01*
X103485118Y-107388091D01*
X103407702Y-107124441D01*
X103359403Y-106959951D01*
X103203466Y-106541872D01*
X103018102Y-106135983D01*
X102804254Y-105744352D01*
X102563013Y-105368974D01*
X102563010Y-105368969D01*
X102295614Y-105011769D01*
X102076185Y-104758535D01*
X102003400Y-104674536D01*
X101880348Y-104551484D01*
X101880319Y-104551453D01*
X101835089Y-104506223D01*
X101781467Y-104452600D01*
X101781456Y-104452590D01*
X100020147Y-102691281D01*
X100020142Y-102691275D01*
X99953224Y-102624358D01*
X99953224Y-102624357D01*
X99953223Y-102624357D01*
X99918828Y-102589962D01*
X99918546Y-102589696D01*
X99795456Y-102466606D01*
X99693003Y-102377830D01*
X99458223Y-102174391D01*
X99101024Y-101906996D01*
X99101019Y-101906993D01*
X98944304Y-101806279D01*
X98725642Y-101665754D01*
X98334011Y-101451907D01*
X98164974Y-101374710D01*
X97928129Y-101266546D01*
X97928126Y-101266545D01*
X97928122Y-101266543D01*
X97510044Y-101110606D01*
X97452280Y-101093645D01*
X97081904Y-100984890D01*
X96645898Y-100890041D01*
X96204223Y-100826536D01*
X95759147Y-100794700D01*
X95581266Y-100794700D01*
X95581265Y-100794700D01*
X95536041Y-100794700D01*
X95451401Y-100794699D01*
X95451400Y-100794699D01*
X95445288Y-100794699D01*
X95445268Y-100794700D01*
X72969215Y-100794700D01*
X72927938Y-100787628D01*
X71962822Y-100446927D01*
X71906158Y-100406049D01*
X71880590Y-100341025D01*
X71894235Y-100272501D01*
X71942762Y-100222232D01*
X71962817Y-100213072D01*
X72847637Y-99900719D01*
X72927937Y-99872372D01*
X72969214Y-99865300D01*
X106881390Y-99865300D01*
X106963323Y-99865300D01*
X106968732Y-99865418D01*
X106992387Y-99866450D01*
X107364717Y-99882709D01*
X107375455Y-99883649D01*
X107765746Y-99935034D01*
X107776373Y-99936907D01*
X108160706Y-100022114D01*
X108171132Y-100024908D01*
X108546566Y-100143282D01*
X108556716Y-100146976D01*
X108716281Y-100213071D01*
X108920393Y-100297618D01*
X108930197Y-100302190D01*
X109279345Y-100483945D01*
X109288713Y-100489353D01*
X109620709Y-100700858D01*
X109629570Y-100707063D01*
X109941858Y-100946690D01*
X109950139Y-100953639D01*
X110242561Y-101221594D01*
X110246469Y-101225335D01*
X112134826Y-103113692D01*
X112138567Y-103117600D01*
X112218067Y-103204358D01*
X112406370Y-103409854D01*
X112413308Y-103418123D01*
X112549788Y-103595986D01*
X112652944Y-103730422D01*
X112659149Y-103739283D01*
X112870654Y-104071280D01*
X112876062Y-104080648D01*
X113057818Y-104429797D01*
X113062390Y-104439601D01*
X113213029Y-104803272D01*
X113216729Y-104813437D01*
X113335098Y-105188851D01*
X113337898Y-105199300D01*
X113423099Y-105583610D01*
X113424977Y-105594263D01*
X113476358Y-105984522D01*
X113477301Y-105995298D01*
X113494582Y-106391035D01*
X113494700Y-106396445D01*
X113494700Y-110042271D01*
X113488254Y-110081730D01*
X113085148Y-111282639D01*
X113085144Y-111282653D01*
X113083901Y-111286853D01*
X113083408Y-111288517D01*
X113076895Y-111305709D01*
X113073261Y-111313501D01*
X113014366Y-111533302D01*
X113014364Y-111533313D01*
X112994532Y-111759998D01*
X112994532Y-111760001D01*
X113014364Y-111986686D01*
X113014366Y-111986697D01*
X113073258Y-112206488D01*
X113073261Y-112206497D01*
X113169431Y-112412732D01*
X113169432Y-112412734D01*
X113299954Y-112599141D01*
X113460858Y-112760045D01*
X113460861Y-112760047D01*
X113647266Y-112890568D01*
X113853504Y-112986739D01*
X113853509Y-112986740D01*
X113853511Y-112986741D01*
X113888149Y-112996022D01*
X114073308Y-113045635D01*
X114235230Y-113059801D01*
X114299998Y-113065468D01*
X114300000Y-113065468D01*
X114300002Y-113065468D01*
X114356673Y-113060509D01*
X114526692Y-113045635D01*
X114746496Y-112986739D01*
X114952734Y-112890568D01*
X115139139Y-112760047D01*
X115300047Y-112599139D01*
X115430568Y-112412734D01*
X115526739Y-112206496D01*
X115585635Y-111986692D01*
X115602634Y-111792384D01*
X115605468Y-111760001D01*
X115605468Y-111759998D01*
X115599801Y-111695230D01*
X115585635Y-111533308D01*
X115526739Y-111313504D01*
X115522783Y-111305023D01*
X115516267Y-111286853D01*
X115516265Y-111286854D01*
X115516224Y-111286733D01*
X115515095Y-111283584D01*
X115514857Y-111282666D01*
X115514855Y-111282653D01*
X115179733Y-110284274D01*
X115111746Y-110081730D01*
X115105300Y-110042271D01*
X115105300Y-106478602D01*
X115105301Y-106478598D01*
X115105300Y-106445329D01*
X115105309Y-106445297D01*
X115105309Y-106393958D01*
X115105310Y-106393958D01*
X115105309Y-106170851D01*
X115073474Y-105725775D01*
X115009968Y-105284104D01*
X114991520Y-105199300D01*
X114915118Y-104848091D01*
X114875007Y-104711491D01*
X114789403Y-104419951D01*
X114633466Y-104001872D01*
X114448102Y-103595983D01*
X114234254Y-103204352D01*
X113993013Y-102828974D01*
X113993010Y-102828969D01*
X113725614Y-102471769D01*
X113467934Y-102174391D01*
X113433400Y-102134536D01*
X113310348Y-102011484D01*
X113310319Y-102011453D01*
X113246198Y-101947332D01*
X113211461Y-101912594D01*
X113211451Y-101912585D01*
X111450147Y-100151281D01*
X111450142Y-100151275D01*
X111383224Y-100084358D01*
X111383224Y-100084357D01*
X111383223Y-100084357D01*
X111348828Y-100049962D01*
X111348546Y-100049696D01*
X111225456Y-99926606D01*
X111123003Y-99837830D01*
X110888223Y-99634391D01*
X110531024Y-99366996D01*
X110531019Y-99366993D01*
X110338636Y-99243357D01*
X110155642Y-99125754D01*
X110077796Y-99083247D01*
X109764007Y-98911905D01*
X109358129Y-98726546D01*
X109358126Y-98726545D01*
X109358122Y-98726543D01*
X108940044Y-98570606D01*
X108852536Y-98544911D01*
X108511904Y-98444890D01*
X108075898Y-98350041D01*
X107634223Y-98286536D01*
X107189147Y-98254700D01*
X107011266Y-98254700D01*
X107011265Y-98254700D01*
X106966041Y-98254700D01*
X106881401Y-98254699D01*
X106881400Y-98254699D01*
X106875288Y-98254699D01*
X106875268Y-98254700D01*
X72969215Y-98254700D01*
X72927938Y-98247628D01*
X72258715Y-98011382D01*
X71962821Y-97906926D01*
X71906158Y-97866049D01*
X71880590Y-97801025D01*
X71894235Y-97732501D01*
X71942762Y-97682232D01*
X71962817Y-97673072D01*
X72847637Y-97360719D01*
X72927937Y-97332372D01*
X72969214Y-97325300D01*
X115771390Y-97325300D01*
X115853323Y-97325300D01*
X115858732Y-97325418D01*
X115882387Y-97326450D01*
X116254717Y-97342709D01*
X116265455Y-97343649D01*
X116655746Y-97395034D01*
X116666373Y-97396907D01*
X117050706Y-97482114D01*
X117061132Y-97484908D01*
X117436566Y-97603282D01*
X117446716Y-97606976D01*
X117606281Y-97673071D01*
X117810393Y-97757618D01*
X117820197Y-97762190D01*
X117905339Y-97806512D01*
X118058306Y-97886142D01*
X118169345Y-97943945D01*
X118178712Y-97949352D01*
X118363064Y-98066798D01*
X118510709Y-98160858D01*
X118519570Y-98167063D01*
X118831858Y-98406690D01*
X118840139Y-98413639D01*
X119132561Y-98681594D01*
X119136469Y-98685335D01*
X123564838Y-103113705D01*
X123568579Y-103117613D01*
X123648067Y-103204358D01*
X123836370Y-103409854D01*
X123843308Y-103418123D01*
X123979788Y-103595986D01*
X124082944Y-103730422D01*
X124089149Y-103739283D01*
X124300654Y-104071280D01*
X124306062Y-104080648D01*
X124487818Y-104429797D01*
X124492390Y-104439601D01*
X124643029Y-104803272D01*
X124646729Y-104813437D01*
X124765098Y-105188851D01*
X124767898Y-105199300D01*
X124853099Y-105583610D01*
X124854977Y-105594263D01*
X124906358Y-105984522D01*
X124907301Y-105995298D01*
X124924582Y-106391035D01*
X124924700Y-106396445D01*
X124924700Y-110042271D01*
X124918254Y-110081730D01*
X124515148Y-111282639D01*
X124515144Y-111282653D01*
X124513901Y-111286853D01*
X124513408Y-111288517D01*
X124506895Y-111305709D01*
X124503261Y-111313501D01*
X124444366Y-111533302D01*
X124444364Y-111533313D01*
X124424532Y-111759998D01*
X124424532Y-111760001D01*
X124444364Y-111986686D01*
X124444366Y-111986697D01*
X124503258Y-112206488D01*
X124503261Y-112206497D01*
X124599431Y-112412732D01*
X124599432Y-112412734D01*
X124729954Y-112599141D01*
X124890858Y-112760045D01*
X124890861Y-112760047D01*
X125077266Y-112890568D01*
X125283504Y-112986739D01*
X125283509Y-112986740D01*
X125283511Y-112986741D01*
X125318149Y-112996022D01*
X125503308Y-113045635D01*
X125665230Y-113059801D01*
X125729998Y-113065468D01*
X125730000Y-113065468D01*
X125730002Y-113065468D01*
X125786673Y-113060509D01*
X125956692Y-113045635D01*
X126176496Y-112986739D01*
X126382734Y-112890568D01*
X126569139Y-112760047D01*
X126730047Y-112599139D01*
X126860568Y-112412734D01*
X126956739Y-112206496D01*
X127015635Y-111986692D01*
X127032634Y-111792384D01*
X127035468Y-111760001D01*
X127035468Y-111759998D01*
X127029801Y-111695230D01*
X127015635Y-111533308D01*
X126956739Y-111313504D01*
X126952783Y-111305023D01*
X126946267Y-111286853D01*
X126946265Y-111286854D01*
X126946224Y-111286733D01*
X126945095Y-111283584D01*
X126944857Y-111282666D01*
X126944855Y-111282653D01*
X126609733Y-110284274D01*
X126541746Y-110081730D01*
X126535300Y-110042271D01*
X126535300Y-106478602D01*
X126535301Y-106478598D01*
X126535300Y-106445329D01*
X126535309Y-106445297D01*
X126535309Y-106393958D01*
X126535310Y-106393958D01*
X126535309Y-106170851D01*
X126503474Y-105725775D01*
X126439968Y-105284104D01*
X126421520Y-105199300D01*
X126345118Y-104848091D01*
X126305007Y-104711491D01*
X126219403Y-104419951D01*
X126063466Y-104001872D01*
X125878102Y-103595983D01*
X125664254Y-103204352D01*
X125423013Y-102828974D01*
X125423010Y-102828969D01*
X125155614Y-102471769D01*
X124897934Y-102174391D01*
X124863400Y-102134536D01*
X124740256Y-102011392D01*
X124740192Y-102011324D01*
X120340147Y-97611281D01*
X120340142Y-97611275D01*
X120273224Y-97544358D01*
X120273224Y-97544357D01*
X120273223Y-97544357D01*
X120238828Y-97509962D01*
X120238546Y-97509696D01*
X120115456Y-97386606D01*
X120013003Y-97297830D01*
X119778223Y-97094391D01*
X119421024Y-96826996D01*
X119421019Y-96826993D01*
X119264304Y-96726279D01*
X119045642Y-96585754D01*
X118654011Y-96371907D01*
X118484974Y-96294710D01*
X118248129Y-96186546D01*
X118248126Y-96186545D01*
X118248122Y-96186543D01*
X117830044Y-96030606D01*
X117772280Y-96013645D01*
X117401904Y-95904890D01*
X116965898Y-95810041D01*
X116524223Y-95746536D01*
X116079147Y-95714700D01*
X115901266Y-95714700D01*
X115901265Y-95714700D01*
X115856041Y-95714700D01*
X115771401Y-95714699D01*
X115771400Y-95714699D01*
X115765288Y-95714699D01*
X115765268Y-95714700D01*
X72969215Y-95714700D01*
X72927938Y-95707628D01*
X71898746Y-95344307D01*
X71842082Y-95303429D01*
X71816514Y-95238405D01*
X71830159Y-95169881D01*
X71865833Y-95130626D01*
X71864601Y-95129043D01*
X71868645Y-95125894D01*
X71868649Y-95125893D01*
X72047046Y-94987040D01*
X72200156Y-94820719D01*
X72323802Y-94631465D01*
X72414611Y-94424441D01*
X72470107Y-94205293D01*
X72488775Y-93980000D01*
X72488775Y-93979993D01*
X72470107Y-93754710D01*
X72470107Y-93754707D01*
X72414611Y-93535559D01*
X72392833Y-93485910D01*
X72383930Y-93416609D01*
X72413908Y-93353497D01*
X72473247Y-93316611D01*
X72506389Y-93312100D01*
X80425570Y-93312100D01*
X80425882Y-93312089D01*
X80518055Y-93312091D01*
X80788920Y-93285416D01*
X81055866Y-93232319D01*
X81055867Y-93232318D01*
X81055870Y-93232318D01*
X81088620Y-93222383D01*
X81316323Y-93153313D01*
X81567781Y-93049157D01*
X81807819Y-92920856D01*
X82034125Y-92769644D01*
X82244520Y-92596977D01*
X82340749Y-92500749D01*
X82392444Y-92449054D01*
X82463662Y-92377834D01*
X82498720Y-92353238D01*
X82869208Y-92179628D01*
X82880314Y-92173851D01*
X82896584Y-92166816D01*
X82899522Y-92165789D01*
X83052262Y-92069816D01*
X83179816Y-91942262D01*
X83275789Y-91789522D01*
X83335368Y-91619255D01*
X83335721Y-91616122D01*
X83355565Y-91440003D01*
X83355565Y-91439996D01*
X83335369Y-91260750D01*
X83335368Y-91260745D01*
X83286399Y-91120800D01*
X83275789Y-91090478D01*
X83179816Y-90937738D01*
X83052262Y-90810184D01*
X82991666Y-90772109D01*
X82899523Y-90714211D01*
X82729254Y-90654631D01*
X82729249Y-90654630D01*
X82550004Y-90634435D01*
X82549996Y-90634435D01*
X82370750Y-90654630D01*
X82370745Y-90654631D01*
X82200476Y-90714211D01*
X82047737Y-90810184D01*
X81920184Y-90937737D01*
X81824208Y-91090483D01*
X81824207Y-91090485D01*
X81822317Y-91095886D01*
X81812055Y-91116671D01*
X81812526Y-91116935D01*
X81810365Y-91120800D01*
X81636760Y-91491276D01*
X81612159Y-91526340D01*
X81540946Y-91597555D01*
X81492126Y-91646375D01*
X81486204Y-91651922D01*
X81341360Y-91778946D01*
X81328491Y-91788820D01*
X81171698Y-91893585D01*
X81157651Y-91901696D01*
X80988514Y-91985104D01*
X80973536Y-91991307D01*
X80794965Y-92051923D01*
X80779304Y-92056120D01*
X80594344Y-92092909D01*
X80578263Y-92095026D01*
X80385867Y-92107634D01*
X80377758Y-92107899D01*
X80301278Y-92107899D01*
X80301262Y-92107900D01*
X72506389Y-92107900D01*
X72439350Y-92088215D01*
X72393595Y-92035411D01*
X72383651Y-91966253D01*
X72392833Y-91934090D01*
X72408618Y-91898103D01*
X72414611Y-91884441D01*
X72470107Y-91665293D01*
X72482895Y-91510968D01*
X72488775Y-91440006D01*
X72488775Y-91439993D01*
X72470107Y-91214710D01*
X72470107Y-91214707D01*
X72414611Y-90995559D01*
X72392833Y-90945910D01*
X72383930Y-90876609D01*
X72413908Y-90813497D01*
X72473247Y-90776611D01*
X72506389Y-90772100D01*
X78952932Y-90772100D01*
X78974668Y-90772100D01*
X78974702Y-90772109D01*
X79026040Y-90772108D01*
X79026040Y-90772110D01*
X79241889Y-90772108D01*
X79672488Y-90741309D01*
X80099792Y-90679869D01*
X80099797Y-90679868D01*
X80521616Y-90588106D01*
X80521619Y-90588105D01*
X80521624Y-90588104D01*
X80935836Y-90466479D01*
X81340315Y-90315614D01*
X81733002Y-90136279D01*
X82111894Y-89929388D01*
X82475062Y-89695994D01*
X82820655Y-89437287D01*
X83146911Y-89154585D01*
X83299540Y-89001957D01*
X83315017Y-88986480D01*
X84201981Y-88099514D01*
X84250194Y-88069645D01*
X85522904Y-87642391D01*
X85530254Y-87640175D01*
X85553663Y-87633903D01*
X85562984Y-87629555D01*
X85573888Y-87625089D01*
X85580764Y-87622649D01*
X85581506Y-87622371D01*
X85645923Y-87592938D01*
X85651602Y-87589572D01*
X85651778Y-87589869D01*
X85664821Y-87582068D01*
X85767830Y-87534035D01*
X85961401Y-87398495D01*
X86128495Y-87231401D01*
X86258425Y-87045842D01*
X86313002Y-87002217D01*
X86382500Y-86995023D01*
X86444855Y-87026546D01*
X86461575Y-87045842D01*
X86591500Y-87231395D01*
X86591505Y-87231401D01*
X86758599Y-87398495D01*
X86839725Y-87455300D01*
X86952165Y-87534032D01*
X86952167Y-87534033D01*
X86952170Y-87534035D01*
X87166337Y-87633903D01*
X87394592Y-87695063D01*
X87571034Y-87710500D01*
X87629999Y-87715659D01*
X87630000Y-87715659D01*
X87630001Y-87715659D01*
X87688966Y-87710500D01*
X87865408Y-87695063D01*
X88093663Y-87633903D01*
X88307830Y-87534035D01*
X88501401Y-87398495D01*
X88668495Y-87231401D01*
X88804035Y-87037830D01*
X88903903Y-86823663D01*
X88965063Y-86595408D01*
X88985659Y-86360000D01*
X88965063Y-86124592D01*
X88909054Y-85915560D01*
X88903905Y-85896344D01*
X88903904Y-85896343D01*
X88903903Y-85896337D01*
X88804035Y-85682171D01*
X88799887Y-85676246D01*
X88668494Y-85488597D01*
X88501402Y-85321506D01*
X88501395Y-85321501D01*
X88307834Y-85185967D01*
X88307830Y-85185965D01*
X88307828Y-85185964D01*
X88093663Y-85086097D01*
X88093659Y-85086096D01*
X88093655Y-85086094D01*
X87865413Y-85024938D01*
X87865403Y-85024936D01*
X87630001Y-85004341D01*
X87629999Y-85004341D01*
X87394596Y-85024936D01*
X87394586Y-85024938D01*
X87166344Y-85086094D01*
X87166335Y-85086098D01*
X86952171Y-85185964D01*
X86952169Y-85185965D01*
X86758597Y-85321505D01*
X86591505Y-85488597D01*
X86461575Y-85674158D01*
X86406998Y-85717783D01*
X86337500Y-85724977D01*
X86275145Y-85693454D01*
X86258425Y-85674158D01*
X86128494Y-85488597D01*
X85961402Y-85321506D01*
X85961395Y-85321501D01*
X85767834Y-85185967D01*
X85767830Y-85185965D01*
X85767828Y-85185964D01*
X85553663Y-85086097D01*
X85553659Y-85086096D01*
X85553655Y-85086094D01*
X85325413Y-85024938D01*
X85325403Y-85024936D01*
X85090001Y-85004341D01*
X85089999Y-85004341D01*
X84854596Y-85024936D01*
X84854586Y-85024938D01*
X84626344Y-85086094D01*
X84626335Y-85086098D01*
X84412171Y-85185964D01*
X84412169Y-85185965D01*
X84218597Y-85321505D01*
X84051505Y-85488597D01*
X83921575Y-85674158D01*
X83866998Y-85717783D01*
X83797500Y-85724977D01*
X83735145Y-85693454D01*
X83718425Y-85674158D01*
X83588494Y-85488597D01*
X83421402Y-85321506D01*
X83421395Y-85321501D01*
X83227834Y-85185967D01*
X83227830Y-85185965D01*
X83227828Y-85185964D01*
X83013663Y-85086097D01*
X83013659Y-85086096D01*
X83013655Y-85086094D01*
X82785413Y-85024938D01*
X82785403Y-85024936D01*
X82550001Y-85004341D01*
X82549999Y-85004341D01*
X82314596Y-85024936D01*
X82314586Y-85024938D01*
X82086344Y-85086094D01*
X82086335Y-85086098D01*
X81872171Y-85185964D01*
X81872169Y-85185965D01*
X81678597Y-85321505D01*
X81511505Y-85488597D01*
X81381575Y-85674158D01*
X81326998Y-85717783D01*
X81257500Y-85724977D01*
X81195145Y-85693454D01*
X81178425Y-85674158D01*
X81048494Y-85488597D01*
X80881402Y-85321506D01*
X80881395Y-85321501D01*
X80687834Y-85185967D01*
X80687830Y-85185965D01*
X80687828Y-85185964D01*
X80473663Y-85086097D01*
X80473659Y-85086096D01*
X80473655Y-85086094D01*
X80245413Y-85024938D01*
X80245403Y-85024936D01*
X80010001Y-85004341D01*
X80009999Y-85004341D01*
X79774596Y-85024936D01*
X79774586Y-85024938D01*
X79546344Y-85086094D01*
X79546335Y-85086098D01*
X79332171Y-85185964D01*
X79332169Y-85185965D01*
X79138600Y-85321503D01*
X79016673Y-85443430D01*
X78955350Y-85476914D01*
X78885658Y-85471930D01*
X78829725Y-85430058D01*
X78812810Y-85399081D01*
X78763797Y-85267671D01*
X78763793Y-85267664D01*
X78677547Y-85152455D01*
X78677544Y-85152452D01*
X78562335Y-85066206D01*
X78562328Y-85066202D01*
X78427482Y-85015908D01*
X78427483Y-85015908D01*
X78367883Y-85009501D01*
X78367881Y-85009500D01*
X78367873Y-85009500D01*
X78367864Y-85009500D01*
X76572129Y-85009500D01*
X76572123Y-85009501D01*
X76512516Y-85015908D01*
X76377671Y-85066202D01*
X76377664Y-85066206D01*
X76262455Y-85152452D01*
X76262452Y-85152455D01*
X76176206Y-85267664D01*
X76176202Y-85267671D01*
X76125908Y-85402517D01*
X76119501Y-85462116D01*
X76119500Y-85462135D01*
X76119500Y-87257870D01*
X76119501Y-87257876D01*
X76125908Y-87317483D01*
X76176202Y-87452328D01*
X76176206Y-87452335D01*
X76262452Y-87567544D01*
X76262455Y-87567547D01*
X76377664Y-87653793D01*
X76377671Y-87653797D01*
X76512517Y-87704091D01*
X76512516Y-87704091D01*
X76519444Y-87704835D01*
X76572127Y-87710500D01*
X78367872Y-87710499D01*
X78427483Y-87704091D01*
X78562331Y-87653796D01*
X78677546Y-87567546D01*
X78763796Y-87452331D01*
X78812810Y-87320916D01*
X78854681Y-87264984D01*
X78920145Y-87240566D01*
X78988418Y-87255417D01*
X79016673Y-87276569D01*
X79138599Y-87398495D01*
X79219725Y-87455300D01*
X79332165Y-87534032D01*
X79332167Y-87534033D01*
X79332170Y-87534035D01*
X79546337Y-87633903D01*
X79774592Y-87695063D01*
X79951034Y-87710500D01*
X80009999Y-87715659D01*
X80010000Y-87715659D01*
X80010001Y-87715659D01*
X80068966Y-87710500D01*
X80245408Y-87695063D01*
X80473663Y-87633903D01*
X80687830Y-87534035D01*
X80881401Y-87398495D01*
X81048495Y-87231401D01*
X81178425Y-87045842D01*
X81233002Y-87002217D01*
X81302500Y-86995023D01*
X81364855Y-87026546D01*
X81381575Y-87045842D01*
X81511500Y-87231395D01*
X81511505Y-87231401D01*
X81678599Y-87398495D01*
X81759725Y-87455300D01*
X81872165Y-87534032D01*
X81872167Y-87534033D01*
X81872170Y-87534035D01*
X82086337Y-87633903D01*
X82314592Y-87695063D01*
X82491034Y-87710500D01*
X82549999Y-87715659D01*
X82550000Y-87715659D01*
X82575361Y-87713440D01*
X82643861Y-87727206D01*
X82694044Y-87775821D01*
X82709978Y-87843849D01*
X82686603Y-87909693D01*
X82673850Y-87924649D01*
X82482298Y-88116202D01*
X82449768Y-88148732D01*
X82446258Y-88152107D01*
X82172585Y-88405087D01*
X82165182Y-88411410D01*
X81874418Y-88640630D01*
X81866541Y-88646353D01*
X81558686Y-88852055D01*
X81550384Y-88857142D01*
X81227357Y-89038046D01*
X81218682Y-89042467D01*
X80882436Y-89197479D01*
X80873441Y-89201205D01*
X80526067Y-89329360D01*
X80516807Y-89332368D01*
X80160470Y-89432866D01*
X80151003Y-89435139D01*
X79787865Y-89507374D01*
X79778248Y-89508897D01*
X79410569Y-89552416D01*
X79400863Y-89553180D01*
X79028729Y-89567804D01*
X79023860Y-89567900D01*
X73077747Y-89567900D01*
X73010708Y-89548215D01*
X72964953Y-89495411D01*
X72955009Y-89426253D01*
X72984034Y-89362697D01*
X73011774Y-89338907D01*
X73024289Y-89331043D01*
X73110260Y-89277023D01*
X73267965Y-89151254D01*
X73273854Y-89146838D01*
X73286419Y-89137989D01*
X73288346Y-89136474D01*
X73292298Y-89132625D01*
X73301491Y-89124516D01*
X73315596Y-89113270D01*
X73372133Y-89056732D01*
X73372138Y-89056729D01*
X73442384Y-88986482D01*
X73442385Y-88986480D01*
X73558107Y-88870759D01*
X73558140Y-88870740D01*
X73594440Y-88834440D01*
X73594441Y-88834441D01*
X73697729Y-88731153D01*
X73883061Y-88505324D01*
X74045366Y-88262416D01*
X74183080Y-88004769D01*
X74294876Y-87734864D01*
X74379678Y-87455300D01*
X74436670Y-87168771D01*
X74465302Y-86878035D01*
X74465300Y-86731964D01*
X74465300Y-86709271D01*
X74465300Y-84888602D01*
X74465301Y-84888598D01*
X74465300Y-84855329D01*
X74465309Y-84855297D01*
X74465309Y-84803958D01*
X74465310Y-84803958D01*
X74465309Y-84580851D01*
X74433474Y-84135775D01*
X74369968Y-83694104D01*
X74351037Y-83607080D01*
X74275118Y-83258091D01*
X74235007Y-83121491D01*
X74149403Y-82829951D01*
X73993466Y-82411872D01*
X73808102Y-82005983D01*
X73594254Y-81614352D01*
X73353013Y-81238974D01*
X73353010Y-81238969D01*
X73085614Y-80881769D01*
X72907602Y-80676333D01*
X72793400Y-80544536D01*
X72670256Y-80421392D01*
X72670192Y-80421324D01*
X68235596Y-75986730D01*
X68235595Y-75986729D01*
X68205130Y-75956263D01*
X68201413Y-75952380D01*
X67933628Y-75660143D01*
X67926684Y-75651867D01*
X67687053Y-75339573D01*
X67680848Y-75330712D01*
X67469341Y-74998712D01*
X67463933Y-74989344D01*
X67285491Y-74646558D01*
X67271996Y-74578003D01*
X67297706Y-74513036D01*
X67354459Y-74472283D01*
X67395480Y-74465301D01*
X67400735Y-74465301D01*
X67438325Y-74456721D01*
X67452019Y-74454394D01*
X67490330Y-74450078D01*
X67526712Y-74437346D01*
X67540063Y-74433499D01*
X67577657Y-74424920D01*
X67612387Y-74408193D01*
X67625224Y-74402875D01*
X67661618Y-74390142D01*
X67694257Y-74369632D01*
X67706428Y-74362906D01*
X67721915Y-74355448D01*
X67741157Y-74346182D01*
X67771295Y-74322147D01*
X67782628Y-74314104D01*
X67815274Y-74293593D01*
X67943593Y-74165274D01*
X67943593Y-74165272D01*
X67953801Y-74155065D01*
X67953803Y-74155061D01*
X70272335Y-71836528D01*
X70272345Y-71836521D01*
X70306074Y-71802793D01*
X70306091Y-71802783D01*
X70342400Y-71766473D01*
X70342401Y-71766474D01*
X70492547Y-71616328D01*
X70768352Y-71293400D01*
X71017970Y-70949829D01*
X71239862Y-70587731D01*
X71432660Y-70209341D01*
X71595176Y-69816990D01*
X71726408Y-69413098D01*
X71825547Y-69000155D01*
X71891981Y-68580706D01*
X71925300Y-68157339D01*
X71925300Y-67945000D01*
X71925300Y-67932329D01*
X71944925Y-67865382D01*
X71947641Y-67861148D01*
X72390412Y-67170841D01*
X72393355Y-67164386D01*
X72406909Y-67141529D01*
X72413796Y-67132331D01*
X72438386Y-67066397D01*
X72441732Y-67058314D01*
X72449957Y-67040284D01*
X72451809Y-67033974D01*
X72452329Y-67031776D01*
X72456818Y-67016983D01*
X72464091Y-66997483D01*
X72467052Y-66969939D01*
X72470500Y-66937873D01*
X72470499Y-65142128D01*
X72464091Y-65082517D01*
X72462810Y-65079083D01*
X72413797Y-64947671D01*
X72413793Y-64947664D01*
X72327547Y-64832455D01*
X72327544Y-64832452D01*
X72212335Y-64746206D01*
X72212328Y-64746202D01*
X72077482Y-64695908D01*
X72077483Y-64695908D01*
X72017883Y-64689501D01*
X72017881Y-64689500D01*
X72017873Y-64689500D01*
X72017864Y-64689500D01*
X70222129Y-64689500D01*
X70222123Y-64689501D01*
X70162516Y-64695908D01*
X70027671Y-64746202D01*
X70027664Y-64746206D01*
X69912455Y-64832452D01*
X69912452Y-64832455D01*
X69826206Y-64947664D01*
X69826203Y-64947669D01*
X69777189Y-65079083D01*
X69735317Y-65135016D01*
X69669853Y-65159433D01*
X69601580Y-65144581D01*
X69573326Y-65123430D01*
X69451402Y-65001506D01*
X69451395Y-65001501D01*
X69257834Y-64865967D01*
X69257830Y-64865965D01*
X69257828Y-64865964D01*
X69043663Y-64766097D01*
X69043659Y-64766096D01*
X69043655Y-64766094D01*
X68815413Y-64704938D01*
X68815403Y-64704936D01*
X68580001Y-64684341D01*
X68579999Y-64684341D01*
X68344596Y-64704936D01*
X68344586Y-64704938D01*
X68116344Y-64766094D01*
X68116335Y-64766098D01*
X67902171Y-64865964D01*
X67902169Y-64865965D01*
X67708597Y-65001505D01*
X67541505Y-65168597D01*
X67411575Y-65354158D01*
X67356998Y-65397783D01*
X67287500Y-65404977D01*
X67225145Y-65373454D01*
X67208425Y-65354158D01*
X67078494Y-65168597D01*
X66911402Y-65001506D01*
X66911395Y-65001501D01*
X66717834Y-64865967D01*
X66717830Y-64865965D01*
X66717828Y-64865964D01*
X66503663Y-64766097D01*
X66503659Y-64766096D01*
X66503655Y-64766094D01*
X66275413Y-64704938D01*
X66275403Y-64704936D01*
X66040001Y-64684341D01*
X66039999Y-64684341D01*
X65804596Y-64704936D01*
X65804586Y-64704938D01*
X65576344Y-64766094D01*
X65576335Y-64766098D01*
X65362171Y-64865964D01*
X65362169Y-64865965D01*
X65168597Y-65001505D01*
X65001505Y-65168597D01*
X64871575Y-65354158D01*
X64816998Y-65397783D01*
X64747500Y-65404977D01*
X64685145Y-65373454D01*
X64668425Y-65354158D01*
X64538494Y-65168597D01*
X64371402Y-65001506D01*
X64371395Y-65001501D01*
X64177834Y-64865967D01*
X64177830Y-64865965D01*
X64177828Y-64865964D01*
X63963663Y-64766097D01*
X63963659Y-64766096D01*
X63963655Y-64766094D01*
X63735413Y-64704938D01*
X63735403Y-64704936D01*
X63500001Y-64684341D01*
X63499999Y-64684341D01*
X63264596Y-64704936D01*
X63264586Y-64704938D01*
X63036344Y-64766094D01*
X63036335Y-64766098D01*
X62822171Y-64865964D01*
X62822169Y-64865965D01*
X62628597Y-65001505D01*
X62461505Y-65168597D01*
X62331575Y-65354158D01*
X62276998Y-65397783D01*
X62207500Y-65404977D01*
X62145145Y-65373454D01*
X62128425Y-65354158D01*
X61998494Y-65168597D01*
X61831402Y-65001506D01*
X61831395Y-65001501D01*
X61637834Y-64865967D01*
X61637830Y-64865965D01*
X61637828Y-64865964D01*
X61423663Y-64766097D01*
X61423659Y-64766096D01*
X61423655Y-64766094D01*
X61195413Y-64704938D01*
X61195403Y-64704936D01*
X60960001Y-64684341D01*
X60959999Y-64684341D01*
X60724596Y-64704936D01*
X60724586Y-64704938D01*
X60496344Y-64766094D01*
X60496335Y-64766098D01*
X60282171Y-64865964D01*
X60282169Y-64865965D01*
X60088597Y-65001505D01*
X59921505Y-65168597D01*
X59791575Y-65354158D01*
X59736998Y-65397783D01*
X59667500Y-65404977D01*
X59605145Y-65373454D01*
X59588425Y-65354158D01*
X59458494Y-65168597D01*
X59291402Y-65001506D01*
X59291395Y-65001501D01*
X59097834Y-64865967D01*
X59097830Y-64865965D01*
X59097828Y-64865964D01*
X58883663Y-64766097D01*
X58883659Y-64766096D01*
X58883655Y-64766094D01*
X58655413Y-64704938D01*
X58655403Y-64704936D01*
X58420001Y-64684341D01*
X58419999Y-64684341D01*
X58184596Y-64704936D01*
X58184586Y-64704938D01*
X57956344Y-64766094D01*
X57956335Y-64766098D01*
X57742171Y-64865964D01*
X57742169Y-64865965D01*
X57548597Y-65001505D01*
X57381505Y-65168597D01*
X57251575Y-65354158D01*
X57196998Y-65397783D01*
X57127500Y-65404977D01*
X57065145Y-65373454D01*
X57048425Y-65354158D01*
X56918494Y-65168597D01*
X56751402Y-65001506D01*
X56751395Y-65001501D01*
X56557834Y-64865967D01*
X56557830Y-64865965D01*
X56557828Y-64865964D01*
X56343663Y-64766097D01*
X56343659Y-64766096D01*
X56343655Y-64766094D01*
X56115413Y-64704938D01*
X56115403Y-64704936D01*
X55880001Y-64684341D01*
X55879999Y-64684341D01*
X55644596Y-64704936D01*
X55644586Y-64704938D01*
X55416344Y-64766094D01*
X55416335Y-64766098D01*
X55202171Y-64865964D01*
X55202169Y-64865965D01*
X55008597Y-65001505D01*
X54841505Y-65168597D01*
X54711575Y-65354158D01*
X54656998Y-65397783D01*
X54587500Y-65404977D01*
X54525145Y-65373454D01*
X54508425Y-65354158D01*
X54378494Y-65168597D01*
X54211402Y-65001506D01*
X54211395Y-65001501D01*
X54017834Y-64865967D01*
X54017830Y-64865965D01*
X54017828Y-64865964D01*
X53803663Y-64766097D01*
X53803659Y-64766096D01*
X53803655Y-64766094D01*
X53575413Y-64704938D01*
X53575403Y-64704936D01*
X53340001Y-64684341D01*
X53339999Y-64684341D01*
X53104596Y-64704936D01*
X53104586Y-64704938D01*
X52876344Y-64766094D01*
X52876335Y-64766098D01*
X52662171Y-64865964D01*
X52662169Y-64865965D01*
X52468597Y-65001505D01*
X52301505Y-65168597D01*
X52165965Y-65362169D01*
X52165964Y-65362171D01*
X52066098Y-65576335D01*
X52066094Y-65576344D01*
X52004938Y-65804586D01*
X52004936Y-65804596D01*
X51984341Y-66039999D01*
X51984341Y-66040000D01*
X51300500Y-66040000D01*
X51300500Y-58420000D01*
X55374709Y-58420000D01*
X55393856Y-58760959D01*
X55393858Y-58760971D01*
X55451060Y-59097637D01*
X55451062Y-59097646D01*
X55521300Y-59341448D01*
X55545601Y-59425796D01*
X55649221Y-59675956D01*
X55676287Y-59741300D01*
X55841480Y-60040196D01*
X55841483Y-60040201D01*
X56039092Y-60318703D01*
X56039096Y-60318708D01*
X56266654Y-60573346D01*
X56521292Y-60800904D01*
X56521295Y-60800906D01*
X56521296Y-60800907D01*
X56799798Y-60998516D01*
X56799803Y-60998519D01*
X56799806Y-60998520D01*
X56799808Y-60998522D01*
X57098698Y-61163712D01*
X57414204Y-61294399D01*
X57742359Y-61388939D01*
X58079036Y-61446143D01*
X58420000Y-61465291D01*
X58760964Y-61446143D01*
X59097641Y-61388939D01*
X59425796Y-61294399D01*
X59741302Y-61163712D01*
X60040192Y-60998522D01*
X60040197Y-60998518D01*
X60040201Y-60998516D01*
X60155310Y-60916840D01*
X60318708Y-60800904D01*
X60573346Y-60573346D01*
X60800904Y-60318708D01*
X60916840Y-60155310D01*
X60998516Y-60040201D01*
X60998519Y-60040196D01*
X60998522Y-60040192D01*
X61163712Y-59741302D01*
X61294399Y-59425796D01*
X61388939Y-59097641D01*
X61446143Y-58760964D01*
X61465291Y-58420000D01*
X223014709Y-58420000D01*
X223033856Y-58760959D01*
X223033858Y-58760971D01*
X223091060Y-59097637D01*
X223091062Y-59097646D01*
X223161300Y-59341448D01*
X223185601Y-59425796D01*
X223289221Y-59675956D01*
X223316287Y-59741300D01*
X223481480Y-60040196D01*
X223481483Y-60040201D01*
X223679092Y-60318703D01*
X223679096Y-60318708D01*
X223906654Y-60573346D01*
X224161292Y-60800904D01*
X224161295Y-60800906D01*
X224161296Y-60800907D01*
X224439798Y-60998516D01*
X224439803Y-60998519D01*
X224439806Y-60998520D01*
X224439808Y-60998522D01*
X224738698Y-61163712D01*
X225054204Y-61294399D01*
X225382359Y-61388939D01*
X225719036Y-61446143D01*
X226060000Y-61465291D01*
X226400964Y-61446143D01*
X226737641Y-61388939D01*
X227065796Y-61294399D01*
X227381302Y-61163712D01*
X227680192Y-60998522D01*
X227680197Y-60998518D01*
X227680201Y-60998516D01*
X227795310Y-60916840D01*
X227958708Y-60800904D01*
X228213346Y-60573346D01*
X228440904Y-60318708D01*
X228556840Y-60155310D01*
X228638516Y-60040201D01*
X228638519Y-60040196D01*
X228638522Y-60040192D01*
X228803712Y-59741302D01*
X228934399Y-59425796D01*
X229028939Y-59097641D01*
X229086143Y-58760964D01*
X229105291Y-58420000D01*
X229086143Y-58079036D01*
X229028939Y-57742359D01*
X228934399Y-57414204D01*
X228803712Y-57098698D01*
X228638522Y-56799808D01*
X228638520Y-56799806D01*
X228638519Y-56799803D01*
X228638516Y-56799798D01*
X228440907Y-56521296D01*
X228440906Y-56521295D01*
X228440904Y-56521292D01*
X228213346Y-56266654D01*
X227958708Y-56039096D01*
X227958705Y-56039094D01*
X227958703Y-56039092D01*
X227680201Y-55841483D01*
X227680196Y-55841480D01*
X227381300Y-55676287D01*
X227315956Y-55649221D01*
X227065796Y-55545601D01*
X226981448Y-55521300D01*
X226737646Y-55451062D01*
X226737637Y-55451060D01*
X226400971Y-55393858D01*
X226400959Y-55393856D01*
X226060000Y-55374709D01*
X225719040Y-55393856D01*
X225719028Y-55393858D01*
X225382362Y-55451060D01*
X225382353Y-55451062D01*
X225054207Y-55545600D01*
X225054204Y-55545601D01*
X224961796Y-55583877D01*
X224738699Y-55676287D01*
X224439803Y-55841480D01*
X224439798Y-55841483D01*
X224161296Y-56039092D01*
X223906654Y-56266654D01*
X223679092Y-56521296D01*
X223481483Y-56799798D01*
X223481480Y-56799803D01*
X223316287Y-57098699D01*
X223185600Y-57414207D01*
X223091062Y-57742353D01*
X223091060Y-57742362D01*
X223033858Y-58079028D01*
X223033856Y-58079040D01*
X223014709Y-58420000D01*
X61465291Y-58420000D01*
X61446143Y-58079036D01*
X61388939Y-57742359D01*
X61294399Y-57414204D01*
X61163712Y-57098698D01*
X60998522Y-56799808D01*
X60998520Y-56799806D01*
X60998519Y-56799803D01*
X60998516Y-56799798D01*
X60800907Y-56521296D01*
X60800906Y-56521295D01*
X60800904Y-56521292D01*
X60573346Y-56266654D01*
X60318708Y-56039096D01*
X60318705Y-56039094D01*
X60318703Y-56039092D01*
X60040201Y-55841483D01*
X60040196Y-55841480D01*
X59741300Y-55676287D01*
X59675956Y-55649221D01*
X59425796Y-55545601D01*
X59341448Y-55521300D01*
X59097646Y-55451062D01*
X59097637Y-55451060D01*
X58760971Y-55393858D01*
X58760959Y-55393856D01*
X58420000Y-55374709D01*
X58079040Y-55393856D01*
X58079028Y-55393858D01*
X57742362Y-55451060D01*
X57742353Y-55451062D01*
X57414207Y-55545600D01*
X57414204Y-55545601D01*
X57321796Y-55583877D01*
X57098699Y-55676287D01*
X56799803Y-55841480D01*
X56799798Y-55841483D01*
X56521296Y-56039092D01*
X56266654Y-56266654D01*
X56039092Y-56521296D01*
X55841483Y-56799798D01*
X55841480Y-56799803D01*
X55676287Y-57098699D01*
X55545600Y-57414207D01*
X55451062Y-57742353D01*
X55451060Y-57742362D01*
X55393858Y-58079028D01*
X55393856Y-58079040D01*
X55374709Y-58420000D01*
X51300500Y-58420000D01*
X51300500Y-51424500D01*
X51320185Y-51357461D01*
X51372989Y-51311706D01*
X51424500Y-51300500D01*
X233055500Y-51300500D01*
X233122539Y-51320185D01*
G37*
G04 #@! TD.AperFunction*
M02*
