%TF.GenerationSoftware,KiCad,Pcbnew,7.0.11+dfsg-1*%
%TF.CreationDate,2024-03-20T20:25:11-04:00*%
%TF.ProjectId,base,62617365-2e6b-4696-9361-645f70636258,rev?*%
%TF.SameCoordinates,Original*%
%TF.FileFunction,Drillmap*%
%TF.FilePolarity,Positive*%
%FSLAX45Y45*%
G04 Gerber Fmt 4.5, Leading zero omitted, Abs format (unit mm)*
G04 Created by KiCad (PCBNEW 7.0.11+dfsg-1) date 2024-03-20 20:25:11*
%MOMM*%
%LPD*%
G01*
G04 APERTURE LIST*
%ADD10C,0.050000*%
%ADD11C,0.200000*%
%ADD12C,0.100000*%
%ADD13C,0.101600*%
G04 APERTURE END LIST*
D10*
X8255000Y-11557000D02*
G75*
G03*
X7747000Y-11557000I-254000J0D01*
G01*
X7747000Y-11557000D02*
G75*
G03*
X8255000Y-11557000I254000J0D01*
G01*
X22860000Y-11557000D02*
G75*
G03*
X22352000Y-11557000I-254000J0D01*
G01*
X22352000Y-11557000D02*
G75*
G03*
X22860000Y-11557000I254000J0D01*
G01*
X6096000Y-5842000D02*
G75*
G03*
X5588000Y-5842000I-254000J0D01*
G01*
X5588000Y-5842000D02*
G75*
G03*
X6096000Y-5842000I254000J0D01*
G01*
X22860000Y-5842000D02*
G75*
G03*
X22352000Y-5842000I-254000J0D01*
G01*
X22352000Y-5842000D02*
G75*
G03*
X22860000Y-5842000I254000J0D01*
G01*
X5080000Y-5080000D02*
X23368000Y-5080000D01*
X23368000Y-12700000D01*
X5080000Y-12700000D01*
X5080000Y-5080000D01*
D11*
D12*
X8240000Y-9129000D02*
X8270000Y-9159000D01*
X8270000Y-9129000D02*
X8240000Y-9159000D01*
X6116320Y-7366000D02*
G75*
G03*
X6075680Y-7366000I-20320J0D01*
G01*
X6075680Y-7366000D02*
G75*
G03*
X6116320Y-7366000I20320J0D01*
G01*
X6497320Y-7239000D02*
G75*
G03*
X6456680Y-7239000I-20320J0D01*
G01*
X6456680Y-7239000D02*
G75*
G03*
X6497320Y-7239000I20320J0D01*
G01*
X6497320Y-9652000D02*
G75*
G03*
X6456680Y-9652000I-20320J0D01*
G01*
X6456680Y-9652000D02*
G75*
G03*
X6497320Y-9652000I20320J0D01*
G01*
X6751320Y-6985000D02*
G75*
G03*
X6710680Y-6985000I-20320J0D01*
G01*
X6710680Y-6985000D02*
G75*
G03*
X6751320Y-6985000I20320J0D01*
G01*
X6751320Y-7366000D02*
G75*
G03*
X6710680Y-7366000I-20320J0D01*
G01*
X6710680Y-7366000D02*
G75*
G03*
X6751320Y-7366000I20320J0D01*
G01*
X7005320Y-8382000D02*
G75*
G03*
X6964680Y-8382000I-20320J0D01*
G01*
X6964680Y-8382000D02*
G75*
G03*
X7005320Y-8382000I20320J0D01*
G01*
X7132320Y-8128000D02*
G75*
G03*
X7091680Y-8128000I-20320J0D01*
G01*
X7091680Y-8128000D02*
G75*
G03*
X7132320Y-8128000I20320J0D01*
G01*
X10287000Y-11136000D02*
X10287000Y-11216000D01*
X10247000Y-11176000D02*
X10327000Y-11176000D01*
X10287000Y-11898000D02*
X10287000Y-11978000D01*
X10247000Y-11938000D02*
X10327000Y-11938000D01*
X11430000Y-11136000D02*
X11430000Y-11216000D01*
X11390000Y-11176000D02*
X11470000Y-11176000D01*
X11430000Y-11898000D02*
X11430000Y-11978000D01*
X11390000Y-11938000D02*
X11470000Y-11938000D01*
X12573000Y-11136000D02*
X12573000Y-11216000D01*
X12533000Y-11176000D02*
X12613000Y-11176000D01*
X12573000Y-11898000D02*
X12573000Y-11978000D01*
X12533000Y-11938000D02*
X12613000Y-11938000D01*
X5369356Y-6639356D02*
X5369356Y-6568644D01*
X5298644Y-6568644D01*
X5298644Y-6639356D01*
X5369356Y-6639356D01*
X5623356Y-6639356D02*
X5623356Y-6568644D01*
X5552644Y-6568644D01*
X5552644Y-6639356D01*
X5623356Y-6639356D01*
X5623356Y-7655356D02*
X5623356Y-7584644D01*
X5552644Y-7584644D01*
X5552644Y-7655356D01*
X5623356Y-7655356D01*
X5623356Y-7909356D02*
X5623356Y-7838644D01*
X5552644Y-7838644D01*
X5552644Y-7909356D01*
X5623356Y-7909356D01*
X5750356Y-12100356D02*
X5750356Y-12029644D01*
X5679644Y-12029644D01*
X5679644Y-12100356D01*
X5750356Y-12100356D01*
X5877356Y-6639356D02*
X5877356Y-6568644D01*
X5806644Y-6568644D01*
X5806644Y-6639356D01*
X5877356Y-6639356D01*
X6004356Y-12100356D02*
X6004356Y-12029644D01*
X5933644Y-12029644D01*
X5933644Y-12100356D01*
X6004356Y-12100356D01*
X6131356Y-6639356D02*
X6131356Y-6568644D01*
X6060644Y-6568644D01*
X6060644Y-6639356D01*
X6131356Y-6639356D01*
X6258356Y-12100356D02*
X6258356Y-12029644D01*
X6187644Y-12029644D01*
X6187644Y-12100356D01*
X6258356Y-12100356D01*
X6385356Y-6639356D02*
X6385356Y-6568644D01*
X6314644Y-6568644D01*
X6314644Y-6639356D01*
X6385356Y-6639356D01*
X6512356Y-12100356D02*
X6512356Y-12029644D01*
X6441644Y-12029644D01*
X6441644Y-12100356D01*
X6512356Y-12100356D01*
X6639356Y-6639356D02*
X6639356Y-6568644D01*
X6568644Y-6568644D01*
X6568644Y-6639356D01*
X6639356Y-6639356D01*
X6766356Y-12100356D02*
X6766356Y-12029644D01*
X6695644Y-12029644D01*
X6695644Y-12100356D01*
X6766356Y-12100356D01*
X6893356Y-6639356D02*
X6893356Y-6568644D01*
X6822644Y-6568644D01*
X6822644Y-6639356D01*
X6893356Y-6639356D01*
X7020356Y-12100356D02*
X7020356Y-12029644D01*
X6949644Y-12029644D01*
X6949644Y-12100356D01*
X7020356Y-12100356D01*
X7147356Y-6639356D02*
X7147356Y-6568644D01*
X7076644Y-6568644D01*
X7076644Y-6639356D01*
X7147356Y-6639356D01*
X7782356Y-8671356D02*
X7782356Y-8600644D01*
X7711644Y-8600644D01*
X7711644Y-8671356D01*
X7782356Y-8671356D01*
X8036356Y-8671356D02*
X8036356Y-8600644D01*
X7965644Y-8600644D01*
X7965644Y-8671356D01*
X8036356Y-8671356D01*
X8290356Y-8671356D02*
X8290356Y-8600644D01*
X8219644Y-8600644D01*
X8219644Y-8671356D01*
X8290356Y-8671356D01*
X8544356Y-8671356D02*
X8544356Y-8600644D01*
X8473644Y-8600644D01*
X8473644Y-8671356D01*
X8544356Y-8671356D01*
X8798356Y-8671356D02*
X8798356Y-8600644D01*
X8727644Y-8600644D01*
X8727644Y-8671356D01*
X8798356Y-8671356D01*
X9052356Y-8671356D02*
X9052356Y-8600644D01*
X8981644Y-8600644D01*
X8981644Y-8671356D01*
X9052356Y-8671356D01*
X10322356Y-12354356D02*
X10322356Y-12283644D01*
X10251644Y-12283644D01*
X10251644Y-12354356D01*
X10322356Y-12354356D01*
X10576356Y-12354356D02*
X10576356Y-12283644D01*
X10505644Y-12283644D01*
X10505644Y-12354356D01*
X10576356Y-12354356D01*
X11465356Y-12354356D02*
X11465356Y-12283644D01*
X11394644Y-12283644D01*
X11394644Y-12354356D01*
X11465356Y-12354356D01*
X11719356Y-12354356D02*
X11719356Y-12283644D01*
X11648644Y-12283644D01*
X11648644Y-12354356D01*
X11719356Y-12354356D01*
X12608356Y-12354356D02*
X12608356Y-12283644D01*
X12537644Y-12283644D01*
X12537644Y-12354356D01*
X12608356Y-12354356D01*
X12862356Y-12354356D02*
X12862356Y-12283644D01*
X12791644Y-12283644D01*
X12791644Y-12354356D01*
X12862356Y-12354356D01*
X21371356Y-6639356D02*
X21371356Y-6568644D01*
X21300644Y-6568644D01*
X21300644Y-6639356D01*
X21371356Y-6639356D01*
X21625356Y-6639356D02*
X21625356Y-6568644D01*
X21554644Y-6568644D01*
X21554644Y-6639356D01*
X21625356Y-6639356D01*
X21879356Y-6639356D02*
X21879356Y-6568644D01*
X21808644Y-6568644D01*
X21808644Y-6639356D01*
X21879356Y-6639356D01*
X22133356Y-6639356D02*
X22133356Y-6568644D01*
X22062644Y-6568644D01*
X22062644Y-6639356D01*
X22133356Y-6639356D01*
X22387356Y-6639356D02*
X22387356Y-6568644D01*
X22316644Y-6568644D01*
X22316644Y-6639356D01*
X22387356Y-6639356D01*
X22641356Y-6639356D02*
X22641356Y-6568644D01*
X22570644Y-6568644D01*
X22570644Y-6639356D01*
X22641356Y-6639356D01*
X22895356Y-6639356D02*
X22895356Y-6568644D01*
X22824644Y-6568644D01*
X22824644Y-6639356D01*
X22895356Y-6639356D01*
X23149356Y-6639356D02*
X23149356Y-6568644D01*
X23078644Y-6568644D01*
X23078644Y-6639356D01*
X23149356Y-6639356D01*
D13*
X5588000Y-8686800D02*
X5638800Y-8636000D01*
X5588000Y-8585200D01*
X5537200Y-8636000D01*
X5588000Y-8686800D01*
X5588000Y-8940800D02*
X5638800Y-8890000D01*
X5588000Y-8839200D01*
X5537200Y-8890000D01*
X5588000Y-8940800D01*
X5588000Y-9194800D02*
X5638800Y-9144000D01*
X5588000Y-9093200D01*
X5537200Y-9144000D01*
X5588000Y-9194800D01*
X5588000Y-9448800D02*
X5638800Y-9398000D01*
X5588000Y-9347200D01*
X5537200Y-9398000D01*
X5588000Y-9448800D01*
X5588000Y-9702800D02*
X5638800Y-9652000D01*
X5588000Y-9601200D01*
X5537200Y-9652000D01*
X5588000Y-9702800D01*
X5588000Y-9956800D02*
X5638800Y-9906000D01*
X5588000Y-9855200D01*
X5537200Y-9906000D01*
X5588000Y-9956800D01*
X5588000Y-10210800D02*
X5638800Y-10160000D01*
X5588000Y-10109200D01*
X5537200Y-10160000D01*
X5588000Y-10210800D01*
X5588000Y-10464800D02*
X5638800Y-10414000D01*
X5588000Y-10363200D01*
X5537200Y-10414000D01*
X5588000Y-10464800D01*
X5588000Y-10718800D02*
X5638800Y-10668000D01*
X5588000Y-10617200D01*
X5537200Y-10668000D01*
X5588000Y-10718800D01*
X5588000Y-10972800D02*
X5638800Y-10922000D01*
X5588000Y-10871200D01*
X5537200Y-10922000D01*
X5588000Y-10972800D01*
X5588000Y-11226800D02*
X5638800Y-11176000D01*
X5588000Y-11125200D01*
X5537200Y-11176000D01*
X5588000Y-11226800D01*
X5588000Y-11480800D02*
X5638800Y-11430000D01*
X5588000Y-11379200D01*
X5537200Y-11430000D01*
X5588000Y-11480800D01*
X5715000Y-11734800D02*
X5765800Y-11684000D01*
X5715000Y-11633200D01*
X5664200Y-11684000D01*
X5715000Y-11734800D01*
X5842000Y-8686800D02*
X5892800Y-8636000D01*
X5842000Y-8585200D01*
X5791200Y-8636000D01*
X5842000Y-8686800D01*
X5842000Y-10337800D02*
X5892800Y-10287000D01*
X5842000Y-10236200D01*
X5791200Y-10287000D01*
X5842000Y-10337800D01*
X5842000Y-10591800D02*
X5892800Y-10541000D01*
X5842000Y-10490200D01*
X5791200Y-10541000D01*
X5842000Y-10591800D01*
X5969000Y-11734800D02*
X6019800Y-11684000D01*
X5969000Y-11633200D01*
X5918200Y-11684000D01*
X5969000Y-11734800D01*
X6096000Y-8686800D02*
X6146800Y-8636000D01*
X6096000Y-8585200D01*
X6045200Y-8636000D01*
X6096000Y-8686800D01*
X6223000Y-11734800D02*
X6273800Y-11684000D01*
X6223000Y-11633200D01*
X6172200Y-11684000D01*
X6223000Y-11734800D01*
X6350000Y-8686800D02*
X6400800Y-8636000D01*
X6350000Y-8585200D01*
X6299200Y-8636000D01*
X6350000Y-8686800D01*
X6477000Y-11734800D02*
X6527800Y-11684000D01*
X6477000Y-11633200D01*
X6426200Y-11684000D01*
X6477000Y-11734800D01*
X6731000Y-11734800D02*
X6781800Y-11684000D01*
X6731000Y-11633200D01*
X6680200Y-11684000D01*
X6731000Y-11734800D01*
X6985000Y-11734800D02*
X7035800Y-11684000D01*
X6985000Y-11633200D01*
X6934200Y-11684000D01*
X6985000Y-11734800D01*
X7112000Y-8686800D02*
X7162800Y-8636000D01*
X7112000Y-8585200D01*
X7061200Y-8636000D01*
X7112000Y-8686800D01*
X7112000Y-8940800D02*
X7162800Y-8890000D01*
X7112000Y-8839200D01*
X7061200Y-8890000D01*
X7112000Y-8940800D01*
X7112000Y-9194800D02*
X7162800Y-9144000D01*
X7112000Y-9093200D01*
X7061200Y-9144000D01*
X7112000Y-9194800D01*
X7112000Y-9448800D02*
X7162800Y-9398000D01*
X7112000Y-9347200D01*
X7061200Y-9398000D01*
X7112000Y-9448800D01*
X7112000Y-9702800D02*
X7162800Y-9652000D01*
X7112000Y-9601200D01*
X7061200Y-9652000D01*
X7112000Y-9702800D01*
X7112000Y-9956800D02*
X7162800Y-9906000D01*
X7112000Y-9855200D01*
X7061200Y-9906000D01*
X7112000Y-9956800D01*
X7112000Y-10210800D02*
X7162800Y-10160000D01*
X7112000Y-10109200D01*
X7061200Y-10160000D01*
X7112000Y-10210800D01*
X7112000Y-10464800D02*
X7162800Y-10414000D01*
X7112000Y-10363200D01*
X7061200Y-10414000D01*
X7112000Y-10464800D01*
X7112000Y-10718800D02*
X7162800Y-10668000D01*
X7112000Y-10617200D01*
X7061200Y-10668000D01*
X7112000Y-10718800D01*
X7112000Y-10972800D02*
X7162800Y-10922000D01*
X7112000Y-10871200D01*
X7061200Y-10922000D01*
X7112000Y-10972800D01*
X7112000Y-11226800D02*
X7162800Y-11176000D01*
X7112000Y-11125200D01*
X7061200Y-11176000D01*
X7112000Y-11226800D01*
X7112000Y-11480800D02*
X7162800Y-11430000D01*
X7112000Y-11379200D01*
X7061200Y-11430000D01*
X7112000Y-11480800D01*
D11*
X5338277Y-13013984D02*
X5338277Y-12813984D01*
X5338277Y-12813984D02*
X5385896Y-12813984D01*
X5385896Y-12813984D02*
X5414467Y-12823508D01*
X5414467Y-12823508D02*
X5433515Y-12842555D01*
X5433515Y-12842555D02*
X5443039Y-12861603D01*
X5443039Y-12861603D02*
X5452563Y-12899698D01*
X5452563Y-12899698D02*
X5452563Y-12928269D01*
X5452563Y-12928269D02*
X5443039Y-12966365D01*
X5443039Y-12966365D02*
X5433515Y-12985412D01*
X5433515Y-12985412D02*
X5414467Y-13004460D01*
X5414467Y-13004460D02*
X5385896Y-13013984D01*
X5385896Y-13013984D02*
X5338277Y-13013984D01*
X5538277Y-13013984D02*
X5538277Y-12880650D01*
X5538277Y-12918746D02*
X5547801Y-12899698D01*
X5547801Y-12899698D02*
X5557324Y-12890174D01*
X5557324Y-12890174D02*
X5576372Y-12880650D01*
X5576372Y-12880650D02*
X5595420Y-12880650D01*
X5662086Y-13013984D02*
X5662086Y-12880650D01*
X5662086Y-12813984D02*
X5652562Y-12823508D01*
X5652562Y-12823508D02*
X5662086Y-12833031D01*
X5662086Y-12833031D02*
X5671610Y-12823508D01*
X5671610Y-12823508D02*
X5662086Y-12813984D01*
X5662086Y-12813984D02*
X5662086Y-12833031D01*
X5785896Y-13013984D02*
X5766848Y-13004460D01*
X5766848Y-13004460D02*
X5757324Y-12985412D01*
X5757324Y-12985412D02*
X5757324Y-12813984D01*
X5890658Y-13013984D02*
X5871610Y-13004460D01*
X5871610Y-13004460D02*
X5862086Y-12985412D01*
X5862086Y-12985412D02*
X5862086Y-12813984D01*
X6119229Y-13013984D02*
X6119229Y-12813984D01*
X6119229Y-12813984D02*
X6185896Y-12956841D01*
X6185896Y-12956841D02*
X6252562Y-12813984D01*
X6252562Y-12813984D02*
X6252562Y-13013984D01*
X6433515Y-13013984D02*
X6433515Y-12909222D01*
X6433515Y-12909222D02*
X6423991Y-12890174D01*
X6423991Y-12890174D02*
X6404943Y-12880650D01*
X6404943Y-12880650D02*
X6366848Y-12880650D01*
X6366848Y-12880650D02*
X6347801Y-12890174D01*
X6433515Y-13004460D02*
X6414467Y-13013984D01*
X6414467Y-13013984D02*
X6366848Y-13013984D01*
X6366848Y-13013984D02*
X6347801Y-13004460D01*
X6347801Y-13004460D02*
X6338277Y-12985412D01*
X6338277Y-12985412D02*
X6338277Y-12966365D01*
X6338277Y-12966365D02*
X6347801Y-12947317D01*
X6347801Y-12947317D02*
X6366848Y-12937793D01*
X6366848Y-12937793D02*
X6414467Y-12937793D01*
X6414467Y-12937793D02*
X6433515Y-12928269D01*
X6528753Y-12880650D02*
X6528753Y-13080650D01*
X6528753Y-12890174D02*
X6547801Y-12880650D01*
X6547801Y-12880650D02*
X6585896Y-12880650D01*
X6585896Y-12880650D02*
X6604943Y-12890174D01*
X6604943Y-12890174D02*
X6614467Y-12899698D01*
X6614467Y-12899698D02*
X6623991Y-12918746D01*
X6623991Y-12918746D02*
X6623991Y-12975888D01*
X6623991Y-12975888D02*
X6614467Y-12994936D01*
X6614467Y-12994936D02*
X6604943Y-13004460D01*
X6604943Y-13004460D02*
X6585896Y-13013984D01*
X6585896Y-13013984D02*
X6547801Y-13013984D01*
X6547801Y-13013984D02*
X6528753Y-13004460D01*
X6709705Y-12994936D02*
X6719229Y-13004460D01*
X6719229Y-13004460D02*
X6709705Y-13013984D01*
X6709705Y-13013984D02*
X6700182Y-13004460D01*
X6700182Y-13004460D02*
X6709705Y-12994936D01*
X6709705Y-12994936D02*
X6709705Y-13013984D01*
X6709705Y-12890174D02*
X6719229Y-12899698D01*
X6719229Y-12899698D02*
X6709705Y-12909222D01*
X6709705Y-12909222D02*
X6700182Y-12899698D01*
X6700182Y-12899698D02*
X6709705Y-12890174D01*
X6709705Y-12890174D02*
X6709705Y-12909222D01*
D12*
X5047500Y-13327500D02*
X5077500Y-13357500D01*
X5077500Y-13327500D02*
X5047500Y-13357500D01*
D11*
X5376372Y-13233984D02*
X5395420Y-13233984D01*
X5395420Y-13233984D02*
X5414467Y-13243508D01*
X5414467Y-13243508D02*
X5423991Y-13253031D01*
X5423991Y-13253031D02*
X5433515Y-13272079D01*
X5433515Y-13272079D02*
X5443039Y-13310174D01*
X5443039Y-13310174D02*
X5443039Y-13357793D01*
X5443039Y-13357793D02*
X5433515Y-13395888D01*
X5433515Y-13395888D02*
X5423991Y-13414936D01*
X5423991Y-13414936D02*
X5414467Y-13424460D01*
X5414467Y-13424460D02*
X5395420Y-13433984D01*
X5395420Y-13433984D02*
X5376372Y-13433984D01*
X5376372Y-13433984D02*
X5357324Y-13424460D01*
X5357324Y-13424460D02*
X5347801Y-13414936D01*
X5347801Y-13414936D02*
X5338277Y-13395888D01*
X5338277Y-13395888D02*
X5328753Y-13357793D01*
X5328753Y-13357793D02*
X5328753Y-13310174D01*
X5328753Y-13310174D02*
X5338277Y-13272079D01*
X5338277Y-13272079D02*
X5347801Y-13253031D01*
X5347801Y-13253031D02*
X5357324Y-13243508D01*
X5357324Y-13243508D02*
X5376372Y-13233984D01*
X5528753Y-13414936D02*
X5538277Y-13424460D01*
X5538277Y-13424460D02*
X5528753Y-13433984D01*
X5528753Y-13433984D02*
X5519229Y-13424460D01*
X5519229Y-13424460D02*
X5528753Y-13414936D01*
X5528753Y-13414936D02*
X5528753Y-13433984D01*
X5604943Y-13233984D02*
X5728753Y-13233984D01*
X5728753Y-13233984D02*
X5662086Y-13310174D01*
X5662086Y-13310174D02*
X5690658Y-13310174D01*
X5690658Y-13310174D02*
X5709705Y-13319698D01*
X5709705Y-13319698D02*
X5719229Y-13329222D01*
X5719229Y-13329222D02*
X5728753Y-13348269D01*
X5728753Y-13348269D02*
X5728753Y-13395888D01*
X5728753Y-13395888D02*
X5719229Y-13414936D01*
X5719229Y-13414936D02*
X5709705Y-13424460D01*
X5709705Y-13424460D02*
X5690658Y-13433984D01*
X5690658Y-13433984D02*
X5633515Y-13433984D01*
X5633515Y-13433984D02*
X5614467Y-13424460D01*
X5614467Y-13424460D02*
X5604943Y-13414936D01*
X5852562Y-13233984D02*
X5871610Y-13233984D01*
X5871610Y-13233984D02*
X5890658Y-13243508D01*
X5890658Y-13243508D02*
X5900182Y-13253031D01*
X5900182Y-13253031D02*
X5909705Y-13272079D01*
X5909705Y-13272079D02*
X5919229Y-13310174D01*
X5919229Y-13310174D02*
X5919229Y-13357793D01*
X5919229Y-13357793D02*
X5909705Y-13395888D01*
X5909705Y-13395888D02*
X5900182Y-13414936D01*
X5900182Y-13414936D02*
X5890658Y-13424460D01*
X5890658Y-13424460D02*
X5871610Y-13433984D01*
X5871610Y-13433984D02*
X5852562Y-13433984D01*
X5852562Y-13433984D02*
X5833515Y-13424460D01*
X5833515Y-13424460D02*
X5823991Y-13414936D01*
X5823991Y-13414936D02*
X5814467Y-13395888D01*
X5814467Y-13395888D02*
X5804943Y-13357793D01*
X5804943Y-13357793D02*
X5804943Y-13310174D01*
X5804943Y-13310174D02*
X5814467Y-13272079D01*
X5814467Y-13272079D02*
X5823991Y-13253031D01*
X5823991Y-13253031D02*
X5833515Y-13243508D01*
X5833515Y-13243508D02*
X5852562Y-13233984D01*
X6043039Y-13233984D02*
X6062086Y-13233984D01*
X6062086Y-13233984D02*
X6081134Y-13243508D01*
X6081134Y-13243508D02*
X6090658Y-13253031D01*
X6090658Y-13253031D02*
X6100182Y-13272079D01*
X6100182Y-13272079D02*
X6109705Y-13310174D01*
X6109705Y-13310174D02*
X6109705Y-13357793D01*
X6109705Y-13357793D02*
X6100182Y-13395888D01*
X6100182Y-13395888D02*
X6090658Y-13414936D01*
X6090658Y-13414936D02*
X6081134Y-13424460D01*
X6081134Y-13424460D02*
X6062086Y-13433984D01*
X6062086Y-13433984D02*
X6043039Y-13433984D01*
X6043039Y-13433984D02*
X6023991Y-13424460D01*
X6023991Y-13424460D02*
X6014467Y-13414936D01*
X6014467Y-13414936D02*
X6004943Y-13395888D01*
X6004943Y-13395888D02*
X5995420Y-13357793D01*
X5995420Y-13357793D02*
X5995420Y-13310174D01*
X5995420Y-13310174D02*
X6004943Y-13272079D01*
X6004943Y-13272079D02*
X6014467Y-13253031D01*
X6014467Y-13253031D02*
X6023991Y-13243508D01*
X6023991Y-13243508D02*
X6043039Y-13233984D01*
X6195420Y-13433984D02*
X6195420Y-13300650D01*
X6195420Y-13319698D02*
X6204943Y-13310174D01*
X6204943Y-13310174D02*
X6223991Y-13300650D01*
X6223991Y-13300650D02*
X6252563Y-13300650D01*
X6252563Y-13300650D02*
X6271610Y-13310174D01*
X6271610Y-13310174D02*
X6281134Y-13329222D01*
X6281134Y-13329222D02*
X6281134Y-13433984D01*
X6281134Y-13329222D02*
X6290658Y-13310174D01*
X6290658Y-13310174D02*
X6309705Y-13300650D01*
X6309705Y-13300650D02*
X6338277Y-13300650D01*
X6338277Y-13300650D02*
X6357324Y-13310174D01*
X6357324Y-13310174D02*
X6366848Y-13329222D01*
X6366848Y-13329222D02*
X6366848Y-13433984D01*
X6462086Y-13433984D02*
X6462086Y-13300650D01*
X6462086Y-13319698D02*
X6471610Y-13310174D01*
X6471610Y-13310174D02*
X6490658Y-13300650D01*
X6490658Y-13300650D02*
X6519229Y-13300650D01*
X6519229Y-13300650D02*
X6538277Y-13310174D01*
X6538277Y-13310174D02*
X6547801Y-13329222D01*
X6547801Y-13329222D02*
X6547801Y-13433984D01*
X6547801Y-13329222D02*
X6557324Y-13310174D01*
X6557324Y-13310174D02*
X6576372Y-13300650D01*
X6576372Y-13300650D02*
X6604943Y-13300650D01*
X6604943Y-13300650D02*
X6623991Y-13310174D01*
X6623991Y-13310174D02*
X6633515Y-13329222D01*
X6633515Y-13329222D02*
X6633515Y-13433984D01*
X7023991Y-13224460D02*
X6852563Y-13481603D01*
X7281134Y-13233984D02*
X7300182Y-13233984D01*
X7300182Y-13233984D02*
X7319229Y-13243508D01*
X7319229Y-13243508D02*
X7328753Y-13253031D01*
X7328753Y-13253031D02*
X7338277Y-13272079D01*
X7338277Y-13272079D02*
X7347801Y-13310174D01*
X7347801Y-13310174D02*
X7347801Y-13357793D01*
X7347801Y-13357793D02*
X7338277Y-13395888D01*
X7338277Y-13395888D02*
X7328753Y-13414936D01*
X7328753Y-13414936D02*
X7319229Y-13424460D01*
X7319229Y-13424460D02*
X7300182Y-13433984D01*
X7300182Y-13433984D02*
X7281134Y-13433984D01*
X7281134Y-13433984D02*
X7262086Y-13424460D01*
X7262086Y-13424460D02*
X7252563Y-13414936D01*
X7252563Y-13414936D02*
X7243039Y-13395888D01*
X7243039Y-13395888D02*
X7233515Y-13357793D01*
X7233515Y-13357793D02*
X7233515Y-13310174D01*
X7233515Y-13310174D02*
X7243039Y-13272079D01*
X7243039Y-13272079D02*
X7252563Y-13253031D01*
X7252563Y-13253031D02*
X7262086Y-13243508D01*
X7262086Y-13243508D02*
X7281134Y-13233984D01*
X7433515Y-13414936D02*
X7443039Y-13424460D01*
X7443039Y-13424460D02*
X7433515Y-13433984D01*
X7433515Y-13433984D02*
X7423991Y-13424460D01*
X7423991Y-13424460D02*
X7433515Y-13414936D01*
X7433515Y-13414936D02*
X7433515Y-13433984D01*
X7566848Y-13233984D02*
X7585896Y-13233984D01*
X7585896Y-13233984D02*
X7604944Y-13243508D01*
X7604944Y-13243508D02*
X7614467Y-13253031D01*
X7614467Y-13253031D02*
X7623991Y-13272079D01*
X7623991Y-13272079D02*
X7633515Y-13310174D01*
X7633515Y-13310174D02*
X7633515Y-13357793D01*
X7633515Y-13357793D02*
X7623991Y-13395888D01*
X7623991Y-13395888D02*
X7614467Y-13414936D01*
X7614467Y-13414936D02*
X7604944Y-13424460D01*
X7604944Y-13424460D02*
X7585896Y-13433984D01*
X7585896Y-13433984D02*
X7566848Y-13433984D01*
X7566848Y-13433984D02*
X7547801Y-13424460D01*
X7547801Y-13424460D02*
X7538277Y-13414936D01*
X7538277Y-13414936D02*
X7528753Y-13395888D01*
X7528753Y-13395888D02*
X7519229Y-13357793D01*
X7519229Y-13357793D02*
X7519229Y-13310174D01*
X7519229Y-13310174D02*
X7528753Y-13272079D01*
X7528753Y-13272079D02*
X7538277Y-13253031D01*
X7538277Y-13253031D02*
X7547801Y-13243508D01*
X7547801Y-13243508D02*
X7566848Y-13233984D01*
X7823991Y-13433984D02*
X7709706Y-13433984D01*
X7766848Y-13433984D02*
X7766848Y-13233984D01*
X7766848Y-13233984D02*
X7747801Y-13262555D01*
X7747801Y-13262555D02*
X7728753Y-13281603D01*
X7728753Y-13281603D02*
X7709706Y-13291127D01*
X8014467Y-13433984D02*
X7900182Y-13433984D01*
X7957325Y-13433984D02*
X7957325Y-13233984D01*
X7957325Y-13233984D02*
X7938277Y-13262555D01*
X7938277Y-13262555D02*
X7919229Y-13281603D01*
X7919229Y-13281603D02*
X7900182Y-13291127D01*
X8128753Y-13319698D02*
X8109706Y-13310174D01*
X8109706Y-13310174D02*
X8100182Y-13300650D01*
X8100182Y-13300650D02*
X8090658Y-13281603D01*
X8090658Y-13281603D02*
X8090658Y-13272079D01*
X8090658Y-13272079D02*
X8100182Y-13253031D01*
X8100182Y-13253031D02*
X8109706Y-13243508D01*
X8109706Y-13243508D02*
X8128753Y-13233984D01*
X8128753Y-13233984D02*
X8166848Y-13233984D01*
X8166848Y-13233984D02*
X8185896Y-13243508D01*
X8185896Y-13243508D02*
X8195420Y-13253031D01*
X8195420Y-13253031D02*
X8204944Y-13272079D01*
X8204944Y-13272079D02*
X8204944Y-13281603D01*
X8204944Y-13281603D02*
X8195420Y-13300650D01*
X8195420Y-13300650D02*
X8185896Y-13310174D01*
X8185896Y-13310174D02*
X8166848Y-13319698D01*
X8166848Y-13319698D02*
X8128753Y-13319698D01*
X8128753Y-13319698D02*
X8109706Y-13329222D01*
X8109706Y-13329222D02*
X8100182Y-13338746D01*
X8100182Y-13338746D02*
X8090658Y-13357793D01*
X8090658Y-13357793D02*
X8090658Y-13395888D01*
X8090658Y-13395888D02*
X8100182Y-13414936D01*
X8100182Y-13414936D02*
X8109706Y-13424460D01*
X8109706Y-13424460D02*
X8128753Y-13433984D01*
X8128753Y-13433984D02*
X8166848Y-13433984D01*
X8166848Y-13433984D02*
X8185896Y-13424460D01*
X8185896Y-13424460D02*
X8195420Y-13414936D01*
X8195420Y-13414936D02*
X8204944Y-13395888D01*
X8204944Y-13395888D02*
X8204944Y-13357793D01*
X8204944Y-13357793D02*
X8195420Y-13338746D01*
X8195420Y-13338746D02*
X8185896Y-13329222D01*
X8185896Y-13329222D02*
X8166848Y-13319698D01*
X8281134Y-13233984D02*
X8281134Y-13272079D01*
X8357325Y-13233984D02*
X8357325Y-13272079D01*
X8652563Y-13510174D02*
X8643039Y-13500650D01*
X8643039Y-13500650D02*
X8623991Y-13472079D01*
X8623991Y-13472079D02*
X8614468Y-13453031D01*
X8614468Y-13453031D02*
X8604944Y-13424460D01*
X8604944Y-13424460D02*
X8595420Y-13376841D01*
X8595420Y-13376841D02*
X8595420Y-13338746D01*
X8595420Y-13338746D02*
X8604944Y-13291127D01*
X8604944Y-13291127D02*
X8614468Y-13262555D01*
X8614468Y-13262555D02*
X8623991Y-13243508D01*
X8623991Y-13243508D02*
X8643039Y-13214936D01*
X8643039Y-13214936D02*
X8652563Y-13205412D01*
X8833515Y-13433984D02*
X8719230Y-13433984D01*
X8776372Y-13433984D02*
X8776372Y-13233984D01*
X8776372Y-13233984D02*
X8757325Y-13262555D01*
X8757325Y-13262555D02*
X8738277Y-13281603D01*
X8738277Y-13281603D02*
X8719230Y-13291127D01*
X9071611Y-13433984D02*
X9071611Y-13233984D01*
X9157325Y-13433984D02*
X9157325Y-13329222D01*
X9157325Y-13329222D02*
X9147801Y-13310174D01*
X9147801Y-13310174D02*
X9128753Y-13300650D01*
X9128753Y-13300650D02*
X9100182Y-13300650D01*
X9100182Y-13300650D02*
X9081134Y-13310174D01*
X9081134Y-13310174D02*
X9071611Y-13319698D01*
X9281134Y-13433984D02*
X9262087Y-13424460D01*
X9262087Y-13424460D02*
X9252563Y-13414936D01*
X9252563Y-13414936D02*
X9243039Y-13395888D01*
X9243039Y-13395888D02*
X9243039Y-13338746D01*
X9243039Y-13338746D02*
X9252563Y-13319698D01*
X9252563Y-13319698D02*
X9262087Y-13310174D01*
X9262087Y-13310174D02*
X9281134Y-13300650D01*
X9281134Y-13300650D02*
X9309706Y-13300650D01*
X9309706Y-13300650D02*
X9328753Y-13310174D01*
X9328753Y-13310174D02*
X9338277Y-13319698D01*
X9338277Y-13319698D02*
X9347801Y-13338746D01*
X9347801Y-13338746D02*
X9347801Y-13395888D01*
X9347801Y-13395888D02*
X9338277Y-13414936D01*
X9338277Y-13414936D02*
X9328753Y-13424460D01*
X9328753Y-13424460D02*
X9309706Y-13433984D01*
X9309706Y-13433984D02*
X9281134Y-13433984D01*
X9462087Y-13433984D02*
X9443039Y-13424460D01*
X9443039Y-13424460D02*
X9433515Y-13405412D01*
X9433515Y-13405412D02*
X9433515Y-13233984D01*
X9614468Y-13424460D02*
X9595420Y-13433984D01*
X9595420Y-13433984D02*
X9557325Y-13433984D01*
X9557325Y-13433984D02*
X9538277Y-13424460D01*
X9538277Y-13424460D02*
X9528753Y-13405412D01*
X9528753Y-13405412D02*
X9528753Y-13329222D01*
X9528753Y-13329222D02*
X9538277Y-13310174D01*
X9538277Y-13310174D02*
X9557325Y-13300650D01*
X9557325Y-13300650D02*
X9595420Y-13300650D01*
X9595420Y-13300650D02*
X9614468Y-13310174D01*
X9614468Y-13310174D02*
X9623992Y-13329222D01*
X9623992Y-13329222D02*
X9623992Y-13348269D01*
X9623992Y-13348269D02*
X9528753Y-13367317D01*
X9690658Y-13510174D02*
X9700182Y-13500650D01*
X9700182Y-13500650D02*
X9719230Y-13472079D01*
X9719230Y-13472079D02*
X9728753Y-13453031D01*
X9728753Y-13453031D02*
X9738277Y-13424460D01*
X9738277Y-13424460D02*
X9747801Y-13376841D01*
X9747801Y-13376841D02*
X9747801Y-13338746D01*
X9747801Y-13338746D02*
X9738277Y-13291127D01*
X9738277Y-13291127D02*
X9728753Y-13262555D01*
X9728753Y-13262555D02*
X9719230Y-13243508D01*
X9719230Y-13243508D02*
X9700182Y-13214936D01*
X9700182Y-13214936D02*
X9690658Y-13205412D01*
D12*
X5077500Y-13606500D02*
G75*
G03*
X5036860Y-13606500I-20320J0D01*
G01*
X5036860Y-13606500D02*
G75*
G03*
X5077500Y-13606500I20320J0D01*
G01*
D11*
X5376372Y-13497984D02*
X5395420Y-13497984D01*
X5395420Y-13497984D02*
X5414467Y-13507508D01*
X5414467Y-13507508D02*
X5423991Y-13517031D01*
X5423991Y-13517031D02*
X5433515Y-13536079D01*
X5433515Y-13536079D02*
X5443039Y-13574174D01*
X5443039Y-13574174D02*
X5443039Y-13621793D01*
X5443039Y-13621793D02*
X5433515Y-13659888D01*
X5433515Y-13659888D02*
X5423991Y-13678936D01*
X5423991Y-13678936D02*
X5414467Y-13688460D01*
X5414467Y-13688460D02*
X5395420Y-13697984D01*
X5395420Y-13697984D02*
X5376372Y-13697984D01*
X5376372Y-13697984D02*
X5357324Y-13688460D01*
X5357324Y-13688460D02*
X5347801Y-13678936D01*
X5347801Y-13678936D02*
X5338277Y-13659888D01*
X5338277Y-13659888D02*
X5328753Y-13621793D01*
X5328753Y-13621793D02*
X5328753Y-13574174D01*
X5328753Y-13574174D02*
X5338277Y-13536079D01*
X5338277Y-13536079D02*
X5347801Y-13517031D01*
X5347801Y-13517031D02*
X5357324Y-13507508D01*
X5357324Y-13507508D02*
X5376372Y-13497984D01*
X5528753Y-13678936D02*
X5538277Y-13688460D01*
X5538277Y-13688460D02*
X5528753Y-13697984D01*
X5528753Y-13697984D02*
X5519229Y-13688460D01*
X5519229Y-13688460D02*
X5528753Y-13678936D01*
X5528753Y-13678936D02*
X5528753Y-13697984D01*
X5709705Y-13564650D02*
X5709705Y-13697984D01*
X5662086Y-13488460D02*
X5614467Y-13631317D01*
X5614467Y-13631317D02*
X5738277Y-13631317D01*
X5852562Y-13497984D02*
X5871610Y-13497984D01*
X5871610Y-13497984D02*
X5890658Y-13507508D01*
X5890658Y-13507508D02*
X5900182Y-13517031D01*
X5900182Y-13517031D02*
X5909705Y-13536079D01*
X5909705Y-13536079D02*
X5919229Y-13574174D01*
X5919229Y-13574174D02*
X5919229Y-13621793D01*
X5919229Y-13621793D02*
X5909705Y-13659888D01*
X5909705Y-13659888D02*
X5900182Y-13678936D01*
X5900182Y-13678936D02*
X5890658Y-13688460D01*
X5890658Y-13688460D02*
X5871610Y-13697984D01*
X5871610Y-13697984D02*
X5852562Y-13697984D01*
X5852562Y-13697984D02*
X5833515Y-13688460D01*
X5833515Y-13688460D02*
X5823991Y-13678936D01*
X5823991Y-13678936D02*
X5814467Y-13659888D01*
X5814467Y-13659888D02*
X5804943Y-13621793D01*
X5804943Y-13621793D02*
X5804943Y-13574174D01*
X5804943Y-13574174D02*
X5814467Y-13536079D01*
X5814467Y-13536079D02*
X5823991Y-13517031D01*
X5823991Y-13517031D02*
X5833515Y-13507508D01*
X5833515Y-13507508D02*
X5852562Y-13497984D01*
X6090658Y-13497984D02*
X6052562Y-13497984D01*
X6052562Y-13497984D02*
X6033515Y-13507508D01*
X6033515Y-13507508D02*
X6023991Y-13517031D01*
X6023991Y-13517031D02*
X6004943Y-13545603D01*
X6004943Y-13545603D02*
X5995420Y-13583698D01*
X5995420Y-13583698D02*
X5995420Y-13659888D01*
X5995420Y-13659888D02*
X6004943Y-13678936D01*
X6004943Y-13678936D02*
X6014467Y-13688460D01*
X6014467Y-13688460D02*
X6033515Y-13697984D01*
X6033515Y-13697984D02*
X6071610Y-13697984D01*
X6071610Y-13697984D02*
X6090658Y-13688460D01*
X6090658Y-13688460D02*
X6100182Y-13678936D01*
X6100182Y-13678936D02*
X6109705Y-13659888D01*
X6109705Y-13659888D02*
X6109705Y-13612269D01*
X6109705Y-13612269D02*
X6100182Y-13593222D01*
X6100182Y-13593222D02*
X6090658Y-13583698D01*
X6090658Y-13583698D02*
X6071610Y-13574174D01*
X6071610Y-13574174D02*
X6033515Y-13574174D01*
X6033515Y-13574174D02*
X6014467Y-13583698D01*
X6014467Y-13583698D02*
X6004943Y-13593222D01*
X6004943Y-13593222D02*
X5995420Y-13612269D01*
X6195420Y-13697984D02*
X6195420Y-13564650D01*
X6195420Y-13583698D02*
X6204943Y-13574174D01*
X6204943Y-13574174D02*
X6223991Y-13564650D01*
X6223991Y-13564650D02*
X6252563Y-13564650D01*
X6252563Y-13564650D02*
X6271610Y-13574174D01*
X6271610Y-13574174D02*
X6281134Y-13593222D01*
X6281134Y-13593222D02*
X6281134Y-13697984D01*
X6281134Y-13593222D02*
X6290658Y-13574174D01*
X6290658Y-13574174D02*
X6309705Y-13564650D01*
X6309705Y-13564650D02*
X6338277Y-13564650D01*
X6338277Y-13564650D02*
X6357324Y-13574174D01*
X6357324Y-13574174D02*
X6366848Y-13593222D01*
X6366848Y-13593222D02*
X6366848Y-13697984D01*
X6462086Y-13697984D02*
X6462086Y-13564650D01*
X6462086Y-13583698D02*
X6471610Y-13574174D01*
X6471610Y-13574174D02*
X6490658Y-13564650D01*
X6490658Y-13564650D02*
X6519229Y-13564650D01*
X6519229Y-13564650D02*
X6538277Y-13574174D01*
X6538277Y-13574174D02*
X6547801Y-13593222D01*
X6547801Y-13593222D02*
X6547801Y-13697984D01*
X6547801Y-13593222D02*
X6557324Y-13574174D01*
X6557324Y-13574174D02*
X6576372Y-13564650D01*
X6576372Y-13564650D02*
X6604943Y-13564650D01*
X6604943Y-13564650D02*
X6623991Y-13574174D01*
X6623991Y-13574174D02*
X6633515Y-13593222D01*
X6633515Y-13593222D02*
X6633515Y-13697984D01*
X7023991Y-13488460D02*
X6852563Y-13745603D01*
X7281134Y-13497984D02*
X7300182Y-13497984D01*
X7300182Y-13497984D02*
X7319229Y-13507508D01*
X7319229Y-13507508D02*
X7328753Y-13517031D01*
X7328753Y-13517031D02*
X7338277Y-13536079D01*
X7338277Y-13536079D02*
X7347801Y-13574174D01*
X7347801Y-13574174D02*
X7347801Y-13621793D01*
X7347801Y-13621793D02*
X7338277Y-13659888D01*
X7338277Y-13659888D02*
X7328753Y-13678936D01*
X7328753Y-13678936D02*
X7319229Y-13688460D01*
X7319229Y-13688460D02*
X7300182Y-13697984D01*
X7300182Y-13697984D02*
X7281134Y-13697984D01*
X7281134Y-13697984D02*
X7262086Y-13688460D01*
X7262086Y-13688460D02*
X7252563Y-13678936D01*
X7252563Y-13678936D02*
X7243039Y-13659888D01*
X7243039Y-13659888D02*
X7233515Y-13621793D01*
X7233515Y-13621793D02*
X7233515Y-13574174D01*
X7233515Y-13574174D02*
X7243039Y-13536079D01*
X7243039Y-13536079D02*
X7252563Y-13517031D01*
X7252563Y-13517031D02*
X7262086Y-13507508D01*
X7262086Y-13507508D02*
X7281134Y-13497984D01*
X7433515Y-13678936D02*
X7443039Y-13688460D01*
X7443039Y-13688460D02*
X7433515Y-13697984D01*
X7433515Y-13697984D02*
X7423991Y-13688460D01*
X7423991Y-13688460D02*
X7433515Y-13678936D01*
X7433515Y-13678936D02*
X7433515Y-13697984D01*
X7566848Y-13497984D02*
X7585896Y-13497984D01*
X7585896Y-13497984D02*
X7604944Y-13507508D01*
X7604944Y-13507508D02*
X7614467Y-13517031D01*
X7614467Y-13517031D02*
X7623991Y-13536079D01*
X7623991Y-13536079D02*
X7633515Y-13574174D01*
X7633515Y-13574174D02*
X7633515Y-13621793D01*
X7633515Y-13621793D02*
X7623991Y-13659888D01*
X7623991Y-13659888D02*
X7614467Y-13678936D01*
X7614467Y-13678936D02*
X7604944Y-13688460D01*
X7604944Y-13688460D02*
X7585896Y-13697984D01*
X7585896Y-13697984D02*
X7566848Y-13697984D01*
X7566848Y-13697984D02*
X7547801Y-13688460D01*
X7547801Y-13688460D02*
X7538277Y-13678936D01*
X7538277Y-13678936D02*
X7528753Y-13659888D01*
X7528753Y-13659888D02*
X7519229Y-13621793D01*
X7519229Y-13621793D02*
X7519229Y-13574174D01*
X7519229Y-13574174D02*
X7528753Y-13536079D01*
X7528753Y-13536079D02*
X7538277Y-13517031D01*
X7538277Y-13517031D02*
X7547801Y-13507508D01*
X7547801Y-13507508D02*
X7566848Y-13497984D01*
X7823991Y-13697984D02*
X7709706Y-13697984D01*
X7766848Y-13697984D02*
X7766848Y-13497984D01*
X7766848Y-13497984D02*
X7747801Y-13526555D01*
X7747801Y-13526555D02*
X7728753Y-13545603D01*
X7728753Y-13545603D02*
X7709706Y-13555127D01*
X7995420Y-13497984D02*
X7957325Y-13497984D01*
X7957325Y-13497984D02*
X7938277Y-13507508D01*
X7938277Y-13507508D02*
X7928753Y-13517031D01*
X7928753Y-13517031D02*
X7909706Y-13545603D01*
X7909706Y-13545603D02*
X7900182Y-13583698D01*
X7900182Y-13583698D02*
X7900182Y-13659888D01*
X7900182Y-13659888D02*
X7909706Y-13678936D01*
X7909706Y-13678936D02*
X7919229Y-13688460D01*
X7919229Y-13688460D02*
X7938277Y-13697984D01*
X7938277Y-13697984D02*
X7976372Y-13697984D01*
X7976372Y-13697984D02*
X7995420Y-13688460D01*
X7995420Y-13688460D02*
X8004944Y-13678936D01*
X8004944Y-13678936D02*
X8014467Y-13659888D01*
X8014467Y-13659888D02*
X8014467Y-13612269D01*
X8014467Y-13612269D02*
X8004944Y-13593222D01*
X8004944Y-13593222D02*
X7995420Y-13583698D01*
X7995420Y-13583698D02*
X7976372Y-13574174D01*
X7976372Y-13574174D02*
X7938277Y-13574174D01*
X7938277Y-13574174D02*
X7919229Y-13583698D01*
X7919229Y-13583698D02*
X7909706Y-13593222D01*
X7909706Y-13593222D02*
X7900182Y-13612269D01*
X8138277Y-13497984D02*
X8157325Y-13497984D01*
X8157325Y-13497984D02*
X8176372Y-13507508D01*
X8176372Y-13507508D02*
X8185896Y-13517031D01*
X8185896Y-13517031D02*
X8195420Y-13536079D01*
X8195420Y-13536079D02*
X8204944Y-13574174D01*
X8204944Y-13574174D02*
X8204944Y-13621793D01*
X8204944Y-13621793D02*
X8195420Y-13659888D01*
X8195420Y-13659888D02*
X8185896Y-13678936D01*
X8185896Y-13678936D02*
X8176372Y-13688460D01*
X8176372Y-13688460D02*
X8157325Y-13697984D01*
X8157325Y-13697984D02*
X8138277Y-13697984D01*
X8138277Y-13697984D02*
X8119229Y-13688460D01*
X8119229Y-13688460D02*
X8109706Y-13678936D01*
X8109706Y-13678936D02*
X8100182Y-13659888D01*
X8100182Y-13659888D02*
X8090658Y-13621793D01*
X8090658Y-13621793D02*
X8090658Y-13574174D01*
X8090658Y-13574174D02*
X8100182Y-13536079D01*
X8100182Y-13536079D02*
X8109706Y-13517031D01*
X8109706Y-13517031D02*
X8119229Y-13507508D01*
X8119229Y-13507508D02*
X8138277Y-13497984D01*
X8281134Y-13497984D02*
X8281134Y-13536079D01*
X8357325Y-13497984D02*
X8357325Y-13536079D01*
X8652563Y-13774174D02*
X8643039Y-13764650D01*
X8643039Y-13764650D02*
X8623991Y-13736079D01*
X8623991Y-13736079D02*
X8614468Y-13717031D01*
X8614468Y-13717031D02*
X8604944Y-13688460D01*
X8604944Y-13688460D02*
X8595420Y-13640841D01*
X8595420Y-13640841D02*
X8595420Y-13602746D01*
X8595420Y-13602746D02*
X8604944Y-13555127D01*
X8604944Y-13555127D02*
X8614468Y-13526555D01*
X8614468Y-13526555D02*
X8623991Y-13507508D01*
X8623991Y-13507508D02*
X8643039Y-13478936D01*
X8643039Y-13478936D02*
X8652563Y-13469412D01*
X8709706Y-13497984D02*
X8843039Y-13497984D01*
X8843039Y-13497984D02*
X8757325Y-13697984D01*
X9071611Y-13697984D02*
X9071611Y-13497984D01*
X9157325Y-13697984D02*
X9157325Y-13593222D01*
X9157325Y-13593222D02*
X9147801Y-13574174D01*
X9147801Y-13574174D02*
X9128753Y-13564650D01*
X9128753Y-13564650D02*
X9100182Y-13564650D01*
X9100182Y-13564650D02*
X9081134Y-13574174D01*
X9081134Y-13574174D02*
X9071611Y-13583698D01*
X9281134Y-13697984D02*
X9262087Y-13688460D01*
X9262087Y-13688460D02*
X9252563Y-13678936D01*
X9252563Y-13678936D02*
X9243039Y-13659888D01*
X9243039Y-13659888D02*
X9243039Y-13602746D01*
X9243039Y-13602746D02*
X9252563Y-13583698D01*
X9252563Y-13583698D02*
X9262087Y-13574174D01*
X9262087Y-13574174D02*
X9281134Y-13564650D01*
X9281134Y-13564650D02*
X9309706Y-13564650D01*
X9309706Y-13564650D02*
X9328753Y-13574174D01*
X9328753Y-13574174D02*
X9338277Y-13583698D01*
X9338277Y-13583698D02*
X9347801Y-13602746D01*
X9347801Y-13602746D02*
X9347801Y-13659888D01*
X9347801Y-13659888D02*
X9338277Y-13678936D01*
X9338277Y-13678936D02*
X9328753Y-13688460D01*
X9328753Y-13688460D02*
X9309706Y-13697984D01*
X9309706Y-13697984D02*
X9281134Y-13697984D01*
X9462087Y-13697984D02*
X9443039Y-13688460D01*
X9443039Y-13688460D02*
X9433515Y-13669412D01*
X9433515Y-13669412D02*
X9433515Y-13497984D01*
X9614468Y-13688460D02*
X9595420Y-13697984D01*
X9595420Y-13697984D02*
X9557325Y-13697984D01*
X9557325Y-13697984D02*
X9538277Y-13688460D01*
X9538277Y-13688460D02*
X9528753Y-13669412D01*
X9528753Y-13669412D02*
X9528753Y-13593222D01*
X9528753Y-13593222D02*
X9538277Y-13574174D01*
X9538277Y-13574174D02*
X9557325Y-13564650D01*
X9557325Y-13564650D02*
X9595420Y-13564650D01*
X9595420Y-13564650D02*
X9614468Y-13574174D01*
X9614468Y-13574174D02*
X9623992Y-13593222D01*
X9623992Y-13593222D02*
X9623992Y-13612269D01*
X9623992Y-13612269D02*
X9528753Y-13631317D01*
X9700182Y-13688460D02*
X9719230Y-13697984D01*
X9719230Y-13697984D02*
X9757325Y-13697984D01*
X9757325Y-13697984D02*
X9776373Y-13688460D01*
X9776373Y-13688460D02*
X9785896Y-13669412D01*
X9785896Y-13669412D02*
X9785896Y-13659888D01*
X9785896Y-13659888D02*
X9776373Y-13640841D01*
X9776373Y-13640841D02*
X9757325Y-13631317D01*
X9757325Y-13631317D02*
X9728753Y-13631317D01*
X9728753Y-13631317D02*
X9709706Y-13621793D01*
X9709706Y-13621793D02*
X9700182Y-13602746D01*
X9700182Y-13602746D02*
X9700182Y-13593222D01*
X9700182Y-13593222D02*
X9709706Y-13574174D01*
X9709706Y-13574174D02*
X9728753Y-13564650D01*
X9728753Y-13564650D02*
X9757325Y-13564650D01*
X9757325Y-13564650D02*
X9776373Y-13574174D01*
X9852563Y-13774174D02*
X9862087Y-13764650D01*
X9862087Y-13764650D02*
X9881134Y-13736079D01*
X9881134Y-13736079D02*
X9890658Y-13717031D01*
X9890658Y-13717031D02*
X9900182Y-13688460D01*
X9900182Y-13688460D02*
X9909706Y-13640841D01*
X9909706Y-13640841D02*
X9909706Y-13602746D01*
X9909706Y-13602746D02*
X9900182Y-13555127D01*
X9900182Y-13555127D02*
X9890658Y-13526555D01*
X9890658Y-13526555D02*
X9881134Y-13507508D01*
X9881134Y-13507508D02*
X9862087Y-13478936D01*
X9862087Y-13478936D02*
X9852563Y-13469412D01*
D12*
X5037500Y-13830500D02*
X5037500Y-13910500D01*
X4997500Y-13870500D02*
X5077500Y-13870500D01*
D11*
X5376372Y-13761984D02*
X5395420Y-13761984D01*
X5395420Y-13761984D02*
X5414467Y-13771508D01*
X5414467Y-13771508D02*
X5423991Y-13781031D01*
X5423991Y-13781031D02*
X5433515Y-13800079D01*
X5433515Y-13800079D02*
X5443039Y-13838174D01*
X5443039Y-13838174D02*
X5443039Y-13885793D01*
X5443039Y-13885793D02*
X5433515Y-13923888D01*
X5433515Y-13923888D02*
X5423991Y-13942936D01*
X5423991Y-13942936D02*
X5414467Y-13952460D01*
X5414467Y-13952460D02*
X5395420Y-13961984D01*
X5395420Y-13961984D02*
X5376372Y-13961984D01*
X5376372Y-13961984D02*
X5357324Y-13952460D01*
X5357324Y-13952460D02*
X5347801Y-13942936D01*
X5347801Y-13942936D02*
X5338277Y-13923888D01*
X5338277Y-13923888D02*
X5328753Y-13885793D01*
X5328753Y-13885793D02*
X5328753Y-13838174D01*
X5328753Y-13838174D02*
X5338277Y-13800079D01*
X5338277Y-13800079D02*
X5347801Y-13781031D01*
X5347801Y-13781031D02*
X5357324Y-13771508D01*
X5357324Y-13771508D02*
X5376372Y-13761984D01*
X5528753Y-13942936D02*
X5538277Y-13952460D01*
X5538277Y-13952460D02*
X5528753Y-13961984D01*
X5528753Y-13961984D02*
X5519229Y-13952460D01*
X5519229Y-13952460D02*
X5528753Y-13942936D01*
X5528753Y-13942936D02*
X5528753Y-13961984D01*
X5652562Y-13847698D02*
X5633515Y-13838174D01*
X5633515Y-13838174D02*
X5623991Y-13828650D01*
X5623991Y-13828650D02*
X5614467Y-13809603D01*
X5614467Y-13809603D02*
X5614467Y-13800079D01*
X5614467Y-13800079D02*
X5623991Y-13781031D01*
X5623991Y-13781031D02*
X5633515Y-13771508D01*
X5633515Y-13771508D02*
X5652562Y-13761984D01*
X5652562Y-13761984D02*
X5690658Y-13761984D01*
X5690658Y-13761984D02*
X5709705Y-13771508D01*
X5709705Y-13771508D02*
X5719229Y-13781031D01*
X5719229Y-13781031D02*
X5728753Y-13800079D01*
X5728753Y-13800079D02*
X5728753Y-13809603D01*
X5728753Y-13809603D02*
X5719229Y-13828650D01*
X5719229Y-13828650D02*
X5709705Y-13838174D01*
X5709705Y-13838174D02*
X5690658Y-13847698D01*
X5690658Y-13847698D02*
X5652562Y-13847698D01*
X5652562Y-13847698D02*
X5633515Y-13857222D01*
X5633515Y-13857222D02*
X5623991Y-13866746D01*
X5623991Y-13866746D02*
X5614467Y-13885793D01*
X5614467Y-13885793D02*
X5614467Y-13923888D01*
X5614467Y-13923888D02*
X5623991Y-13942936D01*
X5623991Y-13942936D02*
X5633515Y-13952460D01*
X5633515Y-13952460D02*
X5652562Y-13961984D01*
X5652562Y-13961984D02*
X5690658Y-13961984D01*
X5690658Y-13961984D02*
X5709705Y-13952460D01*
X5709705Y-13952460D02*
X5719229Y-13942936D01*
X5719229Y-13942936D02*
X5728753Y-13923888D01*
X5728753Y-13923888D02*
X5728753Y-13885793D01*
X5728753Y-13885793D02*
X5719229Y-13866746D01*
X5719229Y-13866746D02*
X5709705Y-13857222D01*
X5709705Y-13857222D02*
X5690658Y-13847698D01*
X5852562Y-13761984D02*
X5871610Y-13761984D01*
X5871610Y-13761984D02*
X5890658Y-13771508D01*
X5890658Y-13771508D02*
X5900182Y-13781031D01*
X5900182Y-13781031D02*
X5909705Y-13800079D01*
X5909705Y-13800079D02*
X5919229Y-13838174D01*
X5919229Y-13838174D02*
X5919229Y-13885793D01*
X5919229Y-13885793D02*
X5909705Y-13923888D01*
X5909705Y-13923888D02*
X5900182Y-13942936D01*
X5900182Y-13942936D02*
X5890658Y-13952460D01*
X5890658Y-13952460D02*
X5871610Y-13961984D01*
X5871610Y-13961984D02*
X5852562Y-13961984D01*
X5852562Y-13961984D02*
X5833515Y-13952460D01*
X5833515Y-13952460D02*
X5823991Y-13942936D01*
X5823991Y-13942936D02*
X5814467Y-13923888D01*
X5814467Y-13923888D02*
X5804943Y-13885793D01*
X5804943Y-13885793D02*
X5804943Y-13838174D01*
X5804943Y-13838174D02*
X5814467Y-13800079D01*
X5814467Y-13800079D02*
X5823991Y-13781031D01*
X5823991Y-13781031D02*
X5833515Y-13771508D01*
X5833515Y-13771508D02*
X5852562Y-13761984D01*
X6043039Y-13761984D02*
X6062086Y-13761984D01*
X6062086Y-13761984D02*
X6081134Y-13771508D01*
X6081134Y-13771508D02*
X6090658Y-13781031D01*
X6090658Y-13781031D02*
X6100182Y-13800079D01*
X6100182Y-13800079D02*
X6109705Y-13838174D01*
X6109705Y-13838174D02*
X6109705Y-13885793D01*
X6109705Y-13885793D02*
X6100182Y-13923888D01*
X6100182Y-13923888D02*
X6090658Y-13942936D01*
X6090658Y-13942936D02*
X6081134Y-13952460D01*
X6081134Y-13952460D02*
X6062086Y-13961984D01*
X6062086Y-13961984D02*
X6043039Y-13961984D01*
X6043039Y-13961984D02*
X6023991Y-13952460D01*
X6023991Y-13952460D02*
X6014467Y-13942936D01*
X6014467Y-13942936D02*
X6004943Y-13923888D01*
X6004943Y-13923888D02*
X5995420Y-13885793D01*
X5995420Y-13885793D02*
X5995420Y-13838174D01*
X5995420Y-13838174D02*
X6004943Y-13800079D01*
X6004943Y-13800079D02*
X6014467Y-13781031D01*
X6014467Y-13781031D02*
X6023991Y-13771508D01*
X6023991Y-13771508D02*
X6043039Y-13761984D01*
X6195420Y-13961984D02*
X6195420Y-13828650D01*
X6195420Y-13847698D02*
X6204943Y-13838174D01*
X6204943Y-13838174D02*
X6223991Y-13828650D01*
X6223991Y-13828650D02*
X6252563Y-13828650D01*
X6252563Y-13828650D02*
X6271610Y-13838174D01*
X6271610Y-13838174D02*
X6281134Y-13857222D01*
X6281134Y-13857222D02*
X6281134Y-13961984D01*
X6281134Y-13857222D02*
X6290658Y-13838174D01*
X6290658Y-13838174D02*
X6309705Y-13828650D01*
X6309705Y-13828650D02*
X6338277Y-13828650D01*
X6338277Y-13828650D02*
X6357324Y-13838174D01*
X6357324Y-13838174D02*
X6366848Y-13857222D01*
X6366848Y-13857222D02*
X6366848Y-13961984D01*
X6462086Y-13961984D02*
X6462086Y-13828650D01*
X6462086Y-13847698D02*
X6471610Y-13838174D01*
X6471610Y-13838174D02*
X6490658Y-13828650D01*
X6490658Y-13828650D02*
X6519229Y-13828650D01*
X6519229Y-13828650D02*
X6538277Y-13838174D01*
X6538277Y-13838174D02*
X6547801Y-13857222D01*
X6547801Y-13857222D02*
X6547801Y-13961984D01*
X6547801Y-13857222D02*
X6557324Y-13838174D01*
X6557324Y-13838174D02*
X6576372Y-13828650D01*
X6576372Y-13828650D02*
X6604943Y-13828650D01*
X6604943Y-13828650D02*
X6623991Y-13838174D01*
X6623991Y-13838174D02*
X6633515Y-13857222D01*
X6633515Y-13857222D02*
X6633515Y-13961984D01*
X7023991Y-13752460D02*
X6852563Y-14009603D01*
X7281134Y-13761984D02*
X7300182Y-13761984D01*
X7300182Y-13761984D02*
X7319229Y-13771508D01*
X7319229Y-13771508D02*
X7328753Y-13781031D01*
X7328753Y-13781031D02*
X7338277Y-13800079D01*
X7338277Y-13800079D02*
X7347801Y-13838174D01*
X7347801Y-13838174D02*
X7347801Y-13885793D01*
X7347801Y-13885793D02*
X7338277Y-13923888D01*
X7338277Y-13923888D02*
X7328753Y-13942936D01*
X7328753Y-13942936D02*
X7319229Y-13952460D01*
X7319229Y-13952460D02*
X7300182Y-13961984D01*
X7300182Y-13961984D02*
X7281134Y-13961984D01*
X7281134Y-13961984D02*
X7262086Y-13952460D01*
X7262086Y-13952460D02*
X7252563Y-13942936D01*
X7252563Y-13942936D02*
X7243039Y-13923888D01*
X7243039Y-13923888D02*
X7233515Y-13885793D01*
X7233515Y-13885793D02*
X7233515Y-13838174D01*
X7233515Y-13838174D02*
X7243039Y-13800079D01*
X7243039Y-13800079D02*
X7252563Y-13781031D01*
X7252563Y-13781031D02*
X7262086Y-13771508D01*
X7262086Y-13771508D02*
X7281134Y-13761984D01*
X7433515Y-13942936D02*
X7443039Y-13952460D01*
X7443039Y-13952460D02*
X7433515Y-13961984D01*
X7433515Y-13961984D02*
X7423991Y-13952460D01*
X7423991Y-13952460D02*
X7433515Y-13942936D01*
X7433515Y-13942936D02*
X7433515Y-13961984D01*
X7566848Y-13761984D02*
X7585896Y-13761984D01*
X7585896Y-13761984D02*
X7604944Y-13771508D01*
X7604944Y-13771508D02*
X7614467Y-13781031D01*
X7614467Y-13781031D02*
X7623991Y-13800079D01*
X7623991Y-13800079D02*
X7633515Y-13838174D01*
X7633515Y-13838174D02*
X7633515Y-13885793D01*
X7633515Y-13885793D02*
X7623991Y-13923888D01*
X7623991Y-13923888D02*
X7614467Y-13942936D01*
X7614467Y-13942936D02*
X7604944Y-13952460D01*
X7604944Y-13952460D02*
X7585896Y-13961984D01*
X7585896Y-13961984D02*
X7566848Y-13961984D01*
X7566848Y-13961984D02*
X7547801Y-13952460D01*
X7547801Y-13952460D02*
X7538277Y-13942936D01*
X7538277Y-13942936D02*
X7528753Y-13923888D01*
X7528753Y-13923888D02*
X7519229Y-13885793D01*
X7519229Y-13885793D02*
X7519229Y-13838174D01*
X7519229Y-13838174D02*
X7528753Y-13800079D01*
X7528753Y-13800079D02*
X7538277Y-13781031D01*
X7538277Y-13781031D02*
X7547801Y-13771508D01*
X7547801Y-13771508D02*
X7566848Y-13761984D01*
X7700182Y-13761984D02*
X7823991Y-13761984D01*
X7823991Y-13761984D02*
X7757325Y-13838174D01*
X7757325Y-13838174D02*
X7785896Y-13838174D01*
X7785896Y-13838174D02*
X7804944Y-13847698D01*
X7804944Y-13847698D02*
X7814467Y-13857222D01*
X7814467Y-13857222D02*
X7823991Y-13876269D01*
X7823991Y-13876269D02*
X7823991Y-13923888D01*
X7823991Y-13923888D02*
X7814467Y-13942936D01*
X7814467Y-13942936D02*
X7804944Y-13952460D01*
X7804944Y-13952460D02*
X7785896Y-13961984D01*
X7785896Y-13961984D02*
X7728753Y-13961984D01*
X7728753Y-13961984D02*
X7709706Y-13952460D01*
X7709706Y-13952460D02*
X7700182Y-13942936D01*
X8014467Y-13961984D02*
X7900182Y-13961984D01*
X7957325Y-13961984D02*
X7957325Y-13761984D01*
X7957325Y-13761984D02*
X7938277Y-13790555D01*
X7938277Y-13790555D02*
X7919229Y-13809603D01*
X7919229Y-13809603D02*
X7900182Y-13819127D01*
X8195420Y-13761984D02*
X8100182Y-13761984D01*
X8100182Y-13761984D02*
X8090658Y-13857222D01*
X8090658Y-13857222D02*
X8100182Y-13847698D01*
X8100182Y-13847698D02*
X8119229Y-13838174D01*
X8119229Y-13838174D02*
X8166848Y-13838174D01*
X8166848Y-13838174D02*
X8185896Y-13847698D01*
X8185896Y-13847698D02*
X8195420Y-13857222D01*
X8195420Y-13857222D02*
X8204944Y-13876269D01*
X8204944Y-13876269D02*
X8204944Y-13923888D01*
X8204944Y-13923888D02*
X8195420Y-13942936D01*
X8195420Y-13942936D02*
X8185896Y-13952460D01*
X8185896Y-13952460D02*
X8166848Y-13961984D01*
X8166848Y-13961984D02*
X8119229Y-13961984D01*
X8119229Y-13961984D02*
X8100182Y-13952460D01*
X8100182Y-13952460D02*
X8090658Y-13942936D01*
X8281134Y-13761984D02*
X8281134Y-13800079D01*
X8357325Y-13761984D02*
X8357325Y-13800079D01*
X8652563Y-14038174D02*
X8643039Y-14028650D01*
X8643039Y-14028650D02*
X8623991Y-14000079D01*
X8623991Y-14000079D02*
X8614468Y-13981031D01*
X8614468Y-13981031D02*
X8604944Y-13952460D01*
X8604944Y-13952460D02*
X8595420Y-13904841D01*
X8595420Y-13904841D02*
X8595420Y-13866746D01*
X8595420Y-13866746D02*
X8604944Y-13819127D01*
X8604944Y-13819127D02*
X8614468Y-13790555D01*
X8614468Y-13790555D02*
X8623991Y-13771508D01*
X8623991Y-13771508D02*
X8643039Y-13742936D01*
X8643039Y-13742936D02*
X8652563Y-13733412D01*
X8814468Y-13761984D02*
X8776372Y-13761984D01*
X8776372Y-13761984D02*
X8757325Y-13771508D01*
X8757325Y-13771508D02*
X8747801Y-13781031D01*
X8747801Y-13781031D02*
X8728753Y-13809603D01*
X8728753Y-13809603D02*
X8719230Y-13847698D01*
X8719230Y-13847698D02*
X8719230Y-13923888D01*
X8719230Y-13923888D02*
X8728753Y-13942936D01*
X8728753Y-13942936D02*
X8738277Y-13952460D01*
X8738277Y-13952460D02*
X8757325Y-13961984D01*
X8757325Y-13961984D02*
X8795420Y-13961984D01*
X8795420Y-13961984D02*
X8814468Y-13952460D01*
X8814468Y-13952460D02*
X8823991Y-13942936D01*
X8823991Y-13942936D02*
X8833515Y-13923888D01*
X8833515Y-13923888D02*
X8833515Y-13876269D01*
X8833515Y-13876269D02*
X8823991Y-13857222D01*
X8823991Y-13857222D02*
X8814468Y-13847698D01*
X8814468Y-13847698D02*
X8795420Y-13838174D01*
X8795420Y-13838174D02*
X8757325Y-13838174D01*
X8757325Y-13838174D02*
X8738277Y-13847698D01*
X8738277Y-13847698D02*
X8728753Y-13857222D01*
X8728753Y-13857222D02*
X8719230Y-13876269D01*
X9071611Y-13961984D02*
X9071611Y-13761984D01*
X9157325Y-13961984D02*
X9157325Y-13857222D01*
X9157325Y-13857222D02*
X9147801Y-13838174D01*
X9147801Y-13838174D02*
X9128753Y-13828650D01*
X9128753Y-13828650D02*
X9100182Y-13828650D01*
X9100182Y-13828650D02*
X9081134Y-13838174D01*
X9081134Y-13838174D02*
X9071611Y-13847698D01*
X9281134Y-13961984D02*
X9262087Y-13952460D01*
X9262087Y-13952460D02*
X9252563Y-13942936D01*
X9252563Y-13942936D02*
X9243039Y-13923888D01*
X9243039Y-13923888D02*
X9243039Y-13866746D01*
X9243039Y-13866746D02*
X9252563Y-13847698D01*
X9252563Y-13847698D02*
X9262087Y-13838174D01*
X9262087Y-13838174D02*
X9281134Y-13828650D01*
X9281134Y-13828650D02*
X9309706Y-13828650D01*
X9309706Y-13828650D02*
X9328753Y-13838174D01*
X9328753Y-13838174D02*
X9338277Y-13847698D01*
X9338277Y-13847698D02*
X9347801Y-13866746D01*
X9347801Y-13866746D02*
X9347801Y-13923888D01*
X9347801Y-13923888D02*
X9338277Y-13942936D01*
X9338277Y-13942936D02*
X9328753Y-13952460D01*
X9328753Y-13952460D02*
X9309706Y-13961984D01*
X9309706Y-13961984D02*
X9281134Y-13961984D01*
X9462087Y-13961984D02*
X9443039Y-13952460D01*
X9443039Y-13952460D02*
X9433515Y-13933412D01*
X9433515Y-13933412D02*
X9433515Y-13761984D01*
X9614468Y-13952460D02*
X9595420Y-13961984D01*
X9595420Y-13961984D02*
X9557325Y-13961984D01*
X9557325Y-13961984D02*
X9538277Y-13952460D01*
X9538277Y-13952460D02*
X9528753Y-13933412D01*
X9528753Y-13933412D02*
X9528753Y-13857222D01*
X9528753Y-13857222D02*
X9538277Y-13838174D01*
X9538277Y-13838174D02*
X9557325Y-13828650D01*
X9557325Y-13828650D02*
X9595420Y-13828650D01*
X9595420Y-13828650D02*
X9614468Y-13838174D01*
X9614468Y-13838174D02*
X9623992Y-13857222D01*
X9623992Y-13857222D02*
X9623992Y-13876269D01*
X9623992Y-13876269D02*
X9528753Y-13895317D01*
X9700182Y-13952460D02*
X9719230Y-13961984D01*
X9719230Y-13961984D02*
X9757325Y-13961984D01*
X9757325Y-13961984D02*
X9776373Y-13952460D01*
X9776373Y-13952460D02*
X9785896Y-13933412D01*
X9785896Y-13933412D02*
X9785896Y-13923888D01*
X9785896Y-13923888D02*
X9776373Y-13904841D01*
X9776373Y-13904841D02*
X9757325Y-13895317D01*
X9757325Y-13895317D02*
X9728753Y-13895317D01*
X9728753Y-13895317D02*
X9709706Y-13885793D01*
X9709706Y-13885793D02*
X9700182Y-13866746D01*
X9700182Y-13866746D02*
X9700182Y-13857222D01*
X9700182Y-13857222D02*
X9709706Y-13838174D01*
X9709706Y-13838174D02*
X9728753Y-13828650D01*
X9728753Y-13828650D02*
X9757325Y-13828650D01*
X9757325Y-13828650D02*
X9776373Y-13838174D01*
X9852563Y-14038174D02*
X9862087Y-14028650D01*
X9862087Y-14028650D02*
X9881134Y-14000079D01*
X9881134Y-14000079D02*
X9890658Y-13981031D01*
X9890658Y-13981031D02*
X9900182Y-13952460D01*
X9900182Y-13952460D02*
X9909706Y-13904841D01*
X9909706Y-13904841D02*
X9909706Y-13866746D01*
X9909706Y-13866746D02*
X9900182Y-13819127D01*
X9900182Y-13819127D02*
X9890658Y-13790555D01*
X9890658Y-13790555D02*
X9881134Y-13771508D01*
X9881134Y-13771508D02*
X9862087Y-13742936D01*
X9862087Y-13742936D02*
X9852563Y-13733412D01*
D12*
X5062856Y-14169856D02*
X5062856Y-14099144D01*
X4992144Y-14099144D01*
X4992144Y-14169856D01*
X5062856Y-14169856D01*
D11*
X5443039Y-14225984D02*
X5328753Y-14225984D01*
X5385896Y-14225984D02*
X5385896Y-14025984D01*
X5385896Y-14025984D02*
X5366848Y-14054555D01*
X5366848Y-14054555D02*
X5347801Y-14073603D01*
X5347801Y-14073603D02*
X5328753Y-14083127D01*
X5528753Y-14206936D02*
X5538277Y-14216460D01*
X5538277Y-14216460D02*
X5528753Y-14225984D01*
X5528753Y-14225984D02*
X5519229Y-14216460D01*
X5519229Y-14216460D02*
X5528753Y-14206936D01*
X5528753Y-14206936D02*
X5528753Y-14225984D01*
X5662086Y-14025984D02*
X5681134Y-14025984D01*
X5681134Y-14025984D02*
X5700182Y-14035508D01*
X5700182Y-14035508D02*
X5709705Y-14045031D01*
X5709705Y-14045031D02*
X5719229Y-14064079D01*
X5719229Y-14064079D02*
X5728753Y-14102174D01*
X5728753Y-14102174D02*
X5728753Y-14149793D01*
X5728753Y-14149793D02*
X5719229Y-14187888D01*
X5719229Y-14187888D02*
X5709705Y-14206936D01*
X5709705Y-14206936D02*
X5700182Y-14216460D01*
X5700182Y-14216460D02*
X5681134Y-14225984D01*
X5681134Y-14225984D02*
X5662086Y-14225984D01*
X5662086Y-14225984D02*
X5643039Y-14216460D01*
X5643039Y-14216460D02*
X5633515Y-14206936D01*
X5633515Y-14206936D02*
X5623991Y-14187888D01*
X5623991Y-14187888D02*
X5614467Y-14149793D01*
X5614467Y-14149793D02*
X5614467Y-14102174D01*
X5614467Y-14102174D02*
X5623991Y-14064079D01*
X5623991Y-14064079D02*
X5633515Y-14045031D01*
X5633515Y-14045031D02*
X5643039Y-14035508D01*
X5643039Y-14035508D02*
X5662086Y-14025984D01*
X5852562Y-14025984D02*
X5871610Y-14025984D01*
X5871610Y-14025984D02*
X5890658Y-14035508D01*
X5890658Y-14035508D02*
X5900182Y-14045031D01*
X5900182Y-14045031D02*
X5909705Y-14064079D01*
X5909705Y-14064079D02*
X5919229Y-14102174D01*
X5919229Y-14102174D02*
X5919229Y-14149793D01*
X5919229Y-14149793D02*
X5909705Y-14187888D01*
X5909705Y-14187888D02*
X5900182Y-14206936D01*
X5900182Y-14206936D02*
X5890658Y-14216460D01*
X5890658Y-14216460D02*
X5871610Y-14225984D01*
X5871610Y-14225984D02*
X5852562Y-14225984D01*
X5852562Y-14225984D02*
X5833515Y-14216460D01*
X5833515Y-14216460D02*
X5823991Y-14206936D01*
X5823991Y-14206936D02*
X5814467Y-14187888D01*
X5814467Y-14187888D02*
X5804943Y-14149793D01*
X5804943Y-14149793D02*
X5804943Y-14102174D01*
X5804943Y-14102174D02*
X5814467Y-14064079D01*
X5814467Y-14064079D02*
X5823991Y-14045031D01*
X5823991Y-14045031D02*
X5833515Y-14035508D01*
X5833515Y-14035508D02*
X5852562Y-14025984D01*
X6043039Y-14025984D02*
X6062086Y-14025984D01*
X6062086Y-14025984D02*
X6081134Y-14035508D01*
X6081134Y-14035508D02*
X6090658Y-14045031D01*
X6090658Y-14045031D02*
X6100182Y-14064079D01*
X6100182Y-14064079D02*
X6109705Y-14102174D01*
X6109705Y-14102174D02*
X6109705Y-14149793D01*
X6109705Y-14149793D02*
X6100182Y-14187888D01*
X6100182Y-14187888D02*
X6090658Y-14206936D01*
X6090658Y-14206936D02*
X6081134Y-14216460D01*
X6081134Y-14216460D02*
X6062086Y-14225984D01*
X6062086Y-14225984D02*
X6043039Y-14225984D01*
X6043039Y-14225984D02*
X6023991Y-14216460D01*
X6023991Y-14216460D02*
X6014467Y-14206936D01*
X6014467Y-14206936D02*
X6004943Y-14187888D01*
X6004943Y-14187888D02*
X5995420Y-14149793D01*
X5995420Y-14149793D02*
X5995420Y-14102174D01*
X5995420Y-14102174D02*
X6004943Y-14064079D01*
X6004943Y-14064079D02*
X6014467Y-14045031D01*
X6014467Y-14045031D02*
X6023991Y-14035508D01*
X6023991Y-14035508D02*
X6043039Y-14025984D01*
X6195420Y-14225984D02*
X6195420Y-14092650D01*
X6195420Y-14111698D02*
X6204943Y-14102174D01*
X6204943Y-14102174D02*
X6223991Y-14092650D01*
X6223991Y-14092650D02*
X6252563Y-14092650D01*
X6252563Y-14092650D02*
X6271610Y-14102174D01*
X6271610Y-14102174D02*
X6281134Y-14121222D01*
X6281134Y-14121222D02*
X6281134Y-14225984D01*
X6281134Y-14121222D02*
X6290658Y-14102174D01*
X6290658Y-14102174D02*
X6309705Y-14092650D01*
X6309705Y-14092650D02*
X6338277Y-14092650D01*
X6338277Y-14092650D02*
X6357324Y-14102174D01*
X6357324Y-14102174D02*
X6366848Y-14121222D01*
X6366848Y-14121222D02*
X6366848Y-14225984D01*
X6462086Y-14225984D02*
X6462086Y-14092650D01*
X6462086Y-14111698D02*
X6471610Y-14102174D01*
X6471610Y-14102174D02*
X6490658Y-14092650D01*
X6490658Y-14092650D02*
X6519229Y-14092650D01*
X6519229Y-14092650D02*
X6538277Y-14102174D01*
X6538277Y-14102174D02*
X6547801Y-14121222D01*
X6547801Y-14121222D02*
X6547801Y-14225984D01*
X6547801Y-14121222D02*
X6557324Y-14102174D01*
X6557324Y-14102174D02*
X6576372Y-14092650D01*
X6576372Y-14092650D02*
X6604943Y-14092650D01*
X6604943Y-14092650D02*
X6623991Y-14102174D01*
X6623991Y-14102174D02*
X6633515Y-14121222D01*
X6633515Y-14121222D02*
X6633515Y-14225984D01*
X7023991Y-14016460D02*
X6852563Y-14273603D01*
X7281134Y-14025984D02*
X7300182Y-14025984D01*
X7300182Y-14025984D02*
X7319229Y-14035508D01*
X7319229Y-14035508D02*
X7328753Y-14045031D01*
X7328753Y-14045031D02*
X7338277Y-14064079D01*
X7338277Y-14064079D02*
X7347801Y-14102174D01*
X7347801Y-14102174D02*
X7347801Y-14149793D01*
X7347801Y-14149793D02*
X7338277Y-14187888D01*
X7338277Y-14187888D02*
X7328753Y-14206936D01*
X7328753Y-14206936D02*
X7319229Y-14216460D01*
X7319229Y-14216460D02*
X7300182Y-14225984D01*
X7300182Y-14225984D02*
X7281134Y-14225984D01*
X7281134Y-14225984D02*
X7262086Y-14216460D01*
X7262086Y-14216460D02*
X7252563Y-14206936D01*
X7252563Y-14206936D02*
X7243039Y-14187888D01*
X7243039Y-14187888D02*
X7233515Y-14149793D01*
X7233515Y-14149793D02*
X7233515Y-14102174D01*
X7233515Y-14102174D02*
X7243039Y-14064079D01*
X7243039Y-14064079D02*
X7252563Y-14045031D01*
X7252563Y-14045031D02*
X7262086Y-14035508D01*
X7262086Y-14035508D02*
X7281134Y-14025984D01*
X7433515Y-14206936D02*
X7443039Y-14216460D01*
X7443039Y-14216460D02*
X7433515Y-14225984D01*
X7433515Y-14225984D02*
X7423991Y-14216460D01*
X7423991Y-14216460D02*
X7433515Y-14206936D01*
X7433515Y-14206936D02*
X7433515Y-14225984D01*
X7566848Y-14025984D02*
X7585896Y-14025984D01*
X7585896Y-14025984D02*
X7604944Y-14035508D01*
X7604944Y-14035508D02*
X7614467Y-14045031D01*
X7614467Y-14045031D02*
X7623991Y-14064079D01*
X7623991Y-14064079D02*
X7633515Y-14102174D01*
X7633515Y-14102174D02*
X7633515Y-14149793D01*
X7633515Y-14149793D02*
X7623991Y-14187888D01*
X7623991Y-14187888D02*
X7614467Y-14206936D01*
X7614467Y-14206936D02*
X7604944Y-14216460D01*
X7604944Y-14216460D02*
X7585896Y-14225984D01*
X7585896Y-14225984D02*
X7566848Y-14225984D01*
X7566848Y-14225984D02*
X7547801Y-14216460D01*
X7547801Y-14216460D02*
X7538277Y-14206936D01*
X7538277Y-14206936D02*
X7528753Y-14187888D01*
X7528753Y-14187888D02*
X7519229Y-14149793D01*
X7519229Y-14149793D02*
X7519229Y-14102174D01*
X7519229Y-14102174D02*
X7528753Y-14064079D01*
X7528753Y-14064079D02*
X7538277Y-14045031D01*
X7538277Y-14045031D02*
X7547801Y-14035508D01*
X7547801Y-14035508D02*
X7566848Y-14025984D01*
X7700182Y-14025984D02*
X7823991Y-14025984D01*
X7823991Y-14025984D02*
X7757325Y-14102174D01*
X7757325Y-14102174D02*
X7785896Y-14102174D01*
X7785896Y-14102174D02*
X7804944Y-14111698D01*
X7804944Y-14111698D02*
X7814467Y-14121222D01*
X7814467Y-14121222D02*
X7823991Y-14140269D01*
X7823991Y-14140269D02*
X7823991Y-14187888D01*
X7823991Y-14187888D02*
X7814467Y-14206936D01*
X7814467Y-14206936D02*
X7804944Y-14216460D01*
X7804944Y-14216460D02*
X7785896Y-14225984D01*
X7785896Y-14225984D02*
X7728753Y-14225984D01*
X7728753Y-14225984D02*
X7709706Y-14216460D01*
X7709706Y-14216460D02*
X7700182Y-14206936D01*
X7919229Y-14225984D02*
X7957325Y-14225984D01*
X7957325Y-14225984D02*
X7976372Y-14216460D01*
X7976372Y-14216460D02*
X7985896Y-14206936D01*
X7985896Y-14206936D02*
X8004944Y-14178365D01*
X8004944Y-14178365D02*
X8014467Y-14140269D01*
X8014467Y-14140269D02*
X8014467Y-14064079D01*
X8014467Y-14064079D02*
X8004944Y-14045031D01*
X8004944Y-14045031D02*
X7995420Y-14035508D01*
X7995420Y-14035508D02*
X7976372Y-14025984D01*
X7976372Y-14025984D02*
X7938277Y-14025984D01*
X7938277Y-14025984D02*
X7919229Y-14035508D01*
X7919229Y-14035508D02*
X7909706Y-14045031D01*
X7909706Y-14045031D02*
X7900182Y-14064079D01*
X7900182Y-14064079D02*
X7900182Y-14111698D01*
X7900182Y-14111698D02*
X7909706Y-14130746D01*
X7909706Y-14130746D02*
X7919229Y-14140269D01*
X7919229Y-14140269D02*
X7938277Y-14149793D01*
X7938277Y-14149793D02*
X7976372Y-14149793D01*
X7976372Y-14149793D02*
X7995420Y-14140269D01*
X7995420Y-14140269D02*
X8004944Y-14130746D01*
X8004944Y-14130746D02*
X8014467Y-14111698D01*
X8185896Y-14092650D02*
X8185896Y-14225984D01*
X8138277Y-14016460D02*
X8090658Y-14159317D01*
X8090658Y-14159317D02*
X8214467Y-14159317D01*
X8281134Y-14025984D02*
X8281134Y-14064079D01*
X8357325Y-14025984D02*
X8357325Y-14064079D01*
X8652563Y-14302174D02*
X8643039Y-14292650D01*
X8643039Y-14292650D02*
X8623991Y-14264079D01*
X8623991Y-14264079D02*
X8614468Y-14245031D01*
X8614468Y-14245031D02*
X8604944Y-14216460D01*
X8604944Y-14216460D02*
X8595420Y-14168841D01*
X8595420Y-14168841D02*
X8595420Y-14130746D01*
X8595420Y-14130746D02*
X8604944Y-14083127D01*
X8604944Y-14083127D02*
X8614468Y-14054555D01*
X8614468Y-14054555D02*
X8623991Y-14035508D01*
X8623991Y-14035508D02*
X8643039Y-14006936D01*
X8643039Y-14006936D02*
X8652563Y-13997412D01*
X8709706Y-14025984D02*
X8833515Y-14025984D01*
X8833515Y-14025984D02*
X8766849Y-14102174D01*
X8766849Y-14102174D02*
X8795420Y-14102174D01*
X8795420Y-14102174D02*
X8814468Y-14111698D01*
X8814468Y-14111698D02*
X8823991Y-14121222D01*
X8823991Y-14121222D02*
X8833515Y-14140269D01*
X8833515Y-14140269D02*
X8833515Y-14187888D01*
X8833515Y-14187888D02*
X8823991Y-14206936D01*
X8823991Y-14206936D02*
X8814468Y-14216460D01*
X8814468Y-14216460D02*
X8795420Y-14225984D01*
X8795420Y-14225984D02*
X8738277Y-14225984D01*
X8738277Y-14225984D02*
X8719230Y-14216460D01*
X8719230Y-14216460D02*
X8709706Y-14206936D01*
X9004944Y-14025984D02*
X8966849Y-14025984D01*
X8966849Y-14025984D02*
X8947801Y-14035508D01*
X8947801Y-14035508D02*
X8938277Y-14045031D01*
X8938277Y-14045031D02*
X8919230Y-14073603D01*
X8919230Y-14073603D02*
X8909706Y-14111698D01*
X8909706Y-14111698D02*
X8909706Y-14187888D01*
X8909706Y-14187888D02*
X8919230Y-14206936D01*
X8919230Y-14206936D02*
X8928753Y-14216460D01*
X8928753Y-14216460D02*
X8947801Y-14225984D01*
X8947801Y-14225984D02*
X8985896Y-14225984D01*
X8985896Y-14225984D02*
X9004944Y-14216460D01*
X9004944Y-14216460D02*
X9014468Y-14206936D01*
X9014468Y-14206936D02*
X9023991Y-14187888D01*
X9023991Y-14187888D02*
X9023991Y-14140269D01*
X9023991Y-14140269D02*
X9014468Y-14121222D01*
X9014468Y-14121222D02*
X9004944Y-14111698D01*
X9004944Y-14111698D02*
X8985896Y-14102174D01*
X8985896Y-14102174D02*
X8947801Y-14102174D01*
X8947801Y-14102174D02*
X8928753Y-14111698D01*
X8928753Y-14111698D02*
X8919230Y-14121222D01*
X8919230Y-14121222D02*
X8909706Y-14140269D01*
X9262087Y-14225984D02*
X9262087Y-14025984D01*
X9347801Y-14225984D02*
X9347801Y-14121222D01*
X9347801Y-14121222D02*
X9338277Y-14102174D01*
X9338277Y-14102174D02*
X9319230Y-14092650D01*
X9319230Y-14092650D02*
X9290658Y-14092650D01*
X9290658Y-14092650D02*
X9271611Y-14102174D01*
X9271611Y-14102174D02*
X9262087Y-14111698D01*
X9471611Y-14225984D02*
X9452563Y-14216460D01*
X9452563Y-14216460D02*
X9443039Y-14206936D01*
X9443039Y-14206936D02*
X9433515Y-14187888D01*
X9433515Y-14187888D02*
X9433515Y-14130746D01*
X9433515Y-14130746D02*
X9443039Y-14111698D01*
X9443039Y-14111698D02*
X9452563Y-14102174D01*
X9452563Y-14102174D02*
X9471611Y-14092650D01*
X9471611Y-14092650D02*
X9500182Y-14092650D01*
X9500182Y-14092650D02*
X9519230Y-14102174D01*
X9519230Y-14102174D02*
X9528753Y-14111698D01*
X9528753Y-14111698D02*
X9538277Y-14130746D01*
X9538277Y-14130746D02*
X9538277Y-14187888D01*
X9538277Y-14187888D02*
X9528753Y-14206936D01*
X9528753Y-14206936D02*
X9519230Y-14216460D01*
X9519230Y-14216460D02*
X9500182Y-14225984D01*
X9500182Y-14225984D02*
X9471611Y-14225984D01*
X9652563Y-14225984D02*
X9633515Y-14216460D01*
X9633515Y-14216460D02*
X9623992Y-14197412D01*
X9623992Y-14197412D02*
X9623992Y-14025984D01*
X9804944Y-14216460D02*
X9785896Y-14225984D01*
X9785896Y-14225984D02*
X9747801Y-14225984D01*
X9747801Y-14225984D02*
X9728753Y-14216460D01*
X9728753Y-14216460D02*
X9719230Y-14197412D01*
X9719230Y-14197412D02*
X9719230Y-14121222D01*
X9719230Y-14121222D02*
X9728753Y-14102174D01*
X9728753Y-14102174D02*
X9747801Y-14092650D01*
X9747801Y-14092650D02*
X9785896Y-14092650D01*
X9785896Y-14092650D02*
X9804944Y-14102174D01*
X9804944Y-14102174D02*
X9814468Y-14121222D01*
X9814468Y-14121222D02*
X9814468Y-14140269D01*
X9814468Y-14140269D02*
X9719230Y-14159317D01*
X9890658Y-14216460D02*
X9909706Y-14225984D01*
X9909706Y-14225984D02*
X9947801Y-14225984D01*
X9947801Y-14225984D02*
X9966849Y-14216460D01*
X9966849Y-14216460D02*
X9976373Y-14197412D01*
X9976373Y-14197412D02*
X9976373Y-14187888D01*
X9976373Y-14187888D02*
X9966849Y-14168841D01*
X9966849Y-14168841D02*
X9947801Y-14159317D01*
X9947801Y-14159317D02*
X9919230Y-14159317D01*
X9919230Y-14159317D02*
X9900182Y-14149793D01*
X9900182Y-14149793D02*
X9890658Y-14130746D01*
X9890658Y-14130746D02*
X9890658Y-14121222D01*
X9890658Y-14121222D02*
X9900182Y-14102174D01*
X9900182Y-14102174D02*
X9919230Y-14092650D01*
X9919230Y-14092650D02*
X9947801Y-14092650D01*
X9947801Y-14092650D02*
X9966849Y-14102174D01*
X10043039Y-14302174D02*
X10052563Y-14292650D01*
X10052563Y-14292650D02*
X10071611Y-14264079D01*
X10071611Y-14264079D02*
X10081134Y-14245031D01*
X10081134Y-14245031D02*
X10090658Y-14216460D01*
X10090658Y-14216460D02*
X10100182Y-14168841D01*
X10100182Y-14168841D02*
X10100182Y-14130746D01*
X10100182Y-14130746D02*
X10090658Y-14083127D01*
X10090658Y-14083127D02*
X10081134Y-14054555D01*
X10081134Y-14054555D02*
X10071611Y-14035508D01*
X10071611Y-14035508D02*
X10052563Y-14006936D01*
X10052563Y-14006936D02*
X10043039Y-13997412D01*
D13*
X5026700Y-14449300D02*
X5077500Y-14398500D01*
X5026700Y-14347700D01*
X4975900Y-14398500D01*
X5026700Y-14449300D01*
D11*
X5443039Y-14489984D02*
X5328753Y-14489984D01*
X5385896Y-14489984D02*
X5385896Y-14289984D01*
X5385896Y-14289984D02*
X5366848Y-14318555D01*
X5366848Y-14318555D02*
X5347801Y-14337603D01*
X5347801Y-14337603D02*
X5328753Y-14347127D01*
X5528753Y-14470936D02*
X5538277Y-14480460D01*
X5538277Y-14480460D02*
X5528753Y-14489984D01*
X5528753Y-14489984D02*
X5519229Y-14480460D01*
X5519229Y-14480460D02*
X5528753Y-14470936D01*
X5528753Y-14470936D02*
X5528753Y-14489984D01*
X5662086Y-14289984D02*
X5681134Y-14289984D01*
X5681134Y-14289984D02*
X5700182Y-14299508D01*
X5700182Y-14299508D02*
X5709705Y-14309031D01*
X5709705Y-14309031D02*
X5719229Y-14328079D01*
X5719229Y-14328079D02*
X5728753Y-14366174D01*
X5728753Y-14366174D02*
X5728753Y-14413793D01*
X5728753Y-14413793D02*
X5719229Y-14451888D01*
X5719229Y-14451888D02*
X5709705Y-14470936D01*
X5709705Y-14470936D02*
X5700182Y-14480460D01*
X5700182Y-14480460D02*
X5681134Y-14489984D01*
X5681134Y-14489984D02*
X5662086Y-14489984D01*
X5662086Y-14489984D02*
X5643039Y-14480460D01*
X5643039Y-14480460D02*
X5633515Y-14470936D01*
X5633515Y-14470936D02*
X5623991Y-14451888D01*
X5623991Y-14451888D02*
X5614467Y-14413793D01*
X5614467Y-14413793D02*
X5614467Y-14366174D01*
X5614467Y-14366174D02*
X5623991Y-14328079D01*
X5623991Y-14328079D02*
X5633515Y-14309031D01*
X5633515Y-14309031D02*
X5643039Y-14299508D01*
X5643039Y-14299508D02*
X5662086Y-14289984D01*
X5919229Y-14489984D02*
X5804943Y-14489984D01*
X5862086Y-14489984D02*
X5862086Y-14289984D01*
X5862086Y-14289984D02*
X5843039Y-14318555D01*
X5843039Y-14318555D02*
X5823991Y-14337603D01*
X5823991Y-14337603D02*
X5804943Y-14347127D01*
X6090658Y-14289984D02*
X6052562Y-14289984D01*
X6052562Y-14289984D02*
X6033515Y-14299508D01*
X6033515Y-14299508D02*
X6023991Y-14309031D01*
X6023991Y-14309031D02*
X6004943Y-14337603D01*
X6004943Y-14337603D02*
X5995420Y-14375698D01*
X5995420Y-14375698D02*
X5995420Y-14451888D01*
X5995420Y-14451888D02*
X6004943Y-14470936D01*
X6004943Y-14470936D02*
X6014467Y-14480460D01*
X6014467Y-14480460D02*
X6033515Y-14489984D01*
X6033515Y-14489984D02*
X6071610Y-14489984D01*
X6071610Y-14489984D02*
X6090658Y-14480460D01*
X6090658Y-14480460D02*
X6100182Y-14470936D01*
X6100182Y-14470936D02*
X6109705Y-14451888D01*
X6109705Y-14451888D02*
X6109705Y-14404269D01*
X6109705Y-14404269D02*
X6100182Y-14385222D01*
X6100182Y-14385222D02*
X6090658Y-14375698D01*
X6090658Y-14375698D02*
X6071610Y-14366174D01*
X6071610Y-14366174D02*
X6033515Y-14366174D01*
X6033515Y-14366174D02*
X6014467Y-14375698D01*
X6014467Y-14375698D02*
X6004943Y-14385222D01*
X6004943Y-14385222D02*
X5995420Y-14404269D01*
X6195420Y-14489984D02*
X6195420Y-14356650D01*
X6195420Y-14375698D02*
X6204943Y-14366174D01*
X6204943Y-14366174D02*
X6223991Y-14356650D01*
X6223991Y-14356650D02*
X6252563Y-14356650D01*
X6252563Y-14356650D02*
X6271610Y-14366174D01*
X6271610Y-14366174D02*
X6281134Y-14385222D01*
X6281134Y-14385222D02*
X6281134Y-14489984D01*
X6281134Y-14385222D02*
X6290658Y-14366174D01*
X6290658Y-14366174D02*
X6309705Y-14356650D01*
X6309705Y-14356650D02*
X6338277Y-14356650D01*
X6338277Y-14356650D02*
X6357324Y-14366174D01*
X6357324Y-14366174D02*
X6366848Y-14385222D01*
X6366848Y-14385222D02*
X6366848Y-14489984D01*
X6462086Y-14489984D02*
X6462086Y-14356650D01*
X6462086Y-14375698D02*
X6471610Y-14366174D01*
X6471610Y-14366174D02*
X6490658Y-14356650D01*
X6490658Y-14356650D02*
X6519229Y-14356650D01*
X6519229Y-14356650D02*
X6538277Y-14366174D01*
X6538277Y-14366174D02*
X6547801Y-14385222D01*
X6547801Y-14385222D02*
X6547801Y-14489984D01*
X6547801Y-14385222D02*
X6557324Y-14366174D01*
X6557324Y-14366174D02*
X6576372Y-14356650D01*
X6576372Y-14356650D02*
X6604943Y-14356650D01*
X6604943Y-14356650D02*
X6623991Y-14366174D01*
X6623991Y-14366174D02*
X6633515Y-14385222D01*
X6633515Y-14385222D02*
X6633515Y-14489984D01*
X7023991Y-14280460D02*
X6852563Y-14537603D01*
X7281134Y-14289984D02*
X7300182Y-14289984D01*
X7300182Y-14289984D02*
X7319229Y-14299508D01*
X7319229Y-14299508D02*
X7328753Y-14309031D01*
X7328753Y-14309031D02*
X7338277Y-14328079D01*
X7338277Y-14328079D02*
X7347801Y-14366174D01*
X7347801Y-14366174D02*
X7347801Y-14413793D01*
X7347801Y-14413793D02*
X7338277Y-14451888D01*
X7338277Y-14451888D02*
X7328753Y-14470936D01*
X7328753Y-14470936D02*
X7319229Y-14480460D01*
X7319229Y-14480460D02*
X7300182Y-14489984D01*
X7300182Y-14489984D02*
X7281134Y-14489984D01*
X7281134Y-14489984D02*
X7262086Y-14480460D01*
X7262086Y-14480460D02*
X7252563Y-14470936D01*
X7252563Y-14470936D02*
X7243039Y-14451888D01*
X7243039Y-14451888D02*
X7233515Y-14413793D01*
X7233515Y-14413793D02*
X7233515Y-14366174D01*
X7233515Y-14366174D02*
X7243039Y-14328079D01*
X7243039Y-14328079D02*
X7252563Y-14309031D01*
X7252563Y-14309031D02*
X7262086Y-14299508D01*
X7262086Y-14299508D02*
X7281134Y-14289984D01*
X7433515Y-14470936D02*
X7443039Y-14480460D01*
X7443039Y-14480460D02*
X7433515Y-14489984D01*
X7433515Y-14489984D02*
X7423991Y-14480460D01*
X7423991Y-14480460D02*
X7433515Y-14470936D01*
X7433515Y-14470936D02*
X7433515Y-14489984D01*
X7566848Y-14289984D02*
X7585896Y-14289984D01*
X7585896Y-14289984D02*
X7604944Y-14299508D01*
X7604944Y-14299508D02*
X7614467Y-14309031D01*
X7614467Y-14309031D02*
X7623991Y-14328079D01*
X7623991Y-14328079D02*
X7633515Y-14366174D01*
X7633515Y-14366174D02*
X7633515Y-14413793D01*
X7633515Y-14413793D02*
X7623991Y-14451888D01*
X7623991Y-14451888D02*
X7614467Y-14470936D01*
X7614467Y-14470936D02*
X7604944Y-14480460D01*
X7604944Y-14480460D02*
X7585896Y-14489984D01*
X7585896Y-14489984D02*
X7566848Y-14489984D01*
X7566848Y-14489984D02*
X7547801Y-14480460D01*
X7547801Y-14480460D02*
X7538277Y-14470936D01*
X7538277Y-14470936D02*
X7528753Y-14451888D01*
X7528753Y-14451888D02*
X7519229Y-14413793D01*
X7519229Y-14413793D02*
X7519229Y-14366174D01*
X7519229Y-14366174D02*
X7528753Y-14328079D01*
X7528753Y-14328079D02*
X7538277Y-14309031D01*
X7538277Y-14309031D02*
X7547801Y-14299508D01*
X7547801Y-14299508D02*
X7566848Y-14289984D01*
X7804944Y-14356650D02*
X7804944Y-14489984D01*
X7757325Y-14280460D02*
X7709706Y-14423317D01*
X7709706Y-14423317D02*
X7833515Y-14423317D01*
X7947801Y-14289984D02*
X7966848Y-14289984D01*
X7966848Y-14289984D02*
X7985896Y-14299508D01*
X7985896Y-14299508D02*
X7995420Y-14309031D01*
X7995420Y-14309031D02*
X8004944Y-14328079D01*
X8004944Y-14328079D02*
X8014467Y-14366174D01*
X8014467Y-14366174D02*
X8014467Y-14413793D01*
X8014467Y-14413793D02*
X8004944Y-14451888D01*
X8004944Y-14451888D02*
X7995420Y-14470936D01*
X7995420Y-14470936D02*
X7985896Y-14480460D01*
X7985896Y-14480460D02*
X7966848Y-14489984D01*
X7966848Y-14489984D02*
X7947801Y-14489984D01*
X7947801Y-14489984D02*
X7928753Y-14480460D01*
X7928753Y-14480460D02*
X7919229Y-14470936D01*
X7919229Y-14470936D02*
X7909706Y-14451888D01*
X7909706Y-14451888D02*
X7900182Y-14413793D01*
X7900182Y-14413793D02*
X7900182Y-14366174D01*
X7900182Y-14366174D02*
X7909706Y-14328079D01*
X7909706Y-14328079D02*
X7919229Y-14309031D01*
X7919229Y-14309031D02*
X7928753Y-14299508D01*
X7928753Y-14299508D02*
X7947801Y-14289984D01*
X8138277Y-14289984D02*
X8157325Y-14289984D01*
X8157325Y-14289984D02*
X8176372Y-14299508D01*
X8176372Y-14299508D02*
X8185896Y-14309031D01*
X8185896Y-14309031D02*
X8195420Y-14328079D01*
X8195420Y-14328079D02*
X8204944Y-14366174D01*
X8204944Y-14366174D02*
X8204944Y-14413793D01*
X8204944Y-14413793D02*
X8195420Y-14451888D01*
X8195420Y-14451888D02*
X8185896Y-14470936D01*
X8185896Y-14470936D02*
X8176372Y-14480460D01*
X8176372Y-14480460D02*
X8157325Y-14489984D01*
X8157325Y-14489984D02*
X8138277Y-14489984D01*
X8138277Y-14489984D02*
X8119229Y-14480460D01*
X8119229Y-14480460D02*
X8109706Y-14470936D01*
X8109706Y-14470936D02*
X8100182Y-14451888D01*
X8100182Y-14451888D02*
X8090658Y-14413793D01*
X8090658Y-14413793D02*
X8090658Y-14366174D01*
X8090658Y-14366174D02*
X8100182Y-14328079D01*
X8100182Y-14328079D02*
X8109706Y-14309031D01*
X8109706Y-14309031D02*
X8119229Y-14299508D01*
X8119229Y-14299508D02*
X8138277Y-14289984D01*
X8281134Y-14289984D02*
X8281134Y-14328079D01*
X8357325Y-14289984D02*
X8357325Y-14328079D01*
X8652563Y-14566174D02*
X8643039Y-14556650D01*
X8643039Y-14556650D02*
X8623991Y-14528079D01*
X8623991Y-14528079D02*
X8614468Y-14509031D01*
X8614468Y-14509031D02*
X8604944Y-14480460D01*
X8604944Y-14480460D02*
X8595420Y-14432841D01*
X8595420Y-14432841D02*
X8595420Y-14394746D01*
X8595420Y-14394746D02*
X8604944Y-14347127D01*
X8604944Y-14347127D02*
X8614468Y-14318555D01*
X8614468Y-14318555D02*
X8623991Y-14299508D01*
X8623991Y-14299508D02*
X8643039Y-14270936D01*
X8643039Y-14270936D02*
X8652563Y-14261412D01*
X8709706Y-14289984D02*
X8833515Y-14289984D01*
X8833515Y-14289984D02*
X8766849Y-14366174D01*
X8766849Y-14366174D02*
X8795420Y-14366174D01*
X8795420Y-14366174D02*
X8814468Y-14375698D01*
X8814468Y-14375698D02*
X8823991Y-14385222D01*
X8823991Y-14385222D02*
X8833515Y-14404269D01*
X8833515Y-14404269D02*
X8833515Y-14451888D01*
X8833515Y-14451888D02*
X8823991Y-14470936D01*
X8823991Y-14470936D02*
X8814468Y-14480460D01*
X8814468Y-14480460D02*
X8795420Y-14489984D01*
X8795420Y-14489984D02*
X8738277Y-14489984D01*
X8738277Y-14489984D02*
X8719230Y-14480460D01*
X8719230Y-14480460D02*
X8709706Y-14470936D01*
X9014468Y-14289984D02*
X8919230Y-14289984D01*
X8919230Y-14289984D02*
X8909706Y-14385222D01*
X8909706Y-14385222D02*
X8919230Y-14375698D01*
X8919230Y-14375698D02*
X8938277Y-14366174D01*
X8938277Y-14366174D02*
X8985896Y-14366174D01*
X8985896Y-14366174D02*
X9004944Y-14375698D01*
X9004944Y-14375698D02*
X9014468Y-14385222D01*
X9014468Y-14385222D02*
X9023991Y-14404269D01*
X9023991Y-14404269D02*
X9023991Y-14451888D01*
X9023991Y-14451888D02*
X9014468Y-14470936D01*
X9014468Y-14470936D02*
X9004944Y-14480460D01*
X9004944Y-14480460D02*
X8985896Y-14489984D01*
X8985896Y-14489984D02*
X8938277Y-14489984D01*
X8938277Y-14489984D02*
X8919230Y-14480460D01*
X8919230Y-14480460D02*
X8909706Y-14470936D01*
X9262087Y-14489984D02*
X9262087Y-14289984D01*
X9347801Y-14489984D02*
X9347801Y-14385222D01*
X9347801Y-14385222D02*
X9338277Y-14366174D01*
X9338277Y-14366174D02*
X9319230Y-14356650D01*
X9319230Y-14356650D02*
X9290658Y-14356650D01*
X9290658Y-14356650D02*
X9271611Y-14366174D01*
X9271611Y-14366174D02*
X9262087Y-14375698D01*
X9471611Y-14489984D02*
X9452563Y-14480460D01*
X9452563Y-14480460D02*
X9443039Y-14470936D01*
X9443039Y-14470936D02*
X9433515Y-14451888D01*
X9433515Y-14451888D02*
X9433515Y-14394746D01*
X9433515Y-14394746D02*
X9443039Y-14375698D01*
X9443039Y-14375698D02*
X9452563Y-14366174D01*
X9452563Y-14366174D02*
X9471611Y-14356650D01*
X9471611Y-14356650D02*
X9500182Y-14356650D01*
X9500182Y-14356650D02*
X9519230Y-14366174D01*
X9519230Y-14366174D02*
X9528753Y-14375698D01*
X9528753Y-14375698D02*
X9538277Y-14394746D01*
X9538277Y-14394746D02*
X9538277Y-14451888D01*
X9538277Y-14451888D02*
X9528753Y-14470936D01*
X9528753Y-14470936D02*
X9519230Y-14480460D01*
X9519230Y-14480460D02*
X9500182Y-14489984D01*
X9500182Y-14489984D02*
X9471611Y-14489984D01*
X9652563Y-14489984D02*
X9633515Y-14480460D01*
X9633515Y-14480460D02*
X9623992Y-14461412D01*
X9623992Y-14461412D02*
X9623992Y-14289984D01*
X9804944Y-14480460D02*
X9785896Y-14489984D01*
X9785896Y-14489984D02*
X9747801Y-14489984D01*
X9747801Y-14489984D02*
X9728753Y-14480460D01*
X9728753Y-14480460D02*
X9719230Y-14461412D01*
X9719230Y-14461412D02*
X9719230Y-14385222D01*
X9719230Y-14385222D02*
X9728753Y-14366174D01*
X9728753Y-14366174D02*
X9747801Y-14356650D01*
X9747801Y-14356650D02*
X9785896Y-14356650D01*
X9785896Y-14356650D02*
X9804944Y-14366174D01*
X9804944Y-14366174D02*
X9814468Y-14385222D01*
X9814468Y-14385222D02*
X9814468Y-14404269D01*
X9814468Y-14404269D02*
X9719230Y-14423317D01*
X9890658Y-14480460D02*
X9909706Y-14489984D01*
X9909706Y-14489984D02*
X9947801Y-14489984D01*
X9947801Y-14489984D02*
X9966849Y-14480460D01*
X9966849Y-14480460D02*
X9976373Y-14461412D01*
X9976373Y-14461412D02*
X9976373Y-14451888D01*
X9976373Y-14451888D02*
X9966849Y-14432841D01*
X9966849Y-14432841D02*
X9947801Y-14423317D01*
X9947801Y-14423317D02*
X9919230Y-14423317D01*
X9919230Y-14423317D02*
X9900182Y-14413793D01*
X9900182Y-14413793D02*
X9890658Y-14394746D01*
X9890658Y-14394746D02*
X9890658Y-14385222D01*
X9890658Y-14385222D02*
X9900182Y-14366174D01*
X9900182Y-14366174D02*
X9919230Y-14356650D01*
X9919230Y-14356650D02*
X9947801Y-14356650D01*
X9947801Y-14356650D02*
X9966849Y-14366174D01*
X10043039Y-14566174D02*
X10052563Y-14556650D01*
X10052563Y-14556650D02*
X10071611Y-14528079D01*
X10071611Y-14528079D02*
X10081134Y-14509031D01*
X10081134Y-14509031D02*
X10090658Y-14480460D01*
X10090658Y-14480460D02*
X10100182Y-14432841D01*
X10100182Y-14432841D02*
X10100182Y-14394746D01*
X10100182Y-14394746D02*
X10090658Y-14347127D01*
X10090658Y-14347127D02*
X10081134Y-14318555D01*
X10081134Y-14318555D02*
X10071611Y-14299508D01*
X10071611Y-14299508D02*
X10052563Y-14270936D01*
X10052563Y-14270936D02*
X10043039Y-14261412D01*
M02*
