G04 #@! TF.GenerationSoftware,KiCad,Pcbnew,7.0.11+dfsg-1*
G04 #@! TF.CreationDate,2024-03-20T20:25:00-04:00*
G04 #@! TF.ProjectId,base,62617365-2e6b-4696-9361-645f70636258,rev?*
G04 #@! TF.SameCoordinates,Original*
G04 #@! TF.FileFunction,Soldermask,Bot*
G04 #@! TF.FilePolarity,Negative*
%FSLAX46Y46*%
G04 Gerber Fmt 4.6, Leading zero omitted, Abs format (unit mm)*
G04 Created by KiCad (PCBNEW 7.0.11+dfsg-1) date 2024-03-20 20:25:00*
%MOMM*%
%LPD*%
G01*
G04 APERTURE LIST*
%ADD10C,1.600000*%
%ADD11O,1.600000X1.600000*%
%ADD12C,1.727200*%
%ADD13R,1.727200X1.727200*%
%ADD14R,1.700000X1.700000*%
%ADD15O,1.700000X1.700000*%
G04 APERTURE END LIST*
D10*
X102870000Y-111760000D03*
D11*
X102870000Y-119380000D03*
D12*
X55880000Y-96520000D03*
X55880000Y-99060000D03*
X55880000Y-101600000D03*
X55880000Y-104140000D03*
X58420000Y-102870000D03*
X58420000Y-105410000D03*
X60960000Y-86360000D03*
X58420000Y-86360000D03*
X71120000Y-111760000D03*
X71120000Y-114300000D03*
X71120000Y-104140000D03*
X71120000Y-101600000D03*
X71120000Y-99060000D03*
X71120000Y-96520000D03*
X71120000Y-93980000D03*
X71120000Y-91440000D03*
X71120000Y-88900000D03*
X71120000Y-86360000D03*
X55880000Y-86360000D03*
X55880000Y-88900000D03*
X55880000Y-91440000D03*
X55880000Y-93980000D03*
X69850000Y-116840000D03*
D13*
X71120000Y-106680000D03*
X55880000Y-111760000D03*
X63500000Y-86360000D03*
X59690000Y-116840000D03*
X57150000Y-116840000D03*
D12*
X55880000Y-114300000D03*
X71120000Y-109220000D03*
X55880000Y-109220000D03*
X64770000Y-116840000D03*
X67310000Y-116840000D03*
X55880000Y-106680000D03*
X62230000Y-116840000D03*
D10*
X125730000Y-111760000D03*
D11*
X125730000Y-119380000D03*
D10*
X114300000Y-111760000D03*
D11*
X114300000Y-119380000D03*
D14*
X71120000Y-66040000D03*
D15*
X68580000Y-66040000D03*
X66040000Y-66040000D03*
X63500000Y-66040000D03*
X60960000Y-66040000D03*
X58420000Y-66040000D03*
X55880000Y-66040000D03*
X53340000Y-66040000D03*
D14*
X77470000Y-86360000D03*
D15*
X80010000Y-86360000D03*
X82550000Y-86360000D03*
X85090000Y-86360000D03*
X87630000Y-86360000D03*
X90170000Y-86360000D03*
D14*
X102870000Y-123190000D03*
D15*
X105410000Y-123190000D03*
D14*
X69850000Y-120650000D03*
D15*
X67310000Y-120650000D03*
X64770000Y-120650000D03*
X62230000Y-120650000D03*
X59690000Y-120650000D03*
X57150000Y-120650000D03*
D14*
X125730000Y-123190000D03*
D15*
X128270000Y-123190000D03*
D14*
X55880000Y-76200000D03*
D15*
X55880000Y-78740000D03*
D14*
X114300000Y-123190000D03*
D15*
X116840000Y-123190000D03*
D14*
X213360000Y-66040000D03*
D15*
X215900000Y-66040000D03*
X218440000Y-66040000D03*
X220980000Y-66040000D03*
X223520000Y-66040000D03*
X226060000Y-66040000D03*
X228600000Y-66040000D03*
X231140000Y-66040000D03*
M02*
