G04 #@! TF.GenerationSoftware,KiCad,Pcbnew,7.0.11+dfsg-1*
G04 #@! TF.CreationDate,2024-03-19T11:49:13-04:00*
G04 #@! TF.ProjectId,base,62617365-2e6b-4696-9361-645f70636258,rev?*
G04 #@! TF.SameCoordinates,Original*
G04 #@! TF.FileFunction,Legend,Top*
G04 #@! TF.FilePolarity,Positive*
%FSLAX46Y46*%
G04 Gerber Fmt 4.6, Leading zero omitted, Abs format (unit mm)*
G04 Created by KiCad (PCBNEW 7.0.11+dfsg-1) date 2024-03-19 11:49:13*
%MOMM*%
%LPD*%
G01*
G04 APERTURE LIST*
%ADD10C,0.100000*%
%ADD11C,0.150000*%
%ADD12C,0.120000*%
%ADD13C,1.600000*%
%ADD14O,1.600000X1.600000*%
%ADD15C,1.727200*%
%ADD16R,1.727200X1.727200*%
%ADD17R,1.700000X1.700000*%
%ADD18O,1.700000X1.700000*%
G04 APERTURE END LIST*
D10*
X133606265Y-111404800D02*
X133749122Y-111452419D01*
X133749122Y-111452419D02*
X133987217Y-111452419D01*
X133987217Y-111452419D02*
X134082455Y-111404800D01*
X134082455Y-111404800D02*
X134130074Y-111357180D01*
X134130074Y-111357180D02*
X134177693Y-111261942D01*
X134177693Y-111261942D02*
X134177693Y-111166704D01*
X134177693Y-111166704D02*
X134130074Y-111071466D01*
X134130074Y-111071466D02*
X134082455Y-111023847D01*
X134082455Y-111023847D02*
X133987217Y-110976228D01*
X133987217Y-110976228D02*
X133796741Y-110928609D01*
X133796741Y-110928609D02*
X133701503Y-110880990D01*
X133701503Y-110880990D02*
X133653884Y-110833371D01*
X133653884Y-110833371D02*
X133606265Y-110738133D01*
X133606265Y-110738133D02*
X133606265Y-110642895D01*
X133606265Y-110642895D02*
X133653884Y-110547657D01*
X133653884Y-110547657D02*
X133701503Y-110500038D01*
X133701503Y-110500038D02*
X133796741Y-110452419D01*
X133796741Y-110452419D02*
X134034836Y-110452419D01*
X134034836Y-110452419D02*
X134177693Y-110500038D01*
X134511027Y-110452419D02*
X134749122Y-111452419D01*
X134749122Y-111452419D02*
X134939598Y-110738133D01*
X134939598Y-110738133D02*
X135130074Y-111452419D01*
X135130074Y-111452419D02*
X135368170Y-110452419D01*
X136272931Y-111452419D02*
X135701503Y-111452419D01*
X135987217Y-111452419D02*
X135987217Y-110452419D01*
X135987217Y-110452419D02*
X135891979Y-110595276D01*
X135891979Y-110595276D02*
X135796741Y-110690514D01*
X135796741Y-110690514D02*
X135701503Y-110738133D01*
X136701503Y-111357180D02*
X136749122Y-111404800D01*
X136749122Y-111404800D02*
X136701503Y-111452419D01*
X136701503Y-111452419D02*
X136653884Y-111404800D01*
X136653884Y-111404800D02*
X136701503Y-111357180D01*
X136701503Y-111357180D02*
X136701503Y-111452419D01*
X136701503Y-110833371D02*
X136749122Y-110880990D01*
X136749122Y-110880990D02*
X136701503Y-110928609D01*
X136701503Y-110928609D02*
X136653884Y-110880990D01*
X136653884Y-110880990D02*
X136701503Y-110833371D01*
X136701503Y-110833371D02*
X136701503Y-110928609D01*
X137939598Y-111452419D02*
X137939598Y-110452419D01*
X137939598Y-110928609D02*
X138511026Y-110928609D01*
X138511026Y-111452419D02*
X138511026Y-110452419D01*
X139130074Y-111452419D02*
X139034836Y-111404800D01*
X139034836Y-111404800D02*
X138987217Y-111357180D01*
X138987217Y-111357180D02*
X138939598Y-111261942D01*
X138939598Y-111261942D02*
X138939598Y-110976228D01*
X138939598Y-110976228D02*
X138987217Y-110880990D01*
X138987217Y-110880990D02*
X139034836Y-110833371D01*
X139034836Y-110833371D02*
X139130074Y-110785752D01*
X139130074Y-110785752D02*
X139272931Y-110785752D01*
X139272931Y-110785752D02*
X139368169Y-110833371D01*
X139368169Y-110833371D02*
X139415788Y-110880990D01*
X139415788Y-110880990D02*
X139463407Y-110976228D01*
X139463407Y-110976228D02*
X139463407Y-111261942D01*
X139463407Y-111261942D02*
X139415788Y-111357180D01*
X139415788Y-111357180D02*
X139368169Y-111404800D01*
X139368169Y-111404800D02*
X139272931Y-111452419D01*
X139272931Y-111452419D02*
X139130074Y-111452419D01*
X140320550Y-110785752D02*
X140320550Y-111452419D01*
X139891979Y-110785752D02*
X139891979Y-111309561D01*
X139891979Y-111309561D02*
X139939598Y-111404800D01*
X139939598Y-111404800D02*
X140034836Y-111452419D01*
X140034836Y-111452419D02*
X140177693Y-111452419D01*
X140177693Y-111452419D02*
X140272931Y-111404800D01*
X140272931Y-111404800D02*
X140320550Y-111357180D01*
X140796741Y-111452419D02*
X140796741Y-110785752D01*
X140796741Y-110976228D02*
X140844360Y-110880990D01*
X140844360Y-110880990D02*
X140891979Y-110833371D01*
X140891979Y-110833371D02*
X140987217Y-110785752D01*
X140987217Y-110785752D02*
X141082455Y-110785752D01*
X142130075Y-111404800D02*
X142225313Y-111452419D01*
X142225313Y-111452419D02*
X142415789Y-111452419D01*
X142415789Y-111452419D02*
X142511027Y-111404800D01*
X142511027Y-111404800D02*
X142558646Y-111309561D01*
X142558646Y-111309561D02*
X142558646Y-111261942D01*
X142558646Y-111261942D02*
X142511027Y-111166704D01*
X142511027Y-111166704D02*
X142415789Y-111119085D01*
X142415789Y-111119085D02*
X142272932Y-111119085D01*
X142272932Y-111119085D02*
X142177694Y-111071466D01*
X142177694Y-111071466D02*
X142130075Y-110976228D01*
X142130075Y-110976228D02*
X142130075Y-110928609D01*
X142130075Y-110928609D02*
X142177694Y-110833371D01*
X142177694Y-110833371D02*
X142272932Y-110785752D01*
X142272932Y-110785752D02*
X142415789Y-110785752D01*
X142415789Y-110785752D02*
X142511027Y-110833371D01*
X143368170Y-111404800D02*
X143272932Y-111452419D01*
X143272932Y-111452419D02*
X143082456Y-111452419D01*
X143082456Y-111452419D02*
X142987218Y-111404800D01*
X142987218Y-111404800D02*
X142939599Y-111309561D01*
X142939599Y-111309561D02*
X142939599Y-110928609D01*
X142939599Y-110928609D02*
X142987218Y-110833371D01*
X142987218Y-110833371D02*
X143082456Y-110785752D01*
X143082456Y-110785752D02*
X143272932Y-110785752D01*
X143272932Y-110785752D02*
X143368170Y-110833371D01*
X143368170Y-110833371D02*
X143415789Y-110928609D01*
X143415789Y-110928609D02*
X143415789Y-111023847D01*
X143415789Y-111023847D02*
X142939599Y-111119085D01*
X143701504Y-110785752D02*
X144082456Y-110785752D01*
X143844361Y-110452419D02*
X143844361Y-111309561D01*
X143844361Y-111309561D02*
X143891980Y-111404800D01*
X143891980Y-111404800D02*
X143987218Y-111452419D01*
X143987218Y-111452419D02*
X144082456Y-111452419D01*
X133606265Y-113014800D02*
X133749122Y-113062419D01*
X133749122Y-113062419D02*
X133987217Y-113062419D01*
X133987217Y-113062419D02*
X134082455Y-113014800D01*
X134082455Y-113014800D02*
X134130074Y-112967180D01*
X134130074Y-112967180D02*
X134177693Y-112871942D01*
X134177693Y-112871942D02*
X134177693Y-112776704D01*
X134177693Y-112776704D02*
X134130074Y-112681466D01*
X134130074Y-112681466D02*
X134082455Y-112633847D01*
X134082455Y-112633847D02*
X133987217Y-112586228D01*
X133987217Y-112586228D02*
X133796741Y-112538609D01*
X133796741Y-112538609D02*
X133701503Y-112490990D01*
X133701503Y-112490990D02*
X133653884Y-112443371D01*
X133653884Y-112443371D02*
X133606265Y-112348133D01*
X133606265Y-112348133D02*
X133606265Y-112252895D01*
X133606265Y-112252895D02*
X133653884Y-112157657D01*
X133653884Y-112157657D02*
X133701503Y-112110038D01*
X133701503Y-112110038D02*
X133796741Y-112062419D01*
X133796741Y-112062419D02*
X134034836Y-112062419D01*
X134034836Y-112062419D02*
X134177693Y-112110038D01*
X134511027Y-112062419D02*
X134749122Y-113062419D01*
X134749122Y-113062419D02*
X134939598Y-112348133D01*
X134939598Y-112348133D02*
X135130074Y-113062419D01*
X135130074Y-113062419D02*
X135368170Y-112062419D01*
X135701503Y-112157657D02*
X135749122Y-112110038D01*
X135749122Y-112110038D02*
X135844360Y-112062419D01*
X135844360Y-112062419D02*
X136082455Y-112062419D01*
X136082455Y-112062419D02*
X136177693Y-112110038D01*
X136177693Y-112110038D02*
X136225312Y-112157657D01*
X136225312Y-112157657D02*
X136272931Y-112252895D01*
X136272931Y-112252895D02*
X136272931Y-112348133D01*
X136272931Y-112348133D02*
X136225312Y-112490990D01*
X136225312Y-112490990D02*
X135653884Y-113062419D01*
X135653884Y-113062419D02*
X136272931Y-113062419D01*
X136701503Y-112967180D02*
X136749122Y-113014800D01*
X136749122Y-113014800D02*
X136701503Y-113062419D01*
X136701503Y-113062419D02*
X136653884Y-113014800D01*
X136653884Y-113014800D02*
X136701503Y-112967180D01*
X136701503Y-112967180D02*
X136701503Y-113062419D01*
X136701503Y-112443371D02*
X136749122Y-112490990D01*
X136749122Y-112490990D02*
X136701503Y-112538609D01*
X136701503Y-112538609D02*
X136653884Y-112490990D01*
X136653884Y-112490990D02*
X136701503Y-112443371D01*
X136701503Y-112443371D02*
X136701503Y-112538609D01*
X137939598Y-113062419D02*
X137939598Y-112062419D01*
X137939598Y-112062419D02*
X138272931Y-112776704D01*
X138272931Y-112776704D02*
X138606264Y-112062419D01*
X138606264Y-112062419D02*
X138606264Y-113062419D01*
X139082455Y-113062419D02*
X139082455Y-112395752D01*
X139082455Y-112062419D02*
X139034836Y-112110038D01*
X139034836Y-112110038D02*
X139082455Y-112157657D01*
X139082455Y-112157657D02*
X139130074Y-112110038D01*
X139130074Y-112110038D02*
X139082455Y-112062419D01*
X139082455Y-112062419D02*
X139082455Y-112157657D01*
X139558645Y-112395752D02*
X139558645Y-113062419D01*
X139558645Y-112490990D02*
X139606264Y-112443371D01*
X139606264Y-112443371D02*
X139701502Y-112395752D01*
X139701502Y-112395752D02*
X139844359Y-112395752D01*
X139844359Y-112395752D02*
X139939597Y-112443371D01*
X139939597Y-112443371D02*
X139987216Y-112538609D01*
X139987216Y-112538609D02*
X139987216Y-113062419D01*
X140891978Y-112395752D02*
X140891978Y-113062419D01*
X140463407Y-112395752D02*
X140463407Y-112919561D01*
X140463407Y-112919561D02*
X140511026Y-113014800D01*
X140511026Y-113014800D02*
X140606264Y-113062419D01*
X140606264Y-113062419D02*
X140749121Y-113062419D01*
X140749121Y-113062419D02*
X140844359Y-113014800D01*
X140844359Y-113014800D02*
X140891978Y-112967180D01*
X141225312Y-112395752D02*
X141606264Y-112395752D01*
X141368169Y-112062419D02*
X141368169Y-112919561D01*
X141368169Y-112919561D02*
X141415788Y-113014800D01*
X141415788Y-113014800D02*
X141511026Y-113062419D01*
X141511026Y-113062419D02*
X141606264Y-113062419D01*
X142320550Y-113014800D02*
X142225312Y-113062419D01*
X142225312Y-113062419D02*
X142034836Y-113062419D01*
X142034836Y-113062419D02*
X141939598Y-113014800D01*
X141939598Y-113014800D02*
X141891979Y-112919561D01*
X141891979Y-112919561D02*
X141891979Y-112538609D01*
X141891979Y-112538609D02*
X141939598Y-112443371D01*
X141939598Y-112443371D02*
X142034836Y-112395752D01*
X142034836Y-112395752D02*
X142225312Y-112395752D01*
X142225312Y-112395752D02*
X142320550Y-112443371D01*
X142320550Y-112443371D02*
X142368169Y-112538609D01*
X142368169Y-112538609D02*
X142368169Y-112633847D01*
X142368169Y-112633847D02*
X141891979Y-112729085D01*
X143511027Y-113014800D02*
X143606265Y-113062419D01*
X143606265Y-113062419D02*
X143796741Y-113062419D01*
X143796741Y-113062419D02*
X143891979Y-113014800D01*
X143891979Y-113014800D02*
X143939598Y-112919561D01*
X143939598Y-112919561D02*
X143939598Y-112871942D01*
X143939598Y-112871942D02*
X143891979Y-112776704D01*
X143891979Y-112776704D02*
X143796741Y-112729085D01*
X143796741Y-112729085D02*
X143653884Y-112729085D01*
X143653884Y-112729085D02*
X143558646Y-112681466D01*
X143558646Y-112681466D02*
X143511027Y-112586228D01*
X143511027Y-112586228D02*
X143511027Y-112538609D01*
X143511027Y-112538609D02*
X143558646Y-112443371D01*
X143558646Y-112443371D02*
X143653884Y-112395752D01*
X143653884Y-112395752D02*
X143796741Y-112395752D01*
X143796741Y-112395752D02*
X143891979Y-112443371D01*
X144749122Y-113014800D02*
X144653884Y-113062419D01*
X144653884Y-113062419D02*
X144463408Y-113062419D01*
X144463408Y-113062419D02*
X144368170Y-113014800D01*
X144368170Y-113014800D02*
X144320551Y-112919561D01*
X144320551Y-112919561D02*
X144320551Y-112538609D01*
X144320551Y-112538609D02*
X144368170Y-112443371D01*
X144368170Y-112443371D02*
X144463408Y-112395752D01*
X144463408Y-112395752D02*
X144653884Y-112395752D01*
X144653884Y-112395752D02*
X144749122Y-112443371D01*
X144749122Y-112443371D02*
X144796741Y-112538609D01*
X144796741Y-112538609D02*
X144796741Y-112633847D01*
X144796741Y-112633847D02*
X144320551Y-112729085D01*
X145082456Y-112395752D02*
X145463408Y-112395752D01*
X145225313Y-112062419D02*
X145225313Y-112919561D01*
X145225313Y-112919561D02*
X145272932Y-113014800D01*
X145272932Y-113014800D02*
X145368170Y-113062419D01*
X145368170Y-113062419D02*
X145463408Y-113062419D01*
X133606265Y-114624800D02*
X133749122Y-114672419D01*
X133749122Y-114672419D02*
X133987217Y-114672419D01*
X133987217Y-114672419D02*
X134082455Y-114624800D01*
X134082455Y-114624800D02*
X134130074Y-114577180D01*
X134130074Y-114577180D02*
X134177693Y-114481942D01*
X134177693Y-114481942D02*
X134177693Y-114386704D01*
X134177693Y-114386704D02*
X134130074Y-114291466D01*
X134130074Y-114291466D02*
X134082455Y-114243847D01*
X134082455Y-114243847D02*
X133987217Y-114196228D01*
X133987217Y-114196228D02*
X133796741Y-114148609D01*
X133796741Y-114148609D02*
X133701503Y-114100990D01*
X133701503Y-114100990D02*
X133653884Y-114053371D01*
X133653884Y-114053371D02*
X133606265Y-113958133D01*
X133606265Y-113958133D02*
X133606265Y-113862895D01*
X133606265Y-113862895D02*
X133653884Y-113767657D01*
X133653884Y-113767657D02*
X133701503Y-113720038D01*
X133701503Y-113720038D02*
X133796741Y-113672419D01*
X133796741Y-113672419D02*
X134034836Y-113672419D01*
X134034836Y-113672419D02*
X134177693Y-113720038D01*
X134511027Y-113672419D02*
X134749122Y-114672419D01*
X134749122Y-114672419D02*
X134939598Y-113958133D01*
X134939598Y-113958133D02*
X135130074Y-114672419D01*
X135130074Y-114672419D02*
X135368170Y-113672419D01*
X135653884Y-113672419D02*
X136272931Y-113672419D01*
X136272931Y-113672419D02*
X135939598Y-114053371D01*
X135939598Y-114053371D02*
X136082455Y-114053371D01*
X136082455Y-114053371D02*
X136177693Y-114100990D01*
X136177693Y-114100990D02*
X136225312Y-114148609D01*
X136225312Y-114148609D02*
X136272931Y-114243847D01*
X136272931Y-114243847D02*
X136272931Y-114481942D01*
X136272931Y-114481942D02*
X136225312Y-114577180D01*
X136225312Y-114577180D02*
X136177693Y-114624800D01*
X136177693Y-114624800D02*
X136082455Y-114672419D01*
X136082455Y-114672419D02*
X135796741Y-114672419D01*
X135796741Y-114672419D02*
X135701503Y-114624800D01*
X135701503Y-114624800D02*
X135653884Y-114577180D01*
X136701503Y-114577180D02*
X136749122Y-114624800D01*
X136749122Y-114624800D02*
X136701503Y-114672419D01*
X136701503Y-114672419D02*
X136653884Y-114624800D01*
X136653884Y-114624800D02*
X136701503Y-114577180D01*
X136701503Y-114577180D02*
X136701503Y-114672419D01*
X136701503Y-114053371D02*
X136749122Y-114100990D01*
X136749122Y-114100990D02*
X136701503Y-114148609D01*
X136701503Y-114148609D02*
X136653884Y-114100990D01*
X136653884Y-114100990D02*
X136701503Y-114053371D01*
X136701503Y-114053371D02*
X136701503Y-114148609D01*
X137939598Y-114672419D02*
X137939598Y-113672419D01*
X137939598Y-113672419D02*
X138177693Y-113672419D01*
X138177693Y-113672419D02*
X138320550Y-113720038D01*
X138320550Y-113720038D02*
X138415788Y-113815276D01*
X138415788Y-113815276D02*
X138463407Y-113910514D01*
X138463407Y-113910514D02*
X138511026Y-114100990D01*
X138511026Y-114100990D02*
X138511026Y-114243847D01*
X138511026Y-114243847D02*
X138463407Y-114434323D01*
X138463407Y-114434323D02*
X138415788Y-114529561D01*
X138415788Y-114529561D02*
X138320550Y-114624800D01*
X138320550Y-114624800D02*
X138177693Y-114672419D01*
X138177693Y-114672419D02*
X137939598Y-114672419D01*
X138939598Y-114672419D02*
X138939598Y-114005752D01*
X138939598Y-113672419D02*
X138891979Y-113720038D01*
X138891979Y-113720038D02*
X138939598Y-113767657D01*
X138939598Y-113767657D02*
X138987217Y-113720038D01*
X138987217Y-113720038D02*
X138939598Y-113672419D01*
X138939598Y-113672419D02*
X138939598Y-113767657D01*
X139368169Y-114624800D02*
X139463407Y-114672419D01*
X139463407Y-114672419D02*
X139653883Y-114672419D01*
X139653883Y-114672419D02*
X139749121Y-114624800D01*
X139749121Y-114624800D02*
X139796740Y-114529561D01*
X139796740Y-114529561D02*
X139796740Y-114481942D01*
X139796740Y-114481942D02*
X139749121Y-114386704D01*
X139749121Y-114386704D02*
X139653883Y-114339085D01*
X139653883Y-114339085D02*
X139511026Y-114339085D01*
X139511026Y-114339085D02*
X139415788Y-114291466D01*
X139415788Y-114291466D02*
X139368169Y-114196228D01*
X139368169Y-114196228D02*
X139368169Y-114148609D01*
X139368169Y-114148609D02*
X139415788Y-114053371D01*
X139415788Y-114053371D02*
X139511026Y-114005752D01*
X139511026Y-114005752D02*
X139653883Y-114005752D01*
X139653883Y-114005752D02*
X139749121Y-114053371D01*
X140225312Y-114005752D02*
X140225312Y-115005752D01*
X140225312Y-114053371D02*
X140320550Y-114005752D01*
X140320550Y-114005752D02*
X140511026Y-114005752D01*
X140511026Y-114005752D02*
X140606264Y-114053371D01*
X140606264Y-114053371D02*
X140653883Y-114100990D01*
X140653883Y-114100990D02*
X140701502Y-114196228D01*
X140701502Y-114196228D02*
X140701502Y-114481942D01*
X140701502Y-114481942D02*
X140653883Y-114577180D01*
X140653883Y-114577180D02*
X140606264Y-114624800D01*
X140606264Y-114624800D02*
X140511026Y-114672419D01*
X140511026Y-114672419D02*
X140320550Y-114672419D01*
X140320550Y-114672419D02*
X140225312Y-114624800D01*
X141272931Y-114672419D02*
X141177693Y-114624800D01*
X141177693Y-114624800D02*
X141130074Y-114529561D01*
X141130074Y-114529561D02*
X141130074Y-113672419D01*
X142082455Y-114672419D02*
X142082455Y-114148609D01*
X142082455Y-114148609D02*
X142034836Y-114053371D01*
X142034836Y-114053371D02*
X141939598Y-114005752D01*
X141939598Y-114005752D02*
X141749122Y-114005752D01*
X141749122Y-114005752D02*
X141653884Y-114053371D01*
X142082455Y-114624800D02*
X141987217Y-114672419D01*
X141987217Y-114672419D02*
X141749122Y-114672419D01*
X141749122Y-114672419D02*
X141653884Y-114624800D01*
X141653884Y-114624800D02*
X141606265Y-114529561D01*
X141606265Y-114529561D02*
X141606265Y-114434323D01*
X141606265Y-114434323D02*
X141653884Y-114339085D01*
X141653884Y-114339085D02*
X141749122Y-114291466D01*
X141749122Y-114291466D02*
X141987217Y-114291466D01*
X141987217Y-114291466D02*
X142082455Y-114243847D01*
X142463408Y-114005752D02*
X142701503Y-114672419D01*
X142939598Y-114005752D02*
X142701503Y-114672419D01*
X142701503Y-114672419D02*
X142606265Y-114910514D01*
X142606265Y-114910514D02*
X142558646Y-114958133D01*
X142558646Y-114958133D02*
X142463408Y-115005752D01*
X133511027Y-116892419D02*
X134082455Y-116892419D01*
X133796741Y-117892419D02*
X133796741Y-116892419D01*
X134558646Y-117892419D02*
X134463408Y-117844800D01*
X134463408Y-117844800D02*
X134415789Y-117797180D01*
X134415789Y-117797180D02*
X134368170Y-117701942D01*
X134368170Y-117701942D02*
X134368170Y-117416228D01*
X134368170Y-117416228D02*
X134415789Y-117320990D01*
X134415789Y-117320990D02*
X134463408Y-117273371D01*
X134463408Y-117273371D02*
X134558646Y-117225752D01*
X134558646Y-117225752D02*
X134701503Y-117225752D01*
X134701503Y-117225752D02*
X134796741Y-117273371D01*
X134796741Y-117273371D02*
X134844360Y-117320990D01*
X134844360Y-117320990D02*
X134891979Y-117416228D01*
X134891979Y-117416228D02*
X134891979Y-117701942D01*
X134891979Y-117701942D02*
X134844360Y-117797180D01*
X134844360Y-117797180D02*
X134796741Y-117844800D01*
X134796741Y-117844800D02*
X134701503Y-117892419D01*
X134701503Y-117892419D02*
X134558646Y-117892419D01*
X136034837Y-117844800D02*
X136130075Y-117892419D01*
X136130075Y-117892419D02*
X136320551Y-117892419D01*
X136320551Y-117892419D02*
X136415789Y-117844800D01*
X136415789Y-117844800D02*
X136463408Y-117749561D01*
X136463408Y-117749561D02*
X136463408Y-117701942D01*
X136463408Y-117701942D02*
X136415789Y-117606704D01*
X136415789Y-117606704D02*
X136320551Y-117559085D01*
X136320551Y-117559085D02*
X136177694Y-117559085D01*
X136177694Y-117559085D02*
X136082456Y-117511466D01*
X136082456Y-117511466D02*
X136034837Y-117416228D01*
X136034837Y-117416228D02*
X136034837Y-117368609D01*
X136034837Y-117368609D02*
X136082456Y-117273371D01*
X136082456Y-117273371D02*
X136177694Y-117225752D01*
X136177694Y-117225752D02*
X136320551Y-117225752D01*
X136320551Y-117225752D02*
X136415789Y-117273371D01*
X137272932Y-117844800D02*
X137177694Y-117892419D01*
X137177694Y-117892419D02*
X136987218Y-117892419D01*
X136987218Y-117892419D02*
X136891980Y-117844800D01*
X136891980Y-117844800D02*
X136844361Y-117749561D01*
X136844361Y-117749561D02*
X136844361Y-117368609D01*
X136844361Y-117368609D02*
X136891980Y-117273371D01*
X136891980Y-117273371D02*
X136987218Y-117225752D01*
X136987218Y-117225752D02*
X137177694Y-117225752D01*
X137177694Y-117225752D02*
X137272932Y-117273371D01*
X137272932Y-117273371D02*
X137320551Y-117368609D01*
X137320551Y-117368609D02*
X137320551Y-117463847D01*
X137320551Y-117463847D02*
X136844361Y-117559085D01*
X137606266Y-117225752D02*
X137987218Y-117225752D01*
X137749123Y-116892419D02*
X137749123Y-117749561D01*
X137749123Y-117749561D02*
X137796742Y-117844800D01*
X137796742Y-117844800D02*
X137891980Y-117892419D01*
X137891980Y-117892419D02*
X137987218Y-117892419D01*
X138939600Y-117225752D02*
X139320552Y-117225752D01*
X139082457Y-116892419D02*
X139082457Y-117749561D01*
X139082457Y-117749561D02*
X139130076Y-117844800D01*
X139130076Y-117844800D02*
X139225314Y-117892419D01*
X139225314Y-117892419D02*
X139320552Y-117892419D01*
X139653886Y-117892419D02*
X139653886Y-117225752D01*
X139653886Y-116892419D02*
X139606267Y-116940038D01*
X139606267Y-116940038D02*
X139653886Y-116987657D01*
X139653886Y-116987657D02*
X139701505Y-116940038D01*
X139701505Y-116940038D02*
X139653886Y-116892419D01*
X139653886Y-116892419D02*
X139653886Y-116987657D01*
X140130076Y-117892419D02*
X140130076Y-117225752D01*
X140130076Y-117320990D02*
X140177695Y-117273371D01*
X140177695Y-117273371D02*
X140272933Y-117225752D01*
X140272933Y-117225752D02*
X140415790Y-117225752D01*
X140415790Y-117225752D02*
X140511028Y-117273371D01*
X140511028Y-117273371D02*
X140558647Y-117368609D01*
X140558647Y-117368609D02*
X140558647Y-117892419D01*
X140558647Y-117368609D02*
X140606266Y-117273371D01*
X140606266Y-117273371D02*
X140701504Y-117225752D01*
X140701504Y-117225752D02*
X140844361Y-117225752D01*
X140844361Y-117225752D02*
X140939600Y-117273371D01*
X140939600Y-117273371D02*
X140987219Y-117368609D01*
X140987219Y-117368609D02*
X140987219Y-117892419D01*
X141844361Y-117844800D02*
X141749123Y-117892419D01*
X141749123Y-117892419D02*
X141558647Y-117892419D01*
X141558647Y-117892419D02*
X141463409Y-117844800D01*
X141463409Y-117844800D02*
X141415790Y-117749561D01*
X141415790Y-117749561D02*
X141415790Y-117368609D01*
X141415790Y-117368609D02*
X141463409Y-117273371D01*
X141463409Y-117273371D02*
X141558647Y-117225752D01*
X141558647Y-117225752D02*
X141749123Y-117225752D01*
X141749123Y-117225752D02*
X141844361Y-117273371D01*
X141844361Y-117273371D02*
X141891980Y-117368609D01*
X141891980Y-117368609D02*
X141891980Y-117463847D01*
X141891980Y-117463847D02*
X141415790Y-117559085D01*
X142320552Y-117797180D02*
X142368171Y-117844800D01*
X142368171Y-117844800D02*
X142320552Y-117892419D01*
X142320552Y-117892419D02*
X142272933Y-117844800D01*
X142272933Y-117844800D02*
X142320552Y-117797180D01*
X142320552Y-117797180D02*
X142320552Y-117892419D01*
X142320552Y-117273371D02*
X142368171Y-117320990D01*
X142368171Y-117320990D02*
X142320552Y-117368609D01*
X142320552Y-117368609D02*
X142272933Y-117320990D01*
X142272933Y-117320990D02*
X142320552Y-117273371D01*
X142320552Y-117273371D02*
X142320552Y-117368609D01*
X133653884Y-119502419D02*
X133653884Y-118502419D01*
X133653884Y-118502419D02*
X134034836Y-118502419D01*
X134034836Y-118502419D02*
X134130074Y-118550038D01*
X134130074Y-118550038D02*
X134177693Y-118597657D01*
X134177693Y-118597657D02*
X134225312Y-118692895D01*
X134225312Y-118692895D02*
X134225312Y-118835752D01*
X134225312Y-118835752D02*
X134177693Y-118930990D01*
X134177693Y-118930990D02*
X134130074Y-118978609D01*
X134130074Y-118978609D02*
X134034836Y-119026228D01*
X134034836Y-119026228D02*
X133653884Y-119026228D01*
X134653884Y-119502419D02*
X134653884Y-118835752D01*
X134653884Y-119026228D02*
X134701503Y-118930990D01*
X134701503Y-118930990D02*
X134749122Y-118883371D01*
X134749122Y-118883371D02*
X134844360Y-118835752D01*
X134844360Y-118835752D02*
X134939598Y-118835752D01*
X135653884Y-119454800D02*
X135558646Y-119502419D01*
X135558646Y-119502419D02*
X135368170Y-119502419D01*
X135368170Y-119502419D02*
X135272932Y-119454800D01*
X135272932Y-119454800D02*
X135225313Y-119359561D01*
X135225313Y-119359561D02*
X135225313Y-118978609D01*
X135225313Y-118978609D02*
X135272932Y-118883371D01*
X135272932Y-118883371D02*
X135368170Y-118835752D01*
X135368170Y-118835752D02*
X135558646Y-118835752D01*
X135558646Y-118835752D02*
X135653884Y-118883371D01*
X135653884Y-118883371D02*
X135701503Y-118978609D01*
X135701503Y-118978609D02*
X135701503Y-119073847D01*
X135701503Y-119073847D02*
X135225313Y-119169085D01*
X136082456Y-119454800D02*
X136177694Y-119502419D01*
X136177694Y-119502419D02*
X136368170Y-119502419D01*
X136368170Y-119502419D02*
X136463408Y-119454800D01*
X136463408Y-119454800D02*
X136511027Y-119359561D01*
X136511027Y-119359561D02*
X136511027Y-119311942D01*
X136511027Y-119311942D02*
X136463408Y-119216704D01*
X136463408Y-119216704D02*
X136368170Y-119169085D01*
X136368170Y-119169085D02*
X136225313Y-119169085D01*
X136225313Y-119169085D02*
X136130075Y-119121466D01*
X136130075Y-119121466D02*
X136082456Y-119026228D01*
X136082456Y-119026228D02*
X136082456Y-118978609D01*
X136082456Y-118978609D02*
X136130075Y-118883371D01*
X136130075Y-118883371D02*
X136225313Y-118835752D01*
X136225313Y-118835752D02*
X136368170Y-118835752D01*
X136368170Y-118835752D02*
X136463408Y-118883371D01*
X136891980Y-119454800D02*
X136987218Y-119502419D01*
X136987218Y-119502419D02*
X137177694Y-119502419D01*
X137177694Y-119502419D02*
X137272932Y-119454800D01*
X137272932Y-119454800D02*
X137320551Y-119359561D01*
X137320551Y-119359561D02*
X137320551Y-119311942D01*
X137320551Y-119311942D02*
X137272932Y-119216704D01*
X137272932Y-119216704D02*
X137177694Y-119169085D01*
X137177694Y-119169085D02*
X137034837Y-119169085D01*
X137034837Y-119169085D02*
X136939599Y-119121466D01*
X136939599Y-119121466D02*
X136891980Y-119026228D01*
X136891980Y-119026228D02*
X136891980Y-118978609D01*
X136891980Y-118978609D02*
X136939599Y-118883371D01*
X136939599Y-118883371D02*
X137034837Y-118835752D01*
X137034837Y-118835752D02*
X137177694Y-118835752D01*
X137177694Y-118835752D02*
X137272932Y-118883371D01*
X138511028Y-119502419D02*
X138511028Y-118502419D01*
X138511028Y-118978609D02*
X139082456Y-118978609D01*
X139082456Y-119502419D02*
X139082456Y-118502419D01*
X139701504Y-119502419D02*
X139606266Y-119454800D01*
X139606266Y-119454800D02*
X139558647Y-119407180D01*
X139558647Y-119407180D02*
X139511028Y-119311942D01*
X139511028Y-119311942D02*
X139511028Y-119026228D01*
X139511028Y-119026228D02*
X139558647Y-118930990D01*
X139558647Y-118930990D02*
X139606266Y-118883371D01*
X139606266Y-118883371D02*
X139701504Y-118835752D01*
X139701504Y-118835752D02*
X139844361Y-118835752D01*
X139844361Y-118835752D02*
X139939599Y-118883371D01*
X139939599Y-118883371D02*
X139987218Y-118930990D01*
X139987218Y-118930990D02*
X140034837Y-119026228D01*
X140034837Y-119026228D02*
X140034837Y-119311942D01*
X140034837Y-119311942D02*
X139987218Y-119407180D01*
X139987218Y-119407180D02*
X139939599Y-119454800D01*
X139939599Y-119454800D02*
X139844361Y-119502419D01*
X139844361Y-119502419D02*
X139701504Y-119502419D01*
X140891980Y-118835752D02*
X140891980Y-119502419D01*
X140463409Y-118835752D02*
X140463409Y-119359561D01*
X140463409Y-119359561D02*
X140511028Y-119454800D01*
X140511028Y-119454800D02*
X140606266Y-119502419D01*
X140606266Y-119502419D02*
X140749123Y-119502419D01*
X140749123Y-119502419D02*
X140844361Y-119454800D01*
X140844361Y-119454800D02*
X140891980Y-119407180D01*
X141368171Y-119502419D02*
X141368171Y-118835752D01*
X141368171Y-119026228D02*
X141415790Y-118930990D01*
X141415790Y-118930990D02*
X141463409Y-118883371D01*
X141463409Y-118883371D02*
X141558647Y-118835752D01*
X141558647Y-118835752D02*
X141653885Y-118835752D01*
X142891981Y-119502419D02*
X142796743Y-119454800D01*
X142796743Y-119454800D02*
X142749124Y-119407180D01*
X142749124Y-119407180D02*
X142701505Y-119311942D01*
X142701505Y-119311942D02*
X142701505Y-119026228D01*
X142701505Y-119026228D02*
X142749124Y-118930990D01*
X142749124Y-118930990D02*
X142796743Y-118883371D01*
X142796743Y-118883371D02*
X142891981Y-118835752D01*
X142891981Y-118835752D02*
X143034838Y-118835752D01*
X143034838Y-118835752D02*
X143130076Y-118883371D01*
X143130076Y-118883371D02*
X143177695Y-118930990D01*
X143177695Y-118930990D02*
X143225314Y-119026228D01*
X143225314Y-119026228D02*
X143225314Y-119311942D01*
X143225314Y-119311942D02*
X143177695Y-119407180D01*
X143177695Y-119407180D02*
X143130076Y-119454800D01*
X143130076Y-119454800D02*
X143034838Y-119502419D01*
X143034838Y-119502419D02*
X142891981Y-119502419D01*
X143653886Y-119502419D02*
X143653886Y-118835752D01*
X143653886Y-119026228D02*
X143701505Y-118930990D01*
X143701505Y-118930990D02*
X143749124Y-118883371D01*
X143749124Y-118883371D02*
X143844362Y-118835752D01*
X143844362Y-118835752D02*
X143939600Y-118835752D01*
X145034839Y-119502419D02*
X145034839Y-118502419D01*
X145034839Y-118502419D02*
X145368172Y-119216704D01*
X145368172Y-119216704D02*
X145701505Y-118502419D01*
X145701505Y-118502419D02*
X145701505Y-119502419D01*
X146177696Y-119502419D02*
X146177696Y-118835752D01*
X146177696Y-118502419D02*
X146130077Y-118550038D01*
X146130077Y-118550038D02*
X146177696Y-118597657D01*
X146177696Y-118597657D02*
X146225315Y-118550038D01*
X146225315Y-118550038D02*
X146177696Y-118502419D01*
X146177696Y-118502419D02*
X146177696Y-118597657D01*
X146653886Y-118835752D02*
X146653886Y-119502419D01*
X146653886Y-118930990D02*
X146701505Y-118883371D01*
X146701505Y-118883371D02*
X146796743Y-118835752D01*
X146796743Y-118835752D02*
X146939600Y-118835752D01*
X146939600Y-118835752D02*
X147034838Y-118883371D01*
X147034838Y-118883371D02*
X147082457Y-118978609D01*
X147082457Y-118978609D02*
X147082457Y-119502419D01*
X147987219Y-118835752D02*
X147987219Y-119502419D01*
X147558648Y-118835752D02*
X147558648Y-119359561D01*
X147558648Y-119359561D02*
X147606267Y-119454800D01*
X147606267Y-119454800D02*
X147701505Y-119502419D01*
X147701505Y-119502419D02*
X147844362Y-119502419D01*
X147844362Y-119502419D02*
X147939600Y-119454800D01*
X147939600Y-119454800D02*
X147987219Y-119407180D01*
X148320553Y-118835752D02*
X148701505Y-118835752D01*
X148463410Y-118502419D02*
X148463410Y-119359561D01*
X148463410Y-119359561D02*
X148511029Y-119454800D01*
X148511029Y-119454800D02*
X148606267Y-119502419D01*
X148606267Y-119502419D02*
X148701505Y-119502419D01*
X149415791Y-119454800D02*
X149320553Y-119502419D01*
X149320553Y-119502419D02*
X149130077Y-119502419D01*
X149130077Y-119502419D02*
X149034839Y-119454800D01*
X149034839Y-119454800D02*
X148987220Y-119359561D01*
X148987220Y-119359561D02*
X148987220Y-118978609D01*
X148987220Y-118978609D02*
X149034839Y-118883371D01*
X149034839Y-118883371D02*
X149130077Y-118835752D01*
X149130077Y-118835752D02*
X149320553Y-118835752D01*
X149320553Y-118835752D02*
X149415791Y-118883371D01*
X149415791Y-118883371D02*
X149463410Y-118978609D01*
X149463410Y-118978609D02*
X149463410Y-119073847D01*
X149463410Y-119073847D02*
X148987220Y-119169085D01*
X150606268Y-119454800D02*
X150701506Y-119502419D01*
X150701506Y-119502419D02*
X150891982Y-119502419D01*
X150891982Y-119502419D02*
X150987220Y-119454800D01*
X150987220Y-119454800D02*
X151034839Y-119359561D01*
X151034839Y-119359561D02*
X151034839Y-119311942D01*
X151034839Y-119311942D02*
X150987220Y-119216704D01*
X150987220Y-119216704D02*
X150891982Y-119169085D01*
X150891982Y-119169085D02*
X150749125Y-119169085D01*
X150749125Y-119169085D02*
X150653887Y-119121466D01*
X150653887Y-119121466D02*
X150606268Y-119026228D01*
X150606268Y-119026228D02*
X150606268Y-118978609D01*
X150606268Y-118978609D02*
X150653887Y-118883371D01*
X150653887Y-118883371D02*
X150749125Y-118835752D01*
X150749125Y-118835752D02*
X150891982Y-118835752D01*
X150891982Y-118835752D02*
X150987220Y-118883371D01*
X151844363Y-119454800D02*
X151749125Y-119502419D01*
X151749125Y-119502419D02*
X151558649Y-119502419D01*
X151558649Y-119502419D02*
X151463411Y-119454800D01*
X151463411Y-119454800D02*
X151415792Y-119359561D01*
X151415792Y-119359561D02*
X151415792Y-118978609D01*
X151415792Y-118978609D02*
X151463411Y-118883371D01*
X151463411Y-118883371D02*
X151558649Y-118835752D01*
X151558649Y-118835752D02*
X151749125Y-118835752D01*
X151749125Y-118835752D02*
X151844363Y-118883371D01*
X151844363Y-118883371D02*
X151891982Y-118978609D01*
X151891982Y-118978609D02*
X151891982Y-119073847D01*
X151891982Y-119073847D02*
X151415792Y-119169085D01*
X152177697Y-118835752D02*
X152558649Y-118835752D01*
X152320554Y-118502419D02*
X152320554Y-119359561D01*
X152320554Y-119359561D02*
X152368173Y-119454800D01*
X152368173Y-119454800D02*
X152463411Y-119502419D01*
X152463411Y-119502419D02*
X152558649Y-119502419D01*
X153653888Y-119502419D02*
X153653888Y-118502419D01*
X153653888Y-118883371D02*
X153749126Y-118835752D01*
X153749126Y-118835752D02*
X153939602Y-118835752D01*
X153939602Y-118835752D02*
X154034840Y-118883371D01*
X154034840Y-118883371D02*
X154082459Y-118930990D01*
X154082459Y-118930990D02*
X154130078Y-119026228D01*
X154130078Y-119026228D02*
X154130078Y-119311942D01*
X154130078Y-119311942D02*
X154082459Y-119407180D01*
X154082459Y-119407180D02*
X154034840Y-119454800D01*
X154034840Y-119454800D02*
X153939602Y-119502419D01*
X153939602Y-119502419D02*
X153749126Y-119502419D01*
X153749126Y-119502419D02*
X153653888Y-119454800D01*
X154987221Y-118835752D02*
X154987221Y-119502419D01*
X154558650Y-118835752D02*
X154558650Y-119359561D01*
X154558650Y-119359561D02*
X154606269Y-119454800D01*
X154606269Y-119454800D02*
X154701507Y-119502419D01*
X154701507Y-119502419D02*
X154844364Y-119502419D01*
X154844364Y-119502419D02*
X154939602Y-119454800D01*
X154939602Y-119454800D02*
X154987221Y-119407180D01*
X155320555Y-118835752D02*
X155701507Y-118835752D01*
X155463412Y-118502419D02*
X155463412Y-119359561D01*
X155463412Y-119359561D02*
X155511031Y-119454800D01*
X155511031Y-119454800D02*
X155606269Y-119502419D01*
X155606269Y-119502419D02*
X155701507Y-119502419D01*
X155891984Y-118835752D02*
X156272936Y-118835752D01*
X156034841Y-118502419D02*
X156034841Y-119359561D01*
X156034841Y-119359561D02*
X156082460Y-119454800D01*
X156082460Y-119454800D02*
X156177698Y-119502419D01*
X156177698Y-119502419D02*
X156272936Y-119502419D01*
X156749127Y-119502419D02*
X156653889Y-119454800D01*
X156653889Y-119454800D02*
X156606270Y-119407180D01*
X156606270Y-119407180D02*
X156558651Y-119311942D01*
X156558651Y-119311942D02*
X156558651Y-119026228D01*
X156558651Y-119026228D02*
X156606270Y-118930990D01*
X156606270Y-118930990D02*
X156653889Y-118883371D01*
X156653889Y-118883371D02*
X156749127Y-118835752D01*
X156749127Y-118835752D02*
X156891984Y-118835752D01*
X156891984Y-118835752D02*
X156987222Y-118883371D01*
X156987222Y-118883371D02*
X157034841Y-118930990D01*
X157034841Y-118930990D02*
X157082460Y-119026228D01*
X157082460Y-119026228D02*
X157082460Y-119311942D01*
X157082460Y-119311942D02*
X157034841Y-119407180D01*
X157034841Y-119407180D02*
X156987222Y-119454800D01*
X156987222Y-119454800D02*
X156891984Y-119502419D01*
X156891984Y-119502419D02*
X156749127Y-119502419D01*
X157511032Y-118835752D02*
X157511032Y-119502419D01*
X157511032Y-118930990D02*
X157558651Y-118883371D01*
X157558651Y-118883371D02*
X157653889Y-118835752D01*
X157653889Y-118835752D02*
X157796746Y-118835752D01*
X157796746Y-118835752D02*
X157891984Y-118883371D01*
X157891984Y-118883371D02*
X157939603Y-118978609D01*
X157939603Y-118978609D02*
X157939603Y-119502419D01*
X159034842Y-118835752D02*
X159415794Y-118835752D01*
X159177699Y-118502419D02*
X159177699Y-119359561D01*
X159177699Y-119359561D02*
X159225318Y-119454800D01*
X159225318Y-119454800D02*
X159320556Y-119502419D01*
X159320556Y-119502419D02*
X159415794Y-119502419D01*
X159891985Y-119502419D02*
X159796747Y-119454800D01*
X159796747Y-119454800D02*
X159749128Y-119407180D01*
X159749128Y-119407180D02*
X159701509Y-119311942D01*
X159701509Y-119311942D02*
X159701509Y-119026228D01*
X159701509Y-119026228D02*
X159749128Y-118930990D01*
X159749128Y-118930990D02*
X159796747Y-118883371D01*
X159796747Y-118883371D02*
X159891985Y-118835752D01*
X159891985Y-118835752D02*
X160034842Y-118835752D01*
X160034842Y-118835752D02*
X160130080Y-118883371D01*
X160130080Y-118883371D02*
X160177699Y-118930990D01*
X160177699Y-118930990D02*
X160225318Y-119026228D01*
X160225318Y-119026228D02*
X160225318Y-119311942D01*
X160225318Y-119311942D02*
X160177699Y-119407180D01*
X160177699Y-119407180D02*
X160130080Y-119454800D01*
X160130080Y-119454800D02*
X160034842Y-119502419D01*
X160034842Y-119502419D02*
X159891985Y-119502419D01*
X161415795Y-119502419D02*
X161415795Y-118835752D01*
X161415795Y-118502419D02*
X161368176Y-118550038D01*
X161368176Y-118550038D02*
X161415795Y-118597657D01*
X161415795Y-118597657D02*
X161463414Y-118550038D01*
X161463414Y-118550038D02*
X161415795Y-118502419D01*
X161415795Y-118502419D02*
X161415795Y-118597657D01*
X161891985Y-118835752D02*
X161891985Y-119502419D01*
X161891985Y-118930990D02*
X161939604Y-118883371D01*
X161939604Y-118883371D02*
X162034842Y-118835752D01*
X162034842Y-118835752D02*
X162177699Y-118835752D01*
X162177699Y-118835752D02*
X162272937Y-118883371D01*
X162272937Y-118883371D02*
X162320556Y-118978609D01*
X162320556Y-118978609D02*
X162320556Y-119502419D01*
X163225318Y-119454800D02*
X163130080Y-119502419D01*
X163130080Y-119502419D02*
X162939604Y-119502419D01*
X162939604Y-119502419D02*
X162844366Y-119454800D01*
X162844366Y-119454800D02*
X162796747Y-119407180D01*
X162796747Y-119407180D02*
X162749128Y-119311942D01*
X162749128Y-119311942D02*
X162749128Y-119026228D01*
X162749128Y-119026228D02*
X162796747Y-118930990D01*
X162796747Y-118930990D02*
X162844366Y-118883371D01*
X162844366Y-118883371D02*
X162939604Y-118835752D01*
X162939604Y-118835752D02*
X163130080Y-118835752D01*
X163130080Y-118835752D02*
X163225318Y-118883371D01*
X163653890Y-119502419D02*
X163653890Y-118835752D01*
X163653890Y-119026228D02*
X163701509Y-118930990D01*
X163701509Y-118930990D02*
X163749128Y-118883371D01*
X163749128Y-118883371D02*
X163844366Y-118835752D01*
X163844366Y-118835752D02*
X163939604Y-118835752D01*
X164653890Y-119454800D02*
X164558652Y-119502419D01*
X164558652Y-119502419D02*
X164368176Y-119502419D01*
X164368176Y-119502419D02*
X164272938Y-119454800D01*
X164272938Y-119454800D02*
X164225319Y-119359561D01*
X164225319Y-119359561D02*
X164225319Y-118978609D01*
X164225319Y-118978609D02*
X164272938Y-118883371D01*
X164272938Y-118883371D02*
X164368176Y-118835752D01*
X164368176Y-118835752D02*
X164558652Y-118835752D01*
X164558652Y-118835752D02*
X164653890Y-118883371D01*
X164653890Y-118883371D02*
X164701509Y-118978609D01*
X164701509Y-118978609D02*
X164701509Y-119073847D01*
X164701509Y-119073847D02*
X164225319Y-119169085D01*
X165130081Y-119502419D02*
X165130081Y-118835752D01*
X165130081Y-118930990D02*
X165177700Y-118883371D01*
X165177700Y-118883371D02*
X165272938Y-118835752D01*
X165272938Y-118835752D02*
X165415795Y-118835752D01*
X165415795Y-118835752D02*
X165511033Y-118883371D01*
X165511033Y-118883371D02*
X165558652Y-118978609D01*
X165558652Y-118978609D02*
X165558652Y-119502419D01*
X165558652Y-118978609D02*
X165606271Y-118883371D01*
X165606271Y-118883371D02*
X165701509Y-118835752D01*
X165701509Y-118835752D02*
X165844366Y-118835752D01*
X165844366Y-118835752D02*
X165939605Y-118883371D01*
X165939605Y-118883371D02*
X165987224Y-118978609D01*
X165987224Y-118978609D02*
X165987224Y-119502419D01*
X166844366Y-119454800D02*
X166749128Y-119502419D01*
X166749128Y-119502419D02*
X166558652Y-119502419D01*
X166558652Y-119502419D02*
X166463414Y-119454800D01*
X166463414Y-119454800D02*
X166415795Y-119359561D01*
X166415795Y-119359561D02*
X166415795Y-118978609D01*
X166415795Y-118978609D02*
X166463414Y-118883371D01*
X166463414Y-118883371D02*
X166558652Y-118835752D01*
X166558652Y-118835752D02*
X166749128Y-118835752D01*
X166749128Y-118835752D02*
X166844366Y-118883371D01*
X166844366Y-118883371D02*
X166891985Y-118978609D01*
X166891985Y-118978609D02*
X166891985Y-119073847D01*
X166891985Y-119073847D02*
X166415795Y-119169085D01*
X167320557Y-118835752D02*
X167320557Y-119502419D01*
X167320557Y-118930990D02*
X167368176Y-118883371D01*
X167368176Y-118883371D02*
X167463414Y-118835752D01*
X167463414Y-118835752D02*
X167606271Y-118835752D01*
X167606271Y-118835752D02*
X167701509Y-118883371D01*
X167701509Y-118883371D02*
X167749128Y-118978609D01*
X167749128Y-118978609D02*
X167749128Y-119502419D01*
X168082462Y-118835752D02*
X168463414Y-118835752D01*
X168225319Y-118502419D02*
X168225319Y-119359561D01*
X168225319Y-119359561D02*
X168272938Y-119454800D01*
X168272938Y-119454800D02*
X168368176Y-119502419D01*
X168368176Y-119502419D02*
X168463414Y-119502419D01*
X133511027Y-121722419D02*
X134082455Y-121722419D01*
X133796741Y-122722419D02*
X133796741Y-121722419D01*
X134558646Y-122722419D02*
X134463408Y-122674800D01*
X134463408Y-122674800D02*
X134415789Y-122627180D01*
X134415789Y-122627180D02*
X134368170Y-122531942D01*
X134368170Y-122531942D02*
X134368170Y-122246228D01*
X134368170Y-122246228D02*
X134415789Y-122150990D01*
X134415789Y-122150990D02*
X134463408Y-122103371D01*
X134463408Y-122103371D02*
X134558646Y-122055752D01*
X134558646Y-122055752D02*
X134701503Y-122055752D01*
X134701503Y-122055752D02*
X134796741Y-122103371D01*
X134796741Y-122103371D02*
X134844360Y-122150990D01*
X134844360Y-122150990D02*
X134891979Y-122246228D01*
X134891979Y-122246228D02*
X134891979Y-122531942D01*
X134891979Y-122531942D02*
X134844360Y-122627180D01*
X134844360Y-122627180D02*
X134796741Y-122674800D01*
X134796741Y-122674800D02*
X134701503Y-122722419D01*
X134701503Y-122722419D02*
X134558646Y-122722419D01*
X136511027Y-122722419D02*
X136511027Y-121722419D01*
X136511027Y-122674800D02*
X136415789Y-122722419D01*
X136415789Y-122722419D02*
X136225313Y-122722419D01*
X136225313Y-122722419D02*
X136130075Y-122674800D01*
X136130075Y-122674800D02*
X136082456Y-122627180D01*
X136082456Y-122627180D02*
X136034837Y-122531942D01*
X136034837Y-122531942D02*
X136034837Y-122246228D01*
X136034837Y-122246228D02*
X136082456Y-122150990D01*
X136082456Y-122150990D02*
X136130075Y-122103371D01*
X136130075Y-122103371D02*
X136225313Y-122055752D01*
X136225313Y-122055752D02*
X136415789Y-122055752D01*
X136415789Y-122055752D02*
X136511027Y-122103371D01*
X136987218Y-122722419D02*
X136987218Y-122055752D01*
X136987218Y-121722419D02*
X136939599Y-121770038D01*
X136939599Y-121770038D02*
X136987218Y-121817657D01*
X136987218Y-121817657D02*
X137034837Y-121770038D01*
X137034837Y-121770038D02*
X136987218Y-121722419D01*
X136987218Y-121722419D02*
X136987218Y-121817657D01*
X137415789Y-122674800D02*
X137511027Y-122722419D01*
X137511027Y-122722419D02*
X137701503Y-122722419D01*
X137701503Y-122722419D02*
X137796741Y-122674800D01*
X137796741Y-122674800D02*
X137844360Y-122579561D01*
X137844360Y-122579561D02*
X137844360Y-122531942D01*
X137844360Y-122531942D02*
X137796741Y-122436704D01*
X137796741Y-122436704D02*
X137701503Y-122389085D01*
X137701503Y-122389085D02*
X137558646Y-122389085D01*
X137558646Y-122389085D02*
X137463408Y-122341466D01*
X137463408Y-122341466D02*
X137415789Y-122246228D01*
X137415789Y-122246228D02*
X137415789Y-122198609D01*
X137415789Y-122198609D02*
X137463408Y-122103371D01*
X137463408Y-122103371D02*
X137558646Y-122055752D01*
X137558646Y-122055752D02*
X137701503Y-122055752D01*
X137701503Y-122055752D02*
X137796741Y-122103371D01*
X138272932Y-122055752D02*
X138272932Y-123055752D01*
X138272932Y-122103371D02*
X138368170Y-122055752D01*
X138368170Y-122055752D02*
X138558646Y-122055752D01*
X138558646Y-122055752D02*
X138653884Y-122103371D01*
X138653884Y-122103371D02*
X138701503Y-122150990D01*
X138701503Y-122150990D02*
X138749122Y-122246228D01*
X138749122Y-122246228D02*
X138749122Y-122531942D01*
X138749122Y-122531942D02*
X138701503Y-122627180D01*
X138701503Y-122627180D02*
X138653884Y-122674800D01*
X138653884Y-122674800D02*
X138558646Y-122722419D01*
X138558646Y-122722419D02*
X138368170Y-122722419D01*
X138368170Y-122722419D02*
X138272932Y-122674800D01*
X139320551Y-122722419D02*
X139225313Y-122674800D01*
X139225313Y-122674800D02*
X139177694Y-122579561D01*
X139177694Y-122579561D02*
X139177694Y-121722419D01*
X140130075Y-122722419D02*
X140130075Y-122198609D01*
X140130075Y-122198609D02*
X140082456Y-122103371D01*
X140082456Y-122103371D02*
X139987218Y-122055752D01*
X139987218Y-122055752D02*
X139796742Y-122055752D01*
X139796742Y-122055752D02*
X139701504Y-122103371D01*
X140130075Y-122674800D02*
X140034837Y-122722419D01*
X140034837Y-122722419D02*
X139796742Y-122722419D01*
X139796742Y-122722419D02*
X139701504Y-122674800D01*
X139701504Y-122674800D02*
X139653885Y-122579561D01*
X139653885Y-122579561D02*
X139653885Y-122484323D01*
X139653885Y-122484323D02*
X139701504Y-122389085D01*
X139701504Y-122389085D02*
X139796742Y-122341466D01*
X139796742Y-122341466D02*
X140034837Y-122341466D01*
X140034837Y-122341466D02*
X140130075Y-122293847D01*
X140511028Y-122055752D02*
X140749123Y-122722419D01*
X140987218Y-122055752D02*
X140749123Y-122722419D01*
X140749123Y-122722419D02*
X140653885Y-122960514D01*
X140653885Y-122960514D02*
X140606266Y-123008133D01*
X140606266Y-123008133D02*
X140511028Y-123055752D01*
X141987219Y-122055752D02*
X142368171Y-122055752D01*
X142130076Y-121722419D02*
X142130076Y-122579561D01*
X142130076Y-122579561D02*
X142177695Y-122674800D01*
X142177695Y-122674800D02*
X142272933Y-122722419D01*
X142272933Y-122722419D02*
X142368171Y-122722419D01*
X142701505Y-122722419D02*
X142701505Y-122055752D01*
X142701505Y-121722419D02*
X142653886Y-121770038D01*
X142653886Y-121770038D02*
X142701505Y-121817657D01*
X142701505Y-121817657D02*
X142749124Y-121770038D01*
X142749124Y-121770038D02*
X142701505Y-121722419D01*
X142701505Y-121722419D02*
X142701505Y-121817657D01*
X143177695Y-122722419D02*
X143177695Y-122055752D01*
X143177695Y-122150990D02*
X143225314Y-122103371D01*
X143225314Y-122103371D02*
X143320552Y-122055752D01*
X143320552Y-122055752D02*
X143463409Y-122055752D01*
X143463409Y-122055752D02*
X143558647Y-122103371D01*
X143558647Y-122103371D02*
X143606266Y-122198609D01*
X143606266Y-122198609D02*
X143606266Y-122722419D01*
X143606266Y-122198609D02*
X143653885Y-122103371D01*
X143653885Y-122103371D02*
X143749123Y-122055752D01*
X143749123Y-122055752D02*
X143891980Y-122055752D01*
X143891980Y-122055752D02*
X143987219Y-122103371D01*
X143987219Y-122103371D02*
X144034838Y-122198609D01*
X144034838Y-122198609D02*
X144034838Y-122722419D01*
X144891980Y-122674800D02*
X144796742Y-122722419D01*
X144796742Y-122722419D02*
X144606266Y-122722419D01*
X144606266Y-122722419D02*
X144511028Y-122674800D01*
X144511028Y-122674800D02*
X144463409Y-122579561D01*
X144463409Y-122579561D02*
X144463409Y-122198609D01*
X144463409Y-122198609D02*
X144511028Y-122103371D01*
X144511028Y-122103371D02*
X144606266Y-122055752D01*
X144606266Y-122055752D02*
X144796742Y-122055752D01*
X144796742Y-122055752D02*
X144891980Y-122103371D01*
X144891980Y-122103371D02*
X144939599Y-122198609D01*
X144939599Y-122198609D02*
X144939599Y-122293847D01*
X144939599Y-122293847D02*
X144463409Y-122389085D01*
X145368171Y-122627180D02*
X145415790Y-122674800D01*
X145415790Y-122674800D02*
X145368171Y-122722419D01*
X145368171Y-122722419D02*
X145320552Y-122674800D01*
X145320552Y-122674800D02*
X145368171Y-122627180D01*
X145368171Y-122627180D02*
X145368171Y-122722419D01*
X145368171Y-122103371D02*
X145415790Y-122150990D01*
X145415790Y-122150990D02*
X145368171Y-122198609D01*
X145368171Y-122198609D02*
X145320552Y-122150990D01*
X145320552Y-122150990D02*
X145368171Y-122103371D01*
X145368171Y-122103371D02*
X145368171Y-122198609D01*
X133653884Y-124332419D02*
X133653884Y-123332419D01*
X133653884Y-123332419D02*
X134034836Y-123332419D01*
X134034836Y-123332419D02*
X134130074Y-123380038D01*
X134130074Y-123380038D02*
X134177693Y-123427657D01*
X134177693Y-123427657D02*
X134225312Y-123522895D01*
X134225312Y-123522895D02*
X134225312Y-123665752D01*
X134225312Y-123665752D02*
X134177693Y-123760990D01*
X134177693Y-123760990D02*
X134130074Y-123808609D01*
X134130074Y-123808609D02*
X134034836Y-123856228D01*
X134034836Y-123856228D02*
X133653884Y-123856228D01*
X134653884Y-124332419D02*
X134653884Y-123665752D01*
X134653884Y-123856228D02*
X134701503Y-123760990D01*
X134701503Y-123760990D02*
X134749122Y-123713371D01*
X134749122Y-123713371D02*
X134844360Y-123665752D01*
X134844360Y-123665752D02*
X134939598Y-123665752D01*
X135653884Y-124284800D02*
X135558646Y-124332419D01*
X135558646Y-124332419D02*
X135368170Y-124332419D01*
X135368170Y-124332419D02*
X135272932Y-124284800D01*
X135272932Y-124284800D02*
X135225313Y-124189561D01*
X135225313Y-124189561D02*
X135225313Y-123808609D01*
X135225313Y-123808609D02*
X135272932Y-123713371D01*
X135272932Y-123713371D02*
X135368170Y-123665752D01*
X135368170Y-123665752D02*
X135558646Y-123665752D01*
X135558646Y-123665752D02*
X135653884Y-123713371D01*
X135653884Y-123713371D02*
X135701503Y-123808609D01*
X135701503Y-123808609D02*
X135701503Y-123903847D01*
X135701503Y-123903847D02*
X135225313Y-123999085D01*
X136082456Y-124284800D02*
X136177694Y-124332419D01*
X136177694Y-124332419D02*
X136368170Y-124332419D01*
X136368170Y-124332419D02*
X136463408Y-124284800D01*
X136463408Y-124284800D02*
X136511027Y-124189561D01*
X136511027Y-124189561D02*
X136511027Y-124141942D01*
X136511027Y-124141942D02*
X136463408Y-124046704D01*
X136463408Y-124046704D02*
X136368170Y-123999085D01*
X136368170Y-123999085D02*
X136225313Y-123999085D01*
X136225313Y-123999085D02*
X136130075Y-123951466D01*
X136130075Y-123951466D02*
X136082456Y-123856228D01*
X136082456Y-123856228D02*
X136082456Y-123808609D01*
X136082456Y-123808609D02*
X136130075Y-123713371D01*
X136130075Y-123713371D02*
X136225313Y-123665752D01*
X136225313Y-123665752D02*
X136368170Y-123665752D01*
X136368170Y-123665752D02*
X136463408Y-123713371D01*
X136891980Y-124284800D02*
X136987218Y-124332419D01*
X136987218Y-124332419D02*
X137177694Y-124332419D01*
X137177694Y-124332419D02*
X137272932Y-124284800D01*
X137272932Y-124284800D02*
X137320551Y-124189561D01*
X137320551Y-124189561D02*
X137320551Y-124141942D01*
X137320551Y-124141942D02*
X137272932Y-124046704D01*
X137272932Y-124046704D02*
X137177694Y-123999085D01*
X137177694Y-123999085D02*
X137034837Y-123999085D01*
X137034837Y-123999085D02*
X136939599Y-123951466D01*
X136939599Y-123951466D02*
X136891980Y-123856228D01*
X136891980Y-123856228D02*
X136891980Y-123808609D01*
X136891980Y-123808609D02*
X136939599Y-123713371D01*
X136939599Y-123713371D02*
X137034837Y-123665752D01*
X137034837Y-123665752D02*
X137177694Y-123665752D01*
X137177694Y-123665752D02*
X137272932Y-123713371D01*
X138511028Y-124332419D02*
X138511028Y-123332419D01*
X138511028Y-123332419D02*
X138749123Y-123332419D01*
X138749123Y-123332419D02*
X138891980Y-123380038D01*
X138891980Y-123380038D02*
X138987218Y-123475276D01*
X138987218Y-123475276D02*
X139034837Y-123570514D01*
X139034837Y-123570514D02*
X139082456Y-123760990D01*
X139082456Y-123760990D02*
X139082456Y-123903847D01*
X139082456Y-123903847D02*
X139034837Y-124094323D01*
X139034837Y-124094323D02*
X138987218Y-124189561D01*
X138987218Y-124189561D02*
X138891980Y-124284800D01*
X138891980Y-124284800D02*
X138749123Y-124332419D01*
X138749123Y-124332419D02*
X138511028Y-124332419D01*
X139511028Y-124332419D02*
X139511028Y-123665752D01*
X139511028Y-123332419D02*
X139463409Y-123380038D01*
X139463409Y-123380038D02*
X139511028Y-123427657D01*
X139511028Y-123427657D02*
X139558647Y-123380038D01*
X139558647Y-123380038D02*
X139511028Y-123332419D01*
X139511028Y-123332419D02*
X139511028Y-123427657D01*
X139939599Y-124284800D02*
X140034837Y-124332419D01*
X140034837Y-124332419D02*
X140225313Y-124332419D01*
X140225313Y-124332419D02*
X140320551Y-124284800D01*
X140320551Y-124284800D02*
X140368170Y-124189561D01*
X140368170Y-124189561D02*
X140368170Y-124141942D01*
X140368170Y-124141942D02*
X140320551Y-124046704D01*
X140320551Y-124046704D02*
X140225313Y-123999085D01*
X140225313Y-123999085D02*
X140082456Y-123999085D01*
X140082456Y-123999085D02*
X139987218Y-123951466D01*
X139987218Y-123951466D02*
X139939599Y-123856228D01*
X139939599Y-123856228D02*
X139939599Y-123808609D01*
X139939599Y-123808609D02*
X139987218Y-123713371D01*
X139987218Y-123713371D02*
X140082456Y-123665752D01*
X140082456Y-123665752D02*
X140225313Y-123665752D01*
X140225313Y-123665752D02*
X140320551Y-123713371D01*
X140796742Y-123665752D02*
X140796742Y-124665752D01*
X140796742Y-123713371D02*
X140891980Y-123665752D01*
X140891980Y-123665752D02*
X141082456Y-123665752D01*
X141082456Y-123665752D02*
X141177694Y-123713371D01*
X141177694Y-123713371D02*
X141225313Y-123760990D01*
X141225313Y-123760990D02*
X141272932Y-123856228D01*
X141272932Y-123856228D02*
X141272932Y-124141942D01*
X141272932Y-124141942D02*
X141225313Y-124237180D01*
X141225313Y-124237180D02*
X141177694Y-124284800D01*
X141177694Y-124284800D02*
X141082456Y-124332419D01*
X141082456Y-124332419D02*
X140891980Y-124332419D01*
X140891980Y-124332419D02*
X140796742Y-124284800D01*
X141844361Y-124332419D02*
X141749123Y-124284800D01*
X141749123Y-124284800D02*
X141701504Y-124189561D01*
X141701504Y-124189561D02*
X141701504Y-123332419D01*
X142653885Y-124332419D02*
X142653885Y-123808609D01*
X142653885Y-123808609D02*
X142606266Y-123713371D01*
X142606266Y-123713371D02*
X142511028Y-123665752D01*
X142511028Y-123665752D02*
X142320552Y-123665752D01*
X142320552Y-123665752D02*
X142225314Y-123713371D01*
X142653885Y-124284800D02*
X142558647Y-124332419D01*
X142558647Y-124332419D02*
X142320552Y-124332419D01*
X142320552Y-124332419D02*
X142225314Y-124284800D01*
X142225314Y-124284800D02*
X142177695Y-124189561D01*
X142177695Y-124189561D02*
X142177695Y-124094323D01*
X142177695Y-124094323D02*
X142225314Y-123999085D01*
X142225314Y-123999085D02*
X142320552Y-123951466D01*
X142320552Y-123951466D02*
X142558647Y-123951466D01*
X142558647Y-123951466D02*
X142653885Y-123903847D01*
X143034838Y-123665752D02*
X143272933Y-124332419D01*
X143511028Y-123665752D02*
X143272933Y-124332419D01*
X143272933Y-124332419D02*
X143177695Y-124570514D01*
X143177695Y-124570514D02*
X143130076Y-124618133D01*
X143130076Y-124618133D02*
X143034838Y-124665752D01*
X144653886Y-124332419D02*
X144653886Y-123332419D01*
X144653886Y-123713371D02*
X144749124Y-123665752D01*
X144749124Y-123665752D02*
X144939600Y-123665752D01*
X144939600Y-123665752D02*
X145034838Y-123713371D01*
X145034838Y-123713371D02*
X145082457Y-123760990D01*
X145082457Y-123760990D02*
X145130076Y-123856228D01*
X145130076Y-123856228D02*
X145130076Y-124141942D01*
X145130076Y-124141942D02*
X145082457Y-124237180D01*
X145082457Y-124237180D02*
X145034838Y-124284800D01*
X145034838Y-124284800D02*
X144939600Y-124332419D01*
X144939600Y-124332419D02*
X144749124Y-124332419D01*
X144749124Y-124332419D02*
X144653886Y-124284800D01*
X145987219Y-123665752D02*
X145987219Y-124332419D01*
X145558648Y-123665752D02*
X145558648Y-124189561D01*
X145558648Y-124189561D02*
X145606267Y-124284800D01*
X145606267Y-124284800D02*
X145701505Y-124332419D01*
X145701505Y-124332419D02*
X145844362Y-124332419D01*
X145844362Y-124332419D02*
X145939600Y-124284800D01*
X145939600Y-124284800D02*
X145987219Y-124237180D01*
X146320553Y-123665752D02*
X146701505Y-123665752D01*
X146463410Y-123332419D02*
X146463410Y-124189561D01*
X146463410Y-124189561D02*
X146511029Y-124284800D01*
X146511029Y-124284800D02*
X146606267Y-124332419D01*
X146606267Y-124332419D02*
X146701505Y-124332419D01*
X146891982Y-123665752D02*
X147272934Y-123665752D01*
X147034839Y-123332419D02*
X147034839Y-124189561D01*
X147034839Y-124189561D02*
X147082458Y-124284800D01*
X147082458Y-124284800D02*
X147177696Y-124332419D01*
X147177696Y-124332419D02*
X147272934Y-124332419D01*
X147749125Y-124332419D02*
X147653887Y-124284800D01*
X147653887Y-124284800D02*
X147606268Y-124237180D01*
X147606268Y-124237180D02*
X147558649Y-124141942D01*
X147558649Y-124141942D02*
X147558649Y-123856228D01*
X147558649Y-123856228D02*
X147606268Y-123760990D01*
X147606268Y-123760990D02*
X147653887Y-123713371D01*
X147653887Y-123713371D02*
X147749125Y-123665752D01*
X147749125Y-123665752D02*
X147891982Y-123665752D01*
X147891982Y-123665752D02*
X147987220Y-123713371D01*
X147987220Y-123713371D02*
X148034839Y-123760990D01*
X148034839Y-123760990D02*
X148082458Y-123856228D01*
X148082458Y-123856228D02*
X148082458Y-124141942D01*
X148082458Y-124141942D02*
X148034839Y-124237180D01*
X148034839Y-124237180D02*
X147987220Y-124284800D01*
X147987220Y-124284800D02*
X147891982Y-124332419D01*
X147891982Y-124332419D02*
X147749125Y-124332419D01*
X148511030Y-123665752D02*
X148511030Y-124332419D01*
X148511030Y-123760990D02*
X148558649Y-123713371D01*
X148558649Y-123713371D02*
X148653887Y-123665752D01*
X148653887Y-123665752D02*
X148796744Y-123665752D01*
X148796744Y-123665752D02*
X148891982Y-123713371D01*
X148891982Y-123713371D02*
X148939601Y-123808609D01*
X148939601Y-123808609D02*
X148939601Y-124332419D01*
X80313884Y-83692419D02*
X80313884Y-82692419D01*
X80313884Y-82692419D02*
X80551979Y-82692419D01*
X80551979Y-82692419D02*
X80694836Y-82740038D01*
X80694836Y-82740038D02*
X80790074Y-82835276D01*
X80790074Y-82835276D02*
X80837693Y-82930514D01*
X80837693Y-82930514D02*
X80885312Y-83120990D01*
X80885312Y-83120990D02*
X80885312Y-83263847D01*
X80885312Y-83263847D02*
X80837693Y-83454323D01*
X80837693Y-83454323D02*
X80790074Y-83549561D01*
X80790074Y-83549561D02*
X80694836Y-83644800D01*
X80694836Y-83644800D02*
X80551979Y-83692419D01*
X80551979Y-83692419D02*
X80313884Y-83692419D01*
X81266265Y-83644800D02*
X81409122Y-83692419D01*
X81409122Y-83692419D02*
X81647217Y-83692419D01*
X81647217Y-83692419D02*
X81742455Y-83644800D01*
X81742455Y-83644800D02*
X81790074Y-83597180D01*
X81790074Y-83597180D02*
X81837693Y-83501942D01*
X81837693Y-83501942D02*
X81837693Y-83406704D01*
X81837693Y-83406704D02*
X81790074Y-83311466D01*
X81790074Y-83311466D02*
X81742455Y-83263847D01*
X81742455Y-83263847D02*
X81647217Y-83216228D01*
X81647217Y-83216228D02*
X81456741Y-83168609D01*
X81456741Y-83168609D02*
X81361503Y-83120990D01*
X81361503Y-83120990D02*
X81313884Y-83073371D01*
X81313884Y-83073371D02*
X81266265Y-82978133D01*
X81266265Y-82978133D02*
X81266265Y-82882895D01*
X81266265Y-82882895D02*
X81313884Y-82787657D01*
X81313884Y-82787657D02*
X81361503Y-82740038D01*
X81361503Y-82740038D02*
X81456741Y-82692419D01*
X81456741Y-82692419D02*
X81694836Y-82692419D01*
X81694836Y-82692419D02*
X81837693Y-82740038D01*
X82171027Y-82692419D02*
X82790074Y-82692419D01*
X82790074Y-82692419D02*
X82456741Y-83073371D01*
X82456741Y-83073371D02*
X82599598Y-83073371D01*
X82599598Y-83073371D02*
X82694836Y-83120990D01*
X82694836Y-83120990D02*
X82742455Y-83168609D01*
X82742455Y-83168609D02*
X82790074Y-83263847D01*
X82790074Y-83263847D02*
X82790074Y-83501942D01*
X82790074Y-83501942D02*
X82742455Y-83597180D01*
X82742455Y-83597180D02*
X82694836Y-83644800D01*
X82694836Y-83644800D02*
X82599598Y-83692419D01*
X82599598Y-83692419D02*
X82313884Y-83692419D01*
X82313884Y-83692419D02*
X82218646Y-83644800D01*
X82218646Y-83644800D02*
X82171027Y-83597180D01*
X83171027Y-82787657D02*
X83218646Y-82740038D01*
X83218646Y-82740038D02*
X83313884Y-82692419D01*
X83313884Y-82692419D02*
X83551979Y-82692419D01*
X83551979Y-82692419D02*
X83647217Y-82740038D01*
X83647217Y-82740038D02*
X83694836Y-82787657D01*
X83694836Y-82787657D02*
X83742455Y-82882895D01*
X83742455Y-82882895D02*
X83742455Y-82978133D01*
X83742455Y-82978133D02*
X83694836Y-83120990D01*
X83694836Y-83120990D02*
X83123408Y-83692419D01*
X83123408Y-83692419D02*
X83742455Y-83692419D01*
X84075789Y-82692419D02*
X84694836Y-82692419D01*
X84694836Y-82692419D02*
X84361503Y-83073371D01*
X84361503Y-83073371D02*
X84504360Y-83073371D01*
X84504360Y-83073371D02*
X84599598Y-83120990D01*
X84599598Y-83120990D02*
X84647217Y-83168609D01*
X84647217Y-83168609D02*
X84694836Y-83263847D01*
X84694836Y-83263847D02*
X84694836Y-83501942D01*
X84694836Y-83501942D02*
X84647217Y-83597180D01*
X84647217Y-83597180D02*
X84599598Y-83644800D01*
X84599598Y-83644800D02*
X84504360Y-83692419D01*
X84504360Y-83692419D02*
X84218646Y-83692419D01*
X84218646Y-83692419D02*
X84123408Y-83644800D01*
X84123408Y-83644800D02*
X84075789Y-83597180D01*
X85647217Y-83692419D02*
X85075789Y-83692419D01*
X85361503Y-83692419D02*
X85361503Y-82692419D01*
X85361503Y-82692419D02*
X85266265Y-82835276D01*
X85266265Y-82835276D02*
X85171027Y-82930514D01*
X85171027Y-82930514D02*
X85075789Y-82978133D01*
X87409122Y-83692419D02*
X87075789Y-83216228D01*
X86837694Y-83692419D02*
X86837694Y-82692419D01*
X86837694Y-82692419D02*
X87218646Y-82692419D01*
X87218646Y-82692419D02*
X87313884Y-82740038D01*
X87313884Y-82740038D02*
X87361503Y-82787657D01*
X87361503Y-82787657D02*
X87409122Y-82882895D01*
X87409122Y-82882895D02*
X87409122Y-83025752D01*
X87409122Y-83025752D02*
X87361503Y-83120990D01*
X87361503Y-83120990D02*
X87313884Y-83168609D01*
X87313884Y-83168609D02*
X87218646Y-83216228D01*
X87218646Y-83216228D02*
X86837694Y-83216228D01*
X87694837Y-82692419D02*
X88266265Y-82692419D01*
X87980551Y-83692419D02*
X87980551Y-82692419D01*
X89171027Y-83597180D02*
X89123408Y-83644800D01*
X89123408Y-83644800D02*
X88980551Y-83692419D01*
X88980551Y-83692419D02*
X88885313Y-83692419D01*
X88885313Y-83692419D02*
X88742456Y-83644800D01*
X88742456Y-83644800D02*
X88647218Y-83549561D01*
X88647218Y-83549561D02*
X88599599Y-83454323D01*
X88599599Y-83454323D02*
X88551980Y-83263847D01*
X88551980Y-83263847D02*
X88551980Y-83120990D01*
X88551980Y-83120990D02*
X88599599Y-82930514D01*
X88599599Y-82930514D02*
X88647218Y-82835276D01*
X88647218Y-82835276D02*
X88742456Y-82740038D01*
X88742456Y-82740038D02*
X88885313Y-82692419D01*
X88885313Y-82692419D02*
X88980551Y-82692419D01*
X88980551Y-82692419D02*
X89123408Y-82740038D01*
X89123408Y-82740038D02*
X89171027Y-82787657D01*
X64897580Y-68090074D02*
X64897580Y-67613884D01*
X64897580Y-67613884D02*
X65897580Y-67613884D01*
X65183295Y-68375789D02*
X65183295Y-68851979D01*
X64897580Y-68280551D02*
X65897580Y-68613884D01*
X65897580Y-68613884D02*
X64897580Y-68947217D01*
X65897580Y-69137694D02*
X65897580Y-69709122D01*
X64897580Y-69423408D02*
X65897580Y-69423408D01*
X64992819Y-70613884D02*
X64945200Y-70566265D01*
X64945200Y-70566265D02*
X64897580Y-70423408D01*
X64897580Y-70423408D02*
X64897580Y-70328170D01*
X64897580Y-70328170D02*
X64945200Y-70185313D01*
X64945200Y-70185313D02*
X65040438Y-70090075D01*
X65040438Y-70090075D02*
X65135676Y-70042456D01*
X65135676Y-70042456D02*
X65326152Y-69994837D01*
X65326152Y-69994837D02*
X65469009Y-69994837D01*
X65469009Y-69994837D02*
X65659485Y-70042456D01*
X65659485Y-70042456D02*
X65754723Y-70090075D01*
X65754723Y-70090075D02*
X65849961Y-70185313D01*
X65849961Y-70185313D02*
X65897580Y-70328170D01*
X65897580Y-70328170D02*
X65897580Y-70423408D01*
X65897580Y-70423408D02*
X65849961Y-70566265D01*
X65849961Y-70566265D02*
X65802342Y-70613884D01*
X64897580Y-71042456D02*
X65897580Y-71042456D01*
X65421390Y-71042456D02*
X65421390Y-71613884D01*
X64897580Y-71613884D02*
X65897580Y-71613884D01*
X220537693Y-68770038D02*
X220442455Y-68722419D01*
X220442455Y-68722419D02*
X220299598Y-68722419D01*
X220299598Y-68722419D02*
X220156741Y-68770038D01*
X220156741Y-68770038D02*
X220061503Y-68865276D01*
X220061503Y-68865276D02*
X220013884Y-68960514D01*
X220013884Y-68960514D02*
X219966265Y-69150990D01*
X219966265Y-69150990D02*
X219966265Y-69293847D01*
X219966265Y-69293847D02*
X220013884Y-69484323D01*
X220013884Y-69484323D02*
X220061503Y-69579561D01*
X220061503Y-69579561D02*
X220156741Y-69674800D01*
X220156741Y-69674800D02*
X220299598Y-69722419D01*
X220299598Y-69722419D02*
X220394836Y-69722419D01*
X220394836Y-69722419D02*
X220537693Y-69674800D01*
X220537693Y-69674800D02*
X220585312Y-69627180D01*
X220585312Y-69627180D02*
X220585312Y-69293847D01*
X220585312Y-69293847D02*
X220394836Y-69293847D01*
X221013884Y-69722419D02*
X221013884Y-68722419D01*
X221013884Y-68722419D02*
X221585312Y-69722419D01*
X221585312Y-69722419D02*
X221585312Y-68722419D01*
X222061503Y-69722419D02*
X222061503Y-68722419D01*
X222061503Y-68722419D02*
X222299598Y-68722419D01*
X222299598Y-68722419D02*
X222442455Y-68770038D01*
X222442455Y-68770038D02*
X222537693Y-68865276D01*
X222537693Y-68865276D02*
X222585312Y-68960514D01*
X222585312Y-68960514D02*
X222632931Y-69150990D01*
X222632931Y-69150990D02*
X222632931Y-69293847D01*
X222632931Y-69293847D02*
X222585312Y-69484323D01*
X222585312Y-69484323D02*
X222537693Y-69579561D01*
X222537693Y-69579561D02*
X222442455Y-69674800D01*
X222442455Y-69674800D02*
X222299598Y-69722419D01*
X222299598Y-69722419D02*
X222061503Y-69722419D01*
X194613884Y-121452419D02*
X194613884Y-120452419D01*
X194613884Y-120452419D02*
X194851979Y-120452419D01*
X194851979Y-120452419D02*
X194994836Y-120500038D01*
X194994836Y-120500038D02*
X195090074Y-120595276D01*
X195090074Y-120595276D02*
X195137693Y-120690514D01*
X195137693Y-120690514D02*
X195185312Y-120880990D01*
X195185312Y-120880990D02*
X195185312Y-121023847D01*
X195185312Y-121023847D02*
X195137693Y-121214323D01*
X195137693Y-121214323D02*
X195090074Y-121309561D01*
X195090074Y-121309561D02*
X194994836Y-121404800D01*
X194994836Y-121404800D02*
X194851979Y-121452419D01*
X194851979Y-121452419D02*
X194613884Y-121452419D01*
X195994836Y-121404800D02*
X195899598Y-121452419D01*
X195899598Y-121452419D02*
X195709122Y-121452419D01*
X195709122Y-121452419D02*
X195613884Y-121404800D01*
X195613884Y-121404800D02*
X195566265Y-121309561D01*
X195566265Y-121309561D02*
X195566265Y-120928609D01*
X195566265Y-120928609D02*
X195613884Y-120833371D01*
X195613884Y-120833371D02*
X195709122Y-120785752D01*
X195709122Y-120785752D02*
X195899598Y-120785752D01*
X195899598Y-120785752D02*
X195994836Y-120833371D01*
X195994836Y-120833371D02*
X196042455Y-120928609D01*
X196042455Y-120928609D02*
X196042455Y-121023847D01*
X196042455Y-121023847D02*
X195566265Y-121119085D01*
X196423408Y-121404800D02*
X196518646Y-121452419D01*
X196518646Y-121452419D02*
X196709122Y-121452419D01*
X196709122Y-121452419D02*
X196804360Y-121404800D01*
X196804360Y-121404800D02*
X196851979Y-121309561D01*
X196851979Y-121309561D02*
X196851979Y-121261942D01*
X196851979Y-121261942D02*
X196804360Y-121166704D01*
X196804360Y-121166704D02*
X196709122Y-121119085D01*
X196709122Y-121119085D02*
X196566265Y-121119085D01*
X196566265Y-121119085D02*
X196471027Y-121071466D01*
X196471027Y-121071466D02*
X196423408Y-120976228D01*
X196423408Y-120976228D02*
X196423408Y-120928609D01*
X196423408Y-120928609D02*
X196471027Y-120833371D01*
X196471027Y-120833371D02*
X196566265Y-120785752D01*
X196566265Y-120785752D02*
X196709122Y-120785752D01*
X196709122Y-120785752D02*
X196804360Y-120833371D01*
X197280551Y-121452419D02*
X197280551Y-120785752D01*
X197280551Y-120452419D02*
X197232932Y-120500038D01*
X197232932Y-120500038D02*
X197280551Y-120547657D01*
X197280551Y-120547657D02*
X197328170Y-120500038D01*
X197328170Y-120500038D02*
X197280551Y-120452419D01*
X197280551Y-120452419D02*
X197280551Y-120547657D01*
X198185312Y-120785752D02*
X198185312Y-121595276D01*
X198185312Y-121595276D02*
X198137693Y-121690514D01*
X198137693Y-121690514D02*
X198090074Y-121738133D01*
X198090074Y-121738133D02*
X197994836Y-121785752D01*
X197994836Y-121785752D02*
X197851979Y-121785752D01*
X197851979Y-121785752D02*
X197756741Y-121738133D01*
X198185312Y-121404800D02*
X198090074Y-121452419D01*
X198090074Y-121452419D02*
X197899598Y-121452419D01*
X197899598Y-121452419D02*
X197804360Y-121404800D01*
X197804360Y-121404800D02*
X197756741Y-121357180D01*
X197756741Y-121357180D02*
X197709122Y-121261942D01*
X197709122Y-121261942D02*
X197709122Y-120976228D01*
X197709122Y-120976228D02*
X197756741Y-120880990D01*
X197756741Y-120880990D02*
X197804360Y-120833371D01*
X197804360Y-120833371D02*
X197899598Y-120785752D01*
X197899598Y-120785752D02*
X198090074Y-120785752D01*
X198090074Y-120785752D02*
X198185312Y-120833371D01*
X198661503Y-120785752D02*
X198661503Y-121452419D01*
X198661503Y-120880990D02*
X198709122Y-120833371D01*
X198709122Y-120833371D02*
X198804360Y-120785752D01*
X198804360Y-120785752D02*
X198947217Y-120785752D01*
X198947217Y-120785752D02*
X199042455Y-120833371D01*
X199042455Y-120833371D02*
X199090074Y-120928609D01*
X199090074Y-120928609D02*
X199090074Y-121452419D01*
X200280551Y-120547657D02*
X200328170Y-120500038D01*
X200328170Y-120500038D02*
X200423408Y-120452419D01*
X200423408Y-120452419D02*
X200661503Y-120452419D01*
X200661503Y-120452419D02*
X200756741Y-120500038D01*
X200756741Y-120500038D02*
X200804360Y-120547657D01*
X200804360Y-120547657D02*
X200851979Y-120642895D01*
X200851979Y-120642895D02*
X200851979Y-120738133D01*
X200851979Y-120738133D02*
X200804360Y-120880990D01*
X200804360Y-120880990D02*
X200232932Y-121452419D01*
X200232932Y-121452419D02*
X200851979Y-121452419D01*
X201471027Y-120452419D02*
X201566265Y-120452419D01*
X201566265Y-120452419D02*
X201661503Y-120500038D01*
X201661503Y-120500038D02*
X201709122Y-120547657D01*
X201709122Y-120547657D02*
X201756741Y-120642895D01*
X201756741Y-120642895D02*
X201804360Y-120833371D01*
X201804360Y-120833371D02*
X201804360Y-121071466D01*
X201804360Y-121071466D02*
X201756741Y-121261942D01*
X201756741Y-121261942D02*
X201709122Y-121357180D01*
X201709122Y-121357180D02*
X201661503Y-121404800D01*
X201661503Y-121404800D02*
X201566265Y-121452419D01*
X201566265Y-121452419D02*
X201471027Y-121452419D01*
X201471027Y-121452419D02*
X201375789Y-121404800D01*
X201375789Y-121404800D02*
X201328170Y-121357180D01*
X201328170Y-121357180D02*
X201280551Y-121261942D01*
X201280551Y-121261942D02*
X201232932Y-121071466D01*
X201232932Y-121071466D02*
X201232932Y-120833371D01*
X201232932Y-120833371D02*
X201280551Y-120642895D01*
X201280551Y-120642895D02*
X201328170Y-120547657D01*
X201328170Y-120547657D02*
X201375789Y-120500038D01*
X201375789Y-120500038D02*
X201471027Y-120452419D01*
X202185313Y-120547657D02*
X202232932Y-120500038D01*
X202232932Y-120500038D02*
X202328170Y-120452419D01*
X202328170Y-120452419D02*
X202566265Y-120452419D01*
X202566265Y-120452419D02*
X202661503Y-120500038D01*
X202661503Y-120500038D02*
X202709122Y-120547657D01*
X202709122Y-120547657D02*
X202756741Y-120642895D01*
X202756741Y-120642895D02*
X202756741Y-120738133D01*
X202756741Y-120738133D02*
X202709122Y-120880990D01*
X202709122Y-120880990D02*
X202137694Y-121452419D01*
X202137694Y-121452419D02*
X202756741Y-121452419D01*
X203613884Y-120785752D02*
X203613884Y-121452419D01*
X203375789Y-120404800D02*
X203137694Y-121119085D01*
X203137694Y-121119085D02*
X203756741Y-121119085D01*
X204137694Y-121071466D02*
X204899599Y-121071466D01*
X205566265Y-120452419D02*
X205661503Y-120452419D01*
X205661503Y-120452419D02*
X205756741Y-120500038D01*
X205756741Y-120500038D02*
X205804360Y-120547657D01*
X205804360Y-120547657D02*
X205851979Y-120642895D01*
X205851979Y-120642895D02*
X205899598Y-120833371D01*
X205899598Y-120833371D02*
X205899598Y-121071466D01*
X205899598Y-121071466D02*
X205851979Y-121261942D01*
X205851979Y-121261942D02*
X205804360Y-121357180D01*
X205804360Y-121357180D02*
X205756741Y-121404800D01*
X205756741Y-121404800D02*
X205661503Y-121452419D01*
X205661503Y-121452419D02*
X205566265Y-121452419D01*
X205566265Y-121452419D02*
X205471027Y-121404800D01*
X205471027Y-121404800D02*
X205423408Y-121357180D01*
X205423408Y-121357180D02*
X205375789Y-121261942D01*
X205375789Y-121261942D02*
X205328170Y-121071466D01*
X205328170Y-121071466D02*
X205328170Y-120833371D01*
X205328170Y-120833371D02*
X205375789Y-120642895D01*
X205375789Y-120642895D02*
X205423408Y-120547657D01*
X205423408Y-120547657D02*
X205471027Y-120500038D01*
X205471027Y-120500038D02*
X205566265Y-120452419D01*
X206232932Y-120452419D02*
X206851979Y-120452419D01*
X206851979Y-120452419D02*
X206518646Y-120833371D01*
X206518646Y-120833371D02*
X206661503Y-120833371D01*
X206661503Y-120833371D02*
X206756741Y-120880990D01*
X206756741Y-120880990D02*
X206804360Y-120928609D01*
X206804360Y-120928609D02*
X206851979Y-121023847D01*
X206851979Y-121023847D02*
X206851979Y-121261942D01*
X206851979Y-121261942D02*
X206804360Y-121357180D01*
X206804360Y-121357180D02*
X206756741Y-121404800D01*
X206756741Y-121404800D02*
X206661503Y-121452419D01*
X206661503Y-121452419D02*
X206375789Y-121452419D01*
X206375789Y-121452419D02*
X206280551Y-121404800D01*
X206280551Y-121404800D02*
X206232932Y-121357180D01*
X207280551Y-121071466D02*
X208042456Y-121071466D01*
X209042455Y-121452419D02*
X208471027Y-121452419D01*
X208756741Y-121452419D02*
X208756741Y-120452419D01*
X208756741Y-120452419D02*
X208661503Y-120595276D01*
X208661503Y-120595276D02*
X208566265Y-120690514D01*
X208566265Y-120690514D02*
X208471027Y-120738133D01*
X209613884Y-120880990D02*
X209518646Y-120833371D01*
X209518646Y-120833371D02*
X209471027Y-120785752D01*
X209471027Y-120785752D02*
X209423408Y-120690514D01*
X209423408Y-120690514D02*
X209423408Y-120642895D01*
X209423408Y-120642895D02*
X209471027Y-120547657D01*
X209471027Y-120547657D02*
X209518646Y-120500038D01*
X209518646Y-120500038D02*
X209613884Y-120452419D01*
X209613884Y-120452419D02*
X209804360Y-120452419D01*
X209804360Y-120452419D02*
X209899598Y-120500038D01*
X209899598Y-120500038D02*
X209947217Y-120547657D01*
X209947217Y-120547657D02*
X209994836Y-120642895D01*
X209994836Y-120642895D02*
X209994836Y-120690514D01*
X209994836Y-120690514D02*
X209947217Y-120785752D01*
X209947217Y-120785752D02*
X209899598Y-120833371D01*
X209899598Y-120833371D02*
X209804360Y-120880990D01*
X209804360Y-120880990D02*
X209613884Y-120880990D01*
X209613884Y-120880990D02*
X209518646Y-120928609D01*
X209518646Y-120928609D02*
X209471027Y-120976228D01*
X209471027Y-120976228D02*
X209423408Y-121071466D01*
X209423408Y-121071466D02*
X209423408Y-121261942D01*
X209423408Y-121261942D02*
X209471027Y-121357180D01*
X209471027Y-121357180D02*
X209518646Y-121404800D01*
X209518646Y-121404800D02*
X209613884Y-121452419D01*
X209613884Y-121452419D02*
X209804360Y-121452419D01*
X209804360Y-121452419D02*
X209899598Y-121404800D01*
X209899598Y-121404800D02*
X209947217Y-121357180D01*
X209947217Y-121357180D02*
X209994836Y-121261942D01*
X209994836Y-121261942D02*
X209994836Y-121071466D01*
X209994836Y-121071466D02*
X209947217Y-120976228D01*
X209947217Y-120976228D02*
X209899598Y-120928609D01*
X209899598Y-120928609D02*
X209804360Y-120880990D01*
X211185313Y-121452419D02*
X211185313Y-120452419D01*
X211185313Y-120833371D02*
X211280551Y-120785752D01*
X211280551Y-120785752D02*
X211471027Y-120785752D01*
X211471027Y-120785752D02*
X211566265Y-120833371D01*
X211566265Y-120833371D02*
X211613884Y-120880990D01*
X211613884Y-120880990D02*
X211661503Y-120976228D01*
X211661503Y-120976228D02*
X211661503Y-121261942D01*
X211661503Y-121261942D02*
X211613884Y-121357180D01*
X211613884Y-121357180D02*
X211566265Y-121404800D01*
X211566265Y-121404800D02*
X211471027Y-121452419D01*
X211471027Y-121452419D02*
X211280551Y-121452419D01*
X211280551Y-121452419D02*
X211185313Y-121404800D01*
X211994837Y-120785752D02*
X212232932Y-121452419D01*
X212471027Y-120785752D02*
X212232932Y-121452419D01*
X212232932Y-121452419D02*
X212137694Y-121690514D01*
X212137694Y-121690514D02*
X212090075Y-121738133D01*
X212090075Y-121738133D02*
X211994837Y-121785752D01*
X213566266Y-121166704D02*
X214042456Y-121166704D01*
X213471028Y-121452419D02*
X213804361Y-120452419D01*
X213804361Y-120452419D02*
X214137694Y-121452419D01*
X214471028Y-121452419D02*
X214471028Y-120785752D01*
X214471028Y-120880990D02*
X214518647Y-120833371D01*
X214518647Y-120833371D02*
X214613885Y-120785752D01*
X214613885Y-120785752D02*
X214756742Y-120785752D01*
X214756742Y-120785752D02*
X214851980Y-120833371D01*
X214851980Y-120833371D02*
X214899599Y-120928609D01*
X214899599Y-120928609D02*
X214899599Y-121452419D01*
X214899599Y-120928609D02*
X214947218Y-120833371D01*
X214947218Y-120833371D02*
X215042456Y-120785752D01*
X215042456Y-120785752D02*
X215185313Y-120785752D01*
X215185313Y-120785752D02*
X215280552Y-120833371D01*
X215280552Y-120833371D02*
X215328171Y-120928609D01*
X215328171Y-120928609D02*
X215328171Y-121452419D01*
X216185313Y-121404800D02*
X216090075Y-121452419D01*
X216090075Y-121452419D02*
X215899599Y-121452419D01*
X215899599Y-121452419D02*
X215804361Y-121404800D01*
X215804361Y-121404800D02*
X215756742Y-121309561D01*
X215756742Y-121309561D02*
X215756742Y-120928609D01*
X215756742Y-120928609D02*
X215804361Y-120833371D01*
X215804361Y-120833371D02*
X215899599Y-120785752D01*
X215899599Y-120785752D02*
X216090075Y-120785752D01*
X216090075Y-120785752D02*
X216185313Y-120833371D01*
X216185313Y-120833371D02*
X216232932Y-120928609D01*
X216232932Y-120928609D02*
X216232932Y-121023847D01*
X216232932Y-121023847D02*
X215756742Y-121119085D01*
X216804361Y-121452419D02*
X216709123Y-121404800D01*
X216709123Y-121404800D02*
X216661504Y-121309561D01*
X216661504Y-121309561D02*
X216661504Y-120452419D01*
X217185314Y-121452419D02*
X217185314Y-120785752D01*
X217185314Y-120452419D02*
X217137695Y-120500038D01*
X217137695Y-120500038D02*
X217185314Y-120547657D01*
X217185314Y-120547657D02*
X217232933Y-120500038D01*
X217232933Y-120500038D02*
X217185314Y-120452419D01*
X217185314Y-120452419D02*
X217185314Y-120547657D01*
X218090075Y-121452419D02*
X218090075Y-120928609D01*
X218090075Y-120928609D02*
X218042456Y-120833371D01*
X218042456Y-120833371D02*
X217947218Y-120785752D01*
X217947218Y-120785752D02*
X217756742Y-120785752D01*
X217756742Y-120785752D02*
X217661504Y-120833371D01*
X218090075Y-121404800D02*
X217994837Y-121452419D01*
X217994837Y-121452419D02*
X217756742Y-121452419D01*
X217756742Y-121452419D02*
X217661504Y-121404800D01*
X217661504Y-121404800D02*
X217613885Y-121309561D01*
X217613885Y-121309561D02*
X217613885Y-121214323D01*
X217613885Y-121214323D02*
X217661504Y-121119085D01*
X217661504Y-121119085D02*
X217756742Y-121071466D01*
X217756742Y-121071466D02*
X217994837Y-121071466D01*
X217994837Y-121071466D02*
X218090075Y-121023847D01*
X219185314Y-120452419D02*
X219518647Y-121452419D01*
X219518647Y-121452419D02*
X219851980Y-120452419D01*
X220328171Y-121452419D02*
X220232933Y-121404800D01*
X220232933Y-121404800D02*
X220185314Y-121309561D01*
X220185314Y-121309561D02*
X220185314Y-120452419D01*
X221137695Y-121452419D02*
X221137695Y-120928609D01*
X221137695Y-120928609D02*
X221090076Y-120833371D01*
X221090076Y-120833371D02*
X220994838Y-120785752D01*
X220994838Y-120785752D02*
X220804362Y-120785752D01*
X220804362Y-120785752D02*
X220709124Y-120833371D01*
X221137695Y-121404800D02*
X221042457Y-121452419D01*
X221042457Y-121452419D02*
X220804362Y-121452419D01*
X220804362Y-121452419D02*
X220709124Y-121404800D01*
X220709124Y-121404800D02*
X220661505Y-121309561D01*
X220661505Y-121309561D02*
X220661505Y-121214323D01*
X220661505Y-121214323D02*
X220709124Y-121119085D01*
X220709124Y-121119085D02*
X220804362Y-121071466D01*
X220804362Y-121071466D02*
X221042457Y-121071466D01*
X221042457Y-121071466D02*
X221137695Y-121023847D01*
X221613886Y-121452419D02*
X221613886Y-120452419D01*
X222042457Y-121452419D02*
X222042457Y-120928609D01*
X222042457Y-120928609D02*
X221994838Y-120833371D01*
X221994838Y-120833371D02*
X221899600Y-120785752D01*
X221899600Y-120785752D02*
X221756743Y-120785752D01*
X221756743Y-120785752D02*
X221661505Y-120833371D01*
X221661505Y-120833371D02*
X221613886Y-120880990D01*
X222661505Y-121452419D02*
X222566267Y-121404800D01*
X222566267Y-121404800D02*
X222518648Y-121357180D01*
X222518648Y-121357180D02*
X222471029Y-121261942D01*
X222471029Y-121261942D02*
X222471029Y-120976228D01*
X222471029Y-120976228D02*
X222518648Y-120880990D01*
X222518648Y-120880990D02*
X222566267Y-120833371D01*
X222566267Y-120833371D02*
X222661505Y-120785752D01*
X222661505Y-120785752D02*
X222804362Y-120785752D01*
X222804362Y-120785752D02*
X222899600Y-120833371D01*
X222899600Y-120833371D02*
X222947219Y-120880990D01*
X222947219Y-120880990D02*
X222994838Y-120976228D01*
X222994838Y-120976228D02*
X222994838Y-121261942D01*
X222994838Y-121261942D02*
X222947219Y-121357180D01*
X222947219Y-121357180D02*
X222899600Y-121404800D01*
X222899600Y-121404800D02*
X222804362Y-121452419D01*
X222804362Y-121452419D02*
X222661505Y-121452419D01*
X223851981Y-120785752D02*
X223851981Y-121595276D01*
X223851981Y-121595276D02*
X223804362Y-121690514D01*
X223804362Y-121690514D02*
X223756743Y-121738133D01*
X223756743Y-121738133D02*
X223661505Y-121785752D01*
X223661505Y-121785752D02*
X223518648Y-121785752D01*
X223518648Y-121785752D02*
X223423410Y-121738133D01*
X223851981Y-121404800D02*
X223756743Y-121452419D01*
X223756743Y-121452419D02*
X223566267Y-121452419D01*
X223566267Y-121452419D02*
X223471029Y-121404800D01*
X223471029Y-121404800D02*
X223423410Y-121357180D01*
X223423410Y-121357180D02*
X223375791Y-121261942D01*
X223375791Y-121261942D02*
X223375791Y-120976228D01*
X223375791Y-120976228D02*
X223423410Y-120880990D01*
X223423410Y-120880990D02*
X223471029Y-120833371D01*
X223471029Y-120833371D02*
X223566267Y-120785752D01*
X223566267Y-120785752D02*
X223756743Y-120785752D01*
X223756743Y-120785752D02*
X223851981Y-120833371D01*
X224328172Y-121452419D02*
X224328172Y-120785752D01*
X224328172Y-120452419D02*
X224280553Y-120500038D01*
X224280553Y-120500038D02*
X224328172Y-120547657D01*
X224328172Y-120547657D02*
X224375791Y-120500038D01*
X224375791Y-120500038D02*
X224328172Y-120452419D01*
X224328172Y-120452419D02*
X224328172Y-120547657D01*
X225232933Y-121452419D02*
X225232933Y-120928609D01*
X225232933Y-120928609D02*
X225185314Y-120833371D01*
X225185314Y-120833371D02*
X225090076Y-120785752D01*
X225090076Y-120785752D02*
X224899600Y-120785752D01*
X224899600Y-120785752D02*
X224804362Y-120833371D01*
X225232933Y-121404800D02*
X225137695Y-121452419D01*
X225137695Y-121452419D02*
X224899600Y-121452419D01*
X224899600Y-121452419D02*
X224804362Y-121404800D01*
X224804362Y-121404800D02*
X224756743Y-121309561D01*
X224756743Y-121309561D02*
X224756743Y-121214323D01*
X224756743Y-121214323D02*
X224804362Y-121119085D01*
X224804362Y-121119085D02*
X224899600Y-121071466D01*
X224899600Y-121071466D02*
X225137695Y-121071466D01*
X225137695Y-121071466D02*
X225232933Y-121023847D01*
X225709124Y-120785752D02*
X225709124Y-121452419D01*
X225709124Y-120880990D02*
X225756743Y-120833371D01*
X225756743Y-120833371D02*
X225851981Y-120785752D01*
X225851981Y-120785752D02*
X225994838Y-120785752D01*
X225994838Y-120785752D02*
X226090076Y-120833371D01*
X226090076Y-120833371D02*
X226137695Y-120928609D01*
X226137695Y-120928609D02*
X226137695Y-121452419D01*
X226613886Y-120785752D02*
X226613886Y-121452419D01*
X226613886Y-120880990D02*
X226661505Y-120833371D01*
X226661505Y-120833371D02*
X226756743Y-120785752D01*
X226756743Y-120785752D02*
X226899600Y-120785752D01*
X226899600Y-120785752D02*
X226994838Y-120833371D01*
X226994838Y-120833371D02*
X227042457Y-120928609D01*
X227042457Y-120928609D02*
X227042457Y-121452419D01*
X227518648Y-121452419D02*
X227518648Y-120785752D01*
X227518648Y-120452419D02*
X227471029Y-120500038D01*
X227471029Y-120500038D02*
X227518648Y-120547657D01*
X227518648Y-120547657D02*
X227566267Y-120500038D01*
X227566267Y-120500038D02*
X227518648Y-120452419D01*
X227518648Y-120452419D02*
X227518648Y-120547657D01*
X227947219Y-121404800D02*
X228042457Y-121452419D01*
X228042457Y-121452419D02*
X228232933Y-121452419D01*
X228232933Y-121452419D02*
X228328171Y-121404800D01*
X228328171Y-121404800D02*
X228375790Y-121309561D01*
X228375790Y-121309561D02*
X228375790Y-121261942D01*
X228375790Y-121261942D02*
X228328171Y-121166704D01*
X228328171Y-121166704D02*
X228232933Y-121119085D01*
X228232933Y-121119085D02*
X228090076Y-121119085D01*
X228090076Y-121119085D02*
X227994838Y-121071466D01*
X227994838Y-121071466D02*
X227947219Y-120976228D01*
X227947219Y-120976228D02*
X227947219Y-120928609D01*
X227947219Y-120928609D02*
X227994838Y-120833371D01*
X227994838Y-120833371D02*
X228090076Y-120785752D01*
X228090076Y-120785752D02*
X228232933Y-120785752D01*
X228232933Y-120785752D02*
X228328171Y-120833371D01*
X194613884Y-122538609D02*
X194947217Y-122538609D01*
X195090074Y-123062419D02*
X194613884Y-123062419D01*
X194613884Y-123062419D02*
X194613884Y-122062419D01*
X194613884Y-122062419D02*
X195090074Y-122062419D01*
X195994836Y-123062419D02*
X195518646Y-123062419D01*
X195518646Y-123062419D02*
X195518646Y-122062419D01*
X196185313Y-122062419D02*
X196756741Y-122062419D01*
X196471027Y-123062419D02*
X196471027Y-122062419D01*
X197090075Y-122681466D02*
X197851980Y-122681466D01*
X198280551Y-122157657D02*
X198328170Y-122110038D01*
X198328170Y-122110038D02*
X198423408Y-122062419D01*
X198423408Y-122062419D02*
X198661503Y-122062419D01*
X198661503Y-122062419D02*
X198756741Y-122110038D01*
X198756741Y-122110038D02*
X198804360Y-122157657D01*
X198804360Y-122157657D02*
X198851979Y-122252895D01*
X198851979Y-122252895D02*
X198851979Y-122348133D01*
X198851979Y-122348133D02*
X198804360Y-122490990D01*
X198804360Y-122490990D02*
X198232932Y-123062419D01*
X198232932Y-123062419D02*
X198851979Y-123062419D01*
X199185313Y-122062419D02*
X199851979Y-122062419D01*
X199851979Y-122062419D02*
X199423408Y-123062419D01*
X200185313Y-122157657D02*
X200232932Y-122110038D01*
X200232932Y-122110038D02*
X200328170Y-122062419D01*
X200328170Y-122062419D02*
X200566265Y-122062419D01*
X200566265Y-122062419D02*
X200661503Y-122110038D01*
X200661503Y-122110038D02*
X200709122Y-122157657D01*
X200709122Y-122157657D02*
X200756741Y-122252895D01*
X200756741Y-122252895D02*
X200756741Y-122348133D01*
X200756741Y-122348133D02*
X200709122Y-122490990D01*
X200709122Y-122490990D02*
X200137694Y-123062419D01*
X200137694Y-123062419D02*
X200756741Y-123062419D01*
X201375789Y-122062419D02*
X201471027Y-122062419D01*
X201471027Y-122062419D02*
X201566265Y-122110038D01*
X201566265Y-122110038D02*
X201613884Y-122157657D01*
X201613884Y-122157657D02*
X201661503Y-122252895D01*
X201661503Y-122252895D02*
X201709122Y-122443371D01*
X201709122Y-122443371D02*
X201709122Y-122681466D01*
X201709122Y-122681466D02*
X201661503Y-122871942D01*
X201661503Y-122871942D02*
X201613884Y-122967180D01*
X201613884Y-122967180D02*
X201566265Y-123014800D01*
X201566265Y-123014800D02*
X201471027Y-123062419D01*
X201471027Y-123062419D02*
X201375789Y-123062419D01*
X201375789Y-123062419D02*
X201280551Y-123014800D01*
X201280551Y-123014800D02*
X201232932Y-122967180D01*
X201232932Y-122967180D02*
X201185313Y-122871942D01*
X201185313Y-122871942D02*
X201137694Y-122681466D01*
X201137694Y-122681466D02*
X201137694Y-122443371D01*
X201137694Y-122443371D02*
X201185313Y-122252895D01*
X201185313Y-122252895D02*
X201232932Y-122157657D01*
X201232932Y-122157657D02*
X201280551Y-122110038D01*
X201280551Y-122110038D02*
X201375789Y-122062419D01*
X202851980Y-123014800D02*
X202994837Y-123062419D01*
X202994837Y-123062419D02*
X203232932Y-123062419D01*
X203232932Y-123062419D02*
X203328170Y-123014800D01*
X203328170Y-123014800D02*
X203375789Y-122967180D01*
X203375789Y-122967180D02*
X203423408Y-122871942D01*
X203423408Y-122871942D02*
X203423408Y-122776704D01*
X203423408Y-122776704D02*
X203375789Y-122681466D01*
X203375789Y-122681466D02*
X203328170Y-122633847D01*
X203328170Y-122633847D02*
X203232932Y-122586228D01*
X203232932Y-122586228D02*
X203042456Y-122538609D01*
X203042456Y-122538609D02*
X202947218Y-122490990D01*
X202947218Y-122490990D02*
X202899599Y-122443371D01*
X202899599Y-122443371D02*
X202851980Y-122348133D01*
X202851980Y-122348133D02*
X202851980Y-122252895D01*
X202851980Y-122252895D02*
X202899599Y-122157657D01*
X202899599Y-122157657D02*
X202947218Y-122110038D01*
X202947218Y-122110038D02*
X203042456Y-122062419D01*
X203042456Y-122062419D02*
X203280551Y-122062419D01*
X203280551Y-122062419D02*
X203423408Y-122110038D01*
X203994837Y-123062419D02*
X203899599Y-123014800D01*
X203899599Y-123014800D02*
X203851980Y-122967180D01*
X203851980Y-122967180D02*
X203804361Y-122871942D01*
X203804361Y-122871942D02*
X203804361Y-122586228D01*
X203804361Y-122586228D02*
X203851980Y-122490990D01*
X203851980Y-122490990D02*
X203899599Y-122443371D01*
X203899599Y-122443371D02*
X203994837Y-122395752D01*
X203994837Y-122395752D02*
X204137694Y-122395752D01*
X204137694Y-122395752D02*
X204232932Y-122443371D01*
X204232932Y-122443371D02*
X204280551Y-122490990D01*
X204280551Y-122490990D02*
X204328170Y-122586228D01*
X204328170Y-122586228D02*
X204328170Y-122871942D01*
X204328170Y-122871942D02*
X204280551Y-122967180D01*
X204280551Y-122967180D02*
X204232932Y-123014800D01*
X204232932Y-123014800D02*
X204137694Y-123062419D01*
X204137694Y-123062419D02*
X203994837Y-123062419D01*
X204756742Y-122395752D02*
X204756742Y-123395752D01*
X204756742Y-122443371D02*
X204851980Y-122395752D01*
X204851980Y-122395752D02*
X205042456Y-122395752D01*
X205042456Y-122395752D02*
X205137694Y-122443371D01*
X205137694Y-122443371D02*
X205185313Y-122490990D01*
X205185313Y-122490990D02*
X205232932Y-122586228D01*
X205232932Y-122586228D02*
X205232932Y-122871942D01*
X205232932Y-122871942D02*
X205185313Y-122967180D01*
X205185313Y-122967180D02*
X205137694Y-123014800D01*
X205137694Y-123014800D02*
X205042456Y-123062419D01*
X205042456Y-123062419D02*
X204851980Y-123062419D01*
X204851980Y-123062419D02*
X204756742Y-123014800D01*
X205661504Y-123062419D02*
X205661504Y-122062419D01*
X206090075Y-123062419D02*
X206090075Y-122538609D01*
X206090075Y-122538609D02*
X206042456Y-122443371D01*
X206042456Y-122443371D02*
X205947218Y-122395752D01*
X205947218Y-122395752D02*
X205804361Y-122395752D01*
X205804361Y-122395752D02*
X205709123Y-122443371D01*
X205709123Y-122443371D02*
X205661504Y-122490990D01*
X206709123Y-123062419D02*
X206613885Y-123014800D01*
X206613885Y-123014800D02*
X206566266Y-122967180D01*
X206566266Y-122967180D02*
X206518647Y-122871942D01*
X206518647Y-122871942D02*
X206518647Y-122586228D01*
X206518647Y-122586228D02*
X206566266Y-122490990D01*
X206566266Y-122490990D02*
X206613885Y-122443371D01*
X206613885Y-122443371D02*
X206709123Y-122395752D01*
X206709123Y-122395752D02*
X206851980Y-122395752D01*
X206851980Y-122395752D02*
X206947218Y-122443371D01*
X206947218Y-122443371D02*
X206994837Y-122490990D01*
X206994837Y-122490990D02*
X207042456Y-122586228D01*
X207042456Y-122586228D02*
X207042456Y-122871942D01*
X207042456Y-122871942D02*
X206994837Y-122967180D01*
X206994837Y-122967180D02*
X206947218Y-123014800D01*
X206947218Y-123014800D02*
X206851980Y-123062419D01*
X206851980Y-123062419D02*
X206709123Y-123062419D01*
X207471028Y-123062419D02*
X207471028Y-122395752D01*
X207471028Y-122490990D02*
X207518647Y-122443371D01*
X207518647Y-122443371D02*
X207613885Y-122395752D01*
X207613885Y-122395752D02*
X207756742Y-122395752D01*
X207756742Y-122395752D02*
X207851980Y-122443371D01*
X207851980Y-122443371D02*
X207899599Y-122538609D01*
X207899599Y-122538609D02*
X207899599Y-123062419D01*
X207899599Y-122538609D02*
X207947218Y-122443371D01*
X207947218Y-122443371D02*
X208042456Y-122395752D01*
X208042456Y-122395752D02*
X208185313Y-122395752D01*
X208185313Y-122395752D02*
X208280552Y-122443371D01*
X208280552Y-122443371D02*
X208328171Y-122538609D01*
X208328171Y-122538609D02*
X208328171Y-123062419D01*
X208947218Y-123062419D02*
X208851980Y-123014800D01*
X208851980Y-123014800D02*
X208804361Y-122967180D01*
X208804361Y-122967180D02*
X208756742Y-122871942D01*
X208756742Y-122871942D02*
X208756742Y-122586228D01*
X208756742Y-122586228D02*
X208804361Y-122490990D01*
X208804361Y-122490990D02*
X208851980Y-122443371D01*
X208851980Y-122443371D02*
X208947218Y-122395752D01*
X208947218Y-122395752D02*
X209090075Y-122395752D01*
X209090075Y-122395752D02*
X209185313Y-122443371D01*
X209185313Y-122443371D02*
X209232932Y-122490990D01*
X209232932Y-122490990D02*
X209280551Y-122586228D01*
X209280551Y-122586228D02*
X209280551Y-122871942D01*
X209280551Y-122871942D02*
X209232932Y-122967180D01*
X209232932Y-122967180D02*
X209185313Y-123014800D01*
X209185313Y-123014800D02*
X209090075Y-123062419D01*
X209090075Y-123062419D02*
X208947218Y-123062419D01*
X209709123Y-123062419D02*
X209709123Y-122395752D01*
X209709123Y-122586228D02*
X209756742Y-122490990D01*
X209756742Y-122490990D02*
X209804361Y-122443371D01*
X209804361Y-122443371D02*
X209899599Y-122395752D01*
X209899599Y-122395752D02*
X209994837Y-122395752D01*
X210709123Y-123014800D02*
X210613885Y-123062419D01*
X210613885Y-123062419D02*
X210423409Y-123062419D01*
X210423409Y-123062419D02*
X210328171Y-123014800D01*
X210328171Y-123014800D02*
X210280552Y-122919561D01*
X210280552Y-122919561D02*
X210280552Y-122538609D01*
X210280552Y-122538609D02*
X210328171Y-122443371D01*
X210328171Y-122443371D02*
X210423409Y-122395752D01*
X210423409Y-122395752D02*
X210613885Y-122395752D01*
X210613885Y-122395752D02*
X210709123Y-122443371D01*
X210709123Y-122443371D02*
X210756742Y-122538609D01*
X210756742Y-122538609D02*
X210756742Y-122633847D01*
X210756742Y-122633847D02*
X210280552Y-122729085D01*
X211947219Y-123062419D02*
X211947219Y-122062419D01*
X211947219Y-122062419D02*
X212328171Y-122062419D01*
X212328171Y-122062419D02*
X212423409Y-122110038D01*
X212423409Y-122110038D02*
X212471028Y-122157657D01*
X212471028Y-122157657D02*
X212518647Y-122252895D01*
X212518647Y-122252895D02*
X212518647Y-122395752D01*
X212518647Y-122395752D02*
X212471028Y-122490990D01*
X212471028Y-122490990D02*
X212423409Y-122538609D01*
X212423409Y-122538609D02*
X212328171Y-122586228D01*
X212328171Y-122586228D02*
X211947219Y-122586228D01*
X212947219Y-123062419D02*
X212947219Y-122395752D01*
X212947219Y-122586228D02*
X212994838Y-122490990D01*
X212994838Y-122490990D02*
X213042457Y-122443371D01*
X213042457Y-122443371D02*
X213137695Y-122395752D01*
X213137695Y-122395752D02*
X213232933Y-122395752D01*
X213709124Y-123062419D02*
X213613886Y-123014800D01*
X213613886Y-123014800D02*
X213566267Y-122967180D01*
X213566267Y-122967180D02*
X213518648Y-122871942D01*
X213518648Y-122871942D02*
X213518648Y-122586228D01*
X213518648Y-122586228D02*
X213566267Y-122490990D01*
X213566267Y-122490990D02*
X213613886Y-122443371D01*
X213613886Y-122443371D02*
X213709124Y-122395752D01*
X213709124Y-122395752D02*
X213851981Y-122395752D01*
X213851981Y-122395752D02*
X213947219Y-122443371D01*
X213947219Y-122443371D02*
X213994838Y-122490990D01*
X213994838Y-122490990D02*
X214042457Y-122586228D01*
X214042457Y-122586228D02*
X214042457Y-122871942D01*
X214042457Y-122871942D02*
X213994838Y-122967180D01*
X213994838Y-122967180D02*
X213947219Y-123014800D01*
X213947219Y-123014800D02*
X213851981Y-123062419D01*
X213851981Y-123062419D02*
X213709124Y-123062419D01*
X214471029Y-122395752D02*
X214471029Y-123252895D01*
X214471029Y-123252895D02*
X214423410Y-123348133D01*
X214423410Y-123348133D02*
X214328172Y-123395752D01*
X214328172Y-123395752D02*
X214280553Y-123395752D01*
X214471029Y-122062419D02*
X214423410Y-122110038D01*
X214423410Y-122110038D02*
X214471029Y-122157657D01*
X214471029Y-122157657D02*
X214518648Y-122110038D01*
X214518648Y-122110038D02*
X214471029Y-122062419D01*
X214471029Y-122062419D02*
X214471029Y-122157657D01*
X215328171Y-123014800D02*
X215232933Y-123062419D01*
X215232933Y-123062419D02*
X215042457Y-123062419D01*
X215042457Y-123062419D02*
X214947219Y-123014800D01*
X214947219Y-123014800D02*
X214899600Y-122919561D01*
X214899600Y-122919561D02*
X214899600Y-122538609D01*
X214899600Y-122538609D02*
X214947219Y-122443371D01*
X214947219Y-122443371D02*
X215042457Y-122395752D01*
X215042457Y-122395752D02*
X215232933Y-122395752D01*
X215232933Y-122395752D02*
X215328171Y-122443371D01*
X215328171Y-122443371D02*
X215375790Y-122538609D01*
X215375790Y-122538609D02*
X215375790Y-122633847D01*
X215375790Y-122633847D02*
X214899600Y-122729085D01*
X216232933Y-123014800D02*
X216137695Y-123062419D01*
X216137695Y-123062419D02*
X215947219Y-123062419D01*
X215947219Y-123062419D02*
X215851981Y-123014800D01*
X215851981Y-123014800D02*
X215804362Y-122967180D01*
X215804362Y-122967180D02*
X215756743Y-122871942D01*
X215756743Y-122871942D02*
X215756743Y-122586228D01*
X215756743Y-122586228D02*
X215804362Y-122490990D01*
X215804362Y-122490990D02*
X215851981Y-122443371D01*
X215851981Y-122443371D02*
X215947219Y-122395752D01*
X215947219Y-122395752D02*
X216137695Y-122395752D01*
X216137695Y-122395752D02*
X216232933Y-122443371D01*
X216518648Y-122395752D02*
X216899600Y-122395752D01*
X216661505Y-122062419D02*
X216661505Y-122919561D01*
X216661505Y-122919561D02*
X216709124Y-123014800D01*
X216709124Y-123014800D02*
X216804362Y-123062419D01*
X216804362Y-123062419D02*
X216899600Y-123062419D01*
X217185315Y-123014800D02*
X217280553Y-123062419D01*
X217280553Y-123062419D02*
X217471029Y-123062419D01*
X217471029Y-123062419D02*
X217566267Y-123014800D01*
X217566267Y-123014800D02*
X217613886Y-122919561D01*
X217613886Y-122919561D02*
X217613886Y-122871942D01*
X217613886Y-122871942D02*
X217566267Y-122776704D01*
X217566267Y-122776704D02*
X217471029Y-122729085D01*
X217471029Y-122729085D02*
X217328172Y-122729085D01*
X217328172Y-122729085D02*
X217232934Y-122681466D01*
X217232934Y-122681466D02*
X217185315Y-122586228D01*
X217185315Y-122586228D02*
X217185315Y-122538609D01*
X217185315Y-122538609D02*
X217232934Y-122443371D01*
X217232934Y-122443371D02*
X217328172Y-122395752D01*
X217328172Y-122395752D02*
X217471029Y-122395752D01*
X217471029Y-122395752D02*
X217566267Y-122443371D01*
X218756744Y-123014800D02*
X218899601Y-123062419D01*
X218899601Y-123062419D02*
X219137696Y-123062419D01*
X219137696Y-123062419D02*
X219232934Y-123014800D01*
X219232934Y-123014800D02*
X219280553Y-122967180D01*
X219280553Y-122967180D02*
X219328172Y-122871942D01*
X219328172Y-122871942D02*
X219328172Y-122776704D01*
X219328172Y-122776704D02*
X219280553Y-122681466D01*
X219280553Y-122681466D02*
X219232934Y-122633847D01*
X219232934Y-122633847D02*
X219137696Y-122586228D01*
X219137696Y-122586228D02*
X218947220Y-122538609D01*
X218947220Y-122538609D02*
X218851982Y-122490990D01*
X218851982Y-122490990D02*
X218804363Y-122443371D01*
X218804363Y-122443371D02*
X218756744Y-122348133D01*
X218756744Y-122348133D02*
X218756744Y-122252895D01*
X218756744Y-122252895D02*
X218804363Y-122157657D01*
X218804363Y-122157657D02*
X218851982Y-122110038D01*
X218851982Y-122110038D02*
X218947220Y-122062419D01*
X218947220Y-122062419D02*
X219185315Y-122062419D01*
X219185315Y-122062419D02*
X219328172Y-122110038D01*
X219756744Y-122395752D02*
X219756744Y-123395752D01*
X219756744Y-122443371D02*
X219851982Y-122395752D01*
X219851982Y-122395752D02*
X220042458Y-122395752D01*
X220042458Y-122395752D02*
X220137696Y-122443371D01*
X220137696Y-122443371D02*
X220185315Y-122490990D01*
X220185315Y-122490990D02*
X220232934Y-122586228D01*
X220232934Y-122586228D02*
X220232934Y-122871942D01*
X220232934Y-122871942D02*
X220185315Y-122967180D01*
X220185315Y-122967180D02*
X220137696Y-123014800D01*
X220137696Y-123014800D02*
X220042458Y-123062419D01*
X220042458Y-123062419D02*
X219851982Y-123062419D01*
X219851982Y-123062419D02*
X219756744Y-123014800D01*
X220661506Y-123062419D02*
X220661506Y-122395752D01*
X220661506Y-122586228D02*
X220709125Y-122490990D01*
X220709125Y-122490990D02*
X220756744Y-122443371D01*
X220756744Y-122443371D02*
X220851982Y-122395752D01*
X220851982Y-122395752D02*
X220947220Y-122395752D01*
X221280554Y-123062419D02*
X221280554Y-122395752D01*
X221280554Y-122062419D02*
X221232935Y-122110038D01*
X221232935Y-122110038D02*
X221280554Y-122157657D01*
X221280554Y-122157657D02*
X221328173Y-122110038D01*
X221328173Y-122110038D02*
X221280554Y-122062419D01*
X221280554Y-122062419D02*
X221280554Y-122157657D01*
X221756744Y-122395752D02*
X221756744Y-123062419D01*
X221756744Y-122490990D02*
X221804363Y-122443371D01*
X221804363Y-122443371D02*
X221899601Y-122395752D01*
X221899601Y-122395752D02*
X222042458Y-122395752D01*
X222042458Y-122395752D02*
X222137696Y-122443371D01*
X222137696Y-122443371D02*
X222185315Y-122538609D01*
X222185315Y-122538609D02*
X222185315Y-123062419D01*
X223090077Y-122395752D02*
X223090077Y-123205276D01*
X223090077Y-123205276D02*
X223042458Y-123300514D01*
X223042458Y-123300514D02*
X222994839Y-123348133D01*
X222994839Y-123348133D02*
X222899601Y-123395752D01*
X222899601Y-123395752D02*
X222756744Y-123395752D01*
X222756744Y-123395752D02*
X222661506Y-123348133D01*
X223090077Y-123014800D02*
X222994839Y-123062419D01*
X222994839Y-123062419D02*
X222804363Y-123062419D01*
X222804363Y-123062419D02*
X222709125Y-123014800D01*
X222709125Y-123014800D02*
X222661506Y-122967180D01*
X222661506Y-122967180D02*
X222613887Y-122871942D01*
X222613887Y-122871942D02*
X222613887Y-122586228D01*
X222613887Y-122586228D02*
X222661506Y-122490990D01*
X222661506Y-122490990D02*
X222709125Y-122443371D01*
X222709125Y-122443371D02*
X222804363Y-122395752D01*
X222804363Y-122395752D02*
X222994839Y-122395752D01*
X222994839Y-122395752D02*
X223090077Y-122443371D01*
X224280554Y-122157657D02*
X224328173Y-122110038D01*
X224328173Y-122110038D02*
X224423411Y-122062419D01*
X224423411Y-122062419D02*
X224661506Y-122062419D01*
X224661506Y-122062419D02*
X224756744Y-122110038D01*
X224756744Y-122110038D02*
X224804363Y-122157657D01*
X224804363Y-122157657D02*
X224851982Y-122252895D01*
X224851982Y-122252895D02*
X224851982Y-122348133D01*
X224851982Y-122348133D02*
X224804363Y-122490990D01*
X224804363Y-122490990D02*
X224232935Y-123062419D01*
X224232935Y-123062419D02*
X224851982Y-123062419D01*
X225471030Y-122062419D02*
X225566268Y-122062419D01*
X225566268Y-122062419D02*
X225661506Y-122110038D01*
X225661506Y-122110038D02*
X225709125Y-122157657D01*
X225709125Y-122157657D02*
X225756744Y-122252895D01*
X225756744Y-122252895D02*
X225804363Y-122443371D01*
X225804363Y-122443371D02*
X225804363Y-122681466D01*
X225804363Y-122681466D02*
X225756744Y-122871942D01*
X225756744Y-122871942D02*
X225709125Y-122967180D01*
X225709125Y-122967180D02*
X225661506Y-123014800D01*
X225661506Y-123014800D02*
X225566268Y-123062419D01*
X225566268Y-123062419D02*
X225471030Y-123062419D01*
X225471030Y-123062419D02*
X225375792Y-123014800D01*
X225375792Y-123014800D02*
X225328173Y-122967180D01*
X225328173Y-122967180D02*
X225280554Y-122871942D01*
X225280554Y-122871942D02*
X225232935Y-122681466D01*
X225232935Y-122681466D02*
X225232935Y-122443371D01*
X225232935Y-122443371D02*
X225280554Y-122252895D01*
X225280554Y-122252895D02*
X225328173Y-122157657D01*
X225328173Y-122157657D02*
X225375792Y-122110038D01*
X225375792Y-122110038D02*
X225471030Y-122062419D01*
X226185316Y-122157657D02*
X226232935Y-122110038D01*
X226232935Y-122110038D02*
X226328173Y-122062419D01*
X226328173Y-122062419D02*
X226566268Y-122062419D01*
X226566268Y-122062419D02*
X226661506Y-122110038D01*
X226661506Y-122110038D02*
X226709125Y-122157657D01*
X226709125Y-122157657D02*
X226756744Y-122252895D01*
X226756744Y-122252895D02*
X226756744Y-122348133D01*
X226756744Y-122348133D02*
X226709125Y-122490990D01*
X226709125Y-122490990D02*
X226137697Y-123062419D01*
X226137697Y-123062419D02*
X226756744Y-123062419D01*
X227613887Y-122395752D02*
X227613887Y-123062419D01*
X227375792Y-122014800D02*
X227137697Y-122729085D01*
X227137697Y-122729085D02*
X227756744Y-122729085D01*
X56573223Y-67755815D02*
X56097033Y-67755815D01*
X56097033Y-67755815D02*
X56049414Y-68232005D01*
X56049414Y-68232005D02*
X56097033Y-68184386D01*
X56097033Y-68184386D02*
X56192271Y-68136767D01*
X56192271Y-68136767D02*
X56430366Y-68136767D01*
X56430366Y-68136767D02*
X56525604Y-68184386D01*
X56525604Y-68184386D02*
X56573223Y-68232005D01*
X56573223Y-68232005D02*
X56620842Y-68327243D01*
X56620842Y-68327243D02*
X56620842Y-68565338D01*
X56620842Y-68565338D02*
X56573223Y-68660576D01*
X56573223Y-68660576D02*
X56525604Y-68708196D01*
X56525604Y-68708196D02*
X56430366Y-68755815D01*
X56430366Y-68755815D02*
X56192271Y-68755815D01*
X56192271Y-68755815D02*
X56097033Y-68708196D01*
X56097033Y-68708196D02*
X56049414Y-68660576D01*
X56906557Y-67755815D02*
X57239890Y-68755815D01*
X57239890Y-68755815D02*
X57573223Y-67755815D01*
X83947580Y-89203884D02*
X84947580Y-89203884D01*
X84852342Y-89632455D02*
X84899961Y-89680074D01*
X84899961Y-89680074D02*
X84947580Y-89775312D01*
X84947580Y-89775312D02*
X84947580Y-90013407D01*
X84947580Y-90013407D02*
X84899961Y-90108645D01*
X84899961Y-90108645D02*
X84852342Y-90156264D01*
X84852342Y-90156264D02*
X84757104Y-90203883D01*
X84757104Y-90203883D02*
X84661866Y-90203883D01*
X84661866Y-90203883D02*
X84519009Y-90156264D01*
X84519009Y-90156264D02*
X83947580Y-89584836D01*
X83947580Y-89584836D02*
X83947580Y-90203883D01*
X84042819Y-91203883D02*
X83995200Y-91156264D01*
X83995200Y-91156264D02*
X83947580Y-91013407D01*
X83947580Y-91013407D02*
X83947580Y-90918169D01*
X83947580Y-90918169D02*
X83995200Y-90775312D01*
X83995200Y-90775312D02*
X84090438Y-90680074D01*
X84090438Y-90680074D02*
X84185676Y-90632455D01*
X84185676Y-90632455D02*
X84376152Y-90584836D01*
X84376152Y-90584836D02*
X84519009Y-90584836D01*
X84519009Y-90584836D02*
X84709485Y-90632455D01*
X84709485Y-90632455D02*
X84804723Y-90680074D01*
X84804723Y-90680074D02*
X84899961Y-90775312D01*
X84899961Y-90775312D02*
X84947580Y-90918169D01*
X84947580Y-90918169D02*
X84947580Y-91013407D01*
X84947580Y-91013407D02*
X84899961Y-91156264D01*
X84899961Y-91156264D02*
X84852342Y-91203883D01*
X83995200Y-92346741D02*
X83947580Y-92489598D01*
X83947580Y-92489598D02*
X83947580Y-92727693D01*
X83947580Y-92727693D02*
X83995200Y-92822931D01*
X83995200Y-92822931D02*
X84042819Y-92870550D01*
X84042819Y-92870550D02*
X84138057Y-92918169D01*
X84138057Y-92918169D02*
X84233295Y-92918169D01*
X84233295Y-92918169D02*
X84328533Y-92870550D01*
X84328533Y-92870550D02*
X84376152Y-92822931D01*
X84376152Y-92822931D02*
X84423771Y-92727693D01*
X84423771Y-92727693D02*
X84471390Y-92537217D01*
X84471390Y-92537217D02*
X84519009Y-92441979D01*
X84519009Y-92441979D02*
X84566628Y-92394360D01*
X84566628Y-92394360D02*
X84661866Y-92346741D01*
X84661866Y-92346741D02*
X84757104Y-92346741D01*
X84757104Y-92346741D02*
X84852342Y-92394360D01*
X84852342Y-92394360D02*
X84899961Y-92441979D01*
X84899961Y-92441979D02*
X84947580Y-92537217D01*
X84947580Y-92537217D02*
X84947580Y-92775312D01*
X84947580Y-92775312D02*
X84899961Y-92918169D01*
X83947580Y-93346741D02*
X84947580Y-93346741D01*
X84947580Y-93346741D02*
X84947580Y-93584836D01*
X84947580Y-93584836D02*
X84899961Y-93727693D01*
X84899961Y-93727693D02*
X84804723Y-93822931D01*
X84804723Y-93822931D02*
X84709485Y-93870550D01*
X84709485Y-93870550D02*
X84519009Y-93918169D01*
X84519009Y-93918169D02*
X84376152Y-93918169D01*
X84376152Y-93918169D02*
X84185676Y-93870550D01*
X84185676Y-93870550D02*
X84090438Y-93822931D01*
X84090438Y-93822931D02*
X83995200Y-93727693D01*
X83995200Y-93727693D02*
X83947580Y-93584836D01*
X83947580Y-93584836D02*
X83947580Y-93346741D01*
X84233295Y-94299122D02*
X84233295Y-94775312D01*
X83947580Y-94203884D02*
X84947580Y-94537217D01*
X84947580Y-94537217D02*
X83947580Y-94870550D01*
X87487580Y-89680074D02*
X87487580Y-89203884D01*
X87487580Y-89203884D02*
X87011390Y-89156265D01*
X87011390Y-89156265D02*
X87059009Y-89203884D01*
X87059009Y-89203884D02*
X87106628Y-89299122D01*
X87106628Y-89299122D02*
X87106628Y-89537217D01*
X87106628Y-89537217D02*
X87059009Y-89632455D01*
X87059009Y-89632455D02*
X87011390Y-89680074D01*
X87011390Y-89680074D02*
X86916152Y-89727693D01*
X86916152Y-89727693D02*
X86678057Y-89727693D01*
X86678057Y-89727693D02*
X86582819Y-89680074D01*
X86582819Y-89680074D02*
X86535200Y-89632455D01*
X86535200Y-89632455D02*
X86487580Y-89537217D01*
X86487580Y-89537217D02*
X86487580Y-89299122D01*
X86487580Y-89299122D02*
X86535200Y-89203884D01*
X86535200Y-89203884D02*
X86582819Y-89156265D01*
X87487580Y-90013408D02*
X86487580Y-90346741D01*
X86487580Y-90346741D02*
X87487580Y-90680074D01*
X62357580Y-67613884D02*
X63357580Y-67613884D01*
X62881390Y-67613884D02*
X62881390Y-68185312D01*
X62357580Y-68185312D02*
X63357580Y-68185312D01*
X63357580Y-68518646D02*
X62357580Y-68851979D01*
X62357580Y-68851979D02*
X63357580Y-69185312D01*
X62881390Y-70280551D02*
X62881390Y-70613884D01*
X62357580Y-70756741D02*
X62357580Y-70280551D01*
X62357580Y-70280551D02*
X63357580Y-70280551D01*
X63357580Y-70280551D02*
X63357580Y-70756741D01*
X62357580Y-71185313D02*
X63357580Y-71185313D01*
X63357580Y-71185313D02*
X62357580Y-71756741D01*
X62357580Y-71756741D02*
X63357580Y-71756741D01*
X62643295Y-72185313D02*
X62643295Y-72661503D01*
X62357580Y-72090075D02*
X63357580Y-72423408D01*
X63357580Y-72423408D02*
X62357580Y-72756741D01*
X62881390Y-73423408D02*
X62833771Y-73566265D01*
X62833771Y-73566265D02*
X62786152Y-73613884D01*
X62786152Y-73613884D02*
X62690914Y-73661503D01*
X62690914Y-73661503D02*
X62548057Y-73661503D01*
X62548057Y-73661503D02*
X62452819Y-73613884D01*
X62452819Y-73613884D02*
X62405200Y-73566265D01*
X62405200Y-73566265D02*
X62357580Y-73471027D01*
X62357580Y-73471027D02*
X62357580Y-73090075D01*
X62357580Y-73090075D02*
X63357580Y-73090075D01*
X63357580Y-73090075D02*
X63357580Y-73423408D01*
X63357580Y-73423408D02*
X63309961Y-73518646D01*
X63309961Y-73518646D02*
X63262342Y-73566265D01*
X63262342Y-73566265D02*
X63167104Y-73613884D01*
X63167104Y-73613884D02*
X63071866Y-73613884D01*
X63071866Y-73613884D02*
X62976628Y-73566265D01*
X62976628Y-73566265D02*
X62929009Y-73518646D01*
X62929009Y-73518646D02*
X62881390Y-73423408D01*
X62881390Y-73423408D02*
X62881390Y-73090075D01*
X62357580Y-74566265D02*
X62357580Y-74090075D01*
X62357580Y-74090075D02*
X63357580Y-74090075D01*
X62881390Y-74899599D02*
X62881390Y-75232932D01*
X62357580Y-75375789D02*
X62357580Y-74899599D01*
X62357580Y-74899599D02*
X63357580Y-74899599D01*
X63357580Y-74899599D02*
X63357580Y-75375789D01*
X57930074Y-75072419D02*
X57453884Y-75072419D01*
X57453884Y-75072419D02*
X57406265Y-75548609D01*
X57406265Y-75548609D02*
X57453884Y-75500990D01*
X57453884Y-75500990D02*
X57549122Y-75453371D01*
X57549122Y-75453371D02*
X57787217Y-75453371D01*
X57787217Y-75453371D02*
X57882455Y-75500990D01*
X57882455Y-75500990D02*
X57930074Y-75548609D01*
X57930074Y-75548609D02*
X57977693Y-75643847D01*
X57977693Y-75643847D02*
X57977693Y-75881942D01*
X57977693Y-75881942D02*
X57930074Y-75977180D01*
X57930074Y-75977180D02*
X57882455Y-76024800D01*
X57882455Y-76024800D02*
X57787217Y-76072419D01*
X57787217Y-76072419D02*
X57549122Y-76072419D01*
X57549122Y-76072419D02*
X57453884Y-76024800D01*
X57453884Y-76024800D02*
X57406265Y-75977180D01*
X58263408Y-75072419D02*
X58596741Y-76072419D01*
X58596741Y-76072419D02*
X58930074Y-75072419D01*
X60025313Y-76072419D02*
X60025313Y-75072419D01*
X60501503Y-76072419D02*
X60501503Y-75072419D01*
X60501503Y-75072419D02*
X61072931Y-76072419D01*
X61072931Y-76072419D02*
X61072931Y-75072419D01*
X106237693Y-117982419D02*
X105666265Y-117982419D01*
X105951979Y-117982419D02*
X105951979Y-116982419D01*
X105951979Y-116982419D02*
X105856741Y-117125276D01*
X105856741Y-117125276D02*
X105761503Y-117220514D01*
X105761503Y-117220514D02*
X105666265Y-117268133D01*
X106666265Y-117982419D02*
X106666265Y-116982419D01*
X106761503Y-117601466D02*
X107047217Y-117982419D01*
X107047217Y-117315752D02*
X106666265Y-117696704D01*
X70025200Y-67626265D02*
X69977580Y-67769122D01*
X69977580Y-67769122D02*
X69977580Y-68007217D01*
X69977580Y-68007217D02*
X70025200Y-68102455D01*
X70025200Y-68102455D02*
X70072819Y-68150074D01*
X70072819Y-68150074D02*
X70168057Y-68197693D01*
X70168057Y-68197693D02*
X70263295Y-68197693D01*
X70263295Y-68197693D02*
X70358533Y-68150074D01*
X70358533Y-68150074D02*
X70406152Y-68102455D01*
X70406152Y-68102455D02*
X70453771Y-68007217D01*
X70453771Y-68007217D02*
X70501390Y-67816741D01*
X70501390Y-67816741D02*
X70549009Y-67721503D01*
X70549009Y-67721503D02*
X70596628Y-67673884D01*
X70596628Y-67673884D02*
X70691866Y-67626265D01*
X70691866Y-67626265D02*
X70787104Y-67626265D01*
X70787104Y-67626265D02*
X70882342Y-67673884D01*
X70882342Y-67673884D02*
X70929961Y-67721503D01*
X70929961Y-67721503D02*
X70977580Y-67816741D01*
X70977580Y-67816741D02*
X70977580Y-68054836D01*
X70977580Y-68054836D02*
X70929961Y-68197693D01*
X70501390Y-68626265D02*
X70501390Y-68959598D01*
X69977580Y-69102455D02*
X69977580Y-68626265D01*
X69977580Y-68626265D02*
X70977580Y-68626265D01*
X70977580Y-68626265D02*
X70977580Y-69102455D01*
X69977580Y-70102455D02*
X70453771Y-69769122D01*
X69977580Y-69531027D02*
X70977580Y-69531027D01*
X70977580Y-69531027D02*
X70977580Y-69911979D01*
X70977580Y-69911979D02*
X70929961Y-70007217D01*
X70929961Y-70007217D02*
X70882342Y-70054836D01*
X70882342Y-70054836D02*
X70787104Y-70102455D01*
X70787104Y-70102455D02*
X70644247Y-70102455D01*
X70644247Y-70102455D02*
X70549009Y-70054836D01*
X70549009Y-70054836D02*
X70501390Y-70007217D01*
X70501390Y-70007217D02*
X70453771Y-69911979D01*
X70453771Y-69911979D02*
X70453771Y-69531027D01*
X69977580Y-70531027D02*
X70977580Y-70531027D01*
X70263295Y-70959598D02*
X70263295Y-71435788D01*
X69977580Y-70864360D02*
X70977580Y-71197693D01*
X70977580Y-71197693D02*
X69977580Y-71531026D01*
X69977580Y-72340550D02*
X69977580Y-71864360D01*
X69977580Y-71864360D02*
X70977580Y-71864360D01*
X69977580Y-73435789D02*
X70977580Y-73435789D01*
X70977580Y-73435789D02*
X70977580Y-73673884D01*
X70977580Y-73673884D02*
X70929961Y-73816741D01*
X70929961Y-73816741D02*
X70834723Y-73911979D01*
X70834723Y-73911979D02*
X70739485Y-73959598D01*
X70739485Y-73959598D02*
X70549009Y-74007217D01*
X70549009Y-74007217D02*
X70406152Y-74007217D01*
X70406152Y-74007217D02*
X70215676Y-73959598D01*
X70215676Y-73959598D02*
X70120438Y-73911979D01*
X70120438Y-73911979D02*
X70025200Y-73816741D01*
X70025200Y-73816741D02*
X69977580Y-73673884D01*
X69977580Y-73673884D02*
X69977580Y-73435789D01*
X70263295Y-74388170D02*
X70263295Y-74864360D01*
X69977580Y-74292932D02*
X70977580Y-74626265D01*
X70977580Y-74626265D02*
X69977580Y-74959598D01*
X70977580Y-75150075D02*
X70977580Y-75721503D01*
X69977580Y-75435789D02*
X70977580Y-75435789D01*
X70263295Y-76007218D02*
X70263295Y-76483408D01*
X69977580Y-75911980D02*
X70977580Y-76245313D01*
X70977580Y-76245313D02*
X69977580Y-76578646D01*
X77327580Y-89108646D02*
X77327580Y-89727693D01*
X77327580Y-89727693D02*
X76946628Y-89394360D01*
X76946628Y-89394360D02*
X76946628Y-89537217D01*
X76946628Y-89537217D02*
X76899009Y-89632455D01*
X76899009Y-89632455D02*
X76851390Y-89680074D01*
X76851390Y-89680074D02*
X76756152Y-89727693D01*
X76756152Y-89727693D02*
X76518057Y-89727693D01*
X76518057Y-89727693D02*
X76422819Y-89680074D01*
X76422819Y-89680074D02*
X76375200Y-89632455D01*
X76375200Y-89632455D02*
X76327580Y-89537217D01*
X76327580Y-89537217D02*
X76327580Y-89251503D01*
X76327580Y-89251503D02*
X76375200Y-89156265D01*
X76375200Y-89156265D02*
X76422819Y-89108646D01*
X77232342Y-90108646D02*
X77279961Y-90156265D01*
X77279961Y-90156265D02*
X77327580Y-90251503D01*
X77327580Y-90251503D02*
X77327580Y-90489598D01*
X77327580Y-90489598D02*
X77279961Y-90584836D01*
X77279961Y-90584836D02*
X77232342Y-90632455D01*
X77232342Y-90632455D02*
X77137104Y-90680074D01*
X77137104Y-90680074D02*
X77041866Y-90680074D01*
X77041866Y-90680074D02*
X76899009Y-90632455D01*
X76899009Y-90632455D02*
X76327580Y-90061027D01*
X76327580Y-90061027D02*
X76327580Y-90680074D01*
X76327580Y-91108646D02*
X77327580Y-91108646D01*
X76708533Y-91203884D02*
X76327580Y-91489598D01*
X76994247Y-91489598D02*
X76613295Y-91108646D01*
X76327580Y-91918170D02*
X77327580Y-91918170D01*
X76851390Y-91918170D02*
X76851390Y-92489598D01*
X76327580Y-92489598D02*
X77327580Y-92489598D01*
X76994247Y-92870551D02*
X76994247Y-93394360D01*
X76994247Y-93394360D02*
X76327580Y-92870551D01*
X76327580Y-92870551D02*
X76327580Y-93394360D01*
X89979961Y-89727693D02*
X90027580Y-89632455D01*
X90027580Y-89632455D02*
X90027580Y-89489598D01*
X90027580Y-89489598D02*
X89979961Y-89346741D01*
X89979961Y-89346741D02*
X89884723Y-89251503D01*
X89884723Y-89251503D02*
X89789485Y-89203884D01*
X89789485Y-89203884D02*
X89599009Y-89156265D01*
X89599009Y-89156265D02*
X89456152Y-89156265D01*
X89456152Y-89156265D02*
X89265676Y-89203884D01*
X89265676Y-89203884D02*
X89170438Y-89251503D01*
X89170438Y-89251503D02*
X89075200Y-89346741D01*
X89075200Y-89346741D02*
X89027580Y-89489598D01*
X89027580Y-89489598D02*
X89027580Y-89584836D01*
X89027580Y-89584836D02*
X89075200Y-89727693D01*
X89075200Y-89727693D02*
X89122819Y-89775312D01*
X89122819Y-89775312D02*
X89456152Y-89775312D01*
X89456152Y-89775312D02*
X89456152Y-89584836D01*
X89027580Y-90203884D02*
X90027580Y-90203884D01*
X90027580Y-90203884D02*
X89027580Y-90775312D01*
X89027580Y-90775312D02*
X90027580Y-90775312D01*
X89027580Y-91251503D02*
X90027580Y-91251503D01*
X90027580Y-91251503D02*
X90027580Y-91489598D01*
X90027580Y-91489598D02*
X89979961Y-91632455D01*
X89979961Y-91632455D02*
X89884723Y-91727693D01*
X89884723Y-91727693D02*
X89789485Y-91775312D01*
X89789485Y-91775312D02*
X89599009Y-91822931D01*
X89599009Y-91822931D02*
X89456152Y-91822931D01*
X89456152Y-91822931D02*
X89265676Y-91775312D01*
X89265676Y-91775312D02*
X89170438Y-91727693D01*
X89170438Y-91727693D02*
X89075200Y-91632455D01*
X89075200Y-91632455D02*
X89027580Y-91489598D01*
X89027580Y-91489598D02*
X89027580Y-91251503D01*
X81407580Y-89203884D02*
X82407580Y-89203884D01*
X82312342Y-89632455D02*
X82359961Y-89680074D01*
X82359961Y-89680074D02*
X82407580Y-89775312D01*
X82407580Y-89775312D02*
X82407580Y-90013407D01*
X82407580Y-90013407D02*
X82359961Y-90108645D01*
X82359961Y-90108645D02*
X82312342Y-90156264D01*
X82312342Y-90156264D02*
X82217104Y-90203883D01*
X82217104Y-90203883D02*
X82121866Y-90203883D01*
X82121866Y-90203883D02*
X81979009Y-90156264D01*
X81979009Y-90156264D02*
X81407580Y-89584836D01*
X81407580Y-89584836D02*
X81407580Y-90203883D01*
X81502819Y-91203883D02*
X81455200Y-91156264D01*
X81455200Y-91156264D02*
X81407580Y-91013407D01*
X81407580Y-91013407D02*
X81407580Y-90918169D01*
X81407580Y-90918169D02*
X81455200Y-90775312D01*
X81455200Y-90775312D02*
X81550438Y-90680074D01*
X81550438Y-90680074D02*
X81645676Y-90632455D01*
X81645676Y-90632455D02*
X81836152Y-90584836D01*
X81836152Y-90584836D02*
X81979009Y-90584836D01*
X81979009Y-90584836D02*
X82169485Y-90632455D01*
X82169485Y-90632455D02*
X82264723Y-90680074D01*
X82264723Y-90680074D02*
X82359961Y-90775312D01*
X82359961Y-90775312D02*
X82407580Y-90918169D01*
X82407580Y-90918169D02*
X82407580Y-91013407D01*
X82407580Y-91013407D02*
X82359961Y-91156264D01*
X82359961Y-91156264D02*
X82312342Y-91203883D01*
X81455200Y-92346741D02*
X81407580Y-92489598D01*
X81407580Y-92489598D02*
X81407580Y-92727693D01*
X81407580Y-92727693D02*
X81455200Y-92822931D01*
X81455200Y-92822931D02*
X81502819Y-92870550D01*
X81502819Y-92870550D02*
X81598057Y-92918169D01*
X81598057Y-92918169D02*
X81693295Y-92918169D01*
X81693295Y-92918169D02*
X81788533Y-92870550D01*
X81788533Y-92870550D02*
X81836152Y-92822931D01*
X81836152Y-92822931D02*
X81883771Y-92727693D01*
X81883771Y-92727693D02*
X81931390Y-92537217D01*
X81931390Y-92537217D02*
X81979009Y-92441979D01*
X81979009Y-92441979D02*
X82026628Y-92394360D01*
X82026628Y-92394360D02*
X82121866Y-92346741D01*
X82121866Y-92346741D02*
X82217104Y-92346741D01*
X82217104Y-92346741D02*
X82312342Y-92394360D01*
X82312342Y-92394360D02*
X82359961Y-92441979D01*
X82359961Y-92441979D02*
X82407580Y-92537217D01*
X82407580Y-92537217D02*
X82407580Y-92775312D01*
X82407580Y-92775312D02*
X82359961Y-92918169D01*
X81502819Y-93918169D02*
X81455200Y-93870550D01*
X81455200Y-93870550D02*
X81407580Y-93727693D01*
X81407580Y-93727693D02*
X81407580Y-93632455D01*
X81407580Y-93632455D02*
X81455200Y-93489598D01*
X81455200Y-93489598D02*
X81550438Y-93394360D01*
X81550438Y-93394360D02*
X81645676Y-93346741D01*
X81645676Y-93346741D02*
X81836152Y-93299122D01*
X81836152Y-93299122D02*
X81979009Y-93299122D01*
X81979009Y-93299122D02*
X82169485Y-93346741D01*
X82169485Y-93346741D02*
X82264723Y-93394360D01*
X82264723Y-93394360D02*
X82359961Y-93489598D01*
X82359961Y-93489598D02*
X82407580Y-93632455D01*
X82407580Y-93632455D02*
X82407580Y-93727693D01*
X82407580Y-93727693D02*
X82359961Y-93870550D01*
X82359961Y-93870550D02*
X82312342Y-93918169D01*
X81407580Y-94822931D02*
X81407580Y-94346741D01*
X81407580Y-94346741D02*
X82407580Y-94346741D01*
X78915200Y-89156265D02*
X78867580Y-89299122D01*
X78867580Y-89299122D02*
X78867580Y-89537217D01*
X78867580Y-89537217D02*
X78915200Y-89632455D01*
X78915200Y-89632455D02*
X78962819Y-89680074D01*
X78962819Y-89680074D02*
X79058057Y-89727693D01*
X79058057Y-89727693D02*
X79153295Y-89727693D01*
X79153295Y-89727693D02*
X79248533Y-89680074D01*
X79248533Y-89680074D02*
X79296152Y-89632455D01*
X79296152Y-89632455D02*
X79343771Y-89537217D01*
X79343771Y-89537217D02*
X79391390Y-89346741D01*
X79391390Y-89346741D02*
X79439009Y-89251503D01*
X79439009Y-89251503D02*
X79486628Y-89203884D01*
X79486628Y-89203884D02*
X79581866Y-89156265D01*
X79581866Y-89156265D02*
X79677104Y-89156265D01*
X79677104Y-89156265D02*
X79772342Y-89203884D01*
X79772342Y-89203884D02*
X79819961Y-89251503D01*
X79819961Y-89251503D02*
X79867580Y-89346741D01*
X79867580Y-89346741D02*
X79867580Y-89584836D01*
X79867580Y-89584836D02*
X79819961Y-89727693D01*
X78772342Y-90822931D02*
X78819961Y-90727693D01*
X78819961Y-90727693D02*
X78915200Y-90632455D01*
X78915200Y-90632455D02*
X79058057Y-90489598D01*
X79058057Y-90489598D02*
X79105676Y-90394360D01*
X79105676Y-90394360D02*
X79105676Y-90299122D01*
X78867580Y-90346741D02*
X78915200Y-90251503D01*
X78915200Y-90251503D02*
X79010438Y-90156265D01*
X79010438Y-90156265D02*
X79200914Y-90108646D01*
X79200914Y-90108646D02*
X79534247Y-90108646D01*
X79534247Y-90108646D02*
X79724723Y-90156265D01*
X79724723Y-90156265D02*
X79819961Y-90251503D01*
X79819961Y-90251503D02*
X79867580Y-90346741D01*
X79867580Y-90346741D02*
X79867580Y-90537217D01*
X79867580Y-90537217D02*
X79819961Y-90632455D01*
X79819961Y-90632455D02*
X79724723Y-90727693D01*
X79724723Y-90727693D02*
X79534247Y-90775312D01*
X79534247Y-90775312D02*
X79200914Y-90775312D01*
X79200914Y-90775312D02*
X79010438Y-90727693D01*
X79010438Y-90727693D02*
X78915200Y-90632455D01*
X78915200Y-90632455D02*
X78867580Y-90537217D01*
X78867580Y-90537217D02*
X78867580Y-90346741D01*
X79867580Y-91203884D02*
X79058057Y-91203884D01*
X79058057Y-91203884D02*
X78962819Y-91251503D01*
X78962819Y-91251503D02*
X78915200Y-91299122D01*
X78915200Y-91299122D02*
X78867580Y-91394360D01*
X78867580Y-91394360D02*
X78867580Y-91584836D01*
X78867580Y-91584836D02*
X78915200Y-91680074D01*
X78915200Y-91680074D02*
X78962819Y-91727693D01*
X78962819Y-91727693D02*
X79058057Y-91775312D01*
X79058057Y-91775312D02*
X79867580Y-91775312D01*
X79153295Y-92203884D02*
X79153295Y-92680074D01*
X78867580Y-92108646D02*
X79867580Y-92441979D01*
X79867580Y-92441979D02*
X78867580Y-92775312D01*
X78867580Y-93680074D02*
X79343771Y-93346741D01*
X78867580Y-93108646D02*
X79867580Y-93108646D01*
X79867580Y-93108646D02*
X79867580Y-93489598D01*
X79867580Y-93489598D02*
X79819961Y-93584836D01*
X79819961Y-93584836D02*
X79772342Y-93632455D01*
X79772342Y-93632455D02*
X79677104Y-93680074D01*
X79677104Y-93680074D02*
X79534247Y-93680074D01*
X79534247Y-93680074D02*
X79439009Y-93632455D01*
X79439009Y-93632455D02*
X79391390Y-93584836D01*
X79391390Y-93584836D02*
X79343771Y-93489598D01*
X79343771Y-93489598D02*
X79343771Y-93108646D01*
X79391390Y-94108646D02*
X79391390Y-94441979D01*
X78867580Y-94584836D02*
X78867580Y-94108646D01*
X78867580Y-94108646D02*
X79867580Y-94108646D01*
X79867580Y-94108646D02*
X79867580Y-94584836D01*
X79867580Y-95680075D02*
X78867580Y-95918170D01*
X78867580Y-95918170D02*
X79581866Y-96108646D01*
X79581866Y-96108646D02*
X78867580Y-96299122D01*
X78867580Y-96299122D02*
X79867580Y-96537218D01*
X79153295Y-96870551D02*
X79153295Y-97346741D01*
X78867580Y-96775313D02*
X79867580Y-97108646D01*
X79867580Y-97108646D02*
X78867580Y-97441979D01*
X79867580Y-97632456D02*
X78867580Y-97965789D01*
X78867580Y-97965789D02*
X79867580Y-98299122D01*
X79391390Y-98632456D02*
X79391390Y-98965789D01*
X78867580Y-99108646D02*
X78867580Y-98632456D01*
X78867580Y-98632456D02*
X79867580Y-98632456D01*
X79867580Y-98632456D02*
X79867580Y-99108646D01*
X129097693Y-117982419D02*
X128526265Y-117982419D01*
X128811979Y-117982419D02*
X128811979Y-116982419D01*
X128811979Y-116982419D02*
X128716741Y-117125276D01*
X128716741Y-117125276D02*
X128621503Y-117220514D01*
X128621503Y-117220514D02*
X128526265Y-117268133D01*
X129526265Y-117982419D02*
X129526265Y-116982419D01*
X129621503Y-117601466D02*
X129907217Y-117982419D01*
X129907217Y-117315752D02*
X129526265Y-117696704D01*
X67485200Y-67566265D02*
X67437580Y-67709122D01*
X67437580Y-67709122D02*
X67437580Y-67947217D01*
X67437580Y-67947217D02*
X67485200Y-68042455D01*
X67485200Y-68042455D02*
X67532819Y-68090074D01*
X67532819Y-68090074D02*
X67628057Y-68137693D01*
X67628057Y-68137693D02*
X67723295Y-68137693D01*
X67723295Y-68137693D02*
X67818533Y-68090074D01*
X67818533Y-68090074D02*
X67866152Y-68042455D01*
X67866152Y-68042455D02*
X67913771Y-67947217D01*
X67913771Y-67947217D02*
X67961390Y-67756741D01*
X67961390Y-67756741D02*
X68009009Y-67661503D01*
X68009009Y-67661503D02*
X68056628Y-67613884D01*
X68056628Y-67613884D02*
X68151866Y-67566265D01*
X68151866Y-67566265D02*
X68247104Y-67566265D01*
X68247104Y-67566265D02*
X68342342Y-67613884D01*
X68342342Y-67613884D02*
X68389961Y-67661503D01*
X68389961Y-67661503D02*
X68437580Y-67756741D01*
X68437580Y-67756741D02*
X68437580Y-67994836D01*
X68437580Y-67994836D02*
X68389961Y-68137693D01*
X67961390Y-68566265D02*
X67961390Y-68899598D01*
X67437580Y-69042455D02*
X67437580Y-68566265D01*
X67437580Y-68566265D02*
X68437580Y-68566265D01*
X68437580Y-68566265D02*
X68437580Y-69042455D01*
X67437580Y-70042455D02*
X67913771Y-69709122D01*
X67437580Y-69471027D02*
X68437580Y-69471027D01*
X68437580Y-69471027D02*
X68437580Y-69851979D01*
X68437580Y-69851979D02*
X68389961Y-69947217D01*
X68389961Y-69947217D02*
X68342342Y-69994836D01*
X68342342Y-69994836D02*
X68247104Y-70042455D01*
X68247104Y-70042455D02*
X68104247Y-70042455D01*
X68104247Y-70042455D02*
X68009009Y-69994836D01*
X68009009Y-69994836D02*
X67961390Y-69947217D01*
X67961390Y-69947217D02*
X67913771Y-69851979D01*
X67913771Y-69851979D02*
X67913771Y-69471027D01*
X67437580Y-70471027D02*
X68437580Y-70471027D01*
X67723295Y-70899598D02*
X67723295Y-71375788D01*
X67437580Y-70804360D02*
X68437580Y-71137693D01*
X68437580Y-71137693D02*
X67437580Y-71471026D01*
X67437580Y-72280550D02*
X67437580Y-71804360D01*
X67437580Y-71804360D02*
X68437580Y-71804360D01*
X67532819Y-73947217D02*
X67485200Y-73899598D01*
X67485200Y-73899598D02*
X67437580Y-73756741D01*
X67437580Y-73756741D02*
X67437580Y-73661503D01*
X67437580Y-73661503D02*
X67485200Y-73518646D01*
X67485200Y-73518646D02*
X67580438Y-73423408D01*
X67580438Y-73423408D02*
X67675676Y-73375789D01*
X67675676Y-73375789D02*
X67866152Y-73328170D01*
X67866152Y-73328170D02*
X68009009Y-73328170D01*
X68009009Y-73328170D02*
X68199485Y-73375789D01*
X68199485Y-73375789D02*
X68294723Y-73423408D01*
X68294723Y-73423408D02*
X68389961Y-73518646D01*
X68389961Y-73518646D02*
X68437580Y-73661503D01*
X68437580Y-73661503D02*
X68437580Y-73756741D01*
X68437580Y-73756741D02*
X68389961Y-73899598D01*
X68389961Y-73899598D02*
X68342342Y-73947217D01*
X67437580Y-74851979D02*
X67437580Y-74375789D01*
X67437580Y-74375789D02*
X68437580Y-74375789D01*
X68437580Y-75375789D02*
X68437580Y-75566265D01*
X68437580Y-75566265D02*
X68389961Y-75661503D01*
X68389961Y-75661503D02*
X68294723Y-75756741D01*
X68294723Y-75756741D02*
X68104247Y-75804360D01*
X68104247Y-75804360D02*
X67770914Y-75804360D01*
X67770914Y-75804360D02*
X67580438Y-75756741D01*
X67580438Y-75756741D02*
X67485200Y-75661503D01*
X67485200Y-75661503D02*
X67437580Y-75566265D01*
X67437580Y-75566265D02*
X67437580Y-75375789D01*
X67437580Y-75375789D02*
X67485200Y-75280551D01*
X67485200Y-75280551D02*
X67580438Y-75185313D01*
X67580438Y-75185313D02*
X67770914Y-75137694D01*
X67770914Y-75137694D02*
X68104247Y-75137694D01*
X68104247Y-75137694D02*
X68294723Y-75185313D01*
X68294723Y-75185313D02*
X68389961Y-75280551D01*
X68389961Y-75280551D02*
X68437580Y-75375789D01*
X67532819Y-76804360D02*
X67485200Y-76756741D01*
X67485200Y-76756741D02*
X67437580Y-76613884D01*
X67437580Y-76613884D02*
X67437580Y-76518646D01*
X67437580Y-76518646D02*
X67485200Y-76375789D01*
X67485200Y-76375789D02*
X67580438Y-76280551D01*
X67580438Y-76280551D02*
X67675676Y-76232932D01*
X67675676Y-76232932D02*
X67866152Y-76185313D01*
X67866152Y-76185313D02*
X68009009Y-76185313D01*
X68009009Y-76185313D02*
X68199485Y-76232932D01*
X68199485Y-76232932D02*
X68294723Y-76280551D01*
X68294723Y-76280551D02*
X68389961Y-76375789D01*
X68389961Y-76375789D02*
X68437580Y-76518646D01*
X68437580Y-76518646D02*
X68437580Y-76613884D01*
X68437580Y-76613884D02*
X68389961Y-76756741D01*
X68389961Y-76756741D02*
X68342342Y-76804360D01*
X67437580Y-77232932D02*
X68437580Y-77232932D01*
X67437580Y-77804360D02*
X68009009Y-77375789D01*
X68437580Y-77804360D02*
X67866152Y-77232932D01*
X59993884Y-112902419D02*
X59993884Y-111902419D01*
X59993884Y-111902419D02*
X60374836Y-111902419D01*
X60374836Y-111902419D02*
X60470074Y-111950038D01*
X60470074Y-111950038D02*
X60517693Y-111997657D01*
X60517693Y-111997657D02*
X60565312Y-112092895D01*
X60565312Y-112092895D02*
X60565312Y-112235752D01*
X60565312Y-112235752D02*
X60517693Y-112330990D01*
X60517693Y-112330990D02*
X60470074Y-112378609D01*
X60470074Y-112378609D02*
X60374836Y-112426228D01*
X60374836Y-112426228D02*
X59993884Y-112426228D01*
X61565312Y-112902419D02*
X61231979Y-112426228D01*
X60993884Y-112902419D02*
X60993884Y-111902419D01*
X60993884Y-111902419D02*
X61374836Y-111902419D01*
X61374836Y-111902419D02*
X61470074Y-111950038D01*
X61470074Y-111950038D02*
X61517693Y-111997657D01*
X61517693Y-111997657D02*
X61565312Y-112092895D01*
X61565312Y-112092895D02*
X61565312Y-112235752D01*
X61565312Y-112235752D02*
X61517693Y-112330990D01*
X61517693Y-112330990D02*
X61470074Y-112378609D01*
X61470074Y-112378609D02*
X61374836Y-112426228D01*
X61374836Y-112426228D02*
X60993884Y-112426228D01*
X62184360Y-111902419D02*
X62374836Y-111902419D01*
X62374836Y-111902419D02*
X62470074Y-111950038D01*
X62470074Y-111950038D02*
X62565312Y-112045276D01*
X62565312Y-112045276D02*
X62612931Y-112235752D01*
X62612931Y-112235752D02*
X62612931Y-112569085D01*
X62612931Y-112569085D02*
X62565312Y-112759561D01*
X62565312Y-112759561D02*
X62470074Y-112854800D01*
X62470074Y-112854800D02*
X62374836Y-112902419D01*
X62374836Y-112902419D02*
X62184360Y-112902419D01*
X62184360Y-112902419D02*
X62089122Y-112854800D01*
X62089122Y-112854800D02*
X61993884Y-112759561D01*
X61993884Y-112759561D02*
X61946265Y-112569085D01*
X61946265Y-112569085D02*
X61946265Y-112235752D01*
X61946265Y-112235752D02*
X61993884Y-112045276D01*
X61993884Y-112045276D02*
X62089122Y-111950038D01*
X62089122Y-111950038D02*
X62184360Y-111902419D01*
X63803408Y-112902419D02*
X63803408Y-111902419D01*
X63803408Y-111902419D02*
X64136741Y-112616704D01*
X64136741Y-112616704D02*
X64470074Y-111902419D01*
X64470074Y-111902419D02*
X64470074Y-112902419D01*
X64946265Y-112902419D02*
X64946265Y-111902419D01*
X65422455Y-112902419D02*
X65422455Y-111902419D01*
X65422455Y-111902419D02*
X65993883Y-112902419D01*
X65993883Y-112902419D02*
X65993883Y-111902419D01*
X66470074Y-112902419D02*
X66470074Y-111902419D01*
X117667693Y-117982419D02*
X117096265Y-117982419D01*
X117381979Y-117982419D02*
X117381979Y-116982419D01*
X117381979Y-116982419D02*
X117286741Y-117125276D01*
X117286741Y-117125276D02*
X117191503Y-117220514D01*
X117191503Y-117220514D02*
X117096265Y-117268133D01*
X118096265Y-117982419D02*
X118096265Y-116982419D01*
X118191503Y-117601466D02*
X118477217Y-117982419D01*
X118477217Y-117315752D02*
X118096265Y-117696704D01*
D11*
X100947200Y-124523332D02*
X100994819Y-124380475D01*
X100994819Y-124380475D02*
X100994819Y-124142380D01*
X100994819Y-124142380D02*
X100947200Y-124047142D01*
X100947200Y-124047142D02*
X100899580Y-123999523D01*
X100899580Y-123999523D02*
X100804342Y-123951904D01*
X100804342Y-123951904D02*
X100709104Y-123951904D01*
X100709104Y-123951904D02*
X100613866Y-123999523D01*
X100613866Y-123999523D02*
X100566247Y-124047142D01*
X100566247Y-124047142D02*
X100518628Y-124142380D01*
X100518628Y-124142380D02*
X100471009Y-124332856D01*
X100471009Y-124332856D02*
X100423390Y-124428094D01*
X100423390Y-124428094D02*
X100375771Y-124475713D01*
X100375771Y-124475713D02*
X100280533Y-124523332D01*
X100280533Y-124523332D02*
X100185295Y-124523332D01*
X100185295Y-124523332D02*
X100090057Y-124475713D01*
X100090057Y-124475713D02*
X100042438Y-124428094D01*
X100042438Y-124428094D02*
X99994819Y-124332856D01*
X99994819Y-124332856D02*
X99994819Y-124094761D01*
X99994819Y-124094761D02*
X100042438Y-123951904D01*
X99994819Y-123618570D02*
X100994819Y-123380475D01*
X100994819Y-123380475D02*
X100280533Y-123189999D01*
X100280533Y-123189999D02*
X100994819Y-122999523D01*
X100994819Y-122999523D02*
X99994819Y-122761428D01*
X100994819Y-121856666D02*
X100994819Y-122428094D01*
X100994819Y-122142380D02*
X99994819Y-122142380D01*
X99994819Y-122142380D02*
X100137676Y-122237618D01*
X100137676Y-122237618D02*
X100232914Y-122332856D01*
X100232914Y-122332856D02*
X100280533Y-122428094D01*
X123807200Y-124523332D02*
X123854819Y-124380475D01*
X123854819Y-124380475D02*
X123854819Y-124142380D01*
X123854819Y-124142380D02*
X123807200Y-124047142D01*
X123807200Y-124047142D02*
X123759580Y-123999523D01*
X123759580Y-123999523D02*
X123664342Y-123951904D01*
X123664342Y-123951904D02*
X123569104Y-123951904D01*
X123569104Y-123951904D02*
X123473866Y-123999523D01*
X123473866Y-123999523D02*
X123426247Y-124047142D01*
X123426247Y-124047142D02*
X123378628Y-124142380D01*
X123378628Y-124142380D02*
X123331009Y-124332856D01*
X123331009Y-124332856D02*
X123283390Y-124428094D01*
X123283390Y-124428094D02*
X123235771Y-124475713D01*
X123235771Y-124475713D02*
X123140533Y-124523332D01*
X123140533Y-124523332D02*
X123045295Y-124523332D01*
X123045295Y-124523332D02*
X122950057Y-124475713D01*
X122950057Y-124475713D02*
X122902438Y-124428094D01*
X122902438Y-124428094D02*
X122854819Y-124332856D01*
X122854819Y-124332856D02*
X122854819Y-124094761D01*
X122854819Y-124094761D02*
X122902438Y-123951904D01*
X122854819Y-123618570D02*
X123854819Y-123380475D01*
X123854819Y-123380475D02*
X123140533Y-123189999D01*
X123140533Y-123189999D02*
X123854819Y-122999523D01*
X123854819Y-122999523D02*
X122854819Y-122761428D01*
X122854819Y-122475713D02*
X122854819Y-121856666D01*
X122854819Y-121856666D02*
X123235771Y-122189999D01*
X123235771Y-122189999D02*
X123235771Y-122047142D01*
X123235771Y-122047142D02*
X123283390Y-121951904D01*
X123283390Y-121951904D02*
X123331009Y-121904285D01*
X123331009Y-121904285D02*
X123426247Y-121856666D01*
X123426247Y-121856666D02*
X123664342Y-121856666D01*
X123664342Y-121856666D02*
X123759580Y-121904285D01*
X123759580Y-121904285D02*
X123807200Y-121951904D01*
X123807200Y-121951904D02*
X123854819Y-122047142D01*
X123854819Y-122047142D02*
X123854819Y-122332856D01*
X123854819Y-122332856D02*
X123807200Y-122428094D01*
X123807200Y-122428094D02*
X123759580Y-122475713D01*
X112377200Y-124523332D02*
X112424819Y-124380475D01*
X112424819Y-124380475D02*
X112424819Y-124142380D01*
X112424819Y-124142380D02*
X112377200Y-124047142D01*
X112377200Y-124047142D02*
X112329580Y-123999523D01*
X112329580Y-123999523D02*
X112234342Y-123951904D01*
X112234342Y-123951904D02*
X112139104Y-123951904D01*
X112139104Y-123951904D02*
X112043866Y-123999523D01*
X112043866Y-123999523D02*
X111996247Y-124047142D01*
X111996247Y-124047142D02*
X111948628Y-124142380D01*
X111948628Y-124142380D02*
X111901009Y-124332856D01*
X111901009Y-124332856D02*
X111853390Y-124428094D01*
X111853390Y-124428094D02*
X111805771Y-124475713D01*
X111805771Y-124475713D02*
X111710533Y-124523332D01*
X111710533Y-124523332D02*
X111615295Y-124523332D01*
X111615295Y-124523332D02*
X111520057Y-124475713D01*
X111520057Y-124475713D02*
X111472438Y-124428094D01*
X111472438Y-124428094D02*
X111424819Y-124332856D01*
X111424819Y-124332856D02*
X111424819Y-124094761D01*
X111424819Y-124094761D02*
X111472438Y-123951904D01*
X111424819Y-123618570D02*
X112424819Y-123380475D01*
X112424819Y-123380475D02*
X111710533Y-123189999D01*
X111710533Y-123189999D02*
X112424819Y-122999523D01*
X112424819Y-122999523D02*
X111424819Y-122761428D01*
X111520057Y-122428094D02*
X111472438Y-122380475D01*
X111472438Y-122380475D02*
X111424819Y-122285237D01*
X111424819Y-122285237D02*
X111424819Y-122047142D01*
X111424819Y-122047142D02*
X111472438Y-121951904D01*
X111472438Y-121951904D02*
X111520057Y-121904285D01*
X111520057Y-121904285D02*
X111615295Y-121856666D01*
X111615295Y-121856666D02*
X111710533Y-121856666D01*
X111710533Y-121856666D02*
X111853390Y-121904285D01*
X111853390Y-121904285D02*
X112424819Y-122475713D01*
X112424819Y-122475713D02*
X112424819Y-121856666D01*
X210484819Y-66373333D02*
X211199104Y-66373333D01*
X211199104Y-66373333D02*
X211341961Y-66420952D01*
X211341961Y-66420952D02*
X211437200Y-66516190D01*
X211437200Y-66516190D02*
X211484819Y-66659047D01*
X211484819Y-66659047D02*
X211484819Y-66754285D01*
X210484819Y-65992380D02*
X210484819Y-65373333D01*
X210484819Y-65373333D02*
X210865771Y-65706666D01*
X210865771Y-65706666D02*
X210865771Y-65563809D01*
X210865771Y-65563809D02*
X210913390Y-65468571D01*
X210913390Y-65468571D02*
X210961009Y-65420952D01*
X210961009Y-65420952D02*
X211056247Y-65373333D01*
X211056247Y-65373333D02*
X211294342Y-65373333D01*
X211294342Y-65373333D02*
X211389580Y-65420952D01*
X211389580Y-65420952D02*
X211437200Y-65468571D01*
X211437200Y-65468571D02*
X211484819Y-65563809D01*
X211484819Y-65563809D02*
X211484819Y-65849523D01*
X211484819Y-65849523D02*
X211437200Y-65944761D01*
X211437200Y-65944761D02*
X211389580Y-65992380D01*
D12*
X104240000Y-112300000D02*
X104240000Y-118840000D01*
X103910000Y-112300000D02*
X104240000Y-112300000D01*
X101830000Y-112300000D02*
X101500000Y-112300000D01*
X101500000Y-112300000D02*
X101500000Y-118840000D01*
X104240000Y-118840000D02*
X103910000Y-118840000D01*
X101500000Y-118840000D02*
X101830000Y-118840000D01*
D11*
X72390000Y-118110000D02*
X72390000Y-85090000D01*
X54610000Y-118110000D02*
X72390000Y-118110000D01*
X54610000Y-118110000D02*
X54610000Y-85090000D01*
X54610000Y-85090000D02*
X72390000Y-85090000D01*
D12*
X127100000Y-112300000D02*
X127100000Y-118840000D01*
X126770000Y-112300000D02*
X127100000Y-112300000D01*
X124690000Y-112300000D02*
X124360000Y-112300000D01*
X124360000Y-112300000D02*
X124360000Y-118840000D01*
X127100000Y-118840000D02*
X126770000Y-118840000D01*
X124360000Y-118840000D02*
X124690000Y-118840000D01*
X115670000Y-112300000D02*
X115670000Y-118840000D01*
X115340000Y-112300000D02*
X115670000Y-112300000D01*
X113260000Y-112300000D02*
X112930000Y-112300000D01*
X112930000Y-112300000D02*
X112930000Y-118840000D01*
X115670000Y-118840000D02*
X115340000Y-118840000D01*
X112930000Y-118840000D02*
X113260000Y-118840000D01*
X72450000Y-64710000D02*
X72450000Y-66040000D01*
X71120000Y-64710000D02*
X72450000Y-64710000D01*
X69850000Y-64710000D02*
X52010000Y-64710000D01*
X69850000Y-64710000D02*
X69850000Y-67370000D01*
X52010000Y-64710000D02*
X52010000Y-67370000D01*
X69850000Y-67370000D02*
X52010000Y-67370000D01*
X76140000Y-87690000D02*
X76140000Y-86360000D01*
X77470000Y-87690000D02*
X76140000Y-87690000D01*
X78740000Y-87690000D02*
X91500000Y-87690000D01*
X78740000Y-87690000D02*
X78740000Y-85030000D01*
X91500000Y-87690000D02*
X91500000Y-85030000D01*
X78740000Y-85030000D02*
X91500000Y-85030000D01*
X101540000Y-124520000D02*
X101540000Y-123190000D01*
X102870000Y-124520000D02*
X101540000Y-124520000D01*
X104140000Y-124520000D02*
X106740000Y-124520000D01*
X104140000Y-124520000D02*
X104140000Y-121860000D01*
X106740000Y-124520000D02*
X106740000Y-121860000D01*
X104140000Y-121860000D02*
X106740000Y-121860000D01*
X71180000Y-119320000D02*
X71180000Y-120650000D01*
X69850000Y-119320000D02*
X71180000Y-119320000D01*
X68580000Y-119320000D02*
X55820000Y-119320000D01*
X68580000Y-119320000D02*
X68580000Y-121980000D01*
X55820000Y-119320000D02*
X55820000Y-121980000D01*
X68580000Y-121980000D02*
X55820000Y-121980000D01*
X124400000Y-124520000D02*
X124400000Y-123190000D01*
X125730000Y-124520000D02*
X124400000Y-124520000D01*
X127000000Y-124520000D02*
X129600000Y-124520000D01*
X127000000Y-124520000D02*
X127000000Y-121860000D01*
X129600000Y-124520000D02*
X129600000Y-121860000D01*
X127000000Y-121860000D02*
X129600000Y-121860000D01*
X54550000Y-74870000D02*
X55880000Y-74870000D01*
X54550000Y-76200000D02*
X54550000Y-74870000D01*
X54550000Y-77470000D02*
X54550000Y-80070000D01*
X54550000Y-77470000D02*
X57210000Y-77470000D01*
X54550000Y-80070000D02*
X57210000Y-80070000D01*
X57210000Y-77470000D02*
X57210000Y-80070000D01*
X112970000Y-124520000D02*
X112970000Y-123190000D01*
X114300000Y-124520000D02*
X112970000Y-124520000D01*
X115570000Y-124520000D02*
X118170000Y-124520000D01*
X115570000Y-124520000D02*
X115570000Y-121860000D01*
X118170000Y-124520000D02*
X118170000Y-121860000D01*
X115570000Y-121860000D02*
X118170000Y-121860000D01*
X212030000Y-67370000D02*
X212030000Y-66040000D01*
X213360000Y-67370000D02*
X212030000Y-67370000D01*
X214630000Y-67370000D02*
X232470000Y-67370000D01*
X214630000Y-67370000D02*
X214630000Y-64710000D01*
X232470000Y-67370000D02*
X232470000Y-64710000D01*
X214630000Y-64710000D02*
X232470000Y-64710000D01*
%LPC*%
D13*
X102870000Y-111760000D03*
D14*
X102870000Y-119380000D03*
D15*
X55880000Y-96520000D03*
X55880000Y-99060000D03*
X55880000Y-101600000D03*
X55880000Y-104140000D03*
X58420000Y-102870000D03*
X58420000Y-105410000D03*
X60960000Y-86360000D03*
X58420000Y-86360000D03*
X71120000Y-111760000D03*
X71120000Y-114300000D03*
X71120000Y-104140000D03*
X71120000Y-101600000D03*
X71120000Y-99060000D03*
X71120000Y-96520000D03*
X71120000Y-93980000D03*
X71120000Y-91440000D03*
X71120000Y-88900000D03*
X71120000Y-86360000D03*
X55880000Y-86360000D03*
X55880000Y-88900000D03*
X55880000Y-91440000D03*
X55880000Y-93980000D03*
X69850000Y-116840000D03*
D16*
X71120000Y-106680000D03*
X55880000Y-111760000D03*
X63500000Y-86360000D03*
X59690000Y-116840000D03*
X57150000Y-116840000D03*
D15*
X55880000Y-114300000D03*
X71120000Y-109220000D03*
X55880000Y-109220000D03*
X64770000Y-116840000D03*
X67310000Y-116840000D03*
X55880000Y-106680000D03*
X62230000Y-116840000D03*
D13*
X125730000Y-111760000D03*
D14*
X125730000Y-119380000D03*
D13*
X114300000Y-111760000D03*
D14*
X114300000Y-119380000D03*
D17*
X71120000Y-66040000D03*
D18*
X68580000Y-66040000D03*
X66040000Y-66040000D03*
X63500000Y-66040000D03*
X60960000Y-66040000D03*
X58420000Y-66040000D03*
X55880000Y-66040000D03*
X53340000Y-66040000D03*
D17*
X77470000Y-86360000D03*
D18*
X80010000Y-86360000D03*
X82550000Y-86360000D03*
X85090000Y-86360000D03*
X87630000Y-86360000D03*
X90170000Y-86360000D03*
D17*
X102870000Y-123190000D03*
D18*
X105410000Y-123190000D03*
D17*
X69850000Y-120650000D03*
D18*
X67310000Y-120650000D03*
X64770000Y-120650000D03*
X62230000Y-120650000D03*
X59690000Y-120650000D03*
X57150000Y-120650000D03*
D17*
X125730000Y-123190000D03*
D18*
X128270000Y-123190000D03*
D17*
X55880000Y-76200000D03*
D18*
X55880000Y-78740000D03*
D17*
X114300000Y-123190000D03*
D18*
X116840000Y-123190000D03*
D17*
X213360000Y-66040000D03*
D18*
X215900000Y-66040000D03*
X218440000Y-66040000D03*
X220980000Y-66040000D03*
X223520000Y-66040000D03*
X226060000Y-66040000D03*
X228600000Y-66040000D03*
X231140000Y-66040000D03*
%LPD*%
M02*
