G04 #@! TF.GenerationSoftware,KiCad,Pcbnew,7.0.11+dfsg-1*
G04 #@! TF.CreationDate,2024-03-19T11:49:13-04:00*
G04 #@! TF.ProjectId,base,62617365-2e6b-4696-9361-645f70636258,rev?*
G04 #@! TF.SameCoordinates,Original*
G04 #@! TF.FileFunction,Copper,L2,Bot*
G04 #@! TF.FilePolarity,Positive*
%FSLAX46Y46*%
G04 Gerber Fmt 4.6, Leading zero omitted, Abs format (unit mm)*
G04 Created by KiCad (PCBNEW 7.0.11+dfsg-1) date 2024-03-19 11:49:13*
%MOMM*%
%LPD*%
G01*
G04 APERTURE LIST*
G04 #@! TA.AperFunction,ComponentPad*
%ADD10C,1.600000*%
G04 #@! TD*
G04 #@! TA.AperFunction,ComponentPad*
%ADD11O,1.600000X1.600000*%
G04 #@! TD*
G04 #@! TA.AperFunction,ComponentPad*
%ADD12C,1.727200*%
G04 #@! TD*
G04 #@! TA.AperFunction,ComponentPad*
%ADD13R,1.727200X1.727200*%
G04 #@! TD*
G04 #@! TA.AperFunction,ComponentPad*
%ADD14R,1.700000X1.700000*%
G04 #@! TD*
G04 #@! TA.AperFunction,ComponentPad*
%ADD15O,1.700000X1.700000*%
G04 #@! TD*
G04 #@! TA.AperFunction,ViaPad*
%ADD16C,0.609600*%
G04 #@! TD*
G04 #@! TA.AperFunction,ViaPad*
%ADD17C,0.600000*%
G04 #@! TD*
G04 #@! TA.AperFunction,Conductor*
%ADD18C,0.609600*%
G04 #@! TD*
G04 #@! TA.AperFunction,Conductor*
%ADD19C,0.203200*%
G04 #@! TD*
G04 APERTURE END LIST*
D10*
X102870000Y-111760000D03*
D11*
X102870000Y-119380000D03*
D12*
X55880000Y-96520000D03*
X55880000Y-99060000D03*
X55880000Y-101600000D03*
X55880000Y-104140000D03*
X58420000Y-102870000D03*
X58420000Y-105410000D03*
X60960000Y-86360000D03*
X58420000Y-86360000D03*
X71120000Y-111760000D03*
X71120000Y-114300000D03*
X71120000Y-104140000D03*
X71120000Y-101600000D03*
X71120000Y-99060000D03*
X71120000Y-96520000D03*
X71120000Y-93980000D03*
X71120000Y-91440000D03*
X71120000Y-88900000D03*
X71120000Y-86360000D03*
X55880000Y-86360000D03*
X55880000Y-88900000D03*
X55880000Y-91440000D03*
X55880000Y-93980000D03*
X69850000Y-116840000D03*
D13*
X71120000Y-106680000D03*
X55880000Y-111760000D03*
X63500000Y-86360000D03*
X59690000Y-116840000D03*
X57150000Y-116840000D03*
D12*
X55880000Y-114300000D03*
X71120000Y-109220000D03*
X55880000Y-109220000D03*
X64770000Y-116840000D03*
X67310000Y-116840000D03*
X55880000Y-106680000D03*
X62230000Y-116840000D03*
D10*
X125730000Y-111760000D03*
D11*
X125730000Y-119380000D03*
D10*
X114300000Y-111760000D03*
D11*
X114300000Y-119380000D03*
D14*
X71120000Y-66040000D03*
D15*
X68580000Y-66040000D03*
X66040000Y-66040000D03*
X63500000Y-66040000D03*
X60960000Y-66040000D03*
X58420000Y-66040000D03*
X55880000Y-66040000D03*
X53340000Y-66040000D03*
D14*
X77470000Y-86360000D03*
D15*
X80010000Y-86360000D03*
X82550000Y-86360000D03*
X85090000Y-86360000D03*
X87630000Y-86360000D03*
X90170000Y-86360000D03*
D14*
X102870000Y-123190000D03*
D15*
X105410000Y-123190000D03*
D14*
X69850000Y-120650000D03*
D15*
X67310000Y-120650000D03*
X64770000Y-120650000D03*
X62230000Y-120650000D03*
X59690000Y-120650000D03*
X57150000Y-120650000D03*
D14*
X125730000Y-123190000D03*
D15*
X128270000Y-123190000D03*
D14*
X55880000Y-76200000D03*
D15*
X55880000Y-78740000D03*
D14*
X114300000Y-123190000D03*
D15*
X116840000Y-123190000D03*
D14*
X213360000Y-66040000D03*
D15*
X215900000Y-66040000D03*
X218440000Y-66040000D03*
X220980000Y-66040000D03*
X223520000Y-66040000D03*
X226060000Y-66040000D03*
X228600000Y-66040000D03*
X231140000Y-66040000D03*
D16*
X71120000Y-81280000D03*
X60960000Y-73660000D03*
X64770000Y-96520000D03*
X67310000Y-69850000D03*
X64770000Y-72390000D03*
X67310000Y-73660000D03*
X69850000Y-83820000D03*
D17*
X82550000Y-91440000D03*
D18*
X67310000Y-75565000D02*
X67310000Y-73660000D01*
X53340000Y-86731974D02*
X53340000Y-84718025D01*
X56515000Y-82550000D02*
X55245000Y-82550000D01*
X55245000Y-88900000D02*
X55880000Y-88900000D01*
X65962961Y-78817038D02*
X63823792Y-80956207D01*
X59976036Y-82550000D02*
X56515000Y-82550000D01*
X53974999Y-83184999D02*
X54160987Y-82999012D01*
X53975000Y-88265000D02*
X54160987Y-88450987D01*
X55245000Y-82549992D02*
G75*
G03*
X54160987Y-82999012I0J-1533008D01*
G01*
X53974992Y-83184992D02*
G75*
G03*
X53340000Y-84718025I1533008J-1533008D01*
G01*
X65962966Y-78817043D02*
G75*
G03*
X67310000Y-75565000I-3252066J3252043D01*
G01*
X54160992Y-88450982D02*
G75*
G03*
X55245000Y-88900000I1084008J1083982D01*
G01*
X59976036Y-82550010D02*
G75*
G03*
X63823792Y-80956207I-36J5441610D01*
G01*
X53340011Y-86731974D02*
G75*
G03*
X53975000Y-88265000I2167989J-26D01*
G01*
X68580000Y-87103948D02*
X68580000Y-66040000D01*
X64243948Y-91440000D02*
X55880000Y-91440000D01*
X64243948Y-91440020D02*
G75*
G03*
X67310000Y-90170000I-48J4336120D01*
G01*
X67309997Y-90169997D02*
G75*
G03*
X68580000Y-87103948I-3066057J3066057D01*
G01*
X86360000Y-85090000D02*
X87630000Y-86360000D01*
X83293948Y-83820000D02*
X69850000Y-83820000D01*
X86359986Y-85090014D02*
G75*
G03*
X83293948Y-83820000I-3066086J-3066086D01*
G01*
D19*
X82550000Y-91440000D02*
X82550000Y-86360000D01*
G04 #@! TA.AperFunction,Conductor*
G36*
X67722145Y-77946094D02*
G01*
X67765597Y-78000809D01*
X67774700Y-78047443D01*
X67774700Y-87100894D01*
X67774551Y-87106979D01*
X67757996Y-87443939D01*
X67756803Y-87456049D01*
X67707749Y-87786735D01*
X67705375Y-87798670D01*
X67624145Y-88122958D01*
X67620613Y-88134602D01*
X67507988Y-88449370D01*
X67503331Y-88460613D01*
X67360393Y-88762829D01*
X67354656Y-88773561D01*
X67182793Y-89060297D01*
X67176033Y-89070415D01*
X66976879Y-89338942D01*
X66969159Y-89348349D01*
X66744621Y-89596086D01*
X66736016Y-89604690D01*
X66488349Y-89829163D01*
X66478943Y-89836883D01*
X66210415Y-90036038D01*
X66200297Y-90042798D01*
X65913551Y-90214668D01*
X65902820Y-90220404D01*
X65600614Y-90363339D01*
X65589371Y-90367996D01*
X65274608Y-90480622D01*
X65262964Y-90484155D01*
X64938665Y-90565391D01*
X64926729Y-90567765D01*
X64596041Y-90616820D01*
X64583932Y-90618013D01*
X64247378Y-90634551D01*
X64241292Y-90634700D01*
X57729215Y-90634700D01*
X57687938Y-90627628D01*
X56658746Y-90264307D01*
X56602082Y-90223429D01*
X56576514Y-90158405D01*
X56590159Y-90089881D01*
X56625833Y-90050626D01*
X56624601Y-90049043D01*
X56628645Y-90045894D01*
X56628649Y-90045893D01*
X56807046Y-89907040D01*
X56960156Y-89740719D01*
X57083802Y-89551465D01*
X57174611Y-89344441D01*
X57230107Y-89125293D01*
X57248775Y-88900000D01*
X57248775Y-88899993D01*
X57235707Y-88742294D01*
X57230107Y-88674707D01*
X57174611Y-88455559D01*
X57083802Y-88248535D01*
X56960156Y-88059281D01*
X56960153Y-88059278D01*
X56960149Y-88059272D01*
X56807049Y-87892963D01*
X56807048Y-87892962D01*
X56807046Y-87892960D01*
X56628649Y-87754107D01*
X56628647Y-87754106D01*
X56628646Y-87754105D01*
X56628639Y-87754100D01*
X56600836Y-87739055D01*
X56551244Y-87689837D01*
X56536135Y-87621620D01*
X56560306Y-87556064D01*
X56600836Y-87520945D01*
X56628639Y-87505899D01*
X56628642Y-87505896D01*
X56628649Y-87505893D01*
X56807046Y-87367040D01*
X56960156Y-87200719D01*
X57046193Y-87069028D01*
X57099338Y-87023675D01*
X57168569Y-87014251D01*
X57231905Y-87043753D01*
X57253804Y-87069025D01*
X57339844Y-87200719D01*
X57339849Y-87200724D01*
X57339850Y-87200727D01*
X57492950Y-87367036D01*
X57492954Y-87367040D01*
X57671351Y-87505893D01*
X57870169Y-87613488D01*
X57870172Y-87613489D01*
X58083982Y-87686890D01*
X58083984Y-87686890D01*
X58083986Y-87686891D01*
X58306967Y-87724100D01*
X58306968Y-87724100D01*
X58533032Y-87724100D01*
X58533033Y-87724100D01*
X58756014Y-87686891D01*
X58969831Y-87613488D01*
X59168649Y-87505893D01*
X59347046Y-87367040D01*
X59500156Y-87200719D01*
X59586193Y-87069028D01*
X59639338Y-87023675D01*
X59708569Y-87014251D01*
X59771905Y-87043753D01*
X59793804Y-87069025D01*
X59879844Y-87200719D01*
X59879849Y-87200724D01*
X59879850Y-87200727D01*
X60032950Y-87367036D01*
X60032954Y-87367040D01*
X60211351Y-87505893D01*
X60410169Y-87613488D01*
X60410172Y-87613489D01*
X60623982Y-87686890D01*
X60623984Y-87686890D01*
X60623986Y-87686891D01*
X60846967Y-87724100D01*
X60846968Y-87724100D01*
X61073032Y-87724100D01*
X61073033Y-87724100D01*
X61296014Y-87686891D01*
X61509831Y-87613488D01*
X61708649Y-87505893D01*
X61887046Y-87367040D01*
X62040156Y-87200719D01*
X62163802Y-87011465D01*
X62254611Y-86804441D01*
X62310107Y-86585293D01*
X62328775Y-86360000D01*
X62328775Y-86359999D01*
X62328775Y-86359993D01*
X62310107Y-86134710D01*
X62310107Y-86134707D01*
X62254611Y-85915559D01*
X62163802Y-85708535D01*
X62141342Y-85674158D01*
X62040157Y-85519283D01*
X62040149Y-85519272D01*
X61887049Y-85352963D01*
X61887048Y-85352962D01*
X61887046Y-85352960D01*
X61708649Y-85214107D01*
X61656645Y-85185964D01*
X61509832Y-85106512D01*
X61509827Y-85106510D01*
X61296017Y-85033109D01*
X61123617Y-85004341D01*
X61073033Y-84995900D01*
X60846967Y-84995900D01*
X60802370Y-85003341D01*
X60623982Y-85033109D01*
X60410172Y-85106510D01*
X60410167Y-85106512D01*
X60211352Y-85214106D01*
X60032955Y-85352959D01*
X60032950Y-85352963D01*
X59879850Y-85519272D01*
X59879842Y-85519283D01*
X59793808Y-85650968D01*
X59740662Y-85696325D01*
X59671430Y-85705748D01*
X59608095Y-85676246D01*
X59586192Y-85650968D01*
X59500157Y-85519283D01*
X59500149Y-85519272D01*
X59347049Y-85352963D01*
X59347048Y-85352962D01*
X59347046Y-85352960D01*
X59168649Y-85214107D01*
X59116645Y-85185964D01*
X58969832Y-85106512D01*
X58969827Y-85106510D01*
X58756017Y-85033109D01*
X58583617Y-85004341D01*
X58533033Y-84995900D01*
X58306967Y-84995900D01*
X58262370Y-85003341D01*
X58083982Y-85033109D01*
X57870172Y-85106510D01*
X57870167Y-85106512D01*
X57671352Y-85214106D01*
X57492955Y-85352959D01*
X57492950Y-85352963D01*
X57339850Y-85519272D01*
X57339842Y-85519283D01*
X57253808Y-85650968D01*
X57200662Y-85696325D01*
X57131430Y-85705748D01*
X57068095Y-85676246D01*
X57046192Y-85650968D01*
X56960157Y-85519283D01*
X56960149Y-85519272D01*
X56807049Y-85352963D01*
X56807048Y-85352962D01*
X56807046Y-85352960D01*
X56628649Y-85214107D01*
X56576645Y-85185964D01*
X56429832Y-85106512D01*
X56429827Y-85106510D01*
X56216017Y-85033109D01*
X56043617Y-85004341D01*
X55993033Y-84995900D01*
X55766967Y-84995900D01*
X55722370Y-85003341D01*
X55543982Y-85033109D01*
X55330172Y-85106510D01*
X55330167Y-85106512D01*
X55131352Y-85214106D01*
X54952955Y-85352959D01*
X54952950Y-85352963D01*
X54799850Y-85519272D01*
X54799842Y-85519283D01*
X54676198Y-85708533D01*
X54585388Y-85915560D01*
X54529892Y-86134710D01*
X54511225Y-86359993D01*
X54511225Y-86360006D01*
X54529892Y-86585289D01*
X54585388Y-86804439D01*
X54676198Y-87011466D01*
X54799842Y-87200716D01*
X54799850Y-87200727D01*
X54952950Y-87367036D01*
X54952960Y-87367045D01*
X55070182Y-87458283D01*
X55110995Y-87514993D01*
X55114670Y-87584766D01*
X55080038Y-87645449D01*
X55018097Y-87677776D01*
X55015968Y-87678178D01*
X54665366Y-87741231D01*
X54595901Y-87733723D01*
X54555737Y-87706870D01*
X54547305Y-87698438D01*
X54541758Y-87692516D01*
X54432260Y-87567657D01*
X54422386Y-87554788D01*
X54332389Y-87420097D01*
X54324279Y-87406050D01*
X54252633Y-87260765D01*
X54246425Y-87245780D01*
X54194349Y-87092362D01*
X54190157Y-87076719D01*
X54158551Y-86917818D01*
X54156435Y-86901742D01*
X54145564Y-86735850D01*
X54145300Y-86727760D01*
X54145301Y-86647343D01*
X54145300Y-86647338D01*
X54145300Y-84802660D01*
X54145301Y-84802656D01*
X54145300Y-84722078D01*
X54145565Y-84713971D01*
X54156425Y-84548246D01*
X54158539Y-84532182D01*
X54190145Y-84373284D01*
X54194342Y-84357622D01*
X54220270Y-84281238D01*
X54246417Y-84204209D01*
X54252616Y-84189243D01*
X54324272Y-84043940D01*
X54332378Y-84029900D01*
X54422387Y-83895190D01*
X54432249Y-83882338D01*
X54541673Y-83757563D01*
X54547189Y-83751673D01*
X54664728Y-83634135D01*
X54664745Y-83634121D01*
X54670575Y-83628290D01*
X54670578Y-83628289D01*
X54726134Y-83572731D01*
X54735127Y-83564580D01*
X54831264Y-83485681D01*
X54851465Y-83472182D01*
X54955755Y-83416437D01*
X54978187Y-83407145D01*
X55091348Y-83372818D01*
X55115179Y-83368078D01*
X55238858Y-83355897D01*
X55251012Y-83355300D01*
X55329640Y-83355300D01*
X56469771Y-83355300D01*
X59891396Y-83355300D01*
X59891401Y-83355301D01*
X59924668Y-83355300D01*
X59924700Y-83355309D01*
X59976041Y-83355309D01*
X59976041Y-83355310D01*
X60199148Y-83355309D01*
X60644224Y-83323474D01*
X61085895Y-83259969D01*
X61085900Y-83259968D01*
X61521907Y-83165118D01*
X61572903Y-83150143D01*
X61950048Y-83039403D01*
X62368127Y-82883467D01*
X62774016Y-82698102D01*
X63165648Y-82484255D01*
X63541026Y-82243013D01*
X63898238Y-81975608D01*
X64235463Y-81683401D01*
X64393224Y-81525641D01*
X64453074Y-81465792D01*
X64453074Y-81465790D01*
X64463279Y-81455586D01*
X64463283Y-81455581D01*
X66462335Y-79456528D01*
X66462345Y-79456521D01*
X66496074Y-79422793D01*
X66496091Y-79422783D01*
X66532400Y-79386473D01*
X66532401Y-79386474D01*
X66682547Y-79236328D01*
X66958352Y-78913400D01*
X67207970Y-78569829D01*
X67429862Y-78207731D01*
X67540216Y-77991146D01*
X67588189Y-77940352D01*
X67656010Y-77923557D01*
X67722145Y-77946094D01*
G37*
G04 #@! TD.AperFunction*
G04 #@! TA.AperFunction,Conductor*
G36*
X233122539Y-64020185D02*
G01*
X233168294Y-64072989D01*
X233179500Y-64124500D01*
X233179500Y-126375500D01*
X233159815Y-126442539D01*
X233107011Y-126488294D01*
X233055500Y-126499500D01*
X51424500Y-126499500D01*
X51357461Y-126479815D01*
X51311706Y-126427011D01*
X51300500Y-126375500D01*
X51300500Y-124087870D01*
X101519500Y-124087870D01*
X101519501Y-124087876D01*
X101525908Y-124147483D01*
X101576202Y-124282328D01*
X101576206Y-124282335D01*
X101662452Y-124397544D01*
X101662455Y-124397547D01*
X101777664Y-124483793D01*
X101777671Y-124483797D01*
X101912517Y-124534091D01*
X101912516Y-124534091D01*
X101919444Y-124534835D01*
X101972127Y-124540500D01*
X103767872Y-124540499D01*
X103827483Y-124534091D01*
X103962331Y-124483796D01*
X104077546Y-124397546D01*
X104163796Y-124282331D01*
X104214091Y-124147483D01*
X104220500Y-124087873D01*
X104220500Y-124087870D01*
X112949500Y-124087870D01*
X112949501Y-124087876D01*
X112955908Y-124147483D01*
X113006202Y-124282328D01*
X113006206Y-124282335D01*
X113092452Y-124397544D01*
X113092455Y-124397547D01*
X113207664Y-124483793D01*
X113207671Y-124483797D01*
X113342517Y-124534091D01*
X113342516Y-124534091D01*
X113349444Y-124534835D01*
X113402127Y-124540500D01*
X115197872Y-124540499D01*
X115257483Y-124534091D01*
X115392331Y-124483796D01*
X115507546Y-124397546D01*
X115593796Y-124282331D01*
X115644091Y-124147483D01*
X115650500Y-124087873D01*
X115650500Y-124087870D01*
X124379500Y-124087870D01*
X124379501Y-124087876D01*
X124385908Y-124147483D01*
X124436202Y-124282328D01*
X124436206Y-124282335D01*
X124522452Y-124397544D01*
X124522455Y-124397547D01*
X124637664Y-124483793D01*
X124637671Y-124483797D01*
X124772517Y-124534091D01*
X124772516Y-124534091D01*
X124779444Y-124534835D01*
X124832127Y-124540500D01*
X126627872Y-124540499D01*
X126687483Y-124534091D01*
X126822331Y-124483796D01*
X126937546Y-124397546D01*
X127023796Y-124282331D01*
X127074091Y-124147483D01*
X127080500Y-124087873D01*
X127080499Y-122292128D01*
X127074091Y-122232517D01*
X127023796Y-122097669D01*
X127023795Y-122097668D01*
X127023793Y-122097664D01*
X126937547Y-121982455D01*
X126937544Y-121982452D01*
X126822335Y-121896206D01*
X126822328Y-121896202D01*
X126687482Y-121845908D01*
X126687483Y-121845908D01*
X126627883Y-121839501D01*
X126627881Y-121839500D01*
X126627873Y-121839500D01*
X126627864Y-121839500D01*
X124832129Y-121839500D01*
X124832123Y-121839501D01*
X124772516Y-121845908D01*
X124637671Y-121896202D01*
X124637664Y-121896206D01*
X124522455Y-121982452D01*
X124522452Y-121982455D01*
X124436206Y-122097664D01*
X124436202Y-122097671D01*
X124385908Y-122232517D01*
X124379501Y-122292116D01*
X124379501Y-122292123D01*
X124379500Y-122292135D01*
X124379500Y-124087870D01*
X115650500Y-124087870D01*
X115650499Y-122292128D01*
X115644091Y-122232517D01*
X115593796Y-122097669D01*
X115593795Y-122097668D01*
X115593793Y-122097664D01*
X115507547Y-121982455D01*
X115507544Y-121982452D01*
X115392335Y-121896206D01*
X115392328Y-121896202D01*
X115257482Y-121845908D01*
X115257483Y-121845908D01*
X115197883Y-121839501D01*
X115197881Y-121839500D01*
X115197873Y-121839500D01*
X115197864Y-121839500D01*
X113402129Y-121839500D01*
X113402123Y-121839501D01*
X113342516Y-121845908D01*
X113207671Y-121896202D01*
X113207664Y-121896206D01*
X113092455Y-121982452D01*
X113092452Y-121982455D01*
X113006206Y-122097664D01*
X113006202Y-122097671D01*
X112955908Y-122232517D01*
X112949501Y-122292116D01*
X112949501Y-122292123D01*
X112949500Y-122292135D01*
X112949500Y-124087870D01*
X104220500Y-124087870D01*
X104220499Y-122292128D01*
X104214091Y-122232517D01*
X104163796Y-122097669D01*
X104163795Y-122097668D01*
X104163793Y-122097664D01*
X104077547Y-121982455D01*
X104077544Y-121982452D01*
X103962335Y-121896206D01*
X103962328Y-121896202D01*
X103827482Y-121845908D01*
X103827483Y-121845908D01*
X103767883Y-121839501D01*
X103767881Y-121839500D01*
X103767873Y-121839500D01*
X103767864Y-121839500D01*
X101972129Y-121839500D01*
X101972123Y-121839501D01*
X101912516Y-121845908D01*
X101777671Y-121896202D01*
X101777664Y-121896206D01*
X101662455Y-121982452D01*
X101662452Y-121982455D01*
X101576206Y-122097664D01*
X101576202Y-122097671D01*
X101525908Y-122232517D01*
X101519501Y-122292116D01*
X101519501Y-122292123D01*
X101519500Y-122292135D01*
X101519500Y-124087870D01*
X51300500Y-124087870D01*
X51300500Y-120650000D01*
X60874341Y-120650000D01*
X60894936Y-120885403D01*
X60894938Y-120885413D01*
X60956094Y-121113655D01*
X60956096Y-121113659D01*
X60956097Y-121113663D01*
X60960000Y-121122032D01*
X61055965Y-121327830D01*
X61055967Y-121327834D01*
X61164281Y-121482521D01*
X61191505Y-121521401D01*
X61358599Y-121688495D01*
X61455384Y-121756265D01*
X61552165Y-121824032D01*
X61552167Y-121824033D01*
X61552170Y-121824035D01*
X61766337Y-121923903D01*
X61994592Y-121985063D01*
X62171034Y-122000500D01*
X62229999Y-122005659D01*
X62230000Y-122005659D01*
X62230001Y-122005659D01*
X62288966Y-122000500D01*
X62465408Y-121985063D01*
X62693663Y-121923903D01*
X62907830Y-121824035D01*
X63101401Y-121688495D01*
X63268495Y-121521401D01*
X63398425Y-121335842D01*
X63453002Y-121292217D01*
X63522500Y-121285023D01*
X63584855Y-121316546D01*
X63601575Y-121335842D01*
X63731500Y-121521395D01*
X63731505Y-121521401D01*
X63898599Y-121688495D01*
X63995384Y-121756265D01*
X64092165Y-121824032D01*
X64092167Y-121824033D01*
X64092170Y-121824035D01*
X64306337Y-121923903D01*
X64534592Y-121985063D01*
X64711034Y-122000500D01*
X64769999Y-122005659D01*
X64770000Y-122005659D01*
X64770001Y-122005659D01*
X64828966Y-122000500D01*
X65005408Y-121985063D01*
X65233663Y-121923903D01*
X65447830Y-121824035D01*
X65641401Y-121688495D01*
X65808495Y-121521401D01*
X65938425Y-121335842D01*
X65993002Y-121292217D01*
X66062500Y-121285023D01*
X66124855Y-121316546D01*
X66141575Y-121335842D01*
X66271500Y-121521395D01*
X66271505Y-121521401D01*
X66438599Y-121688495D01*
X66535384Y-121756265D01*
X66632165Y-121824032D01*
X66632167Y-121824033D01*
X66632170Y-121824035D01*
X66846337Y-121923903D01*
X67074592Y-121985063D01*
X67251034Y-122000500D01*
X67309999Y-122005659D01*
X67310000Y-122005659D01*
X67310001Y-122005659D01*
X67368966Y-122000500D01*
X67545408Y-121985063D01*
X67773663Y-121923903D01*
X67987830Y-121824035D01*
X68181401Y-121688495D01*
X68303329Y-121566566D01*
X68364648Y-121533084D01*
X68434340Y-121538068D01*
X68490274Y-121579939D01*
X68507189Y-121610917D01*
X68556202Y-121742328D01*
X68556206Y-121742335D01*
X68642452Y-121857544D01*
X68642455Y-121857547D01*
X68757664Y-121943793D01*
X68757671Y-121943797D01*
X68892517Y-121994091D01*
X68892516Y-121994091D01*
X68899444Y-121994835D01*
X68952127Y-122000500D01*
X70747872Y-122000499D01*
X70807483Y-121994091D01*
X70942331Y-121943796D01*
X71057546Y-121857546D01*
X71143796Y-121742331D01*
X71194091Y-121607483D01*
X71200500Y-121547873D01*
X71200499Y-119752128D01*
X71194091Y-119692517D01*
X71192810Y-119689083D01*
X71143797Y-119557671D01*
X71143793Y-119557664D01*
X71057547Y-119442455D01*
X71057544Y-119442452D01*
X70974121Y-119380001D01*
X101564532Y-119380001D01*
X101584364Y-119606686D01*
X101584366Y-119606697D01*
X101643258Y-119826488D01*
X101643261Y-119826497D01*
X101739431Y-120032732D01*
X101739432Y-120032734D01*
X101869954Y-120219141D01*
X102030858Y-120380045D01*
X102030861Y-120380047D01*
X102217266Y-120510568D01*
X102423504Y-120606739D01*
X102643308Y-120665635D01*
X102805230Y-120679801D01*
X102869998Y-120685468D01*
X102870000Y-120685468D01*
X102870002Y-120685468D01*
X102926673Y-120680509D01*
X103096692Y-120665635D01*
X103316496Y-120606739D01*
X103522734Y-120510568D01*
X103709139Y-120380047D01*
X103870047Y-120219139D01*
X104000568Y-120032734D01*
X104096739Y-119826496D01*
X104155635Y-119606692D01*
X104175468Y-119380001D01*
X112994532Y-119380001D01*
X113014364Y-119606686D01*
X113014366Y-119606697D01*
X113073258Y-119826488D01*
X113073261Y-119826497D01*
X113169431Y-120032732D01*
X113169432Y-120032734D01*
X113299954Y-120219141D01*
X113460858Y-120380045D01*
X113460861Y-120380047D01*
X113647266Y-120510568D01*
X113853504Y-120606739D01*
X114073308Y-120665635D01*
X114235230Y-120679801D01*
X114299998Y-120685468D01*
X114300000Y-120685468D01*
X114300002Y-120685468D01*
X114356673Y-120680509D01*
X114526692Y-120665635D01*
X114746496Y-120606739D01*
X114952734Y-120510568D01*
X115139139Y-120380047D01*
X115300047Y-120219139D01*
X115430568Y-120032734D01*
X115526739Y-119826496D01*
X115585635Y-119606692D01*
X115605468Y-119380001D01*
X124424532Y-119380001D01*
X124444364Y-119606686D01*
X124444366Y-119606697D01*
X124503258Y-119826488D01*
X124503261Y-119826497D01*
X124599431Y-120032732D01*
X124599432Y-120032734D01*
X124729954Y-120219141D01*
X124890858Y-120380045D01*
X124890861Y-120380047D01*
X125077266Y-120510568D01*
X125283504Y-120606739D01*
X125503308Y-120665635D01*
X125665230Y-120679801D01*
X125729998Y-120685468D01*
X125730000Y-120685468D01*
X125730002Y-120685468D01*
X125786673Y-120680509D01*
X125956692Y-120665635D01*
X126176496Y-120606739D01*
X126382734Y-120510568D01*
X126569139Y-120380047D01*
X126730047Y-120219139D01*
X126860568Y-120032734D01*
X126956739Y-119826496D01*
X127015635Y-119606692D01*
X127035468Y-119380000D01*
X127015635Y-119153308D01*
X126956739Y-118933504D01*
X126860568Y-118727266D01*
X126730047Y-118540861D01*
X126730045Y-118540858D01*
X126569141Y-118379954D01*
X126382734Y-118249432D01*
X126382732Y-118249431D01*
X126176497Y-118153261D01*
X126176488Y-118153258D01*
X125956697Y-118094366D01*
X125956693Y-118094365D01*
X125956692Y-118094365D01*
X125956691Y-118094364D01*
X125956686Y-118094364D01*
X125730002Y-118074532D01*
X125729998Y-118074532D01*
X125503313Y-118094364D01*
X125503302Y-118094366D01*
X125283511Y-118153258D01*
X125283502Y-118153261D01*
X125077267Y-118249431D01*
X125077265Y-118249432D01*
X124890858Y-118379954D01*
X124729954Y-118540858D01*
X124599432Y-118727265D01*
X124599431Y-118727267D01*
X124503261Y-118933502D01*
X124503258Y-118933511D01*
X124444366Y-119153302D01*
X124444364Y-119153313D01*
X124424532Y-119379998D01*
X124424532Y-119380001D01*
X115605468Y-119380001D01*
X115605468Y-119380000D01*
X115585635Y-119153308D01*
X115526739Y-118933504D01*
X115430568Y-118727266D01*
X115300047Y-118540861D01*
X115300045Y-118540858D01*
X115139141Y-118379954D01*
X114952734Y-118249432D01*
X114952732Y-118249431D01*
X114746497Y-118153261D01*
X114746488Y-118153258D01*
X114526697Y-118094366D01*
X114526693Y-118094365D01*
X114526692Y-118094365D01*
X114526691Y-118094364D01*
X114526686Y-118094364D01*
X114300002Y-118074532D01*
X114299998Y-118074532D01*
X114073313Y-118094364D01*
X114073302Y-118094366D01*
X113853511Y-118153258D01*
X113853502Y-118153261D01*
X113647267Y-118249431D01*
X113647265Y-118249432D01*
X113460858Y-118379954D01*
X113299954Y-118540858D01*
X113169432Y-118727265D01*
X113169431Y-118727267D01*
X113073261Y-118933502D01*
X113073258Y-118933511D01*
X113014366Y-119153302D01*
X113014364Y-119153313D01*
X112994532Y-119379998D01*
X112994532Y-119380001D01*
X104175468Y-119380001D01*
X104175468Y-119380000D01*
X104155635Y-119153308D01*
X104096739Y-118933504D01*
X104000568Y-118727266D01*
X103870047Y-118540861D01*
X103870045Y-118540858D01*
X103709141Y-118379954D01*
X103522734Y-118249432D01*
X103522732Y-118249431D01*
X103316497Y-118153261D01*
X103316488Y-118153258D01*
X103096697Y-118094366D01*
X103096693Y-118094365D01*
X103096692Y-118094365D01*
X103096691Y-118094364D01*
X103096686Y-118094364D01*
X102870002Y-118074532D01*
X102869998Y-118074532D01*
X102643313Y-118094364D01*
X102643302Y-118094366D01*
X102423511Y-118153258D01*
X102423502Y-118153261D01*
X102217267Y-118249431D01*
X102217265Y-118249432D01*
X102030858Y-118379954D01*
X101869954Y-118540858D01*
X101739432Y-118727265D01*
X101739431Y-118727267D01*
X101643261Y-118933502D01*
X101643258Y-118933511D01*
X101584366Y-119153302D01*
X101584364Y-119153313D01*
X101564532Y-119379998D01*
X101564532Y-119380001D01*
X70974121Y-119380001D01*
X70942335Y-119356206D01*
X70942328Y-119356202D01*
X70807482Y-119305908D01*
X70807483Y-119305908D01*
X70747883Y-119299501D01*
X70747881Y-119299500D01*
X70747873Y-119299500D01*
X70747864Y-119299500D01*
X68952129Y-119299500D01*
X68952123Y-119299501D01*
X68892516Y-119305908D01*
X68757671Y-119356202D01*
X68757664Y-119356206D01*
X68642455Y-119442452D01*
X68642452Y-119442455D01*
X68556206Y-119557664D01*
X68556203Y-119557669D01*
X68507189Y-119689083D01*
X68465317Y-119745016D01*
X68399853Y-119769433D01*
X68331580Y-119754581D01*
X68303326Y-119733430D01*
X68181402Y-119611506D01*
X68181395Y-119611501D01*
X67987834Y-119475967D01*
X67987830Y-119475965D01*
X67987828Y-119475964D01*
X67773663Y-119376097D01*
X67773659Y-119376096D01*
X67773655Y-119376094D01*
X67545413Y-119314938D01*
X67545403Y-119314936D01*
X67310001Y-119294341D01*
X67309999Y-119294341D01*
X67074596Y-119314936D01*
X67074586Y-119314938D01*
X66846344Y-119376094D01*
X66846335Y-119376098D01*
X66632171Y-119475964D01*
X66632169Y-119475965D01*
X66438597Y-119611505D01*
X66271505Y-119778597D01*
X66141575Y-119964158D01*
X66086998Y-120007783D01*
X66017500Y-120014977D01*
X65955145Y-119983454D01*
X65938425Y-119964158D01*
X65808494Y-119778597D01*
X65641402Y-119611506D01*
X65641395Y-119611501D01*
X65447834Y-119475967D01*
X65447830Y-119475965D01*
X65447828Y-119475964D01*
X65233663Y-119376097D01*
X65233659Y-119376096D01*
X65233655Y-119376094D01*
X65005413Y-119314938D01*
X65005403Y-119314936D01*
X64770001Y-119294341D01*
X64769999Y-119294341D01*
X64534596Y-119314936D01*
X64534586Y-119314938D01*
X64306344Y-119376094D01*
X64306335Y-119376098D01*
X64092171Y-119475964D01*
X64092169Y-119475965D01*
X63898597Y-119611505D01*
X63731505Y-119778597D01*
X63601575Y-119964158D01*
X63546998Y-120007783D01*
X63477500Y-120014977D01*
X63415145Y-119983454D01*
X63398425Y-119964158D01*
X63268494Y-119778597D01*
X63101402Y-119611506D01*
X63101395Y-119611501D01*
X62907834Y-119475967D01*
X62907830Y-119475965D01*
X62907828Y-119475964D01*
X62693663Y-119376097D01*
X62693659Y-119376096D01*
X62693655Y-119376094D01*
X62465413Y-119314938D01*
X62465403Y-119314936D01*
X62230001Y-119294341D01*
X62229999Y-119294341D01*
X61994596Y-119314936D01*
X61994586Y-119314938D01*
X61766344Y-119376094D01*
X61766335Y-119376098D01*
X61552171Y-119475964D01*
X61552169Y-119475965D01*
X61358597Y-119611505D01*
X61191505Y-119778597D01*
X61055965Y-119972169D01*
X61055964Y-119972171D01*
X60956098Y-120186335D01*
X60956094Y-120186344D01*
X60894938Y-120414586D01*
X60894936Y-120414596D01*
X60874341Y-120649999D01*
X60874341Y-120650000D01*
X51300500Y-120650000D01*
X51300500Y-116840006D01*
X60861225Y-116840006D01*
X60879892Y-117065289D01*
X60935388Y-117284439D01*
X61026198Y-117491466D01*
X61149842Y-117680716D01*
X61149850Y-117680727D01*
X61302950Y-117847036D01*
X61302954Y-117847040D01*
X61481351Y-117985893D01*
X61680169Y-118093488D01*
X61680172Y-118093489D01*
X61893982Y-118166890D01*
X61893984Y-118166890D01*
X61893986Y-118166891D01*
X62116967Y-118204100D01*
X62116968Y-118204100D01*
X62343032Y-118204100D01*
X62343033Y-118204100D01*
X62566014Y-118166891D01*
X62779831Y-118093488D01*
X62978649Y-117985893D01*
X63157046Y-117847040D01*
X63310156Y-117680719D01*
X63396193Y-117549028D01*
X63449338Y-117503675D01*
X63518569Y-117494251D01*
X63581905Y-117523753D01*
X63603804Y-117549025D01*
X63689844Y-117680719D01*
X63689849Y-117680724D01*
X63689850Y-117680727D01*
X63842950Y-117847036D01*
X63842954Y-117847040D01*
X64021351Y-117985893D01*
X64220169Y-118093488D01*
X64220172Y-118093489D01*
X64433982Y-118166890D01*
X64433984Y-118166890D01*
X64433986Y-118166891D01*
X64656967Y-118204100D01*
X64656968Y-118204100D01*
X64883032Y-118204100D01*
X64883033Y-118204100D01*
X65106014Y-118166891D01*
X65319831Y-118093488D01*
X65518649Y-117985893D01*
X65697046Y-117847040D01*
X65850156Y-117680719D01*
X65936193Y-117549028D01*
X65989338Y-117503675D01*
X66058569Y-117494251D01*
X66121905Y-117523753D01*
X66143804Y-117549025D01*
X66229844Y-117680719D01*
X66229849Y-117680724D01*
X66229850Y-117680727D01*
X66382950Y-117847036D01*
X66382954Y-117847040D01*
X66561351Y-117985893D01*
X66760169Y-118093488D01*
X66760172Y-118093489D01*
X66973982Y-118166890D01*
X66973984Y-118166890D01*
X66973986Y-118166891D01*
X67196967Y-118204100D01*
X67196968Y-118204100D01*
X67423032Y-118204100D01*
X67423033Y-118204100D01*
X67646014Y-118166891D01*
X67859831Y-118093488D01*
X68058649Y-117985893D01*
X68237046Y-117847040D01*
X68390156Y-117680719D01*
X68476193Y-117549028D01*
X68529338Y-117503675D01*
X68598569Y-117494251D01*
X68661905Y-117523753D01*
X68683804Y-117549025D01*
X68769844Y-117680719D01*
X68769849Y-117680724D01*
X68769850Y-117680727D01*
X68922950Y-117847036D01*
X68922954Y-117847040D01*
X69101351Y-117985893D01*
X69300169Y-118093488D01*
X69300172Y-118093489D01*
X69513982Y-118166890D01*
X69513984Y-118166890D01*
X69513986Y-118166891D01*
X69736967Y-118204100D01*
X69736968Y-118204100D01*
X69963032Y-118204100D01*
X69963033Y-118204100D01*
X70186014Y-118166891D01*
X70399831Y-118093488D01*
X70598649Y-117985893D01*
X70777046Y-117847040D01*
X70930156Y-117680719D01*
X71053802Y-117491465D01*
X71144611Y-117284441D01*
X71200107Y-117065293D01*
X71218775Y-116840000D01*
X71218775Y-116839993D01*
X71200107Y-116614710D01*
X71200107Y-116614707D01*
X71144611Y-116395559D01*
X71053802Y-116188535D01*
X70930156Y-115999281D01*
X70796289Y-115853863D01*
X70765368Y-115791211D01*
X70773228Y-115721785D01*
X70817375Y-115667629D01*
X70883792Y-115645938D01*
X70907923Y-115647572D01*
X71006967Y-115664100D01*
X71006968Y-115664100D01*
X71233032Y-115664100D01*
X71233033Y-115664100D01*
X71456014Y-115626891D01*
X71669831Y-115553488D01*
X71868649Y-115445893D01*
X72047046Y-115307040D01*
X72200156Y-115140719D01*
X72323802Y-114951465D01*
X72414611Y-114744441D01*
X72470107Y-114525293D01*
X72488775Y-114300000D01*
X72488775Y-114299993D01*
X72470107Y-114074710D01*
X72470107Y-114074707D01*
X72414611Y-113855559D01*
X72323802Y-113648535D01*
X72200156Y-113459281D01*
X72200153Y-113459278D01*
X72200149Y-113459272D01*
X72047049Y-113292963D01*
X72047048Y-113292962D01*
X72047046Y-113292960D01*
X71868649Y-113154107D01*
X71868647Y-113154106D01*
X71868646Y-113154105D01*
X71868639Y-113154100D01*
X71840836Y-113139055D01*
X71791244Y-113089837D01*
X71776135Y-113021620D01*
X71800306Y-112956064D01*
X71840836Y-112920945D01*
X71868639Y-112905899D01*
X71868642Y-112905896D01*
X71868649Y-112905893D01*
X72047046Y-112767040D01*
X72200156Y-112600719D01*
X72323802Y-112411465D01*
X72414611Y-112204441D01*
X72470107Y-111985293D01*
X72488775Y-111760001D01*
X101564532Y-111760001D01*
X101584364Y-111986686D01*
X101584366Y-111986697D01*
X101643258Y-112206488D01*
X101643261Y-112206497D01*
X101739431Y-112412732D01*
X101739432Y-112412734D01*
X101869954Y-112599141D01*
X102030858Y-112760045D01*
X102030861Y-112760047D01*
X102217266Y-112890568D01*
X102423504Y-112986739D01*
X102643308Y-113045635D01*
X102805230Y-113059801D01*
X102869998Y-113065468D01*
X102870000Y-113065468D01*
X102870002Y-113065468D01*
X102926673Y-113060509D01*
X103096692Y-113045635D01*
X103316496Y-112986739D01*
X103522734Y-112890568D01*
X103709139Y-112760047D01*
X103870047Y-112599139D01*
X104000568Y-112412734D01*
X104096739Y-112206496D01*
X104155635Y-111986692D01*
X104172634Y-111792384D01*
X104175468Y-111760001D01*
X112994532Y-111760001D01*
X113014364Y-111986686D01*
X113014366Y-111986697D01*
X113073258Y-112206488D01*
X113073261Y-112206497D01*
X113169431Y-112412732D01*
X113169432Y-112412734D01*
X113299954Y-112599141D01*
X113460858Y-112760045D01*
X113460861Y-112760047D01*
X113647266Y-112890568D01*
X113853504Y-112986739D01*
X114073308Y-113045635D01*
X114235230Y-113059801D01*
X114299998Y-113065468D01*
X114300000Y-113065468D01*
X114300002Y-113065468D01*
X114356673Y-113060509D01*
X114526692Y-113045635D01*
X114746496Y-112986739D01*
X114952734Y-112890568D01*
X115139139Y-112760047D01*
X115300047Y-112599139D01*
X115430568Y-112412734D01*
X115526739Y-112206496D01*
X115585635Y-111986692D01*
X115602634Y-111792384D01*
X115605468Y-111760001D01*
X124424532Y-111760001D01*
X124444364Y-111986686D01*
X124444366Y-111986697D01*
X124503258Y-112206488D01*
X124503261Y-112206497D01*
X124599431Y-112412732D01*
X124599432Y-112412734D01*
X124729954Y-112599141D01*
X124890858Y-112760045D01*
X124890861Y-112760047D01*
X125077266Y-112890568D01*
X125283504Y-112986739D01*
X125503308Y-113045635D01*
X125665230Y-113059801D01*
X125729998Y-113065468D01*
X125730000Y-113065468D01*
X125730002Y-113065468D01*
X125786673Y-113060509D01*
X125956692Y-113045635D01*
X126176496Y-112986739D01*
X126382734Y-112890568D01*
X126569139Y-112760047D01*
X126730047Y-112599139D01*
X126860568Y-112412734D01*
X126956739Y-112206496D01*
X127015635Y-111986692D01*
X127032634Y-111792384D01*
X127035468Y-111760001D01*
X127035468Y-111759998D01*
X127029801Y-111695230D01*
X127015635Y-111533308D01*
X126956739Y-111313504D01*
X126860568Y-111107266D01*
X126730047Y-110920861D01*
X126730045Y-110920858D01*
X126569141Y-110759954D01*
X126382734Y-110629432D01*
X126382732Y-110629431D01*
X126176497Y-110533261D01*
X126176488Y-110533258D01*
X125956697Y-110474366D01*
X125956693Y-110474365D01*
X125956692Y-110474365D01*
X125956691Y-110474364D01*
X125956686Y-110474364D01*
X125730002Y-110454532D01*
X125729998Y-110454532D01*
X125503313Y-110474364D01*
X125503302Y-110474366D01*
X125283511Y-110533258D01*
X125283502Y-110533261D01*
X125077267Y-110629431D01*
X125077265Y-110629432D01*
X124890858Y-110759954D01*
X124729954Y-110920858D01*
X124599432Y-111107265D01*
X124599431Y-111107267D01*
X124503261Y-111313502D01*
X124503258Y-111313511D01*
X124444366Y-111533302D01*
X124444364Y-111533313D01*
X124424532Y-111759998D01*
X124424532Y-111760001D01*
X115605468Y-111760001D01*
X115605468Y-111759998D01*
X115599801Y-111695230D01*
X115585635Y-111533308D01*
X115526739Y-111313504D01*
X115430568Y-111107266D01*
X115300047Y-110920861D01*
X115300045Y-110920858D01*
X115139141Y-110759954D01*
X114952734Y-110629432D01*
X114952732Y-110629431D01*
X114746497Y-110533261D01*
X114746488Y-110533258D01*
X114526697Y-110474366D01*
X114526693Y-110474365D01*
X114526692Y-110474365D01*
X114526691Y-110474364D01*
X114526686Y-110474364D01*
X114300002Y-110454532D01*
X114299998Y-110454532D01*
X114073313Y-110474364D01*
X114073302Y-110474366D01*
X113853511Y-110533258D01*
X113853502Y-110533261D01*
X113647267Y-110629431D01*
X113647265Y-110629432D01*
X113460858Y-110759954D01*
X113299954Y-110920858D01*
X113169432Y-111107265D01*
X113169431Y-111107267D01*
X113073261Y-111313502D01*
X113073258Y-111313511D01*
X113014366Y-111533302D01*
X113014364Y-111533313D01*
X112994532Y-111759998D01*
X112994532Y-111760001D01*
X104175468Y-111760001D01*
X104175468Y-111759998D01*
X104169801Y-111695230D01*
X104155635Y-111533308D01*
X104096739Y-111313504D01*
X104000568Y-111107266D01*
X103870047Y-110920861D01*
X103870045Y-110920858D01*
X103709141Y-110759954D01*
X103522734Y-110629432D01*
X103522732Y-110629431D01*
X103316497Y-110533261D01*
X103316488Y-110533258D01*
X103096697Y-110474366D01*
X103096693Y-110474365D01*
X103096692Y-110474365D01*
X103096691Y-110474364D01*
X103096686Y-110474364D01*
X102870002Y-110454532D01*
X102869998Y-110454532D01*
X102643313Y-110474364D01*
X102643302Y-110474366D01*
X102423511Y-110533258D01*
X102423502Y-110533261D01*
X102217267Y-110629431D01*
X102217265Y-110629432D01*
X102030858Y-110759954D01*
X101869954Y-110920858D01*
X101739432Y-111107265D01*
X101739431Y-111107267D01*
X101643261Y-111313502D01*
X101643258Y-111313511D01*
X101584366Y-111533302D01*
X101584364Y-111533313D01*
X101564532Y-111759998D01*
X101564532Y-111760001D01*
X72488775Y-111760001D01*
X72488775Y-111760000D01*
X72488775Y-111759998D01*
X72488775Y-111759993D01*
X72470107Y-111534710D01*
X72470107Y-111534707D01*
X72414611Y-111315559D01*
X72323802Y-111108535D01*
X72322972Y-111107265D01*
X72200157Y-110919283D01*
X72200149Y-110919272D01*
X72047049Y-110752963D01*
X72047048Y-110752962D01*
X72047046Y-110752960D01*
X71868649Y-110614107D01*
X71868647Y-110614106D01*
X71868646Y-110614105D01*
X71868639Y-110614100D01*
X71840836Y-110599055D01*
X71791244Y-110549837D01*
X71776135Y-110481620D01*
X71800306Y-110416064D01*
X71840836Y-110380945D01*
X71868639Y-110365899D01*
X71868642Y-110365896D01*
X71868649Y-110365893D01*
X72047046Y-110227040D01*
X72200156Y-110060719D01*
X72323802Y-109871465D01*
X72414611Y-109664441D01*
X72470107Y-109445293D01*
X72488775Y-109220000D01*
X72488775Y-109219993D01*
X72470107Y-108994710D01*
X72470107Y-108994707D01*
X72414611Y-108775559D01*
X72323802Y-108568535D01*
X72200156Y-108379281D01*
X72200153Y-108379278D01*
X72200149Y-108379272D01*
X72047049Y-108212963D01*
X72047048Y-108212962D01*
X72047046Y-108212960D01*
X71868649Y-108074107D01*
X71749889Y-108009837D01*
X71669832Y-107966512D01*
X71669827Y-107966510D01*
X71456017Y-107893109D01*
X71288778Y-107865202D01*
X71233033Y-107855900D01*
X71006967Y-107855900D01*
X70962370Y-107863341D01*
X70783982Y-107893109D01*
X70570172Y-107966510D01*
X70570167Y-107966512D01*
X70371352Y-108074106D01*
X70192955Y-108212959D01*
X70192950Y-108212963D01*
X70039850Y-108379272D01*
X70039842Y-108379283D01*
X69916198Y-108568533D01*
X69825388Y-108775560D01*
X69769892Y-108994710D01*
X69751225Y-109219993D01*
X69751225Y-109220006D01*
X69769892Y-109445289D01*
X69825388Y-109664439D01*
X69916198Y-109871466D01*
X70039842Y-110060716D01*
X70039850Y-110060727D01*
X70192950Y-110227036D01*
X70192954Y-110227040D01*
X70371351Y-110365893D01*
X70399165Y-110380945D01*
X70448755Y-110430165D01*
X70463863Y-110498382D01*
X70439692Y-110563937D01*
X70399165Y-110599055D01*
X70371352Y-110614106D01*
X70192955Y-110752959D01*
X70192950Y-110752963D01*
X70039850Y-110919272D01*
X70039842Y-110919283D01*
X69916198Y-111108533D01*
X69825388Y-111315560D01*
X69769892Y-111534710D01*
X69751225Y-111759993D01*
X69751225Y-111760006D01*
X69769892Y-111985289D01*
X69825388Y-112204439D01*
X69916198Y-112411466D01*
X70039842Y-112600716D01*
X70039850Y-112600727D01*
X70186516Y-112760047D01*
X70192954Y-112767040D01*
X70371351Y-112905893D01*
X70399165Y-112920945D01*
X70448755Y-112970165D01*
X70463863Y-113038382D01*
X70439692Y-113103937D01*
X70399165Y-113139055D01*
X70371352Y-113154106D01*
X70192955Y-113292959D01*
X70192950Y-113292963D01*
X70039850Y-113459272D01*
X70039842Y-113459283D01*
X69916198Y-113648533D01*
X69825388Y-113855560D01*
X69769892Y-114074710D01*
X69751225Y-114299993D01*
X69751225Y-114300006D01*
X69769892Y-114525289D01*
X69825388Y-114744439D01*
X69916198Y-114951466D01*
X70039842Y-115140716D01*
X70039845Y-115140720D01*
X70173709Y-115286134D01*
X70204631Y-115348788D01*
X70196771Y-115418214D01*
X70152624Y-115472370D01*
X70086207Y-115494061D01*
X70062070Y-115492426D01*
X69963033Y-115475900D01*
X69736967Y-115475900D01*
X69692370Y-115483341D01*
X69513982Y-115513109D01*
X69300172Y-115586510D01*
X69300167Y-115586512D01*
X69101352Y-115694106D01*
X68922955Y-115832959D01*
X68922950Y-115832963D01*
X68769850Y-115999272D01*
X68769842Y-115999283D01*
X68683808Y-116130968D01*
X68630662Y-116176325D01*
X68561430Y-116185748D01*
X68498095Y-116156246D01*
X68476192Y-116130968D01*
X68390157Y-115999283D01*
X68390149Y-115999272D01*
X68237049Y-115832963D01*
X68237048Y-115832962D01*
X68237046Y-115832960D01*
X68058649Y-115694107D01*
X67934445Y-115626891D01*
X67859832Y-115586512D01*
X67859827Y-115586510D01*
X67646017Y-115513109D01*
X67478778Y-115485202D01*
X67423033Y-115475900D01*
X67196967Y-115475900D01*
X67152370Y-115483341D01*
X66973982Y-115513109D01*
X66760172Y-115586510D01*
X66760167Y-115586512D01*
X66561352Y-115694106D01*
X66382955Y-115832959D01*
X66382950Y-115832963D01*
X66229850Y-115999272D01*
X66229842Y-115999283D01*
X66143808Y-116130968D01*
X66090662Y-116176325D01*
X66021430Y-116185748D01*
X65958095Y-116156246D01*
X65936192Y-116130968D01*
X65850157Y-115999283D01*
X65850149Y-115999272D01*
X65697049Y-115832963D01*
X65697048Y-115832962D01*
X65697046Y-115832960D01*
X65518649Y-115694107D01*
X65394445Y-115626891D01*
X65319832Y-115586512D01*
X65319827Y-115586510D01*
X65106017Y-115513109D01*
X64938778Y-115485202D01*
X64883033Y-115475900D01*
X64656967Y-115475900D01*
X64612370Y-115483341D01*
X64433982Y-115513109D01*
X64220172Y-115586510D01*
X64220167Y-115586512D01*
X64021352Y-115694106D01*
X63842955Y-115832959D01*
X63842950Y-115832963D01*
X63689850Y-115999272D01*
X63689842Y-115999283D01*
X63603808Y-116130968D01*
X63550662Y-116176325D01*
X63481430Y-116185748D01*
X63418095Y-116156246D01*
X63396192Y-116130968D01*
X63310157Y-115999283D01*
X63310149Y-115999272D01*
X63157049Y-115832963D01*
X63157048Y-115832962D01*
X63157046Y-115832960D01*
X62978649Y-115694107D01*
X62854445Y-115626891D01*
X62779832Y-115586512D01*
X62779827Y-115586510D01*
X62566017Y-115513109D01*
X62398778Y-115485202D01*
X62343033Y-115475900D01*
X62116967Y-115475900D01*
X62072370Y-115483341D01*
X61893982Y-115513109D01*
X61680172Y-115586510D01*
X61680167Y-115586512D01*
X61481352Y-115694106D01*
X61302955Y-115832959D01*
X61302950Y-115832963D01*
X61149850Y-115999272D01*
X61149842Y-115999283D01*
X61026198Y-116188533D01*
X60935388Y-116395560D01*
X60879892Y-116614710D01*
X60861225Y-116839993D01*
X60861225Y-116840006D01*
X51300500Y-116840006D01*
X51300500Y-114300006D01*
X54511225Y-114300006D01*
X54529892Y-114525289D01*
X54585388Y-114744439D01*
X54676198Y-114951466D01*
X54799842Y-115140716D01*
X54799850Y-115140727D01*
X54952950Y-115307036D01*
X54952954Y-115307040D01*
X55131351Y-115445893D01*
X55330169Y-115553488D01*
X55330172Y-115553489D01*
X55543982Y-115626890D01*
X55543984Y-115626890D01*
X55543986Y-115626891D01*
X55766967Y-115664100D01*
X55766968Y-115664100D01*
X55993032Y-115664100D01*
X55993033Y-115664100D01*
X56216014Y-115626891D01*
X56429831Y-115553488D01*
X56628649Y-115445893D01*
X56807046Y-115307040D01*
X56960156Y-115140719D01*
X57083802Y-114951465D01*
X57174611Y-114744441D01*
X57230107Y-114525293D01*
X57248775Y-114300000D01*
X57248775Y-114299993D01*
X57230107Y-114074710D01*
X57230107Y-114074707D01*
X57174611Y-113855559D01*
X57083802Y-113648535D01*
X56960156Y-113459281D01*
X56960153Y-113459278D01*
X56960149Y-113459272D01*
X56807049Y-113292963D01*
X56807048Y-113292962D01*
X56807046Y-113292960D01*
X56628649Y-113154107D01*
X56464859Y-113065468D01*
X56429832Y-113046512D01*
X56429827Y-113046510D01*
X56216017Y-112973109D01*
X56048778Y-112945202D01*
X55993033Y-112935900D01*
X55766967Y-112935900D01*
X55722370Y-112943341D01*
X55543982Y-112973109D01*
X55330172Y-113046510D01*
X55330167Y-113046512D01*
X55131352Y-113154106D01*
X54952955Y-113292959D01*
X54952950Y-113292963D01*
X54799850Y-113459272D01*
X54799842Y-113459283D01*
X54676198Y-113648533D01*
X54585388Y-113855560D01*
X54529892Y-114074710D01*
X54511225Y-114299993D01*
X54511225Y-114300006D01*
X51300500Y-114300006D01*
X51300500Y-77097870D01*
X54529500Y-77097870D01*
X54529501Y-77097876D01*
X54535908Y-77157483D01*
X54586202Y-77292328D01*
X54586206Y-77292335D01*
X54672452Y-77407544D01*
X54672455Y-77407547D01*
X54787664Y-77493793D01*
X54787671Y-77493797D01*
X54922517Y-77544091D01*
X54922516Y-77544091D01*
X54929444Y-77544835D01*
X54982127Y-77550500D01*
X56777872Y-77550499D01*
X56837483Y-77544091D01*
X56972331Y-77493796D01*
X57087546Y-77407546D01*
X57173796Y-77292331D01*
X57224091Y-77157483D01*
X57230500Y-77097873D01*
X57230499Y-75302128D01*
X57224091Y-75242517D01*
X57173796Y-75107669D01*
X57173795Y-75107668D01*
X57173793Y-75107664D01*
X57087547Y-74992455D01*
X57087544Y-74992452D01*
X56972335Y-74906206D01*
X56972328Y-74906202D01*
X56837482Y-74855908D01*
X56837483Y-74855908D01*
X56777883Y-74849501D01*
X56777881Y-74849500D01*
X56777873Y-74849500D01*
X56777864Y-74849500D01*
X54982129Y-74849500D01*
X54982123Y-74849501D01*
X54922516Y-74855908D01*
X54787671Y-74906202D01*
X54787664Y-74906206D01*
X54672455Y-74992452D01*
X54672452Y-74992455D01*
X54586206Y-75107664D01*
X54586202Y-75107671D01*
X54535908Y-75242517D01*
X54529501Y-75302116D01*
X54529501Y-75302123D01*
X54529500Y-75302135D01*
X54529500Y-77097870D01*
X51300500Y-77097870D01*
X51300500Y-66040000D01*
X51984341Y-66040000D01*
X52004936Y-66275403D01*
X52004938Y-66275413D01*
X52066094Y-66503655D01*
X52066096Y-66503659D01*
X52066097Y-66503663D01*
X52070000Y-66512032D01*
X52165965Y-66717830D01*
X52165967Y-66717834D01*
X52274281Y-66872521D01*
X52301505Y-66911401D01*
X52468599Y-67078495D01*
X52559956Y-67142464D01*
X52662165Y-67214032D01*
X52662167Y-67214033D01*
X52662170Y-67214035D01*
X52876337Y-67313903D01*
X53104592Y-67375063D01*
X53281034Y-67390500D01*
X53339999Y-67395659D01*
X53340000Y-67395659D01*
X53340001Y-67395659D01*
X53398966Y-67390500D01*
X53575408Y-67375063D01*
X53803663Y-67313903D01*
X54017830Y-67214035D01*
X54211401Y-67078495D01*
X54378495Y-66911401D01*
X54508425Y-66725842D01*
X54563002Y-66682217D01*
X54632500Y-66675023D01*
X54694855Y-66706546D01*
X54711575Y-66725842D01*
X54841500Y-66911395D01*
X54841505Y-66911401D01*
X55008599Y-67078495D01*
X55099956Y-67142464D01*
X55202165Y-67214032D01*
X55202167Y-67214033D01*
X55202170Y-67214035D01*
X55416337Y-67313903D01*
X55644592Y-67375063D01*
X55821034Y-67390500D01*
X55879999Y-67395659D01*
X55880000Y-67395659D01*
X55880001Y-67395659D01*
X55938966Y-67390500D01*
X56115408Y-67375063D01*
X56343663Y-67313903D01*
X56557830Y-67214035D01*
X56751401Y-67078495D01*
X56918495Y-66911401D01*
X57048425Y-66725842D01*
X57103002Y-66682217D01*
X57172500Y-66675023D01*
X57234855Y-66706546D01*
X57251575Y-66725842D01*
X57381500Y-66911395D01*
X57381505Y-66911401D01*
X57548599Y-67078495D01*
X57639956Y-67142464D01*
X57742165Y-67214032D01*
X57742167Y-67214033D01*
X57742170Y-67214035D01*
X57956337Y-67313903D01*
X58184592Y-67375063D01*
X58361034Y-67390500D01*
X58419999Y-67395659D01*
X58420000Y-67395659D01*
X58420001Y-67395659D01*
X58478966Y-67390500D01*
X58655408Y-67375063D01*
X58883663Y-67313903D01*
X59097830Y-67214035D01*
X59291401Y-67078495D01*
X59458495Y-66911401D01*
X59588425Y-66725842D01*
X59643002Y-66682217D01*
X59712500Y-66675023D01*
X59774855Y-66706546D01*
X59791575Y-66725842D01*
X59921500Y-66911395D01*
X59921505Y-66911401D01*
X60088599Y-67078495D01*
X60179956Y-67142464D01*
X60282165Y-67214032D01*
X60282167Y-67214033D01*
X60282170Y-67214035D01*
X60496337Y-67313903D01*
X60724592Y-67375063D01*
X60901034Y-67390500D01*
X60959999Y-67395659D01*
X60960000Y-67395659D01*
X60960001Y-67395659D01*
X61018966Y-67390500D01*
X61195408Y-67375063D01*
X61423663Y-67313903D01*
X61637830Y-67214035D01*
X61831401Y-67078495D01*
X61998495Y-66911401D01*
X62128425Y-66725842D01*
X62183002Y-66682217D01*
X62252500Y-66675023D01*
X62314855Y-66706546D01*
X62331575Y-66725842D01*
X62461500Y-66911395D01*
X62461505Y-66911401D01*
X62628599Y-67078495D01*
X62719956Y-67142464D01*
X62822165Y-67214032D01*
X62822167Y-67214033D01*
X62822170Y-67214035D01*
X63036337Y-67313903D01*
X63264592Y-67375063D01*
X63441034Y-67390500D01*
X63499999Y-67395659D01*
X63500000Y-67395659D01*
X63500001Y-67395659D01*
X63558966Y-67390500D01*
X63735408Y-67375063D01*
X63963663Y-67313903D01*
X64177830Y-67214035D01*
X64371401Y-67078495D01*
X64538495Y-66911401D01*
X64668425Y-66725842D01*
X64723002Y-66682217D01*
X64792500Y-66675023D01*
X64854855Y-66706546D01*
X64871575Y-66725842D01*
X65001500Y-66911395D01*
X65001505Y-66911401D01*
X65168599Y-67078495D01*
X65259956Y-67142464D01*
X65362165Y-67214032D01*
X65362167Y-67214033D01*
X65362170Y-67214035D01*
X65576337Y-67313903D01*
X65804592Y-67375063D01*
X65981034Y-67390500D01*
X66039999Y-67395659D01*
X66040000Y-67395659D01*
X66040001Y-67395659D01*
X66098966Y-67390500D01*
X66275408Y-67375063D01*
X66503663Y-67313903D01*
X66717830Y-67214035D01*
X66911401Y-67078495D01*
X67078495Y-66911401D01*
X67187575Y-66755617D01*
X67242150Y-66711994D01*
X67311649Y-66704800D01*
X67374004Y-66736323D01*
X67406205Y-66785828D01*
X67767756Y-67820234D01*
X67774700Y-67861148D01*
X67774700Y-72794665D01*
X67755015Y-72861704D01*
X67702211Y-72907459D01*
X67633053Y-72917403D01*
X67609745Y-72911707D01*
X67490329Y-72869921D01*
X67490324Y-72869920D01*
X67310004Y-72849604D01*
X67309996Y-72849604D01*
X67129675Y-72869920D01*
X67129670Y-72869921D01*
X66958377Y-72929859D01*
X66958374Y-72929861D01*
X66804731Y-73026402D01*
X66804725Y-73026407D01*
X66676407Y-73154725D01*
X66676402Y-73154731D01*
X66579861Y-73308374D01*
X66579859Y-73308377D01*
X66519921Y-73479670D01*
X66519920Y-73479675D01*
X66499604Y-73659996D01*
X66499604Y-73660001D01*
X66503920Y-73698304D01*
X66504700Y-73712189D01*
X66504700Y-75562293D01*
X66504582Y-75567702D01*
X66490500Y-75890243D01*
X66489557Y-75901019D01*
X66447771Y-76218412D01*
X66445893Y-76229065D01*
X66376602Y-76541619D01*
X66373802Y-76552068D01*
X66277535Y-76857389D01*
X66273835Y-76867555D01*
X66151326Y-77163319D01*
X66146754Y-77173123D01*
X65998934Y-77457084D01*
X65993526Y-77466452D01*
X65821511Y-77736463D01*
X65815306Y-77745324D01*
X65620425Y-77999298D01*
X65613472Y-78007585D01*
X65395457Y-78245508D01*
X65391715Y-78249416D01*
X63314210Y-80326923D01*
X63314209Y-80326924D01*
X63256283Y-80384849D01*
X63252376Y-80388590D01*
X62960146Y-80656367D01*
X62951860Y-80663320D01*
X62639577Y-80902944D01*
X62630715Y-80909149D01*
X62298719Y-81120654D01*
X62289351Y-81126062D01*
X61940201Y-81307818D01*
X61930397Y-81312390D01*
X61566727Y-81463029D01*
X61556562Y-81466729D01*
X61181147Y-81585098D01*
X61170698Y-81587898D01*
X60786388Y-81673099D01*
X60775735Y-81674977D01*
X60385476Y-81726358D01*
X60374700Y-81727301D01*
X59978962Y-81744582D01*
X59973552Y-81744700D01*
X55296370Y-81744700D01*
X55296343Y-81744692D01*
X55245000Y-81744692D01*
X55113682Y-81744692D01*
X55113678Y-81744692D01*
X54852708Y-81774097D01*
X54852696Y-81774099D01*
X54596651Y-81832540D01*
X54596642Y-81832542D01*
X54348752Y-81919284D01*
X54348745Y-81919287D01*
X54112118Y-82033242D01*
X53889740Y-82172973D01*
X53684398Y-82336732D01*
X53650133Y-82370997D01*
X53650134Y-82370998D01*
X53591547Y-82429586D01*
X53591547Y-82429585D01*
X53568242Y-82452890D01*
X53441892Y-82579240D01*
X53441861Y-82579256D01*
X53302267Y-82718852D01*
X53116943Y-82944670D01*
X53116926Y-82944693D01*
X52954643Y-83187568D01*
X52954631Y-83187589D01*
X52816921Y-83445230D01*
X52816915Y-83445244D01*
X52705126Y-83715129D01*
X52620322Y-83994694D01*
X52563328Y-84281238D01*
X52543174Y-84485893D01*
X52535060Y-84568293D01*
X52534698Y-84571966D01*
X52534700Y-84693149D01*
X52534700Y-86780375D01*
X52534709Y-86780744D01*
X52534709Y-86832032D01*
X52534709Y-86878035D01*
X52540548Y-86937327D01*
X52563339Y-87168756D01*
X52563339Y-87168759D01*
X52563340Y-87168768D01*
X52563341Y-87168770D01*
X52580188Y-87253471D01*
X52619742Y-87452335D01*
X52620332Y-87455298D01*
X52705134Y-87734860D01*
X52705136Y-87734865D01*
X52705137Y-87734868D01*
X52749027Y-87840829D01*
X52816930Y-88004764D01*
X52846065Y-88059272D01*
X52954645Y-88262415D01*
X53116942Y-88505308D01*
X53116952Y-88505322D01*
X53302279Y-88731145D01*
X53373574Y-88802441D01*
X53373580Y-88802446D01*
X53373583Y-88802449D01*
X53373585Y-88802451D01*
X53455963Y-88884829D01*
X53626024Y-89054891D01*
X53626214Y-89055070D01*
X53684408Y-89113265D01*
X53889743Y-89277018D01*
X53889745Y-89277019D01*
X53889744Y-89277019D01*
X53988292Y-89338942D01*
X54112122Y-89416751D01*
X54276491Y-89495908D01*
X54288660Y-89502634D01*
X55034263Y-89971118D01*
X55044451Y-89978256D01*
X55131351Y-90045893D01*
X55131353Y-90045894D01*
X55159165Y-90060945D01*
X55208755Y-90110165D01*
X55223863Y-90178382D01*
X55199692Y-90243937D01*
X55159165Y-90279055D01*
X55131352Y-90294106D01*
X54952955Y-90432959D01*
X54952950Y-90432963D01*
X54799850Y-90599272D01*
X54799842Y-90599283D01*
X54676198Y-90788533D01*
X54585388Y-90995560D01*
X54529892Y-91214710D01*
X54511225Y-91439993D01*
X54511225Y-91440006D01*
X54529892Y-91665289D01*
X54585388Y-91884439D01*
X54676198Y-92091466D01*
X54799842Y-92280716D01*
X54799850Y-92280727D01*
X54952950Y-92447036D01*
X54952954Y-92447040D01*
X55131351Y-92585893D01*
X55159165Y-92600945D01*
X55208755Y-92650165D01*
X55223863Y-92718382D01*
X55199692Y-92783937D01*
X55159165Y-92819055D01*
X55131352Y-92834106D01*
X54952955Y-92972959D01*
X54952950Y-92972963D01*
X54799850Y-93139272D01*
X54799842Y-93139283D01*
X54676198Y-93328533D01*
X54585388Y-93535560D01*
X54529892Y-93754710D01*
X54511225Y-93979993D01*
X54511225Y-93980006D01*
X54529892Y-94205289D01*
X54585388Y-94424439D01*
X54676198Y-94631466D01*
X54799842Y-94820716D01*
X54799850Y-94820727D01*
X54952950Y-94987036D01*
X54952954Y-94987040D01*
X55131351Y-95125893D01*
X55159165Y-95140945D01*
X55208755Y-95190165D01*
X55223863Y-95258382D01*
X55199692Y-95323937D01*
X55159165Y-95359055D01*
X55131352Y-95374106D01*
X54952955Y-95512959D01*
X54952950Y-95512963D01*
X54799850Y-95679272D01*
X54799842Y-95679283D01*
X54676198Y-95868533D01*
X54585388Y-96075560D01*
X54529892Y-96294710D01*
X54511225Y-96519993D01*
X54511225Y-96520006D01*
X54529892Y-96745289D01*
X54585388Y-96964439D01*
X54676198Y-97171466D01*
X54799842Y-97360716D01*
X54799850Y-97360727D01*
X54952950Y-97527036D01*
X54952954Y-97527040D01*
X55131351Y-97665893D01*
X55159165Y-97680945D01*
X55208755Y-97730165D01*
X55223863Y-97798382D01*
X55199692Y-97863937D01*
X55159165Y-97899055D01*
X55131352Y-97914106D01*
X54952955Y-98052959D01*
X54952950Y-98052963D01*
X54799850Y-98219272D01*
X54799842Y-98219283D01*
X54676198Y-98408533D01*
X54585388Y-98615560D01*
X54529892Y-98834710D01*
X54511225Y-99059993D01*
X54511225Y-99060006D01*
X54529892Y-99285289D01*
X54585388Y-99504439D01*
X54676198Y-99711466D01*
X54799842Y-99900716D01*
X54799850Y-99900727D01*
X54952950Y-100067036D01*
X54952954Y-100067040D01*
X55131351Y-100205893D01*
X55159165Y-100220945D01*
X55208755Y-100270165D01*
X55223863Y-100338382D01*
X55199692Y-100403937D01*
X55159165Y-100439055D01*
X55131352Y-100454106D01*
X54952955Y-100592959D01*
X54952950Y-100592963D01*
X54799850Y-100759272D01*
X54799842Y-100759283D01*
X54676198Y-100948533D01*
X54585388Y-101155560D01*
X54529892Y-101374710D01*
X54511225Y-101599993D01*
X54511225Y-101600006D01*
X54529892Y-101825289D01*
X54585388Y-102044439D01*
X54676198Y-102251466D01*
X54799842Y-102440716D01*
X54799850Y-102440727D01*
X54952950Y-102607036D01*
X54952954Y-102607040D01*
X55131351Y-102745893D01*
X55159165Y-102760945D01*
X55208755Y-102810165D01*
X55223863Y-102878382D01*
X55199692Y-102943937D01*
X55159165Y-102979055D01*
X55131352Y-102994106D01*
X54952955Y-103132959D01*
X54952950Y-103132963D01*
X54799850Y-103299272D01*
X54799842Y-103299283D01*
X54676198Y-103488533D01*
X54585388Y-103695560D01*
X54529892Y-103914710D01*
X54511225Y-104139993D01*
X54511225Y-104140006D01*
X54529892Y-104365289D01*
X54585388Y-104584439D01*
X54676198Y-104791466D01*
X54799842Y-104980716D01*
X54799850Y-104980727D01*
X54952950Y-105147036D01*
X54952954Y-105147040D01*
X55131351Y-105285893D01*
X55159165Y-105300945D01*
X55208755Y-105350165D01*
X55223863Y-105418382D01*
X55199692Y-105483937D01*
X55159165Y-105519055D01*
X55131352Y-105534106D01*
X54952955Y-105672959D01*
X54952950Y-105672963D01*
X54799850Y-105839272D01*
X54799842Y-105839283D01*
X54676198Y-106028533D01*
X54585388Y-106235560D01*
X54529892Y-106454710D01*
X54511225Y-106679993D01*
X54511225Y-106680006D01*
X54529892Y-106905289D01*
X54585388Y-107124439D01*
X54676198Y-107331466D01*
X54799842Y-107520716D01*
X54799850Y-107520727D01*
X54952950Y-107687036D01*
X54952954Y-107687040D01*
X55131351Y-107825893D01*
X55159165Y-107840945D01*
X55208755Y-107890165D01*
X55223863Y-107958382D01*
X55199692Y-108023937D01*
X55159165Y-108059055D01*
X55131352Y-108074106D01*
X54952955Y-108212959D01*
X54952950Y-108212963D01*
X54799850Y-108379272D01*
X54799842Y-108379283D01*
X54676198Y-108568533D01*
X54585388Y-108775560D01*
X54529892Y-108994710D01*
X54511225Y-109219993D01*
X54511225Y-109220006D01*
X54529892Y-109445289D01*
X54585388Y-109664439D01*
X54676198Y-109871466D01*
X54799842Y-110060716D01*
X54799850Y-110060727D01*
X54952950Y-110227036D01*
X54952954Y-110227040D01*
X55131351Y-110365893D01*
X55330169Y-110473488D01*
X55330172Y-110473489D01*
X55543982Y-110546890D01*
X55543984Y-110546890D01*
X55543986Y-110546891D01*
X55766967Y-110584100D01*
X55766968Y-110584100D01*
X55993032Y-110584100D01*
X55993033Y-110584100D01*
X56216014Y-110546891D01*
X56429831Y-110473488D01*
X56628649Y-110365893D01*
X56807046Y-110227040D01*
X56960156Y-110060719D01*
X57083802Y-109871465D01*
X57174611Y-109664441D01*
X57230107Y-109445293D01*
X57248775Y-109220000D01*
X57248775Y-109219993D01*
X57230107Y-108994710D01*
X57230107Y-108994707D01*
X57174611Y-108775559D01*
X57083802Y-108568535D01*
X56960156Y-108379281D01*
X56960153Y-108379278D01*
X56960149Y-108379272D01*
X56807049Y-108212963D01*
X56807048Y-108212962D01*
X56807046Y-108212960D01*
X56628649Y-108074107D01*
X56628647Y-108074106D01*
X56628646Y-108074105D01*
X56628639Y-108074100D01*
X56600836Y-108059055D01*
X56551244Y-108009837D01*
X56536135Y-107941620D01*
X56560306Y-107876064D01*
X56600836Y-107840945D01*
X56628639Y-107825899D01*
X56628642Y-107825896D01*
X56628649Y-107825893D01*
X56807046Y-107687040D01*
X56960156Y-107520719D01*
X57083802Y-107331465D01*
X57174611Y-107124441D01*
X57230107Y-106905293D01*
X57248775Y-106680000D01*
X57248774Y-106679993D01*
X57230505Y-106459508D01*
X57244586Y-106391072D01*
X57293431Y-106341113D01*
X57361532Y-106325492D01*
X57427268Y-106349169D01*
X57445305Y-106365279D01*
X57492954Y-106417040D01*
X57671351Y-106555893D01*
X57870169Y-106663488D01*
X57870172Y-106663489D01*
X58083982Y-106736890D01*
X58083984Y-106736890D01*
X58083986Y-106736891D01*
X58306967Y-106774100D01*
X58306968Y-106774100D01*
X58533032Y-106774100D01*
X58533033Y-106774100D01*
X58756014Y-106736891D01*
X58969831Y-106663488D01*
X59168649Y-106555893D01*
X59347046Y-106417040D01*
X59500156Y-106250719D01*
X59623802Y-106061465D01*
X59714611Y-105854441D01*
X59770107Y-105635293D01*
X59787407Y-105426512D01*
X59788775Y-105410006D01*
X59788775Y-105409993D01*
X59770107Y-105184710D01*
X59770107Y-105184707D01*
X59714611Y-104965559D01*
X59623802Y-104758535D01*
X59500156Y-104569281D01*
X59500153Y-104569278D01*
X59500149Y-104569272D01*
X59347049Y-104402963D01*
X59347048Y-104402962D01*
X59347046Y-104402960D01*
X59168649Y-104264107D01*
X59168647Y-104264106D01*
X59168646Y-104264105D01*
X59168639Y-104264100D01*
X59140836Y-104249055D01*
X59091244Y-104199837D01*
X59077992Y-104140006D01*
X69751225Y-104140006D01*
X69769892Y-104365289D01*
X69825388Y-104584439D01*
X69916198Y-104791466D01*
X70039842Y-104980716D01*
X70039850Y-104980727D01*
X70192950Y-105147036D01*
X70192954Y-105147040D01*
X70371351Y-105285893D01*
X70570169Y-105393488D01*
X70570172Y-105393489D01*
X70783982Y-105466890D01*
X70783984Y-105466890D01*
X70783986Y-105466891D01*
X71006967Y-105504100D01*
X71006968Y-105504100D01*
X71233032Y-105504100D01*
X71233033Y-105504100D01*
X71456014Y-105466891D01*
X71669831Y-105393488D01*
X71868649Y-105285893D01*
X72047046Y-105147040D01*
X72200156Y-104980719D01*
X72323802Y-104791465D01*
X72414611Y-104584441D01*
X72470107Y-104365293D01*
X72487407Y-104156512D01*
X72488775Y-104140006D01*
X72488775Y-104139993D01*
X72470107Y-103914710D01*
X72470107Y-103914707D01*
X72414611Y-103695559D01*
X72323802Y-103488535D01*
X72200156Y-103299281D01*
X72200153Y-103299278D01*
X72200149Y-103299272D01*
X72047049Y-103132963D01*
X72047048Y-103132962D01*
X72047046Y-103132960D01*
X71868649Y-102994107D01*
X71868647Y-102994106D01*
X71868646Y-102994105D01*
X71868639Y-102994100D01*
X71840836Y-102979055D01*
X71791244Y-102929837D01*
X71776135Y-102861620D01*
X71800306Y-102796064D01*
X71840836Y-102760945D01*
X71868639Y-102745899D01*
X71868642Y-102745896D01*
X71868649Y-102745893D01*
X72047046Y-102607040D01*
X72200156Y-102440719D01*
X72323802Y-102251465D01*
X72414611Y-102044441D01*
X72470107Y-101825293D01*
X72488775Y-101600000D01*
X72488775Y-101599993D01*
X72470107Y-101374710D01*
X72470107Y-101374707D01*
X72414611Y-101155559D01*
X72323802Y-100948535D01*
X72200156Y-100759281D01*
X72200153Y-100759278D01*
X72200149Y-100759272D01*
X72047049Y-100592963D01*
X72047048Y-100592962D01*
X72047046Y-100592960D01*
X71868649Y-100454107D01*
X71868647Y-100454106D01*
X71868646Y-100454105D01*
X71868639Y-100454100D01*
X71840836Y-100439055D01*
X71791244Y-100389837D01*
X71776135Y-100321620D01*
X71800306Y-100256064D01*
X71840836Y-100220945D01*
X71868639Y-100205899D01*
X71868642Y-100205896D01*
X71868649Y-100205893D01*
X72047046Y-100067040D01*
X72200156Y-99900719D01*
X72323802Y-99711465D01*
X72414611Y-99504441D01*
X72470107Y-99285293D01*
X72488775Y-99060000D01*
X72488775Y-99059993D01*
X72470107Y-98834710D01*
X72470107Y-98834707D01*
X72414611Y-98615559D01*
X72323802Y-98408535D01*
X72200156Y-98219281D01*
X72200153Y-98219278D01*
X72200149Y-98219272D01*
X72047049Y-98052963D01*
X72047048Y-98052962D01*
X72047046Y-98052960D01*
X71868649Y-97914107D01*
X71868647Y-97914106D01*
X71868646Y-97914105D01*
X71868639Y-97914100D01*
X71840836Y-97899055D01*
X71791244Y-97849837D01*
X71776135Y-97781620D01*
X71800306Y-97716064D01*
X71840836Y-97680945D01*
X71868639Y-97665899D01*
X71868642Y-97665896D01*
X71868649Y-97665893D01*
X72047046Y-97527040D01*
X72200156Y-97360719D01*
X72323802Y-97171465D01*
X72414611Y-96964441D01*
X72470107Y-96745293D01*
X72488775Y-96520000D01*
X72488775Y-96519993D01*
X72470107Y-96294710D01*
X72470107Y-96294707D01*
X72414611Y-96075559D01*
X72323802Y-95868535D01*
X72200156Y-95679281D01*
X72200153Y-95679278D01*
X72200149Y-95679272D01*
X72047049Y-95512963D01*
X72047048Y-95512962D01*
X72047046Y-95512960D01*
X71868649Y-95374107D01*
X71868647Y-95374106D01*
X71868646Y-95374105D01*
X71868639Y-95374100D01*
X71840836Y-95359055D01*
X71791244Y-95309837D01*
X71776135Y-95241620D01*
X71800306Y-95176064D01*
X71840836Y-95140945D01*
X71868639Y-95125899D01*
X71868642Y-95125896D01*
X71868649Y-95125893D01*
X72047046Y-94987040D01*
X72200156Y-94820719D01*
X72323802Y-94631465D01*
X72414611Y-94424441D01*
X72470107Y-94205293D01*
X72488775Y-93980000D01*
X72488775Y-93979993D01*
X72470107Y-93754710D01*
X72470107Y-93754707D01*
X72414611Y-93535559D01*
X72323802Y-93328535D01*
X72200156Y-93139281D01*
X72200153Y-93139278D01*
X72200149Y-93139272D01*
X72047049Y-92972963D01*
X72047048Y-92972962D01*
X72047046Y-92972960D01*
X71868649Y-92834107D01*
X71868647Y-92834106D01*
X71868646Y-92834105D01*
X71868639Y-92834100D01*
X71840836Y-92819055D01*
X71791244Y-92769837D01*
X71776135Y-92701620D01*
X71800306Y-92636064D01*
X71840836Y-92600945D01*
X71868639Y-92585899D01*
X71868642Y-92585896D01*
X71868649Y-92585893D01*
X72047046Y-92447040D01*
X72200156Y-92280719D01*
X72323802Y-92091465D01*
X72414611Y-91884441D01*
X72470107Y-91665293D01*
X72488775Y-91440000D01*
X72488775Y-91439996D01*
X72488775Y-91439993D01*
X72470107Y-91214710D01*
X72470107Y-91214707D01*
X72414611Y-90995559D01*
X72323802Y-90788535D01*
X72200156Y-90599281D01*
X72200153Y-90599278D01*
X72200149Y-90599272D01*
X72047049Y-90432963D01*
X72047048Y-90432962D01*
X72047046Y-90432960D01*
X71868649Y-90294107D01*
X71868647Y-90294106D01*
X71868646Y-90294105D01*
X71868639Y-90294100D01*
X71840836Y-90279055D01*
X71791244Y-90229837D01*
X71776135Y-90161620D01*
X71800306Y-90096064D01*
X71840836Y-90060945D01*
X71868639Y-90045899D01*
X71868642Y-90045896D01*
X71868649Y-90045893D01*
X72047046Y-89907040D01*
X72200156Y-89740719D01*
X72323802Y-89551465D01*
X72414611Y-89344441D01*
X72470107Y-89125293D01*
X72488775Y-88900000D01*
X72488775Y-88899993D01*
X72475707Y-88742294D01*
X72470107Y-88674707D01*
X72414611Y-88455559D01*
X72323802Y-88248535D01*
X72200156Y-88059281D01*
X72200153Y-88059278D01*
X72200149Y-88059272D01*
X72047049Y-87892963D01*
X72047048Y-87892962D01*
X72047046Y-87892960D01*
X71868649Y-87754107D01*
X71868647Y-87754106D01*
X71868646Y-87754105D01*
X71868639Y-87754100D01*
X71840836Y-87739055D01*
X71791244Y-87689837D01*
X71776135Y-87621620D01*
X71800306Y-87556064D01*
X71840836Y-87520945D01*
X71868639Y-87505899D01*
X71868642Y-87505896D01*
X71868649Y-87505893D01*
X72047046Y-87367040D01*
X72200156Y-87200719D01*
X72323802Y-87011465D01*
X72414611Y-86804441D01*
X72470107Y-86585293D01*
X72488775Y-86360000D01*
X72488775Y-86359999D01*
X72488775Y-86359993D01*
X72470107Y-86134710D01*
X72470107Y-86134707D01*
X72414611Y-85915559D01*
X72323802Y-85708535D01*
X72301342Y-85674158D01*
X72200157Y-85519283D01*
X72200149Y-85519272D01*
X72047049Y-85352963D01*
X72047048Y-85352962D01*
X72047046Y-85352960D01*
X71868649Y-85214107D01*
X71816645Y-85185964D01*
X71669832Y-85106512D01*
X71669827Y-85106510D01*
X71456017Y-85033109D01*
X71283617Y-85004341D01*
X71233033Y-84995900D01*
X71006967Y-84995900D01*
X70962370Y-85003341D01*
X70783982Y-85033109D01*
X70570172Y-85106510D01*
X70570167Y-85106512D01*
X70371352Y-85214106D01*
X70192955Y-85352959D01*
X70192950Y-85352963D01*
X70039850Y-85519272D01*
X70039842Y-85519283D01*
X69916198Y-85708533D01*
X69825388Y-85915560D01*
X69769892Y-86134710D01*
X69751225Y-86359993D01*
X69751225Y-86360006D01*
X69769892Y-86585289D01*
X69825388Y-86804439D01*
X69916198Y-87011466D01*
X70039842Y-87200716D01*
X70039850Y-87200727D01*
X70192950Y-87367036D01*
X70192954Y-87367040D01*
X70371351Y-87505893D01*
X70399165Y-87520945D01*
X70448755Y-87570165D01*
X70463863Y-87638382D01*
X70439692Y-87703937D01*
X70399165Y-87739055D01*
X70371352Y-87754106D01*
X70192955Y-87892959D01*
X70192950Y-87892963D01*
X70039850Y-88059272D01*
X70039842Y-88059283D01*
X69916198Y-88248533D01*
X69825388Y-88455560D01*
X69769892Y-88674710D01*
X69751225Y-88899993D01*
X69751225Y-88900006D01*
X69769892Y-89125289D01*
X69825388Y-89344439D01*
X69916198Y-89551466D01*
X70039842Y-89740716D01*
X70039850Y-89740727D01*
X70192950Y-89907036D01*
X70192954Y-89907040D01*
X70371351Y-90045893D01*
X70399165Y-90060945D01*
X70448755Y-90110165D01*
X70463863Y-90178382D01*
X70439692Y-90243937D01*
X70399165Y-90279055D01*
X70371352Y-90294106D01*
X70192955Y-90432959D01*
X70192950Y-90432963D01*
X70039850Y-90599272D01*
X70039842Y-90599283D01*
X69916198Y-90788533D01*
X69825388Y-90995560D01*
X69769892Y-91214710D01*
X69751225Y-91439993D01*
X69751225Y-91440006D01*
X69769892Y-91665289D01*
X69825388Y-91884439D01*
X69916198Y-92091466D01*
X70039842Y-92280716D01*
X70039850Y-92280727D01*
X70192950Y-92447036D01*
X70192954Y-92447040D01*
X70371351Y-92585893D01*
X70399165Y-92600945D01*
X70448755Y-92650165D01*
X70463863Y-92718382D01*
X70439692Y-92783937D01*
X70399165Y-92819055D01*
X70371352Y-92834106D01*
X70192955Y-92972959D01*
X70192950Y-92972963D01*
X70039850Y-93139272D01*
X70039842Y-93139283D01*
X69916198Y-93328533D01*
X69825388Y-93535560D01*
X69769892Y-93754710D01*
X69751225Y-93979993D01*
X69751225Y-93980006D01*
X69769892Y-94205289D01*
X69825388Y-94424439D01*
X69916198Y-94631466D01*
X70039842Y-94820716D01*
X70039850Y-94820727D01*
X70192950Y-94987036D01*
X70192954Y-94987040D01*
X70371351Y-95125893D01*
X70399165Y-95140945D01*
X70448755Y-95190165D01*
X70463863Y-95258382D01*
X70439692Y-95323937D01*
X70399165Y-95359055D01*
X70371352Y-95374106D01*
X70192955Y-95512959D01*
X70192950Y-95512963D01*
X70039850Y-95679272D01*
X70039842Y-95679283D01*
X69916198Y-95868533D01*
X69825388Y-96075560D01*
X69769892Y-96294710D01*
X69751225Y-96519993D01*
X69751225Y-96520006D01*
X69769892Y-96745289D01*
X69825388Y-96964439D01*
X69916198Y-97171466D01*
X70039842Y-97360716D01*
X70039850Y-97360727D01*
X70192950Y-97527036D01*
X70192954Y-97527040D01*
X70371351Y-97665893D01*
X70399165Y-97680945D01*
X70448755Y-97730165D01*
X70463863Y-97798382D01*
X70439692Y-97863937D01*
X70399165Y-97899055D01*
X70371352Y-97914106D01*
X70192955Y-98052959D01*
X70192950Y-98052963D01*
X70039850Y-98219272D01*
X70039842Y-98219283D01*
X69916198Y-98408533D01*
X69825388Y-98615560D01*
X69769892Y-98834710D01*
X69751225Y-99059993D01*
X69751225Y-99060006D01*
X69769892Y-99285289D01*
X69825388Y-99504439D01*
X69916198Y-99711466D01*
X70039842Y-99900716D01*
X70039850Y-99900727D01*
X70192950Y-100067036D01*
X70192954Y-100067040D01*
X70371351Y-100205893D01*
X70399165Y-100220945D01*
X70448755Y-100270165D01*
X70463863Y-100338382D01*
X70439692Y-100403937D01*
X70399165Y-100439055D01*
X70371352Y-100454106D01*
X70192955Y-100592959D01*
X70192950Y-100592963D01*
X70039850Y-100759272D01*
X70039842Y-100759283D01*
X69916198Y-100948533D01*
X69825388Y-101155560D01*
X69769892Y-101374710D01*
X69751225Y-101599993D01*
X69751225Y-101600006D01*
X69769892Y-101825289D01*
X69825388Y-102044439D01*
X69916198Y-102251466D01*
X70039842Y-102440716D01*
X70039850Y-102440727D01*
X70192950Y-102607036D01*
X70192954Y-102607040D01*
X70371351Y-102745893D01*
X70399165Y-102760945D01*
X70448755Y-102810165D01*
X70463863Y-102878382D01*
X70439692Y-102943937D01*
X70399165Y-102979055D01*
X70371352Y-102994106D01*
X70192955Y-103132959D01*
X70192950Y-103132963D01*
X70039850Y-103299272D01*
X70039842Y-103299283D01*
X69916198Y-103488533D01*
X69825388Y-103695560D01*
X69769892Y-103914710D01*
X69751225Y-104139993D01*
X69751225Y-104140006D01*
X59077992Y-104140006D01*
X59076135Y-104131620D01*
X59100306Y-104066064D01*
X59140836Y-104030945D01*
X59168639Y-104015899D01*
X59168642Y-104015896D01*
X59168649Y-104015893D01*
X59347046Y-103877040D01*
X59500156Y-103710719D01*
X59623802Y-103521465D01*
X59714611Y-103314441D01*
X59770107Y-103095293D01*
X59787407Y-102886512D01*
X59788775Y-102870006D01*
X59788775Y-102869993D01*
X59770107Y-102644710D01*
X59770107Y-102644707D01*
X59714611Y-102425559D01*
X59623802Y-102218535D01*
X59500156Y-102029281D01*
X59500153Y-102029278D01*
X59500149Y-102029272D01*
X59347049Y-101862963D01*
X59347048Y-101862962D01*
X59347046Y-101862960D01*
X59168649Y-101724107D01*
X59142390Y-101709896D01*
X58969832Y-101616512D01*
X58969827Y-101616510D01*
X58756017Y-101543109D01*
X58588778Y-101515202D01*
X58533033Y-101505900D01*
X58306967Y-101505900D01*
X58262370Y-101513341D01*
X58083982Y-101543109D01*
X57870172Y-101616510D01*
X57870167Y-101616512D01*
X57671352Y-101724106D01*
X57492955Y-101862958D01*
X57445310Y-101914715D01*
X57385423Y-101950705D01*
X57315585Y-101948604D01*
X57257969Y-101909079D01*
X57230868Y-101844680D01*
X57230505Y-101820491D01*
X57248775Y-101600005D01*
X57248775Y-101599993D01*
X57230107Y-101374710D01*
X57230107Y-101374707D01*
X57174611Y-101155559D01*
X57083802Y-100948535D01*
X56960156Y-100759281D01*
X56960153Y-100759278D01*
X56960149Y-100759272D01*
X56807049Y-100592963D01*
X56807048Y-100592962D01*
X56807046Y-100592960D01*
X56628649Y-100454107D01*
X56628647Y-100454106D01*
X56628646Y-100454105D01*
X56628639Y-100454100D01*
X56600836Y-100439055D01*
X56551244Y-100389837D01*
X56536135Y-100321620D01*
X56560306Y-100256064D01*
X56600836Y-100220945D01*
X56628639Y-100205899D01*
X56628642Y-100205896D01*
X56628649Y-100205893D01*
X56807046Y-100067040D01*
X56960156Y-99900719D01*
X57083802Y-99711465D01*
X57174611Y-99504441D01*
X57230107Y-99285293D01*
X57248775Y-99060000D01*
X57248775Y-99059993D01*
X57230107Y-98834710D01*
X57230107Y-98834707D01*
X57174611Y-98615559D01*
X57083802Y-98408535D01*
X56960156Y-98219281D01*
X56960153Y-98219278D01*
X56960149Y-98219272D01*
X56807049Y-98052963D01*
X56807048Y-98052962D01*
X56807046Y-98052960D01*
X56628649Y-97914107D01*
X56628647Y-97914106D01*
X56628646Y-97914105D01*
X56628639Y-97914100D01*
X56600836Y-97899055D01*
X56551244Y-97849837D01*
X56536135Y-97781620D01*
X56560306Y-97716064D01*
X56600836Y-97680945D01*
X56628639Y-97665899D01*
X56628642Y-97665896D01*
X56628649Y-97665893D01*
X56807046Y-97527040D01*
X56960156Y-97360719D01*
X57083802Y-97171465D01*
X57174611Y-96964441D01*
X57230107Y-96745293D01*
X57248775Y-96520000D01*
X57248775Y-96519993D01*
X57230107Y-96294710D01*
X57230107Y-96294707D01*
X57174611Y-96075559D01*
X57083802Y-95868535D01*
X56960156Y-95679281D01*
X56960153Y-95679278D01*
X56960149Y-95679272D01*
X56807049Y-95512963D01*
X56807048Y-95512962D01*
X56807046Y-95512960D01*
X56628649Y-95374107D01*
X56628647Y-95374106D01*
X56628646Y-95374105D01*
X56628639Y-95374100D01*
X56600836Y-95359055D01*
X56551244Y-95309837D01*
X56536135Y-95241620D01*
X56560306Y-95176064D01*
X56600836Y-95140945D01*
X56628639Y-95125899D01*
X56628642Y-95125896D01*
X56628649Y-95125893D01*
X56807046Y-94987040D01*
X56960156Y-94820719D01*
X57083802Y-94631465D01*
X57174611Y-94424441D01*
X57230107Y-94205293D01*
X57248775Y-93980000D01*
X57248775Y-93979993D01*
X57230107Y-93754710D01*
X57230107Y-93754707D01*
X57174611Y-93535559D01*
X57083802Y-93328535D01*
X56960156Y-93139281D01*
X56960153Y-93139278D01*
X56960149Y-93139272D01*
X56807049Y-92972963D01*
X56807048Y-92972962D01*
X56807046Y-92972960D01*
X56628649Y-92834107D01*
X56628646Y-92834105D01*
X56624601Y-92830957D01*
X56626000Y-92829158D01*
X56586850Y-92783295D01*
X56577419Y-92714065D01*
X56606914Y-92650726D01*
X56658746Y-92615692D01*
X57687937Y-92252372D01*
X57729214Y-92245300D01*
X64159311Y-92245300D01*
X64159316Y-92245301D01*
X64192573Y-92245300D01*
X64192642Y-92245320D01*
X64243957Y-92245319D01*
X64243957Y-92245320D01*
X64445961Y-92245318D01*
X64848723Y-92213616D01*
X65247757Y-92150411D01*
X65640602Y-92056095D01*
X66024836Y-91931247D01*
X66398090Y-91776637D01*
X66758063Y-91593220D01*
X67102536Y-91382125D01*
X67429385Y-91144654D01*
X67736595Y-90882272D01*
X67879433Y-90739433D01*
X67939283Y-90679583D01*
X67939284Y-90679580D01*
X67944387Y-90674478D01*
X67944419Y-90674442D01*
X68022269Y-90596592D01*
X68255033Y-90324060D01*
X68284647Y-90289388D01*
X68284647Y-90289387D01*
X68284652Y-90289382D01*
X68522122Y-89962532D01*
X68733216Y-89618059D01*
X68916632Y-89258085D01*
X69071239Y-88884830D01*
X69196085Y-88500596D01*
X69290400Y-88107750D01*
X69353601Y-87708716D01*
X69385300Y-87305954D01*
X69385300Y-87103949D01*
X69385300Y-87019309D01*
X69385300Y-84685335D01*
X69404985Y-84618296D01*
X69457789Y-84572541D01*
X69526947Y-84562597D01*
X69550255Y-84568293D01*
X69669670Y-84610078D01*
X69669675Y-84610079D01*
X69849996Y-84630396D01*
X69850000Y-84630396D01*
X69850002Y-84630396D01*
X69888306Y-84626080D01*
X69902190Y-84625300D01*
X83290885Y-84625300D01*
X83296971Y-84625449D01*
X83633932Y-84642006D01*
X83646038Y-84643198D01*
X83976733Y-84692255D01*
X83988659Y-84694628D01*
X84312965Y-84775865D01*
X84324590Y-84779392D01*
X84583439Y-84872012D01*
X84639927Y-84913130D01*
X84665218Y-84978262D01*
X84651281Y-85046727D01*
X84602541Y-85096789D01*
X84594068Y-85101144D01*
X84412171Y-85185964D01*
X84412169Y-85185965D01*
X84218597Y-85321505D01*
X84051505Y-85488597D01*
X83921575Y-85674158D01*
X83866998Y-85717783D01*
X83797500Y-85724977D01*
X83735145Y-85693454D01*
X83718425Y-85674158D01*
X83588494Y-85488597D01*
X83421402Y-85321506D01*
X83421395Y-85321501D01*
X83227834Y-85185967D01*
X83227830Y-85185965D01*
X83227828Y-85185964D01*
X83013663Y-85086097D01*
X83013659Y-85086096D01*
X83013655Y-85086094D01*
X82785413Y-85024938D01*
X82785403Y-85024936D01*
X82550001Y-85004341D01*
X82549999Y-85004341D01*
X82314596Y-85024936D01*
X82314586Y-85024938D01*
X82086344Y-85086094D01*
X82086335Y-85086098D01*
X81872171Y-85185964D01*
X81872169Y-85185965D01*
X81678597Y-85321505D01*
X81511505Y-85488597D01*
X81381575Y-85674158D01*
X81326998Y-85717783D01*
X81257500Y-85724977D01*
X81195145Y-85693454D01*
X81178425Y-85674158D01*
X81048494Y-85488597D01*
X80881402Y-85321506D01*
X80881395Y-85321501D01*
X80687834Y-85185967D01*
X80687830Y-85185965D01*
X80687828Y-85185964D01*
X80473663Y-85086097D01*
X80473659Y-85086096D01*
X80473655Y-85086094D01*
X80245413Y-85024938D01*
X80245403Y-85024936D01*
X80010001Y-85004341D01*
X80009999Y-85004341D01*
X79774596Y-85024936D01*
X79774586Y-85024938D01*
X79546344Y-85086094D01*
X79546335Y-85086098D01*
X79332171Y-85185964D01*
X79332169Y-85185965D01*
X79138600Y-85321503D01*
X79016673Y-85443430D01*
X78955350Y-85476914D01*
X78885658Y-85471930D01*
X78829725Y-85430058D01*
X78812810Y-85399081D01*
X78763797Y-85267671D01*
X78763793Y-85267664D01*
X78677547Y-85152455D01*
X78677544Y-85152452D01*
X78562335Y-85066206D01*
X78562328Y-85066202D01*
X78427482Y-85015908D01*
X78427483Y-85015908D01*
X78367883Y-85009501D01*
X78367881Y-85009500D01*
X78367873Y-85009500D01*
X78367864Y-85009500D01*
X76572129Y-85009500D01*
X76572123Y-85009501D01*
X76512516Y-85015908D01*
X76377671Y-85066202D01*
X76377664Y-85066206D01*
X76262455Y-85152452D01*
X76262452Y-85152455D01*
X76176206Y-85267664D01*
X76176202Y-85267671D01*
X76125908Y-85402517D01*
X76119501Y-85462116D01*
X76119500Y-85462135D01*
X76119500Y-87257870D01*
X76119501Y-87257876D01*
X76125908Y-87317483D01*
X76176202Y-87452328D01*
X76176206Y-87452335D01*
X76262452Y-87567544D01*
X76262455Y-87567547D01*
X76377664Y-87653793D01*
X76377671Y-87653797D01*
X76512517Y-87704091D01*
X76512516Y-87704091D01*
X76519444Y-87704835D01*
X76572127Y-87710500D01*
X78367872Y-87710499D01*
X78427483Y-87704091D01*
X78562331Y-87653796D01*
X78677546Y-87567546D01*
X78763796Y-87452331D01*
X78812810Y-87320916D01*
X78854681Y-87264984D01*
X78920145Y-87240566D01*
X78988418Y-87255417D01*
X79016673Y-87276569D01*
X79138599Y-87398495D01*
X79220795Y-87456049D01*
X79332165Y-87534032D01*
X79332167Y-87534033D01*
X79332170Y-87534035D01*
X79546337Y-87633903D01*
X79774592Y-87695063D01*
X79951034Y-87710500D01*
X80009999Y-87715659D01*
X80010000Y-87715659D01*
X80010001Y-87715659D01*
X80068966Y-87710500D01*
X80245408Y-87695063D01*
X80473663Y-87633903D01*
X80687830Y-87534035D01*
X80881401Y-87398495D01*
X81048495Y-87231401D01*
X81176286Y-87048896D01*
X81230860Y-87005273D01*
X81300359Y-86998079D01*
X81362714Y-87029602D01*
X81388886Y-87064803D01*
X81883477Y-88059281D01*
X81934926Y-88162731D01*
X81934927Y-88162732D01*
X81947900Y-88217950D01*
X81947900Y-90715793D01*
X81940501Y-90757985D01*
X81801289Y-91142713D01*
X81788689Y-91182628D01*
X81788689Y-91182630D01*
X81788555Y-91183732D01*
X81782512Y-91209647D01*
X81764631Y-91260745D01*
X81764630Y-91260750D01*
X81744435Y-91439996D01*
X81744435Y-91440003D01*
X81764630Y-91619249D01*
X81764631Y-91619254D01*
X81824211Y-91789523D01*
X81913261Y-91931244D01*
X81920184Y-91942262D01*
X82047738Y-92069816D01*
X82200478Y-92165789D01*
X82337157Y-92213615D01*
X82370745Y-92225368D01*
X82370750Y-92225369D01*
X82549996Y-92245565D01*
X82550000Y-92245565D01*
X82550004Y-92245565D01*
X82729249Y-92225369D01*
X82729252Y-92225368D01*
X82729255Y-92225368D01*
X82899522Y-92165789D01*
X83052262Y-92069816D01*
X83179816Y-91942262D01*
X83275789Y-91789522D01*
X83335368Y-91619255D01*
X83338301Y-91593224D01*
X83355565Y-91440003D01*
X83355565Y-91439996D01*
X83335369Y-91260748D01*
X83308167Y-91183010D01*
X83303788Y-91167218D01*
X83298713Y-91142730D01*
X83298712Y-91142726D01*
X83298710Y-91142717D01*
X83159499Y-90757987D01*
X83152100Y-90715796D01*
X83152100Y-88217949D01*
X83165073Y-88162731D01*
X83299240Y-87892959D01*
X83711113Y-87064800D01*
X83758590Y-87013542D01*
X83826244Y-86996088D01*
X83892595Y-87017981D01*
X83923714Y-87048897D01*
X84051500Y-87231395D01*
X84051505Y-87231401D01*
X84218599Y-87398495D01*
X84300795Y-87456049D01*
X84412165Y-87534032D01*
X84412167Y-87534033D01*
X84412170Y-87534035D01*
X84626337Y-87633903D01*
X84854592Y-87695063D01*
X85031034Y-87710500D01*
X85089999Y-87715659D01*
X85090000Y-87715659D01*
X85090001Y-87715659D01*
X85148966Y-87710500D01*
X85325408Y-87695063D01*
X85553663Y-87633903D01*
X85767830Y-87534035D01*
X85961401Y-87398495D01*
X86128495Y-87231401D01*
X86258425Y-87045842D01*
X86313002Y-87002217D01*
X86382500Y-86995023D01*
X86444855Y-87026546D01*
X86461575Y-87045842D01*
X86591500Y-87231395D01*
X86591505Y-87231401D01*
X86758599Y-87398495D01*
X86840795Y-87456049D01*
X86952165Y-87534032D01*
X86952167Y-87534033D01*
X86952170Y-87534035D01*
X87166337Y-87633903D01*
X87394592Y-87695063D01*
X87571034Y-87710500D01*
X87629999Y-87715659D01*
X87630000Y-87715659D01*
X87630001Y-87715659D01*
X87688966Y-87710500D01*
X87865408Y-87695063D01*
X88093663Y-87633903D01*
X88307830Y-87534035D01*
X88501401Y-87398495D01*
X88668495Y-87231401D01*
X88804035Y-87037830D01*
X88903903Y-86823663D01*
X88965063Y-86595408D01*
X88985659Y-86360000D01*
X88965063Y-86124592D01*
X88909054Y-85915560D01*
X88903905Y-85896344D01*
X88903904Y-85896343D01*
X88903903Y-85896337D01*
X88804035Y-85682171D01*
X88799887Y-85676246D01*
X88668494Y-85488597D01*
X88501402Y-85321506D01*
X88501395Y-85321501D01*
X88307831Y-85185965D01*
X88307829Y-85185964D01*
X88231412Y-85150330D01*
X88196549Y-85134073D01*
X88179767Y-85124594D01*
X88164823Y-85114546D01*
X88164811Y-85114538D01*
X86945527Y-84526840D01*
X86911686Y-84502820D01*
X86897451Y-84488585D01*
X86897450Y-84488584D01*
X86895250Y-84486384D01*
X86894731Y-84485893D01*
X86786588Y-84377750D01*
X86786581Y-84377743D01*
X86673589Y-84281238D01*
X86479365Y-84115355D01*
X86152543Y-83877905D01*
X86152541Y-83877903D01*
X86152525Y-83877892D01*
X86152509Y-83877882D01*
X85808064Y-83666804D01*
X85808044Y-83666793D01*
X85448083Y-83483382D01*
X85434935Y-83477936D01*
X85138894Y-83355309D01*
X85074834Y-83328774D01*
X85074833Y-83328773D01*
X85074829Y-83328772D01*
X84861181Y-83259352D01*
X84690600Y-83203926D01*
X84690597Y-83203925D01*
X84690596Y-83203925D01*
X84450320Y-83146237D01*
X84297750Y-83109607D01*
X83898726Y-83046404D01*
X83898714Y-83046403D01*
X83495964Y-83014702D01*
X83495953Y-83014701D01*
X83339181Y-83014700D01*
X83339180Y-83014700D01*
X83339179Y-83014700D01*
X83293957Y-83014700D01*
X83209316Y-83014699D01*
X83209315Y-83014699D01*
X83203203Y-83014699D01*
X83203183Y-83014700D01*
X69902190Y-83014700D01*
X69888306Y-83013920D01*
X69850002Y-83009604D01*
X69849996Y-83009604D01*
X69669675Y-83029920D01*
X69669670Y-83029921D01*
X69550255Y-83071707D01*
X69480476Y-83075268D01*
X69419848Y-83040539D01*
X69387621Y-82978546D01*
X69385300Y-82954665D01*
X69385300Y-67861147D01*
X69392244Y-67820233D01*
X69540643Y-67395659D01*
X69617467Y-67175860D01*
X69658169Y-67119071D01*
X69723113Y-67093301D01*
X69791679Y-67106733D01*
X69833788Y-67142462D01*
X69912454Y-67247546D01*
X69958643Y-67282123D01*
X70027664Y-67333793D01*
X70027671Y-67333797D01*
X70162517Y-67384091D01*
X70162516Y-67384091D01*
X70169444Y-67384835D01*
X70222127Y-67390500D01*
X72017872Y-67390499D01*
X72077483Y-67384091D01*
X72212331Y-67333796D01*
X72327546Y-67247546D01*
X72413796Y-67132331D01*
X72464091Y-66997483D01*
X72470500Y-66937873D01*
X72470499Y-65142128D01*
X72464091Y-65082517D01*
X72462810Y-65079083D01*
X72413797Y-64947671D01*
X72413793Y-64947664D01*
X72327547Y-64832455D01*
X72327544Y-64832452D01*
X72212335Y-64746206D01*
X72212328Y-64746202D01*
X72077482Y-64695908D01*
X72077483Y-64695908D01*
X72017883Y-64689501D01*
X72017881Y-64689500D01*
X72017873Y-64689500D01*
X72017864Y-64689500D01*
X70222129Y-64689500D01*
X70222123Y-64689501D01*
X70162516Y-64695908D01*
X70027671Y-64746202D01*
X70027664Y-64746206D01*
X69912455Y-64832452D01*
X69912452Y-64832455D01*
X69826206Y-64947664D01*
X69826203Y-64947669D01*
X69777189Y-65079083D01*
X69735317Y-65135016D01*
X69669853Y-65159433D01*
X69601580Y-65144581D01*
X69573326Y-65123430D01*
X69451402Y-65001506D01*
X69451395Y-65001501D01*
X69257834Y-64865967D01*
X69257830Y-64865965D01*
X69257828Y-64865964D01*
X69043663Y-64766097D01*
X69043659Y-64766096D01*
X69043655Y-64766094D01*
X68815413Y-64704938D01*
X68815403Y-64704936D01*
X68580001Y-64684341D01*
X68579999Y-64684341D01*
X68344596Y-64704936D01*
X68344586Y-64704938D01*
X68116344Y-64766094D01*
X68116335Y-64766098D01*
X67902171Y-64865964D01*
X67902169Y-64865965D01*
X67708597Y-65001505D01*
X67541505Y-65168597D01*
X67411575Y-65354158D01*
X67356998Y-65397783D01*
X67287500Y-65404977D01*
X67225145Y-65373454D01*
X67208425Y-65354158D01*
X67078494Y-65168597D01*
X66911402Y-65001506D01*
X66911395Y-65001501D01*
X66717834Y-64865967D01*
X66717830Y-64865965D01*
X66717828Y-64865964D01*
X66503663Y-64766097D01*
X66503659Y-64766096D01*
X66503655Y-64766094D01*
X66275413Y-64704938D01*
X66275403Y-64704936D01*
X66040001Y-64684341D01*
X66039999Y-64684341D01*
X65804596Y-64704936D01*
X65804586Y-64704938D01*
X65576344Y-64766094D01*
X65576335Y-64766098D01*
X65362171Y-64865964D01*
X65362169Y-64865965D01*
X65168597Y-65001505D01*
X65001505Y-65168597D01*
X64871575Y-65354158D01*
X64816998Y-65397783D01*
X64747500Y-65404977D01*
X64685145Y-65373454D01*
X64668425Y-65354158D01*
X64538494Y-65168597D01*
X64371402Y-65001506D01*
X64371395Y-65001501D01*
X64177834Y-64865967D01*
X64177830Y-64865965D01*
X64177828Y-64865964D01*
X63963663Y-64766097D01*
X63963659Y-64766096D01*
X63963655Y-64766094D01*
X63735413Y-64704938D01*
X63735403Y-64704936D01*
X63500001Y-64684341D01*
X63499999Y-64684341D01*
X63264596Y-64704936D01*
X63264586Y-64704938D01*
X63036344Y-64766094D01*
X63036335Y-64766098D01*
X62822171Y-64865964D01*
X62822169Y-64865965D01*
X62628597Y-65001505D01*
X62461505Y-65168597D01*
X62331575Y-65354158D01*
X62276998Y-65397783D01*
X62207500Y-65404977D01*
X62145145Y-65373454D01*
X62128425Y-65354158D01*
X61998494Y-65168597D01*
X61831402Y-65001506D01*
X61831395Y-65001501D01*
X61637834Y-64865967D01*
X61637830Y-64865965D01*
X61637828Y-64865964D01*
X61423663Y-64766097D01*
X61423659Y-64766096D01*
X61423655Y-64766094D01*
X61195413Y-64704938D01*
X61195403Y-64704936D01*
X60960001Y-64684341D01*
X60959999Y-64684341D01*
X60724596Y-64704936D01*
X60724586Y-64704938D01*
X60496344Y-64766094D01*
X60496335Y-64766098D01*
X60282171Y-64865964D01*
X60282169Y-64865965D01*
X60088597Y-65001505D01*
X59921505Y-65168597D01*
X59791575Y-65354158D01*
X59736998Y-65397783D01*
X59667500Y-65404977D01*
X59605145Y-65373454D01*
X59588425Y-65354158D01*
X59458494Y-65168597D01*
X59291402Y-65001506D01*
X59291395Y-65001501D01*
X59097834Y-64865967D01*
X59097830Y-64865965D01*
X59097828Y-64865964D01*
X58883663Y-64766097D01*
X58883659Y-64766096D01*
X58883655Y-64766094D01*
X58655413Y-64704938D01*
X58655403Y-64704936D01*
X58420001Y-64684341D01*
X58419999Y-64684341D01*
X58184596Y-64704936D01*
X58184586Y-64704938D01*
X57956344Y-64766094D01*
X57956335Y-64766098D01*
X57742171Y-64865964D01*
X57742169Y-64865965D01*
X57548597Y-65001505D01*
X57381505Y-65168597D01*
X57251575Y-65354158D01*
X57196998Y-65397783D01*
X57127500Y-65404977D01*
X57065145Y-65373454D01*
X57048425Y-65354158D01*
X56918494Y-65168597D01*
X56751402Y-65001506D01*
X56751395Y-65001501D01*
X56557834Y-64865967D01*
X56557830Y-64865965D01*
X56557828Y-64865964D01*
X56343663Y-64766097D01*
X56343659Y-64766096D01*
X56343655Y-64766094D01*
X56115413Y-64704938D01*
X56115403Y-64704936D01*
X55880001Y-64684341D01*
X55879999Y-64684341D01*
X55644596Y-64704936D01*
X55644586Y-64704938D01*
X55416344Y-64766094D01*
X55416335Y-64766098D01*
X55202171Y-64865964D01*
X55202169Y-64865965D01*
X55008597Y-65001505D01*
X54841505Y-65168597D01*
X54711575Y-65354158D01*
X54656998Y-65397783D01*
X54587500Y-65404977D01*
X54525145Y-65373454D01*
X54508425Y-65354158D01*
X54378494Y-65168597D01*
X54211402Y-65001506D01*
X54211395Y-65001501D01*
X54017834Y-64865967D01*
X54017830Y-64865965D01*
X54017828Y-64865964D01*
X53803663Y-64766097D01*
X53803659Y-64766096D01*
X53803655Y-64766094D01*
X53575413Y-64704938D01*
X53575403Y-64704936D01*
X53340001Y-64684341D01*
X53339999Y-64684341D01*
X53104596Y-64704936D01*
X53104586Y-64704938D01*
X52876344Y-64766094D01*
X52876335Y-64766098D01*
X52662171Y-64865964D01*
X52662169Y-64865965D01*
X52468597Y-65001505D01*
X52301505Y-65168597D01*
X52165965Y-65362169D01*
X52165964Y-65362171D01*
X52066098Y-65576335D01*
X52066094Y-65576344D01*
X52004938Y-65804586D01*
X52004936Y-65804596D01*
X51984341Y-66039999D01*
X51984341Y-66040000D01*
X51300500Y-66040000D01*
X51300500Y-64124500D01*
X51320185Y-64057461D01*
X51372989Y-64011706D01*
X51424500Y-64000500D01*
X233055500Y-64000500D01*
X233122539Y-64020185D01*
G37*
G04 #@! TD.AperFunction*
G04 #@! TA.AperFunction,Conductor*
G36*
X55874989Y-88040782D02*
G01*
X55879826Y-88048318D01*
X55880011Y-88050379D01*
X55880715Y-88898355D01*
X55879820Y-88902854D01*
X55554825Y-89685080D01*
X55548486Y-89691405D01*
X55539531Y-89691396D01*
X55537795Y-89690498D01*
X54026009Y-88740599D01*
X54020827Y-88733296D01*
X54022327Y-88724467D01*
X54023842Y-88722540D01*
X54435893Y-88298336D01*
X54442213Y-88294973D01*
X55866241Y-88038874D01*
X55874989Y-88040782D01*
G37*
G04 #@! TD.AperFunction*
G04 #@! TA.AperFunction,Conductor*
G36*
X68584484Y-66040863D02*
G01*
X69355098Y-66361043D01*
X69361422Y-66367381D01*
X69361653Y-66375707D01*
X68887540Y-67732160D01*
X68881575Y-67738840D01*
X68876495Y-67740000D01*
X68283505Y-67740000D01*
X68275232Y-67736573D01*
X68272460Y-67732160D01*
X67798346Y-66375707D01*
X67798851Y-66366767D01*
X67804900Y-66361043D01*
X68575511Y-66040864D01*
X68584466Y-66040856D01*
X68584484Y-66040863D01*
G37*
G04 #@! TD.AperFunction*
G04 #@! TA.AperFunction,Conductor*
G36*
X57599396Y-91132445D02*
G01*
X57606055Y-91138430D01*
X57607200Y-91143477D01*
X57607200Y-91736522D01*
X57603773Y-91744795D01*
X57599395Y-91747555D01*
X56220933Y-92234173D01*
X56211991Y-92233695D01*
X56206233Y-92227629D01*
X55880864Y-91444488D01*
X55880856Y-91435534D01*
X55880865Y-91435511D01*
X56006779Y-91132444D01*
X56206234Y-90652368D01*
X56212572Y-90646045D01*
X56220932Y-90645826D01*
X57599396Y-91132445D01*
G37*
G04 #@! TD.AperFunction*
G04 #@! TA.AperFunction,Conductor*
G36*
X86650923Y-84945997D02*
G01*
X87274034Y-85246338D01*
X87945330Y-85569906D01*
X87951295Y-85576586D01*
X87951064Y-85584912D01*
X87632562Y-86356214D01*
X87626237Y-86362553D01*
X87626214Y-86362562D01*
X86854912Y-86681064D01*
X86845957Y-86681055D01*
X86839906Y-86675330D01*
X86516338Y-86004034D01*
X86215997Y-85380924D01*
X86215493Y-85371985D01*
X86218263Y-85367574D01*
X86637573Y-84948264D01*
X86645845Y-84944838D01*
X86650923Y-84945997D01*
G37*
G04 #@! TD.AperFunction*
G04 #@! TA.AperFunction,Conductor*
G36*
X82651664Y-90843427D02*
G01*
X82654393Y-90847719D01*
X82823371Y-91314714D01*
X82822963Y-91323660D01*
X82816880Y-91329491D01*
X82554511Y-91439115D01*
X82545556Y-91439142D01*
X82545489Y-91439115D01*
X82283119Y-91329491D01*
X82276807Y-91323139D01*
X82276628Y-91314714D01*
X82445607Y-90847719D01*
X82451644Y-90841106D01*
X82456609Y-90840000D01*
X82643391Y-90840000D01*
X82651664Y-90843427D01*
G37*
G04 #@! TD.AperFunction*
G04 #@! TA.AperFunction,Conductor*
G36*
X82554484Y-86360863D02*
G01*
X83323736Y-86680477D01*
X83330060Y-86686815D01*
X83330051Y-86695770D01*
X83329722Y-86696491D01*
X82654828Y-88053510D01*
X82648076Y-88059392D01*
X82644352Y-88060000D01*
X82455648Y-88060000D01*
X82447375Y-88056573D01*
X82445172Y-88053510D01*
X81770277Y-86696491D01*
X81769661Y-86687557D01*
X81775543Y-86680805D01*
X81776236Y-86680488D01*
X82545511Y-86360864D01*
X82554466Y-86360856D01*
X82554484Y-86360863D01*
G37*
G04 #@! TD.AperFunction*
M02*
