%TF.GenerationSoftware,KiCad,Pcbnew,7.0.11+dfsg-1*%
%TF.CreationDate,2024-03-20T20:25:55-04:00*%
%TF.ProjectId,base,62617365-2e6b-4696-9361-645f70636258,rev?*%
%TF.SameCoordinates,Original*%
%TF.FileFunction,Drillmap*%
%TF.FilePolarity,Positive*%
%FSLAX45Y45*%
G04 Gerber Fmt 4.5, Leading zero omitted, Abs format (unit mm)*
G04 Created by KiCad (PCBNEW 7.0.11+dfsg-1) date 2024-03-20 20:25:55*
%MOMM*%
%LPD*%
G01*
G04 APERTURE LIST*
%ADD10C,0.050000*%
%ADD11C,0.200000*%
G04 APERTURE END LIST*
D10*
X8255000Y-11557000D02*
G75*
G03*
X7747000Y-11557000I-254000J0D01*
G01*
X7747000Y-11557000D02*
G75*
G03*
X8255000Y-11557000I254000J0D01*
G01*
X22860000Y-11557000D02*
G75*
G03*
X22352000Y-11557000I-254000J0D01*
G01*
X22352000Y-11557000D02*
G75*
G03*
X22860000Y-11557000I254000J0D01*
G01*
X6096000Y-5842000D02*
G75*
G03*
X5588000Y-5842000I-254000J0D01*
G01*
X5588000Y-5842000D02*
G75*
G03*
X6096000Y-5842000I254000J0D01*
G01*
X22860000Y-5842000D02*
G75*
G03*
X22352000Y-5842000I-254000J0D01*
G01*
X22352000Y-5842000D02*
G75*
G03*
X22860000Y-5842000I254000J0D01*
G01*
X5080000Y-5080000D02*
X23368000Y-5080000D01*
X23368000Y-12700000D01*
X5080000Y-12700000D01*
X5080000Y-5080000D01*
D11*
X5338277Y-13013984D02*
X5338277Y-12813984D01*
X5338277Y-12813984D02*
X5385896Y-12813984D01*
X5385896Y-12813984D02*
X5414467Y-12823508D01*
X5414467Y-12823508D02*
X5433515Y-12842555D01*
X5433515Y-12842555D02*
X5443039Y-12861603D01*
X5443039Y-12861603D02*
X5452563Y-12899698D01*
X5452563Y-12899698D02*
X5452563Y-12928269D01*
X5452563Y-12928269D02*
X5443039Y-12966365D01*
X5443039Y-12966365D02*
X5433515Y-12985412D01*
X5433515Y-12985412D02*
X5414467Y-13004460D01*
X5414467Y-13004460D02*
X5385896Y-13013984D01*
X5385896Y-13013984D02*
X5338277Y-13013984D01*
X5538277Y-13013984D02*
X5538277Y-12880650D01*
X5538277Y-12918746D02*
X5547801Y-12899698D01*
X5547801Y-12899698D02*
X5557324Y-12890174D01*
X5557324Y-12890174D02*
X5576372Y-12880650D01*
X5576372Y-12880650D02*
X5595420Y-12880650D01*
X5662086Y-13013984D02*
X5662086Y-12880650D01*
X5662086Y-12813984D02*
X5652562Y-12823508D01*
X5652562Y-12823508D02*
X5662086Y-12833031D01*
X5662086Y-12833031D02*
X5671610Y-12823508D01*
X5671610Y-12823508D02*
X5662086Y-12813984D01*
X5662086Y-12813984D02*
X5662086Y-12833031D01*
X5785896Y-13013984D02*
X5766848Y-13004460D01*
X5766848Y-13004460D02*
X5757324Y-12985412D01*
X5757324Y-12985412D02*
X5757324Y-12813984D01*
X5890658Y-13013984D02*
X5871610Y-13004460D01*
X5871610Y-13004460D02*
X5862086Y-12985412D01*
X5862086Y-12985412D02*
X5862086Y-12813984D01*
X6119229Y-13013984D02*
X6119229Y-12813984D01*
X6119229Y-12813984D02*
X6185896Y-12956841D01*
X6185896Y-12956841D02*
X6252562Y-12813984D01*
X6252562Y-12813984D02*
X6252562Y-13013984D01*
X6433515Y-13013984D02*
X6433515Y-12909222D01*
X6433515Y-12909222D02*
X6423991Y-12890174D01*
X6423991Y-12890174D02*
X6404943Y-12880650D01*
X6404943Y-12880650D02*
X6366848Y-12880650D01*
X6366848Y-12880650D02*
X6347801Y-12890174D01*
X6433515Y-13004460D02*
X6414467Y-13013984D01*
X6414467Y-13013984D02*
X6366848Y-13013984D01*
X6366848Y-13013984D02*
X6347801Y-13004460D01*
X6347801Y-13004460D02*
X6338277Y-12985412D01*
X6338277Y-12985412D02*
X6338277Y-12966365D01*
X6338277Y-12966365D02*
X6347801Y-12947317D01*
X6347801Y-12947317D02*
X6366848Y-12937793D01*
X6366848Y-12937793D02*
X6414467Y-12937793D01*
X6414467Y-12937793D02*
X6433515Y-12928269D01*
X6528753Y-12880650D02*
X6528753Y-13080650D01*
X6528753Y-12890174D02*
X6547801Y-12880650D01*
X6547801Y-12880650D02*
X6585896Y-12880650D01*
X6585896Y-12880650D02*
X6604943Y-12890174D01*
X6604943Y-12890174D02*
X6614467Y-12899698D01*
X6614467Y-12899698D02*
X6623991Y-12918746D01*
X6623991Y-12918746D02*
X6623991Y-12975888D01*
X6623991Y-12975888D02*
X6614467Y-12994936D01*
X6614467Y-12994936D02*
X6604943Y-13004460D01*
X6604943Y-13004460D02*
X6585896Y-13013984D01*
X6585896Y-13013984D02*
X6547801Y-13013984D01*
X6547801Y-13013984D02*
X6528753Y-13004460D01*
X6709705Y-12994936D02*
X6719229Y-13004460D01*
X6719229Y-13004460D02*
X6709705Y-13013984D01*
X6709705Y-13013984D02*
X6700182Y-13004460D01*
X6700182Y-13004460D02*
X6709705Y-12994936D01*
X6709705Y-12994936D02*
X6709705Y-13013984D01*
X6709705Y-12890174D02*
X6719229Y-12899698D01*
X6719229Y-12899698D02*
X6709705Y-12909222D01*
X6709705Y-12909222D02*
X6700182Y-12899698D01*
X6700182Y-12899698D02*
X6709705Y-12890174D01*
X6709705Y-12890174D02*
X6709705Y-12909222D01*
M02*
